%TF.GenerationSoftware,KiCad,Pcbnew,(6.0.5-0)*%
%TF.CreationDate,2022-06-13T21:57:41-05:00*%
%TF.ProjectId,ESP32,45535033-322e-46b6-9963-61645f706362,rev?*%
%TF.SameCoordinates,Original*%
%TF.FileFunction,Legend,Top*%
%TF.FilePolarity,Positive*%
%FSLAX46Y46*%
G04 Gerber Fmt 4.6, Leading zero omitted, Abs format (unit mm)*
G04 Created by KiCad (PCBNEW (6.0.5-0)) date 2022-06-13 21:57:41*
%MOMM*%
%LPD*%
G01*
G04 APERTURE LIST*
%ADD10C,0.150000*%
%ADD11C,0.120000*%
G04 APERTURE END LIST*
D10*
%TO.C,U2*%
X177038095Y-115792380D02*
X177038095Y-116601904D01*
X177085714Y-116697142D01*
X177133333Y-116744761D01*
X177228571Y-116792380D01*
X177419047Y-116792380D01*
X177514285Y-116744761D01*
X177561904Y-116697142D01*
X177609523Y-116601904D01*
X177609523Y-115792380D01*
X178038095Y-115887619D02*
X178085714Y-115840000D01*
X178180952Y-115792380D01*
X178419047Y-115792380D01*
X178514285Y-115840000D01*
X178561904Y-115887619D01*
X178609523Y-115982857D01*
X178609523Y-116078095D01*
X178561904Y-116220952D01*
X177990476Y-116792380D01*
X178609523Y-116792380D01*
%TO.C,U1*%
X131082380Y-123491904D02*
X131891904Y-123491904D01*
X131987142Y-123444285D01*
X132034761Y-123396666D01*
X132082380Y-123301428D01*
X132082380Y-123110952D01*
X132034761Y-123015714D01*
X131987142Y-122968095D01*
X131891904Y-122920476D01*
X131082380Y-122920476D01*
X132082380Y-121920476D02*
X132082380Y-122491904D01*
X132082380Y-122206190D02*
X131082380Y-122206190D01*
X131225238Y-122301428D01*
X131320476Y-122396666D01*
X131368095Y-122491904D01*
D11*
%TO.C,U2*%
X185420000Y-109220000D02*
X185420000Y-111760000D01*
X165100000Y-121920000D02*
X165100000Y-106680000D01*
X187960000Y-121920000D02*
X165100000Y-121920000D01*
X187960000Y-106680000D02*
X187960000Y-121920000D01*
X167640000Y-116840000D02*
X167640000Y-119380000D01*
X165100000Y-106680000D02*
X187960000Y-106680000D01*
X185420000Y-109220000D02*
X185420000Y-111760000D01*
X167640000Y-109220000D02*
X167640000Y-111760000D01*
X185420000Y-116840000D02*
X185420000Y-119380000D01*
%TO.C,U1*%
X151360000Y-98435000D02*
X151360000Y-104855000D01*
X133120000Y-98435000D02*
X151360000Y-98435000D01*
X133120000Y-98435000D02*
X133120000Y-104855000D01*
X151360000Y-123400000D02*
X151360000Y-124180000D01*
X151360000Y-124180000D02*
X150360000Y-124180000D01*
X133120000Y-104855000D02*
X132740000Y-104855000D01*
X133120000Y-123400000D02*
X133120000Y-124180000D01*
X133120000Y-124180000D02*
X134120000Y-124180000D01*
%TD*%
M02*
