%TF.GenerationSoftware,KiCad,Pcbnew,(6.0.5-0)*%
%TF.CreationDate,2022-06-13T21:57:41-05:00*%
%TF.ProjectId,ESP32,45535033-322e-46b6-9963-61645f706362,rev?*%
%TF.SameCoordinates,Original*%
%TF.FileFunction,Copper,L1,Top*%
%TF.FilePolarity,Positive*%
%FSLAX46Y46*%
G04 Gerber Fmt 4.6, Leading zero omitted, Abs format (unit mm)*
G04 Created by KiCad (PCBNEW (6.0.5-0)) date 2022-06-13 21:57:41*
%MOMM*%
%LPD*%
G01*
G04 APERTURE LIST*
%TA.AperFunction,NonConductor*%
%ADD10C,0.200000*%
%TD*%
%TA.AperFunction,ComponentPad*%
%ADD11C,1.524000*%
%TD*%
%TA.AperFunction,SMDPad,CuDef*%
%ADD12R,2.000000X0.900000*%
%TD*%
%TA.AperFunction,SMDPad,CuDef*%
%ADD13R,0.900000X2.000000*%
%TD*%
%TA.AperFunction,SMDPad,CuDef*%
%ADD14R,5.000000X5.000000*%
%TD*%
G04 APERTURE END LIST*
D10*
X121920000Y-88900000D02*
X190500000Y-88900000D01*
X190500000Y-88900000D02*
X190500000Y-129540000D01*
X190500000Y-129540000D02*
X121920000Y-129540000D01*
X121920000Y-129540000D02*
X121920000Y-88900000D01*
D11*
%TO.P,U2,4,5v-*%
%TO.N,Net-(U1-Pad1)*%
X185420000Y-116840000D03*
X185420000Y-119380000D03*
%TO.P,U2,3,5v*%
%TO.N,Net-(U1-Pad2)*%
X185420000Y-111760000D03*
X185420000Y-109220000D03*
%TO.P,U2,2,IN-*%
%TO.N,unconnected-(U2-Pad2)*%
X167640000Y-116840000D03*
X167640000Y-119380000D03*
%TO.P,U2,1,IN+*%
%TO.N,unconnected-(U2-Pad1)*%
X167640000Y-111760000D03*
X167640000Y-109220000D03*
%TD*%
D12*
%TO.P,U1,1,GND*%
%TO.N,Net-(U1-Pad1)*%
X133740000Y-106045000D03*
%TO.P,U1,2,VDD*%
%TO.N,Net-(U1-Pad2)*%
X133740000Y-107315000D03*
%TO.P,U1,3,EN*%
%TO.N,unconnected-(U1-Pad3)*%
X133740000Y-108585000D03*
%TO.P,U1,4,SENSOR_VP*%
%TO.N,unconnected-(U1-Pad4)*%
X133740000Y-109855000D03*
%TO.P,U1,5,SENSOR_VN*%
%TO.N,unconnected-(U1-Pad5)*%
X133740000Y-111125000D03*
%TO.P,U1,6,IO34*%
%TO.N,unconnected-(U1-Pad6)*%
X133740000Y-112395000D03*
%TO.P,U1,7,IO35*%
%TO.N,unconnected-(U1-Pad7)*%
X133740000Y-113665000D03*
%TO.P,U1,8,IO32*%
%TO.N,unconnected-(U1-Pad8)*%
X133740000Y-114935000D03*
%TO.P,U1,9,IO33*%
%TO.N,unconnected-(U1-Pad9)*%
X133740000Y-116205000D03*
%TO.P,U1,10,IO25*%
%TO.N,unconnected-(U1-Pad10)*%
X133740000Y-117475000D03*
%TO.P,U1,11,IO26*%
%TO.N,Net-(R1-Pad1)*%
X133740000Y-118745000D03*
%TO.P,U1,12,IO27*%
%TO.N,unconnected-(U1-Pad12)*%
X133740000Y-120015000D03*
%TO.P,U1,13,IO14*%
%TO.N,unconnected-(U1-Pad13)*%
X133740000Y-121285000D03*
%TO.P,U1,14,IO12*%
%TO.N,unconnected-(U1-Pad14)*%
X133740000Y-122555000D03*
D13*
%TO.P,U1,15,GND*%
%TO.N,Net-(U1-Pad1)*%
X136525000Y-123555000D03*
%TO.P,U1,16,IO13*%
%TO.N,unconnected-(U1-Pad16)*%
X137795000Y-123555000D03*
%TO.P,U1,17,SHD/SD2*%
%TO.N,unconnected-(U1-Pad17)*%
X139065000Y-123555000D03*
%TO.P,U1,18,SWP/SD3*%
%TO.N,unconnected-(U1-Pad18)*%
X140335000Y-123555000D03*
%TO.P,U1,19,SCS/CMD*%
%TO.N,unconnected-(U1-Pad19)*%
X141605000Y-123555000D03*
%TO.P,U1,20,SCK/CLK*%
%TO.N,unconnected-(U1-Pad20)*%
X142875000Y-123555000D03*
%TO.P,U1,21,SDO/SD0*%
%TO.N,unconnected-(U1-Pad21)*%
X144145000Y-123555000D03*
%TO.P,U1,22,SDI/SD1*%
%TO.N,unconnected-(U1-Pad22)*%
X145415000Y-123555000D03*
%TO.P,U1,23,IO15*%
%TO.N,unconnected-(U1-Pad23)*%
X146685000Y-123555000D03*
%TO.P,U1,24,IO2*%
%TO.N,unconnected-(U1-Pad24)*%
X147955000Y-123555000D03*
D12*
%TO.P,U1,25,IO0*%
%TO.N,unconnected-(U1-Pad25)*%
X150740000Y-122555000D03*
%TO.P,U1,26,IO4*%
%TO.N,unconnected-(U1-Pad26)*%
X150740000Y-121285000D03*
%TO.P,U1,27,IO16*%
%TO.N,unconnected-(U1-Pad27)*%
X150740000Y-120015000D03*
%TO.P,U1,28,IO17*%
%TO.N,unconnected-(U1-Pad28)*%
X150740000Y-118745000D03*
%TO.P,U1,29,IO5*%
%TO.N,unconnected-(U1-Pad29)*%
X150740000Y-117475000D03*
%TO.P,U1,30,IO18*%
%TO.N,unconnected-(U1-Pad30)*%
X150740000Y-116205000D03*
%TO.P,U1,31,IO19*%
%TO.N,unconnected-(U1-Pad31)*%
X150740000Y-114935000D03*
%TO.P,U1,32,NC*%
%TO.N,unconnected-(U1-Pad32)*%
X150740000Y-113665000D03*
%TO.P,U1,33,IO21*%
%TO.N,unconnected-(U1-Pad33)*%
X150740000Y-112395000D03*
%TO.P,U1,34,RXD0/IO3*%
%TO.N,unconnected-(U1-Pad34)*%
X150740000Y-111125000D03*
%TO.P,U1,35,TXD0/IO1*%
%TO.N,unconnected-(U1-Pad35)*%
X150740000Y-109855000D03*
%TO.P,U1,36,IO22*%
%TO.N,unconnected-(U1-Pad36)*%
X150740000Y-108585000D03*
%TO.P,U1,37,IO23*%
%TO.N,unconnected-(U1-Pad37)*%
X150740000Y-107315000D03*
%TO.P,U1,38,GND*%
%TO.N,Net-(U1-Pad1)*%
X150740000Y-106045000D03*
D14*
%TO.P,U1,39,GND*%
X141240000Y-113545000D03*
%TD*%
M02*
