%FSLAX45Y45*%
G04 Gerber Fmt 4.5, Leading zero omitted, Abs format (unit mm)*
G04 Created by KiCad (PCBNEW (6.0.5-0)) date 2022-06-13 22:41:15*
%MOMM*%
%LPD*%
G01*
G04 APERTURE LIST*
%TA.AperFunction,Profile*%
%ADD10C,0.100000*%
%TD*%
%ADD11C,0.200000*%
%ADD12C,0.076200*%
G04 APERTURE END LIST*
D10*
X12446000Y-8890000D02*
X19304000Y-8890000D01*
X19304000Y-8890000D02*
X19304000Y-12954000D01*
X19304000Y-12954000D02*
X12446000Y-12954000D01*
X12446000Y-12954000D02*
X12446000Y-8890000D01*
D11*
D12*
X16725900Y-10883900D02*
X16802100Y-10960100D01*
X16802100Y-10883900D02*
X16725900Y-10960100D01*
X16725900Y-11137900D02*
X16802100Y-11214100D01*
X16802100Y-11137900D02*
X16725900Y-11214100D01*
X16725900Y-11645900D02*
X16802100Y-11722100D01*
X16802100Y-11645900D02*
X16725900Y-11722100D01*
X16725900Y-11899900D02*
X16802100Y-11976100D01*
X16802100Y-11899900D02*
X16725900Y-11976100D01*
X18503900Y-10883900D02*
X18580100Y-10960100D01*
X18580100Y-10883900D02*
X18503900Y-10960100D01*
X18503900Y-11137900D02*
X18580100Y-11214100D01*
X18580100Y-11137900D02*
X18503900Y-11214100D01*
X18503900Y-11645900D02*
X18580100Y-11722100D01*
X18580100Y-11645900D02*
X18503900Y-11722100D01*
X18503900Y-11899900D02*
X18580100Y-11976100D01*
X18580100Y-11899900D02*
X18503900Y-11976100D01*
D11*
X12698619Y-13269476D02*
X12698619Y-13069476D01*
X12746238Y-13069476D01*
X12774809Y-13079000D01*
X12793857Y-13098048D01*
X12803381Y-13117095D01*
X12812905Y-13155190D01*
X12812905Y-13183762D01*
X12803381Y-13221857D01*
X12793857Y-13240905D01*
X12774809Y-13259952D01*
X12746238Y-13269476D01*
X12698619Y-13269476D01*
X12898619Y-13269476D02*
X12898619Y-13136143D01*
X12898619Y-13174238D02*
X12908143Y-13155190D01*
X12917667Y-13145667D01*
X12936714Y-13136143D01*
X12955762Y-13136143D01*
X13022428Y-13269476D02*
X13022428Y-13136143D01*
X13022428Y-13069476D02*
X13012905Y-13079000D01*
X13022428Y-13088524D01*
X13031952Y-13079000D01*
X13022428Y-13069476D01*
X13022428Y-13088524D01*
X13146238Y-13269476D02*
X13127190Y-13259952D01*
X13117667Y-13240905D01*
X13117667Y-13069476D01*
X13251000Y-13269476D02*
X13231952Y-13259952D01*
X13222428Y-13240905D01*
X13222428Y-13069476D01*
X13479571Y-13269476D02*
X13479571Y-13069476D01*
X13546238Y-13212333D01*
X13612905Y-13069476D01*
X13612905Y-13269476D01*
X13793857Y-13269476D02*
X13793857Y-13164714D01*
X13784333Y-13145667D01*
X13765286Y-13136143D01*
X13727190Y-13136143D01*
X13708143Y-13145667D01*
X13793857Y-13259952D02*
X13774809Y-13269476D01*
X13727190Y-13269476D01*
X13708143Y-13259952D01*
X13698619Y-13240905D01*
X13698619Y-13221857D01*
X13708143Y-13202809D01*
X13727190Y-13193286D01*
X13774809Y-13193286D01*
X13793857Y-13183762D01*
X13889095Y-13136143D02*
X13889095Y-13336143D01*
X13889095Y-13145667D02*
X13908143Y-13136143D01*
X13946238Y-13136143D01*
X13965286Y-13145667D01*
X13974809Y-13155190D01*
X13984333Y-13174238D01*
X13984333Y-13231381D01*
X13974809Y-13250428D01*
X13965286Y-13259952D01*
X13946238Y-13269476D01*
X13908143Y-13269476D01*
X13889095Y-13259952D01*
X14070048Y-13250428D02*
X14079571Y-13259952D01*
X14070048Y-13269476D01*
X14060524Y-13259952D01*
X14070048Y-13250428D01*
X14070048Y-13269476D01*
X14070048Y-13145667D02*
X14079571Y-13155190D01*
X14070048Y-13164714D01*
X14060524Y-13155190D01*
X14070048Y-13145667D01*
X14070048Y-13164714D01*
D12*
X12364800Y-13560900D02*
X12441000Y-13637100D01*
X12441000Y-13560900D02*
X12364800Y-13637100D01*
D11*
X12736714Y-13489476D02*
X12755762Y-13489476D01*
X12774809Y-13499000D01*
X12784333Y-13508524D01*
X12793857Y-13527571D01*
X12803381Y-13565667D01*
X12803381Y-13613286D01*
X12793857Y-13651381D01*
X12784333Y-13670428D01*
X12774809Y-13679952D01*
X12755762Y-13689476D01*
X12736714Y-13689476D01*
X12717667Y-13679952D01*
X12708143Y-13670428D01*
X12698619Y-13651381D01*
X12689095Y-13613286D01*
X12689095Y-13565667D01*
X12698619Y-13527571D01*
X12708143Y-13508524D01*
X12717667Y-13499000D01*
X12736714Y-13489476D01*
X12889095Y-13670428D02*
X12898619Y-13679952D01*
X12889095Y-13689476D01*
X12879571Y-13679952D01*
X12889095Y-13670428D01*
X12889095Y-13689476D01*
X12965286Y-13489476D02*
X13098619Y-13489476D01*
X13012905Y-13689476D01*
X13260524Y-13489476D02*
X13222428Y-13489476D01*
X13203381Y-13499000D01*
X13193857Y-13508524D01*
X13174809Y-13537095D01*
X13165286Y-13575190D01*
X13165286Y-13651381D01*
X13174809Y-13670428D01*
X13184333Y-13679952D01*
X13203381Y-13689476D01*
X13241476Y-13689476D01*
X13260524Y-13679952D01*
X13270048Y-13670428D01*
X13279571Y-13651381D01*
X13279571Y-13603762D01*
X13270048Y-13584714D01*
X13260524Y-13575190D01*
X13241476Y-13565667D01*
X13203381Y-13565667D01*
X13184333Y-13575190D01*
X13174809Y-13584714D01*
X13165286Y-13603762D01*
X13355762Y-13508524D02*
X13365286Y-13499000D01*
X13384333Y-13489476D01*
X13431952Y-13489476D01*
X13451000Y-13499000D01*
X13460524Y-13508524D01*
X13470048Y-13527571D01*
X13470048Y-13546619D01*
X13460524Y-13575190D01*
X13346238Y-13689476D01*
X13470048Y-13689476D01*
X13555762Y-13689476D02*
X13555762Y-13556143D01*
X13555762Y-13575190D02*
X13565286Y-13565667D01*
X13584333Y-13556143D01*
X13612905Y-13556143D01*
X13631952Y-13565667D01*
X13641476Y-13584714D01*
X13641476Y-13689476D01*
X13641476Y-13584714D02*
X13651000Y-13565667D01*
X13670048Y-13556143D01*
X13698619Y-13556143D01*
X13717667Y-13565667D01*
X13727190Y-13584714D01*
X13727190Y-13689476D01*
X13822428Y-13689476D02*
X13822428Y-13556143D01*
X13822428Y-13575190D02*
X13831952Y-13565667D01*
X13851000Y-13556143D01*
X13879571Y-13556143D01*
X13898619Y-13565667D01*
X13908143Y-13584714D01*
X13908143Y-13689476D01*
X13908143Y-13584714D02*
X13917667Y-13565667D01*
X13936714Y-13556143D01*
X13965286Y-13556143D01*
X13984333Y-13565667D01*
X13993857Y-13584714D01*
X13993857Y-13689476D01*
X14384333Y-13479952D02*
X14212905Y-13737095D01*
X14641476Y-13489476D02*
X14660524Y-13489476D01*
X14679571Y-13499000D01*
X14689095Y-13508524D01*
X14698619Y-13527571D01*
X14708143Y-13565667D01*
X14708143Y-13613286D01*
X14698619Y-13651381D01*
X14689095Y-13670428D01*
X14679571Y-13679952D01*
X14660524Y-13689476D01*
X14641476Y-13689476D01*
X14622428Y-13679952D01*
X14612905Y-13670428D01*
X14603381Y-13651381D01*
X14593857Y-13613286D01*
X14593857Y-13565667D01*
X14603381Y-13527571D01*
X14612905Y-13508524D01*
X14622428Y-13499000D01*
X14641476Y-13489476D01*
X14793857Y-13670428D02*
X14803381Y-13679952D01*
X14793857Y-13689476D01*
X14784333Y-13679952D01*
X14793857Y-13670428D01*
X14793857Y-13689476D01*
X14927190Y-13489476D02*
X14946238Y-13489476D01*
X14965286Y-13499000D01*
X14974809Y-13508524D01*
X14984333Y-13527571D01*
X14993857Y-13565667D01*
X14993857Y-13613286D01*
X14984333Y-13651381D01*
X14974809Y-13670428D01*
X14965286Y-13679952D01*
X14946238Y-13689476D01*
X14927190Y-13689476D01*
X14908143Y-13679952D01*
X14898619Y-13670428D01*
X14889095Y-13651381D01*
X14879571Y-13613286D01*
X14879571Y-13565667D01*
X14889095Y-13527571D01*
X14898619Y-13508524D01*
X14908143Y-13499000D01*
X14927190Y-13489476D01*
X15060524Y-13489476D02*
X15184333Y-13489476D01*
X15117667Y-13565667D01*
X15146238Y-13565667D01*
X15165286Y-13575190D01*
X15174809Y-13584714D01*
X15184333Y-13603762D01*
X15184333Y-13651381D01*
X15174809Y-13670428D01*
X15165286Y-13679952D01*
X15146238Y-13689476D01*
X15089095Y-13689476D01*
X15070048Y-13679952D01*
X15060524Y-13670428D01*
X15308143Y-13489476D02*
X15327190Y-13489476D01*
X15346238Y-13499000D01*
X15355762Y-13508524D01*
X15365286Y-13527571D01*
X15374809Y-13565667D01*
X15374809Y-13613286D01*
X15365286Y-13651381D01*
X15355762Y-13670428D01*
X15346238Y-13679952D01*
X15327190Y-13689476D01*
X15308143Y-13689476D01*
X15289095Y-13679952D01*
X15279571Y-13670428D01*
X15270048Y-13651381D01*
X15260524Y-13613286D01*
X15260524Y-13565667D01*
X15270048Y-13527571D01*
X15279571Y-13508524D01*
X15289095Y-13499000D01*
X15308143Y-13489476D01*
X15498619Y-13489476D02*
X15517667Y-13489476D01*
X15536714Y-13499000D01*
X15546238Y-13508524D01*
X15555762Y-13527571D01*
X15565286Y-13565667D01*
X15565286Y-13613286D01*
X15555762Y-13651381D01*
X15546238Y-13670428D01*
X15536714Y-13679952D01*
X15517667Y-13689476D01*
X15498619Y-13689476D01*
X15479571Y-13679952D01*
X15470048Y-13670428D01*
X15460524Y-13651381D01*
X15451000Y-13613286D01*
X15451000Y-13565667D01*
X15460524Y-13527571D01*
X15470048Y-13508524D01*
X15479571Y-13499000D01*
X15498619Y-13489476D01*
X15641476Y-13489476D02*
X15641476Y-13527571D01*
X15717667Y-13489476D02*
X15717667Y-13527571D01*
X16012905Y-13765667D02*
X16003381Y-13756143D01*
X15984333Y-13727571D01*
X15974809Y-13708524D01*
X15965286Y-13679952D01*
X15955762Y-13632333D01*
X15955762Y-13594238D01*
X15965286Y-13546619D01*
X15974809Y-13518048D01*
X15984333Y-13499000D01*
X16003381Y-13470428D01*
X16012905Y-13460905D01*
X16117667Y-13575190D02*
X16098619Y-13565667D01*
X16089095Y-13556143D01*
X16079571Y-13537095D01*
X16079571Y-13527571D01*
X16089095Y-13508524D01*
X16098619Y-13499000D01*
X16117667Y-13489476D01*
X16155762Y-13489476D01*
X16174809Y-13499000D01*
X16184333Y-13508524D01*
X16193857Y-13527571D01*
X16193857Y-13537095D01*
X16184333Y-13556143D01*
X16174809Y-13565667D01*
X16155762Y-13575190D01*
X16117667Y-13575190D01*
X16098619Y-13584714D01*
X16089095Y-13594238D01*
X16079571Y-13613286D01*
X16079571Y-13651381D01*
X16089095Y-13670428D01*
X16098619Y-13679952D01*
X16117667Y-13689476D01*
X16155762Y-13689476D01*
X16174809Y-13679952D01*
X16184333Y-13670428D01*
X16193857Y-13651381D01*
X16193857Y-13613286D01*
X16184333Y-13594238D01*
X16174809Y-13584714D01*
X16155762Y-13575190D01*
X16431952Y-13689476D02*
X16431952Y-13489476D01*
X16517667Y-13689476D02*
X16517667Y-13584714D01*
X16508143Y-13565667D01*
X16489095Y-13556143D01*
X16460524Y-13556143D01*
X16441476Y-13565667D01*
X16431952Y-13575190D01*
X16641476Y-13689476D02*
X16622428Y-13679952D01*
X16612905Y-13670428D01*
X16603381Y-13651381D01*
X16603381Y-13594238D01*
X16612905Y-13575190D01*
X16622428Y-13565667D01*
X16641476Y-13556143D01*
X16670048Y-13556143D01*
X16689095Y-13565667D01*
X16698619Y-13575190D01*
X16708143Y-13594238D01*
X16708143Y-13651381D01*
X16698619Y-13670428D01*
X16689095Y-13679952D01*
X16670048Y-13689476D01*
X16641476Y-13689476D01*
X16822429Y-13689476D02*
X16803381Y-13679952D01*
X16793857Y-13660905D01*
X16793857Y-13489476D01*
X16974810Y-13679952D02*
X16955762Y-13689476D01*
X16917667Y-13689476D01*
X16898619Y-13679952D01*
X16889095Y-13660905D01*
X16889095Y-13584714D01*
X16898619Y-13565667D01*
X16917667Y-13556143D01*
X16955762Y-13556143D01*
X16974810Y-13565667D01*
X16984333Y-13584714D01*
X16984333Y-13603762D01*
X16889095Y-13622809D01*
X17060524Y-13679952D02*
X17079571Y-13689476D01*
X17117667Y-13689476D01*
X17136714Y-13679952D01*
X17146238Y-13660905D01*
X17146238Y-13651381D01*
X17136714Y-13632333D01*
X17117667Y-13622809D01*
X17089095Y-13622809D01*
X17070048Y-13613286D01*
X17060524Y-13594238D01*
X17060524Y-13584714D01*
X17070048Y-13565667D01*
X17089095Y-13556143D01*
X17117667Y-13556143D01*
X17136714Y-13565667D01*
X17212905Y-13765667D02*
X17222429Y-13756143D01*
X17241476Y-13727571D01*
X17251000Y-13708524D01*
X17260524Y-13679952D01*
X17270048Y-13632333D01*
X17270048Y-13594238D01*
X17260524Y-13546619D01*
X17251000Y-13518048D01*
X17241476Y-13499000D01*
X17222429Y-13470428D01*
X17212905Y-13460905D01*
M02*
