%TF.GenerationSoftware,KiCad,Pcbnew,(6.0.5-0)*%
%TF.CreationDate,2022-06-13T22:41:19-05:00*%
%TF.ProjectId,ESP32,45535033-322e-46b6-9963-61645f706362,rev?*%
%TF.SameCoordinates,Original*%
%TF.FileFunction,Soldermask,Top*%
%TF.FilePolarity,Negative*%
%FSLAX46Y46*%
G04 Gerber Fmt 4.6, Leading zero omitted, Abs format (unit mm)*
G04 Created by KiCad (PCBNEW (6.0.5-0)) date 2022-06-13 22:41:19*
%MOMM*%
%LPD*%
G01*
G04 APERTURE LIST*
%ADD10C,1.524000*%
%ADD11R,2.000000X0.900000*%
%ADD12R,0.900000X2.000000*%
%ADD13R,5.000000X5.000000*%
G04 APERTURE END LIST*
D10*
%TO.C,U2*%
X167640000Y-109220000D03*
X167640000Y-111760000D03*
X167640000Y-119380000D03*
X167640000Y-116840000D03*
X185420000Y-109220000D03*
X185420000Y-111760000D03*
X185420000Y-119380000D03*
X185420000Y-116840000D03*
%TD*%
D11*
%TO.C,U1*%
X133740000Y-106045000D03*
X133740000Y-107315000D03*
X133740000Y-108585000D03*
X133740000Y-109855000D03*
X133740000Y-111125000D03*
X133740000Y-112395000D03*
X133740000Y-113665000D03*
X133740000Y-114935000D03*
X133740000Y-116205000D03*
X133740000Y-117475000D03*
X133740000Y-118745000D03*
X133740000Y-120015000D03*
X133740000Y-121285000D03*
X133740000Y-122555000D03*
D12*
X136525000Y-123555000D03*
X137795000Y-123555000D03*
X139065000Y-123555000D03*
X140335000Y-123555000D03*
X141605000Y-123555000D03*
X142875000Y-123555000D03*
X144145000Y-123555000D03*
X145415000Y-123555000D03*
X146685000Y-123555000D03*
X147955000Y-123555000D03*
D11*
X150740000Y-122555000D03*
X150740000Y-121285000D03*
X150740000Y-120015000D03*
X150740000Y-118745000D03*
X150740000Y-117475000D03*
X150740000Y-116205000D03*
X150740000Y-114935000D03*
X150740000Y-113665000D03*
X150740000Y-112395000D03*
X150740000Y-111125000D03*
X150740000Y-109855000D03*
X150740000Y-108585000D03*
X150740000Y-107315000D03*
X150740000Y-106045000D03*
D13*
X141240000Y-113545000D03*
%TD*%
M02*
