M48
; DRILL file {KiCad 6.0.2+dfsg-1} date Thu 23 Jun 2022 10:08:20 AM EDT
; FORMAT={-:-/ absolute / metric / decimal}
; #@! TF.CreationDate,2022-06-23T10:08:20-04:00
; #@! TF.GenerationSoftware,Kicad,Pcbnew,6.0.2+dfsg-1
; #@! TF.FileFunction,Plated,1,2,PTH
FMAT,2
METRIC
; #@! TA.AperFunction,Plated,PTH,ViaDrill
T1C0.400
; #@! TA.AperFunction,Plated,PTH,ComponentDrill
T2C0.762
; #@! TA.AperFunction,Plated,PTH,ComponentDrill
T3C0.800
; #@! TA.AperFunction,Plated,PTH,ComponentDrill
T4C1.000
; #@! TA.AperFunction,Plated,PTH,ComponentDrill
T5C1.100
; #@! TA.AperFunction,Plated,PTH,ComponentDrill
T6C1.520
%
G90
G05
T1
X106.68Y-80.508
X118.206Y-81.28
X129.54Y-81.28
T2
X106.68Y-75.545
X106.68Y-78.085
X106.68Y-83.165
X106.68Y-85.705
X114.3Y-95.155
X116.84Y-95.155
X119.38Y-95.155
X124.46Y-75.545
X124.46Y-78.085
X124.46Y-83.165
X124.46Y-85.705
T3
X71.124Y-60.963
X71.124Y-63.503
X71.124Y-66.043
X71.124Y-68.583
X71.124Y-71.123
X71.124Y-73.663
X71.124Y-76.203
X71.124Y-78.743
X71.124Y-81.283
X71.124Y-83.823
X71.124Y-86.363
X71.124Y-88.903
X71.124Y-91.443
X71.124Y-93.983
X71.124Y-96.523
X71.124Y-99.063
X71.124Y-101.603
X71.124Y-104.143
X71.124Y-106.683
X96.52Y-104.14
X96.52Y-106.68
X96.524Y-60.963
X96.524Y-63.503
X96.524Y-66.043
X96.524Y-68.583
X96.524Y-71.123
X96.524Y-73.663
X96.524Y-76.203
X96.524Y-78.743
X96.524Y-81.283
X96.524Y-83.823
X96.524Y-86.363
X96.524Y-88.903
X96.524Y-91.443
X96.524Y-93.983
X96.524Y-96.523
X96.524Y-99.063
X96.524Y-101.603
X106.68Y-91.44
X106.68Y-96.52
T4
X106.68Y-63.5
X109.18Y-68.5
X111.68Y-63.5
T5
X127.0Y-101.6
X129.54Y-101.6
X132.08Y-101.6
T6
X109.22Y-104.14
X114.3Y-104.14
X116.84Y-60.96
X119.38Y-104.14
X121.92Y-60.96
X129.54Y-60.96
X134.62Y-60.96
X134.62Y-71.12
X134.62Y-76.2
X134.62Y-83.82
X134.62Y-88.9
T0
M30
