%FSLAX45Y45*%
G04 Gerber Fmt 4.5, Leading zero omitted, Abs format (unit mm)*
G04 Created by KiCad (PCBNEW (6.0.5-0)) date 2022-09-06 15:59:47*
%MOMM*%
%LPD*%
G01*
G04 APERTURE LIST*
%TA.AperFunction,Profile*%
%ADD10C,0.200000*%
%TD*%
%ADD11C,0.200000*%
%ADD12C,0.040000*%
%ADD13C,0.070000*%
%ADD14C,0.076200*%
%ADD15C,0.080000*%
%ADD16C,0.100000*%
%ADD17C,0.110000*%
%ADD18C,0.152000*%
G04 APERTURE END LIST*
D10*
X5800000Y-4566920D02*
X14503400Y-4566920D01*
X14503400Y-4566920D02*
X14503400Y-11678920D01*
X14503400Y-11678920D02*
X5800000Y-11678920D01*
X5800000Y-11678920D02*
X5800000Y-4566920D01*
D11*
D12*
X9776780Y-7643180D02*
X9816780Y-7683180D01*
X9816780Y-7643180D02*
X9776780Y-7683180D01*
X9804720Y-8560120D02*
X9844720Y-8600120D01*
X9844720Y-8560120D02*
X9804720Y-8600120D01*
X9837740Y-8786180D02*
X9877740Y-8826180D01*
X9877740Y-8786180D02*
X9837740Y-8826180D01*
X9865680Y-7221540D02*
X9905680Y-7261540D01*
X9905680Y-7221540D02*
X9865680Y-7261540D01*
X9952040Y-7074220D02*
X9992040Y-7114220D01*
X9992040Y-7074220D02*
X9952040Y-7114220D01*
X10101900Y-8801420D02*
X10141900Y-8841420D01*
X10141900Y-8801420D02*
X10101900Y-8841420D01*
X10137460Y-7887020D02*
X10177460Y-7927020D01*
X10177460Y-7887020D02*
X10137460Y-7927020D01*
X10386380Y-8061030D02*
X10426380Y-8101030D01*
X10426380Y-8061030D02*
X10386380Y-8101030D01*
X10665780Y-8433120D02*
X10705780Y-8473120D01*
X10705780Y-8433120D02*
X10665780Y-8473120D01*
X11262680Y-9886000D02*
X11302680Y-9926000D01*
X11302680Y-9886000D02*
X11262680Y-9926000D01*
X11648760Y-6314760D02*
X11688760Y-6354760D01*
X11688760Y-6314760D02*
X11648760Y-6354760D01*
X11656380Y-7760020D02*
X11696380Y-7800020D01*
X11696380Y-7760020D02*
X11656380Y-7800020D01*
X11658920Y-7977170D02*
X11698920Y-8017170D01*
X11698920Y-7977170D02*
X11658920Y-8017170D01*
X11714800Y-5758500D02*
X11754800Y-5798500D01*
X11754800Y-5758500D02*
X11714800Y-5798500D01*
X11867200Y-6987860D02*
X11907200Y-7027860D01*
X11907200Y-6987860D02*
X11867200Y-7027860D01*
X11912920Y-6081080D02*
X11952920Y-6121080D01*
X11952920Y-6081080D02*
X11912920Y-6121080D01*
X12763820Y-7869240D02*
X12803820Y-7909240D01*
X12803820Y-7869240D02*
X12763820Y-7909240D01*
D13*
X10926520Y-7434580D02*
G75*
G03*
X10926520Y-7434580I-35000J0D01*
G01*
X11180520Y-7180580D02*
G75*
G03*
X11180520Y-7180580I-35000J0D01*
G01*
X11434520Y-7434580D02*
G75*
G03*
X11434520Y-7434580I-35000J0D01*
G01*
X12021260Y-7434580D02*
G75*
G03*
X12021260Y-7434580I-35000J0D01*
G01*
X12275260Y-7180580D02*
G75*
G03*
X12275260Y-7180580I-35000J0D01*
G01*
X12529260Y-7434580D02*
G75*
G03*
X12529260Y-7434580I-35000J0D01*
G01*
D14*
X10469880Y-8442960D02*
X10469880Y-8519160D01*
X10431780Y-8481060D02*
X10507980Y-8481060D01*
X10469880Y-8696960D02*
X10469880Y-8773160D01*
X10431780Y-8735060D02*
X10507980Y-8735060D01*
X10469880Y-9458960D02*
X10469880Y-9535160D01*
X10431780Y-9497060D02*
X10507980Y-9497060D01*
X10469880Y-9712960D02*
X10469880Y-9789160D01*
X10431780Y-9751060D02*
X10507980Y-9751060D01*
X12247880Y-8442960D02*
X12247880Y-8519160D01*
X12209780Y-8481060D02*
X12285980Y-8481060D01*
X12247880Y-8696960D02*
X12247880Y-8773160D01*
X12209780Y-8735060D02*
X12285980Y-8735060D01*
X12247880Y-9458960D02*
X12247880Y-9535160D01*
X12209780Y-9497060D02*
X12285980Y-9497060D01*
X12247880Y-9712960D02*
X12247880Y-9789160D01*
X12209780Y-9751060D02*
X12285980Y-9751060D01*
D15*
X6617044Y-9937750D02*
X6617044Y-9881181D01*
X6560475Y-9881181D01*
X6560475Y-9937750D01*
X6617044Y-9937750D01*
X6617044Y-10317750D02*
X6617044Y-10261181D01*
X6560475Y-10261181D01*
X6560475Y-10317750D01*
X6617044Y-10317750D01*
X7267824Y-6124556D02*
X7267824Y-6067987D01*
X7211255Y-6067987D01*
X7211255Y-6124556D01*
X7267824Y-6124556D01*
X7267824Y-6378556D02*
X7267824Y-6321987D01*
X7211255Y-6321987D01*
X7211255Y-6378556D01*
X7267824Y-6378556D01*
X7267824Y-6632556D02*
X7267824Y-6575987D01*
X7211255Y-6575987D01*
X7211255Y-6632556D01*
X7267824Y-6632556D01*
X7267824Y-6886556D02*
X7267824Y-6829987D01*
X7211255Y-6829987D01*
X7211255Y-6886556D01*
X7267824Y-6886556D01*
X7267824Y-7140556D02*
X7267824Y-7083987D01*
X7211255Y-7083987D01*
X7211255Y-7140556D01*
X7267824Y-7140556D01*
X7267824Y-7394556D02*
X7267824Y-7337987D01*
X7211255Y-7337987D01*
X7211255Y-7394556D01*
X7267824Y-7394556D01*
X7267824Y-7648556D02*
X7267824Y-7591987D01*
X7211255Y-7591987D01*
X7211255Y-7648556D01*
X7267824Y-7648556D01*
X7267824Y-7902556D02*
X7267824Y-7845987D01*
X7211255Y-7845987D01*
X7211255Y-7902556D01*
X7267824Y-7902556D01*
X7267824Y-8156556D02*
X7267824Y-8099987D01*
X7211255Y-8099987D01*
X7211255Y-8156556D01*
X7267824Y-8156556D01*
X7267824Y-8410557D02*
X7267824Y-8353987D01*
X7211255Y-8353987D01*
X7211255Y-8410557D01*
X7267824Y-8410557D01*
X7267824Y-8664557D02*
X7267824Y-8607988D01*
X7211255Y-8607988D01*
X7211255Y-8664557D01*
X7267824Y-8664557D01*
X7267824Y-8918557D02*
X7267824Y-8861988D01*
X7211255Y-8861988D01*
X7211255Y-8918557D01*
X7267824Y-8918557D01*
X7267824Y-9172557D02*
X7267824Y-9115988D01*
X7211255Y-9115988D01*
X7211255Y-9172557D01*
X7267824Y-9172557D01*
X7267824Y-9426557D02*
X7267824Y-9369988D01*
X7211255Y-9369988D01*
X7211255Y-9426557D01*
X7267824Y-9426557D01*
X7267824Y-9680557D02*
X7267824Y-9623988D01*
X7211255Y-9623988D01*
X7211255Y-9680557D01*
X7267824Y-9680557D01*
X7267824Y-9934557D02*
X7267824Y-9877988D01*
X7211255Y-9877988D01*
X7211255Y-9934557D01*
X7267824Y-9934557D01*
X7267824Y-10188557D02*
X7267824Y-10131988D01*
X7211255Y-10131988D01*
X7211255Y-10188557D01*
X7267824Y-10188557D01*
X7267824Y-10442557D02*
X7267824Y-10385988D01*
X7211255Y-10385988D01*
X7211255Y-10442557D01*
X7267824Y-10442557D01*
X7267824Y-10696557D02*
X7267824Y-10639988D01*
X7211255Y-10639988D01*
X7211255Y-10696557D01*
X7267824Y-10696557D01*
X9550917Y-10442285D02*
X9550917Y-10385716D01*
X9494348Y-10385716D01*
X9494348Y-10442285D01*
X9550917Y-10442285D01*
X9550917Y-10696285D02*
X9550917Y-10639716D01*
X9494348Y-10639716D01*
X9494348Y-10696285D01*
X9550917Y-10696285D01*
X9551285Y-6124556D02*
X9551285Y-6067987D01*
X9494716Y-6067987D01*
X9494716Y-6124556D01*
X9551285Y-6124556D01*
X9551285Y-6378556D02*
X9551285Y-6321987D01*
X9494716Y-6321987D01*
X9494716Y-6378556D01*
X9551285Y-6378556D01*
X9551285Y-6632556D02*
X9551285Y-6575987D01*
X9494716Y-6575987D01*
X9494716Y-6632556D01*
X9551285Y-6632556D01*
X9551285Y-6886556D02*
X9551285Y-6829987D01*
X9494716Y-6829987D01*
X9494716Y-6886556D01*
X9551285Y-6886556D01*
X9551285Y-7140556D02*
X9551285Y-7083987D01*
X9494716Y-7083987D01*
X9494716Y-7140556D01*
X9551285Y-7140556D01*
X9551285Y-7394556D02*
X9551285Y-7337987D01*
X9494716Y-7337987D01*
X9494716Y-7394556D01*
X9551285Y-7394556D01*
X9551285Y-7648556D02*
X9551285Y-7591987D01*
X9494716Y-7591987D01*
X9494716Y-7648556D01*
X9551285Y-7648556D01*
X9551285Y-7902556D02*
X9551285Y-7845987D01*
X9494716Y-7845987D01*
X9494716Y-7902556D01*
X9551285Y-7902556D01*
X9551285Y-8156556D02*
X9551285Y-8099987D01*
X9494716Y-8099987D01*
X9494716Y-8156556D01*
X9551285Y-8156556D01*
X9551285Y-8410557D02*
X9551285Y-8353987D01*
X9494716Y-8353987D01*
X9494716Y-8410557D01*
X9551285Y-8410557D01*
X9551285Y-8664557D02*
X9551285Y-8607988D01*
X9494716Y-8607988D01*
X9494716Y-8664557D01*
X9551285Y-8664557D01*
X9551285Y-8918557D02*
X9551285Y-8861988D01*
X9494716Y-8861988D01*
X9494716Y-8918557D01*
X9551285Y-8918557D01*
X9551285Y-9172557D02*
X9551285Y-9115988D01*
X9494716Y-9115988D01*
X9494716Y-9172557D01*
X9551285Y-9172557D01*
X9551285Y-9426557D02*
X9551285Y-9369988D01*
X9494716Y-9369988D01*
X9494716Y-9426557D01*
X9551285Y-9426557D01*
X9551285Y-9680557D02*
X9551285Y-9623988D01*
X9494716Y-9623988D01*
X9494716Y-9680557D01*
X9551285Y-9680557D01*
X9551285Y-9934557D02*
X9551285Y-9877988D01*
X9494716Y-9877988D01*
X9494716Y-9934557D01*
X9551285Y-9934557D01*
X9551285Y-10188557D02*
X9551285Y-10131988D01*
X9494716Y-10131988D01*
X9494716Y-10188557D01*
X9551285Y-10188557D01*
X10000325Y-9713305D02*
X10000325Y-9656736D01*
X9943756Y-9656736D01*
X9943756Y-9713305D01*
X10000325Y-9713305D01*
X10000325Y-10729305D02*
X10000325Y-10672736D01*
X9943756Y-10672736D01*
X9943756Y-10729305D01*
X10000325Y-10729305D01*
D16*
X13484860Y-9707080D02*
X13534860Y-9657080D01*
X13484860Y-9607080D01*
X13434860Y-9657080D01*
X13484860Y-9707080D01*
X13484860Y-9961080D02*
X13534860Y-9911080D01*
X13484860Y-9861080D01*
X13434860Y-9911080D01*
X13484860Y-9961080D01*
X13484860Y-10215080D02*
X13534860Y-10165080D01*
X13484860Y-10115080D01*
X13434860Y-10165080D01*
X13484860Y-10215080D01*
D17*
X10127860Y-6689220D02*
X10237860Y-6799220D01*
X10237860Y-6689220D02*
X10127860Y-6799220D01*
X10237860Y-6744220D02*
G75*
G03*
X10237860Y-6744220I-55000J0D01*
G01*
X10381860Y-6689220D02*
X10491860Y-6799220D01*
X10491860Y-6689220D02*
X10381860Y-6799220D01*
X10491860Y-6744220D02*
G75*
G03*
X10491860Y-6744220I-55000J0D01*
G01*
X10635860Y-6689220D02*
X10745860Y-6799220D01*
X10745860Y-6689220D02*
X10635860Y-6799220D01*
X10745860Y-6744220D02*
G75*
G03*
X10745860Y-6744220I-55000J0D01*
G01*
D18*
X10901880Y-10500560D02*
X11053880Y-10652560D01*
X11053880Y-10500560D02*
X10901880Y-10652560D01*
X10977880Y-10500560D02*
X10977880Y-10652560D01*
X10901880Y-10576560D02*
X11053880Y-10576560D01*
X11287960Y-5437070D02*
X11439960Y-5589070D01*
X11439960Y-5437070D02*
X11287960Y-5589070D01*
X11363960Y-5437070D02*
X11363960Y-5589070D01*
X11287960Y-5513070D02*
X11439960Y-5513070D01*
X11409880Y-10500560D02*
X11561880Y-10652560D01*
X11561880Y-10500560D02*
X11409880Y-10652560D01*
X11485880Y-10500560D02*
X11485880Y-10652560D01*
X11409880Y-10576560D02*
X11561880Y-10576560D01*
X11795960Y-5437070D02*
X11947960Y-5589070D01*
X11947960Y-5437070D02*
X11795960Y-5589070D01*
X11871960Y-5437070D02*
X11871960Y-5589070D01*
X11795960Y-5513070D02*
X11947960Y-5513070D01*
X11917880Y-10500560D02*
X12069880Y-10652560D01*
X12069880Y-10500560D02*
X11917880Y-10652560D01*
X11993880Y-10500560D02*
X11993880Y-10652560D01*
X11917880Y-10576560D02*
X12069880Y-10576560D01*
X12363650Y-5437070D02*
X12515650Y-5589070D01*
X12515650Y-5437070D02*
X12363650Y-5589070D01*
X12439650Y-5437070D02*
X12439650Y-5589070D01*
X12363650Y-5513070D02*
X12515650Y-5513070D01*
X12871650Y-5437070D02*
X13023650Y-5589070D01*
X13023650Y-5437070D02*
X12871650Y-5589070D01*
X12947650Y-5437070D02*
X12947650Y-5589070D01*
X12871650Y-5513070D02*
X13023650Y-5513070D01*
X13386000Y-7036000D02*
X13538000Y-7188000D01*
X13538000Y-7036000D02*
X13386000Y-7188000D01*
X13462000Y-7036000D02*
X13462000Y-7188000D01*
X13386000Y-7112000D02*
X13538000Y-7112000D01*
X13386000Y-7544000D02*
X13538000Y-7696000D01*
X13538000Y-7544000D02*
X13386000Y-7696000D01*
X13462000Y-7544000D02*
X13462000Y-7696000D01*
X13386000Y-7620000D02*
X13538000Y-7620000D01*
X13386000Y-8306000D02*
X13538000Y-8458000D01*
X13538000Y-8306000D02*
X13386000Y-8458000D01*
X13462000Y-8306000D02*
X13462000Y-8458000D01*
X13386000Y-8382000D02*
X13538000Y-8382000D01*
X13386000Y-8814000D02*
X13538000Y-8966000D01*
X13538000Y-8814000D02*
X13386000Y-8966000D01*
X13462000Y-8814000D02*
X13462000Y-8966000D01*
X13386000Y-8890000D02*
X13538000Y-8890000D01*
D11*
X6047619Y-11999396D02*
X6047619Y-11799396D01*
X6095238Y-11799396D01*
X6123809Y-11808920D01*
X6142857Y-11827968D01*
X6152381Y-11847015D01*
X6161905Y-11885110D01*
X6161905Y-11913682D01*
X6152381Y-11951777D01*
X6142857Y-11970825D01*
X6123809Y-11989872D01*
X6095238Y-11999396D01*
X6047619Y-11999396D01*
X6247619Y-11999396D02*
X6247619Y-11866063D01*
X6247619Y-11904158D02*
X6257143Y-11885110D01*
X6266667Y-11875587D01*
X6285714Y-11866063D01*
X6304762Y-11866063D01*
X6371428Y-11999396D02*
X6371428Y-11866063D01*
X6371428Y-11799396D02*
X6361905Y-11808920D01*
X6371428Y-11818444D01*
X6380952Y-11808920D01*
X6371428Y-11799396D01*
X6371428Y-11818444D01*
X6495238Y-11999396D02*
X6476190Y-11989872D01*
X6466667Y-11970825D01*
X6466667Y-11799396D01*
X6600000Y-11999396D02*
X6580952Y-11989872D01*
X6571428Y-11970825D01*
X6571428Y-11799396D01*
X6828571Y-11999396D02*
X6828571Y-11799396D01*
X6895238Y-11942253D01*
X6961905Y-11799396D01*
X6961905Y-11999396D01*
X7142857Y-11999396D02*
X7142857Y-11894634D01*
X7133333Y-11875587D01*
X7114286Y-11866063D01*
X7076190Y-11866063D01*
X7057143Y-11875587D01*
X7142857Y-11989872D02*
X7123809Y-11999396D01*
X7076190Y-11999396D01*
X7057143Y-11989872D01*
X7047619Y-11970825D01*
X7047619Y-11951777D01*
X7057143Y-11932729D01*
X7076190Y-11923206D01*
X7123809Y-11923206D01*
X7142857Y-11913682D01*
X7238095Y-11866063D02*
X7238095Y-12066063D01*
X7238095Y-11875587D02*
X7257143Y-11866063D01*
X7295238Y-11866063D01*
X7314286Y-11875587D01*
X7323809Y-11885110D01*
X7333333Y-11904158D01*
X7333333Y-11961301D01*
X7323809Y-11980348D01*
X7314286Y-11989872D01*
X7295238Y-11999396D01*
X7257143Y-11999396D01*
X7238095Y-11989872D01*
X7419048Y-11980348D02*
X7428571Y-11989872D01*
X7419048Y-11999396D01*
X7409524Y-11989872D01*
X7419048Y-11980348D01*
X7419048Y-11999396D01*
X7419048Y-11875587D02*
X7428571Y-11885110D01*
X7419048Y-11894634D01*
X7409524Y-11885110D01*
X7419048Y-11875587D01*
X7419048Y-11894634D01*
D12*
X5750000Y-12308920D02*
X5790000Y-12348920D01*
X5790000Y-12308920D02*
X5750000Y-12348920D01*
D11*
X6085714Y-12219396D02*
X6104762Y-12219396D01*
X6123809Y-12228920D01*
X6133333Y-12238444D01*
X6142857Y-12257491D01*
X6152381Y-12295587D01*
X6152381Y-12343206D01*
X6142857Y-12381301D01*
X6133333Y-12400348D01*
X6123809Y-12409872D01*
X6104762Y-12419396D01*
X6085714Y-12419396D01*
X6066667Y-12409872D01*
X6057143Y-12400348D01*
X6047619Y-12381301D01*
X6038095Y-12343206D01*
X6038095Y-12295587D01*
X6047619Y-12257491D01*
X6057143Y-12238444D01*
X6066667Y-12228920D01*
X6085714Y-12219396D01*
X6238095Y-12400348D02*
X6247619Y-12409872D01*
X6238095Y-12419396D01*
X6228571Y-12409872D01*
X6238095Y-12400348D01*
X6238095Y-12419396D01*
X6419048Y-12286063D02*
X6419048Y-12419396D01*
X6371428Y-12209872D02*
X6323809Y-12352729D01*
X6447619Y-12352729D01*
X6561905Y-12219396D02*
X6580952Y-12219396D01*
X6600000Y-12228920D01*
X6609524Y-12238444D01*
X6619048Y-12257491D01*
X6628571Y-12295587D01*
X6628571Y-12343206D01*
X6619048Y-12381301D01*
X6609524Y-12400348D01*
X6600000Y-12409872D01*
X6580952Y-12419396D01*
X6561905Y-12419396D01*
X6542857Y-12409872D01*
X6533333Y-12400348D01*
X6523809Y-12381301D01*
X6514286Y-12343206D01*
X6514286Y-12295587D01*
X6523809Y-12257491D01*
X6533333Y-12238444D01*
X6542857Y-12228920D01*
X6561905Y-12219396D01*
X6752381Y-12219396D02*
X6771428Y-12219396D01*
X6790476Y-12228920D01*
X6800000Y-12238444D01*
X6809524Y-12257491D01*
X6819048Y-12295587D01*
X6819048Y-12343206D01*
X6809524Y-12381301D01*
X6800000Y-12400348D01*
X6790476Y-12409872D01*
X6771428Y-12419396D01*
X6752381Y-12419396D01*
X6733333Y-12409872D01*
X6723809Y-12400348D01*
X6714286Y-12381301D01*
X6704762Y-12343206D01*
X6704762Y-12295587D01*
X6714286Y-12257491D01*
X6723809Y-12238444D01*
X6733333Y-12228920D01*
X6752381Y-12219396D01*
X6904762Y-12419396D02*
X6904762Y-12286063D01*
X6904762Y-12305110D02*
X6914286Y-12295587D01*
X6933333Y-12286063D01*
X6961905Y-12286063D01*
X6980952Y-12295587D01*
X6990476Y-12314634D01*
X6990476Y-12419396D01*
X6990476Y-12314634D02*
X7000000Y-12295587D01*
X7019048Y-12286063D01*
X7047619Y-12286063D01*
X7066667Y-12295587D01*
X7076190Y-12314634D01*
X7076190Y-12419396D01*
X7171428Y-12419396D02*
X7171428Y-12286063D01*
X7171428Y-12305110D02*
X7180952Y-12295587D01*
X7200000Y-12286063D01*
X7228571Y-12286063D01*
X7247619Y-12295587D01*
X7257143Y-12314634D01*
X7257143Y-12419396D01*
X7257143Y-12314634D02*
X7266667Y-12295587D01*
X7285714Y-12286063D01*
X7314286Y-12286063D01*
X7333333Y-12295587D01*
X7342857Y-12314634D01*
X7342857Y-12419396D01*
X7733333Y-12209872D02*
X7561905Y-12467015D01*
X7990476Y-12219396D02*
X8009524Y-12219396D01*
X8028571Y-12228920D01*
X8038095Y-12238444D01*
X8047619Y-12257491D01*
X8057143Y-12295587D01*
X8057143Y-12343206D01*
X8047619Y-12381301D01*
X8038095Y-12400348D01*
X8028571Y-12409872D01*
X8009524Y-12419396D01*
X7990476Y-12419396D01*
X7971428Y-12409872D01*
X7961905Y-12400348D01*
X7952381Y-12381301D01*
X7942857Y-12343206D01*
X7942857Y-12295587D01*
X7952381Y-12257491D01*
X7961905Y-12238444D01*
X7971428Y-12228920D01*
X7990476Y-12219396D01*
X8142857Y-12400348D02*
X8152381Y-12409872D01*
X8142857Y-12419396D01*
X8133333Y-12409872D01*
X8142857Y-12400348D01*
X8142857Y-12419396D01*
X8276190Y-12219396D02*
X8295238Y-12219396D01*
X8314286Y-12228920D01*
X8323809Y-12238444D01*
X8333333Y-12257491D01*
X8342857Y-12295587D01*
X8342857Y-12343206D01*
X8333333Y-12381301D01*
X8323809Y-12400348D01*
X8314286Y-12409872D01*
X8295238Y-12419396D01*
X8276190Y-12419396D01*
X8257143Y-12409872D01*
X8247619Y-12400348D01*
X8238095Y-12381301D01*
X8228571Y-12343206D01*
X8228571Y-12295587D01*
X8238095Y-12257491D01*
X8247619Y-12238444D01*
X8257143Y-12228920D01*
X8276190Y-12219396D01*
X8533333Y-12419396D02*
X8419048Y-12419396D01*
X8476190Y-12419396D02*
X8476190Y-12219396D01*
X8457143Y-12247968D01*
X8438095Y-12267015D01*
X8419048Y-12276539D01*
X8714286Y-12219396D02*
X8619048Y-12219396D01*
X8609524Y-12314634D01*
X8619048Y-12305110D01*
X8638095Y-12295587D01*
X8685714Y-12295587D01*
X8704762Y-12305110D01*
X8714286Y-12314634D01*
X8723810Y-12333682D01*
X8723810Y-12381301D01*
X8714286Y-12400348D01*
X8704762Y-12409872D01*
X8685714Y-12419396D01*
X8638095Y-12419396D01*
X8619048Y-12409872D01*
X8609524Y-12400348D01*
X8790476Y-12219396D02*
X8923810Y-12219396D01*
X8838095Y-12419396D01*
X8990476Y-12219396D02*
X8990476Y-12257491D01*
X9066667Y-12219396D02*
X9066667Y-12257491D01*
X9361905Y-12495587D02*
X9352381Y-12486063D01*
X9333333Y-12457491D01*
X9323810Y-12438444D01*
X9314286Y-12409872D01*
X9304762Y-12362253D01*
X9304762Y-12324158D01*
X9314286Y-12276539D01*
X9323810Y-12247968D01*
X9333333Y-12228920D01*
X9352381Y-12200348D01*
X9361905Y-12190825D01*
X9542857Y-12419396D02*
X9428571Y-12419396D01*
X9485714Y-12419396D02*
X9485714Y-12219396D01*
X9466667Y-12247968D01*
X9447619Y-12267015D01*
X9428571Y-12276539D01*
X9609524Y-12219396D02*
X9742857Y-12219396D01*
X9657143Y-12419396D01*
X9971429Y-12419396D02*
X9971429Y-12219396D01*
X10057143Y-12419396D02*
X10057143Y-12314634D01*
X10047619Y-12295587D01*
X10028571Y-12286063D01*
X10000000Y-12286063D01*
X9980952Y-12295587D01*
X9971429Y-12305110D01*
X10180952Y-12419396D02*
X10161905Y-12409872D01*
X10152381Y-12400348D01*
X10142857Y-12381301D01*
X10142857Y-12324158D01*
X10152381Y-12305110D01*
X10161905Y-12295587D01*
X10180952Y-12286063D01*
X10209524Y-12286063D01*
X10228571Y-12295587D01*
X10238095Y-12305110D01*
X10247619Y-12324158D01*
X10247619Y-12381301D01*
X10238095Y-12400348D01*
X10228571Y-12409872D01*
X10209524Y-12419396D01*
X10180952Y-12419396D01*
X10361905Y-12419396D02*
X10342857Y-12409872D01*
X10333333Y-12390825D01*
X10333333Y-12219396D01*
X10514286Y-12409872D02*
X10495238Y-12419396D01*
X10457143Y-12419396D01*
X10438095Y-12409872D01*
X10428571Y-12390825D01*
X10428571Y-12314634D01*
X10438095Y-12295587D01*
X10457143Y-12286063D01*
X10495238Y-12286063D01*
X10514286Y-12295587D01*
X10523810Y-12314634D01*
X10523810Y-12333682D01*
X10428571Y-12352729D01*
X10600000Y-12409872D02*
X10619048Y-12419396D01*
X10657143Y-12419396D01*
X10676190Y-12409872D01*
X10685714Y-12390825D01*
X10685714Y-12381301D01*
X10676190Y-12362253D01*
X10657143Y-12352729D01*
X10628571Y-12352729D01*
X10609524Y-12343206D01*
X10600000Y-12324158D01*
X10600000Y-12314634D01*
X10609524Y-12295587D01*
X10628571Y-12286063D01*
X10657143Y-12286063D01*
X10676190Y-12295587D01*
X10752381Y-12495587D02*
X10761905Y-12486063D01*
X10780952Y-12457491D01*
X10790476Y-12438444D01*
X10800000Y-12409872D01*
X10809524Y-12362253D01*
X10809524Y-12324158D01*
X10800000Y-12276539D01*
X10790476Y-12247968D01*
X10780952Y-12228920D01*
X10761905Y-12200348D01*
X10752381Y-12190825D01*
D13*
X5790000Y-12592920D02*
G75*
G03*
X5790000Y-12592920I-35000J0D01*
G01*
D11*
X6085714Y-12483396D02*
X6104762Y-12483396D01*
X6123809Y-12492920D01*
X6133333Y-12502444D01*
X6142857Y-12521491D01*
X6152381Y-12559587D01*
X6152381Y-12607206D01*
X6142857Y-12645301D01*
X6133333Y-12664348D01*
X6123809Y-12673872D01*
X6104762Y-12683396D01*
X6085714Y-12683396D01*
X6066667Y-12673872D01*
X6057143Y-12664348D01*
X6047619Y-12645301D01*
X6038095Y-12607206D01*
X6038095Y-12559587D01*
X6047619Y-12521491D01*
X6057143Y-12502444D01*
X6066667Y-12492920D01*
X6085714Y-12483396D01*
X6238095Y-12664348D02*
X6247619Y-12673872D01*
X6238095Y-12683396D01*
X6228571Y-12673872D01*
X6238095Y-12664348D01*
X6238095Y-12683396D01*
X6314286Y-12483396D02*
X6447619Y-12483396D01*
X6361905Y-12683396D01*
X6561905Y-12483396D02*
X6580952Y-12483396D01*
X6600000Y-12492920D01*
X6609524Y-12502444D01*
X6619048Y-12521491D01*
X6628571Y-12559587D01*
X6628571Y-12607206D01*
X6619048Y-12645301D01*
X6609524Y-12664348D01*
X6600000Y-12673872D01*
X6580952Y-12683396D01*
X6561905Y-12683396D01*
X6542857Y-12673872D01*
X6533333Y-12664348D01*
X6523809Y-12645301D01*
X6514286Y-12607206D01*
X6514286Y-12559587D01*
X6523809Y-12521491D01*
X6533333Y-12502444D01*
X6542857Y-12492920D01*
X6561905Y-12483396D01*
X6752381Y-12483396D02*
X6771428Y-12483396D01*
X6790476Y-12492920D01*
X6800000Y-12502444D01*
X6809524Y-12521491D01*
X6819048Y-12559587D01*
X6819048Y-12607206D01*
X6809524Y-12645301D01*
X6800000Y-12664348D01*
X6790476Y-12673872D01*
X6771428Y-12683396D01*
X6752381Y-12683396D01*
X6733333Y-12673872D01*
X6723809Y-12664348D01*
X6714286Y-12645301D01*
X6704762Y-12607206D01*
X6704762Y-12559587D01*
X6714286Y-12521491D01*
X6723809Y-12502444D01*
X6733333Y-12492920D01*
X6752381Y-12483396D01*
X6904762Y-12683396D02*
X6904762Y-12550063D01*
X6904762Y-12569110D02*
X6914286Y-12559587D01*
X6933333Y-12550063D01*
X6961905Y-12550063D01*
X6980952Y-12559587D01*
X6990476Y-12578634D01*
X6990476Y-12683396D01*
X6990476Y-12578634D02*
X7000000Y-12559587D01*
X7019048Y-12550063D01*
X7047619Y-12550063D01*
X7066667Y-12559587D01*
X7076190Y-12578634D01*
X7076190Y-12683396D01*
X7171428Y-12683396D02*
X7171428Y-12550063D01*
X7171428Y-12569110D02*
X7180952Y-12559587D01*
X7200000Y-12550063D01*
X7228571Y-12550063D01*
X7247619Y-12559587D01*
X7257143Y-12578634D01*
X7257143Y-12683396D01*
X7257143Y-12578634D02*
X7266667Y-12559587D01*
X7285714Y-12550063D01*
X7314286Y-12550063D01*
X7333333Y-12559587D01*
X7342857Y-12578634D01*
X7342857Y-12683396D01*
X7733333Y-12473872D02*
X7561905Y-12731015D01*
X7990476Y-12483396D02*
X8009524Y-12483396D01*
X8028571Y-12492920D01*
X8038095Y-12502444D01*
X8047619Y-12521491D01*
X8057143Y-12559587D01*
X8057143Y-12607206D01*
X8047619Y-12645301D01*
X8038095Y-12664348D01*
X8028571Y-12673872D01*
X8009524Y-12683396D01*
X7990476Y-12683396D01*
X7971428Y-12673872D01*
X7961905Y-12664348D01*
X7952381Y-12645301D01*
X7942857Y-12607206D01*
X7942857Y-12559587D01*
X7952381Y-12521491D01*
X7961905Y-12502444D01*
X7971428Y-12492920D01*
X7990476Y-12483396D01*
X8142857Y-12664348D02*
X8152381Y-12673872D01*
X8142857Y-12683396D01*
X8133333Y-12673872D01*
X8142857Y-12664348D01*
X8142857Y-12683396D01*
X8276190Y-12483396D02*
X8295238Y-12483396D01*
X8314286Y-12492920D01*
X8323809Y-12502444D01*
X8333333Y-12521491D01*
X8342857Y-12559587D01*
X8342857Y-12607206D01*
X8333333Y-12645301D01*
X8323809Y-12664348D01*
X8314286Y-12673872D01*
X8295238Y-12683396D01*
X8276190Y-12683396D01*
X8257143Y-12673872D01*
X8247619Y-12664348D01*
X8238095Y-12645301D01*
X8228571Y-12607206D01*
X8228571Y-12559587D01*
X8238095Y-12521491D01*
X8247619Y-12502444D01*
X8257143Y-12492920D01*
X8276190Y-12483396D01*
X8419048Y-12502444D02*
X8428571Y-12492920D01*
X8447619Y-12483396D01*
X8495238Y-12483396D01*
X8514286Y-12492920D01*
X8523810Y-12502444D01*
X8533333Y-12521491D01*
X8533333Y-12540539D01*
X8523810Y-12569110D01*
X8409524Y-12683396D01*
X8533333Y-12683396D01*
X8600000Y-12483396D02*
X8733333Y-12483396D01*
X8647619Y-12683396D01*
X8895238Y-12483396D02*
X8857143Y-12483396D01*
X8838095Y-12492920D01*
X8828571Y-12502444D01*
X8809524Y-12531015D01*
X8800000Y-12569110D01*
X8800000Y-12645301D01*
X8809524Y-12664348D01*
X8819048Y-12673872D01*
X8838095Y-12683396D01*
X8876190Y-12683396D01*
X8895238Y-12673872D01*
X8904762Y-12664348D01*
X8914286Y-12645301D01*
X8914286Y-12597682D01*
X8904762Y-12578634D01*
X8895238Y-12569110D01*
X8876190Y-12559587D01*
X8838095Y-12559587D01*
X8819048Y-12569110D01*
X8809524Y-12578634D01*
X8800000Y-12597682D01*
X8990476Y-12483396D02*
X8990476Y-12521491D01*
X9066667Y-12483396D02*
X9066667Y-12521491D01*
X9361905Y-12759587D02*
X9352381Y-12750063D01*
X9333333Y-12721491D01*
X9323810Y-12702444D01*
X9314286Y-12673872D01*
X9304762Y-12626253D01*
X9304762Y-12588158D01*
X9314286Y-12540539D01*
X9323810Y-12511968D01*
X9333333Y-12492920D01*
X9352381Y-12464348D01*
X9361905Y-12454825D01*
X9523810Y-12483396D02*
X9485714Y-12483396D01*
X9466667Y-12492920D01*
X9457143Y-12502444D01*
X9438095Y-12531015D01*
X9428571Y-12569110D01*
X9428571Y-12645301D01*
X9438095Y-12664348D01*
X9447619Y-12673872D01*
X9466667Y-12683396D01*
X9504762Y-12683396D01*
X9523810Y-12673872D01*
X9533333Y-12664348D01*
X9542857Y-12645301D01*
X9542857Y-12597682D01*
X9533333Y-12578634D01*
X9523810Y-12569110D01*
X9504762Y-12559587D01*
X9466667Y-12559587D01*
X9447619Y-12569110D01*
X9438095Y-12578634D01*
X9428571Y-12597682D01*
X9780952Y-12683396D02*
X9780952Y-12483396D01*
X9866667Y-12683396D02*
X9866667Y-12578634D01*
X9857143Y-12559587D01*
X9838095Y-12550063D01*
X9809524Y-12550063D01*
X9790476Y-12559587D01*
X9780952Y-12569110D01*
X9990476Y-12683396D02*
X9971429Y-12673872D01*
X9961905Y-12664348D01*
X9952381Y-12645301D01*
X9952381Y-12588158D01*
X9961905Y-12569110D01*
X9971429Y-12559587D01*
X9990476Y-12550063D01*
X10019048Y-12550063D01*
X10038095Y-12559587D01*
X10047619Y-12569110D01*
X10057143Y-12588158D01*
X10057143Y-12645301D01*
X10047619Y-12664348D01*
X10038095Y-12673872D01*
X10019048Y-12683396D01*
X9990476Y-12683396D01*
X10171429Y-12683396D02*
X10152381Y-12673872D01*
X10142857Y-12654825D01*
X10142857Y-12483396D01*
X10323810Y-12673872D02*
X10304762Y-12683396D01*
X10266667Y-12683396D01*
X10247619Y-12673872D01*
X10238095Y-12654825D01*
X10238095Y-12578634D01*
X10247619Y-12559587D01*
X10266667Y-12550063D01*
X10304762Y-12550063D01*
X10323810Y-12559587D01*
X10333333Y-12578634D01*
X10333333Y-12597682D01*
X10238095Y-12616729D01*
X10409524Y-12673872D02*
X10428571Y-12683396D01*
X10466667Y-12683396D01*
X10485714Y-12673872D01*
X10495238Y-12654825D01*
X10495238Y-12645301D01*
X10485714Y-12626253D01*
X10466667Y-12616729D01*
X10438095Y-12616729D01*
X10419048Y-12607206D01*
X10409524Y-12588158D01*
X10409524Y-12578634D01*
X10419048Y-12559587D01*
X10438095Y-12550063D01*
X10466667Y-12550063D01*
X10485714Y-12559587D01*
X10561905Y-12759587D02*
X10571429Y-12750063D01*
X10590476Y-12721491D01*
X10600000Y-12702444D01*
X10609524Y-12673872D01*
X10619048Y-12626253D01*
X10619048Y-12588158D01*
X10609524Y-12540539D01*
X10600000Y-12511968D01*
X10590476Y-12492920D01*
X10571429Y-12464348D01*
X10561905Y-12454825D01*
D14*
X5751900Y-12818820D02*
X5751900Y-12895020D01*
X5713800Y-12856920D02*
X5790000Y-12856920D01*
D11*
X6085714Y-12747396D02*
X6104762Y-12747396D01*
X6123809Y-12756920D01*
X6133333Y-12766444D01*
X6142857Y-12785491D01*
X6152381Y-12823587D01*
X6152381Y-12871206D01*
X6142857Y-12909301D01*
X6133333Y-12928348D01*
X6123809Y-12937872D01*
X6104762Y-12947396D01*
X6085714Y-12947396D01*
X6066667Y-12937872D01*
X6057143Y-12928348D01*
X6047619Y-12909301D01*
X6038095Y-12871206D01*
X6038095Y-12823587D01*
X6047619Y-12785491D01*
X6057143Y-12766444D01*
X6066667Y-12756920D01*
X6085714Y-12747396D01*
X6238095Y-12928348D02*
X6247619Y-12937872D01*
X6238095Y-12947396D01*
X6228571Y-12937872D01*
X6238095Y-12928348D01*
X6238095Y-12947396D01*
X6314286Y-12747396D02*
X6447619Y-12747396D01*
X6361905Y-12947396D01*
X6609524Y-12747396D02*
X6571428Y-12747396D01*
X6552381Y-12756920D01*
X6542857Y-12766444D01*
X6523809Y-12795015D01*
X6514286Y-12833110D01*
X6514286Y-12909301D01*
X6523809Y-12928348D01*
X6533333Y-12937872D01*
X6552381Y-12947396D01*
X6590476Y-12947396D01*
X6609524Y-12937872D01*
X6619048Y-12928348D01*
X6628571Y-12909301D01*
X6628571Y-12861682D01*
X6619048Y-12842634D01*
X6609524Y-12833110D01*
X6590476Y-12823587D01*
X6552381Y-12823587D01*
X6533333Y-12833110D01*
X6523809Y-12842634D01*
X6514286Y-12861682D01*
X6704762Y-12766444D02*
X6714286Y-12756920D01*
X6733333Y-12747396D01*
X6780952Y-12747396D01*
X6800000Y-12756920D01*
X6809524Y-12766444D01*
X6819048Y-12785491D01*
X6819048Y-12804539D01*
X6809524Y-12833110D01*
X6695238Y-12947396D01*
X6819048Y-12947396D01*
X6904762Y-12947396D02*
X6904762Y-12814063D01*
X6904762Y-12833110D02*
X6914286Y-12823587D01*
X6933333Y-12814063D01*
X6961905Y-12814063D01*
X6980952Y-12823587D01*
X6990476Y-12842634D01*
X6990476Y-12947396D01*
X6990476Y-12842634D02*
X7000000Y-12823587D01*
X7019048Y-12814063D01*
X7047619Y-12814063D01*
X7066667Y-12823587D01*
X7076190Y-12842634D01*
X7076190Y-12947396D01*
X7171428Y-12947396D02*
X7171428Y-12814063D01*
X7171428Y-12833110D02*
X7180952Y-12823587D01*
X7200000Y-12814063D01*
X7228571Y-12814063D01*
X7247619Y-12823587D01*
X7257143Y-12842634D01*
X7257143Y-12947396D01*
X7257143Y-12842634D02*
X7266667Y-12823587D01*
X7285714Y-12814063D01*
X7314286Y-12814063D01*
X7333333Y-12823587D01*
X7342857Y-12842634D01*
X7342857Y-12947396D01*
X7733333Y-12737872D02*
X7561905Y-12995015D01*
X7990476Y-12747396D02*
X8009524Y-12747396D01*
X8028571Y-12756920D01*
X8038095Y-12766444D01*
X8047619Y-12785491D01*
X8057143Y-12823587D01*
X8057143Y-12871206D01*
X8047619Y-12909301D01*
X8038095Y-12928348D01*
X8028571Y-12937872D01*
X8009524Y-12947396D01*
X7990476Y-12947396D01*
X7971428Y-12937872D01*
X7961905Y-12928348D01*
X7952381Y-12909301D01*
X7942857Y-12871206D01*
X7942857Y-12823587D01*
X7952381Y-12785491D01*
X7961905Y-12766444D01*
X7971428Y-12756920D01*
X7990476Y-12747396D01*
X8142857Y-12928348D02*
X8152381Y-12937872D01*
X8142857Y-12947396D01*
X8133333Y-12937872D01*
X8142857Y-12928348D01*
X8142857Y-12947396D01*
X8276190Y-12747396D02*
X8295238Y-12747396D01*
X8314286Y-12756920D01*
X8323809Y-12766444D01*
X8333333Y-12785491D01*
X8342857Y-12823587D01*
X8342857Y-12871206D01*
X8333333Y-12909301D01*
X8323809Y-12928348D01*
X8314286Y-12937872D01*
X8295238Y-12947396D01*
X8276190Y-12947396D01*
X8257143Y-12937872D01*
X8247619Y-12928348D01*
X8238095Y-12909301D01*
X8228571Y-12871206D01*
X8228571Y-12823587D01*
X8238095Y-12785491D01*
X8247619Y-12766444D01*
X8257143Y-12756920D01*
X8276190Y-12747396D01*
X8409524Y-12747396D02*
X8533333Y-12747396D01*
X8466667Y-12823587D01*
X8495238Y-12823587D01*
X8514286Y-12833110D01*
X8523810Y-12842634D01*
X8533333Y-12861682D01*
X8533333Y-12909301D01*
X8523810Y-12928348D01*
X8514286Y-12937872D01*
X8495238Y-12947396D01*
X8438095Y-12947396D01*
X8419048Y-12937872D01*
X8409524Y-12928348D01*
X8657143Y-12747396D02*
X8676190Y-12747396D01*
X8695238Y-12756920D01*
X8704762Y-12766444D01*
X8714286Y-12785491D01*
X8723810Y-12823587D01*
X8723810Y-12871206D01*
X8714286Y-12909301D01*
X8704762Y-12928348D01*
X8695238Y-12937872D01*
X8676190Y-12947396D01*
X8657143Y-12947396D01*
X8638095Y-12937872D01*
X8628571Y-12928348D01*
X8619048Y-12909301D01*
X8609524Y-12871206D01*
X8609524Y-12823587D01*
X8619048Y-12785491D01*
X8628571Y-12766444D01*
X8638095Y-12756920D01*
X8657143Y-12747396D01*
X8847619Y-12747396D02*
X8866667Y-12747396D01*
X8885714Y-12756920D01*
X8895238Y-12766444D01*
X8904762Y-12785491D01*
X8914286Y-12823587D01*
X8914286Y-12871206D01*
X8904762Y-12909301D01*
X8895238Y-12928348D01*
X8885714Y-12937872D01*
X8866667Y-12947396D01*
X8847619Y-12947396D01*
X8828571Y-12937872D01*
X8819048Y-12928348D01*
X8809524Y-12909301D01*
X8800000Y-12871206D01*
X8800000Y-12823587D01*
X8809524Y-12785491D01*
X8819048Y-12766444D01*
X8828571Y-12756920D01*
X8847619Y-12747396D01*
X8990476Y-12747396D02*
X8990476Y-12785491D01*
X9066667Y-12747396D02*
X9066667Y-12785491D01*
X9361905Y-13023587D02*
X9352381Y-13014063D01*
X9333333Y-12985491D01*
X9323810Y-12966444D01*
X9314286Y-12937872D01*
X9304762Y-12890253D01*
X9304762Y-12852158D01*
X9314286Y-12804539D01*
X9323810Y-12775968D01*
X9333333Y-12756920D01*
X9352381Y-12728348D01*
X9361905Y-12718825D01*
X9466667Y-12833110D02*
X9447619Y-12823587D01*
X9438095Y-12814063D01*
X9428571Y-12795015D01*
X9428571Y-12785491D01*
X9438095Y-12766444D01*
X9447619Y-12756920D01*
X9466667Y-12747396D01*
X9504762Y-12747396D01*
X9523810Y-12756920D01*
X9533333Y-12766444D01*
X9542857Y-12785491D01*
X9542857Y-12795015D01*
X9533333Y-12814063D01*
X9523810Y-12823587D01*
X9504762Y-12833110D01*
X9466667Y-12833110D01*
X9447619Y-12842634D01*
X9438095Y-12852158D01*
X9428571Y-12871206D01*
X9428571Y-12909301D01*
X9438095Y-12928348D01*
X9447619Y-12937872D01*
X9466667Y-12947396D01*
X9504762Y-12947396D01*
X9523810Y-12937872D01*
X9533333Y-12928348D01*
X9542857Y-12909301D01*
X9542857Y-12871206D01*
X9533333Y-12852158D01*
X9523810Y-12842634D01*
X9504762Y-12833110D01*
X9780952Y-12947396D02*
X9780952Y-12747396D01*
X9866667Y-12947396D02*
X9866667Y-12842634D01*
X9857143Y-12823587D01*
X9838095Y-12814063D01*
X9809524Y-12814063D01*
X9790476Y-12823587D01*
X9780952Y-12833110D01*
X9990476Y-12947396D02*
X9971429Y-12937872D01*
X9961905Y-12928348D01*
X9952381Y-12909301D01*
X9952381Y-12852158D01*
X9961905Y-12833110D01*
X9971429Y-12823587D01*
X9990476Y-12814063D01*
X10019048Y-12814063D01*
X10038095Y-12823587D01*
X10047619Y-12833110D01*
X10057143Y-12852158D01*
X10057143Y-12909301D01*
X10047619Y-12928348D01*
X10038095Y-12937872D01*
X10019048Y-12947396D01*
X9990476Y-12947396D01*
X10171429Y-12947396D02*
X10152381Y-12937872D01*
X10142857Y-12918825D01*
X10142857Y-12747396D01*
X10323810Y-12937872D02*
X10304762Y-12947396D01*
X10266667Y-12947396D01*
X10247619Y-12937872D01*
X10238095Y-12918825D01*
X10238095Y-12842634D01*
X10247619Y-12823587D01*
X10266667Y-12814063D01*
X10304762Y-12814063D01*
X10323810Y-12823587D01*
X10333333Y-12842634D01*
X10333333Y-12861682D01*
X10238095Y-12880729D01*
X10409524Y-12937872D02*
X10428571Y-12947396D01*
X10466667Y-12947396D01*
X10485714Y-12937872D01*
X10495238Y-12918825D01*
X10495238Y-12909301D01*
X10485714Y-12890253D01*
X10466667Y-12880729D01*
X10438095Y-12880729D01*
X10419048Y-12871206D01*
X10409524Y-12852158D01*
X10409524Y-12842634D01*
X10419048Y-12823587D01*
X10438095Y-12814063D01*
X10466667Y-12814063D01*
X10485714Y-12823587D01*
X10561905Y-13023587D02*
X10571429Y-13014063D01*
X10590476Y-12985491D01*
X10600000Y-12966444D01*
X10609524Y-12937872D01*
X10619048Y-12890253D01*
X10619048Y-12852158D01*
X10609524Y-12804539D01*
X10600000Y-12775968D01*
X10590476Y-12756920D01*
X10571429Y-12728348D01*
X10561905Y-12718825D01*
D15*
X5778284Y-13149204D02*
X5778284Y-13092635D01*
X5721715Y-13092635D01*
X5721715Y-13149204D01*
X5778284Y-13149204D01*
D11*
X6085714Y-13011396D02*
X6104762Y-13011396D01*
X6123809Y-13020920D01*
X6133333Y-13030444D01*
X6142857Y-13049491D01*
X6152381Y-13087587D01*
X6152381Y-13135206D01*
X6142857Y-13173301D01*
X6133333Y-13192348D01*
X6123809Y-13201872D01*
X6104762Y-13211396D01*
X6085714Y-13211396D01*
X6066667Y-13201872D01*
X6057143Y-13192348D01*
X6047619Y-13173301D01*
X6038095Y-13135206D01*
X6038095Y-13087587D01*
X6047619Y-13049491D01*
X6057143Y-13030444D01*
X6066667Y-13020920D01*
X6085714Y-13011396D01*
X6238095Y-13192348D02*
X6247619Y-13201872D01*
X6238095Y-13211396D01*
X6228571Y-13201872D01*
X6238095Y-13192348D01*
X6238095Y-13211396D01*
X6361905Y-13097110D02*
X6342857Y-13087587D01*
X6333333Y-13078063D01*
X6323809Y-13059015D01*
X6323809Y-13049491D01*
X6333333Y-13030444D01*
X6342857Y-13020920D01*
X6361905Y-13011396D01*
X6400000Y-13011396D01*
X6419048Y-13020920D01*
X6428571Y-13030444D01*
X6438095Y-13049491D01*
X6438095Y-13059015D01*
X6428571Y-13078063D01*
X6419048Y-13087587D01*
X6400000Y-13097110D01*
X6361905Y-13097110D01*
X6342857Y-13106634D01*
X6333333Y-13116158D01*
X6323809Y-13135206D01*
X6323809Y-13173301D01*
X6333333Y-13192348D01*
X6342857Y-13201872D01*
X6361905Y-13211396D01*
X6400000Y-13211396D01*
X6419048Y-13201872D01*
X6428571Y-13192348D01*
X6438095Y-13173301D01*
X6438095Y-13135206D01*
X6428571Y-13116158D01*
X6419048Y-13106634D01*
X6400000Y-13097110D01*
X6561905Y-13011396D02*
X6580952Y-13011396D01*
X6600000Y-13020920D01*
X6609524Y-13030444D01*
X6619048Y-13049491D01*
X6628571Y-13087587D01*
X6628571Y-13135206D01*
X6619048Y-13173301D01*
X6609524Y-13192348D01*
X6600000Y-13201872D01*
X6580952Y-13211396D01*
X6561905Y-13211396D01*
X6542857Y-13201872D01*
X6533333Y-13192348D01*
X6523809Y-13173301D01*
X6514286Y-13135206D01*
X6514286Y-13087587D01*
X6523809Y-13049491D01*
X6533333Y-13030444D01*
X6542857Y-13020920D01*
X6561905Y-13011396D01*
X6752381Y-13011396D02*
X6771428Y-13011396D01*
X6790476Y-13020920D01*
X6800000Y-13030444D01*
X6809524Y-13049491D01*
X6819048Y-13087587D01*
X6819048Y-13135206D01*
X6809524Y-13173301D01*
X6800000Y-13192348D01*
X6790476Y-13201872D01*
X6771428Y-13211396D01*
X6752381Y-13211396D01*
X6733333Y-13201872D01*
X6723809Y-13192348D01*
X6714286Y-13173301D01*
X6704762Y-13135206D01*
X6704762Y-13087587D01*
X6714286Y-13049491D01*
X6723809Y-13030444D01*
X6733333Y-13020920D01*
X6752381Y-13011396D01*
X6904762Y-13211396D02*
X6904762Y-13078063D01*
X6904762Y-13097110D02*
X6914286Y-13087587D01*
X6933333Y-13078063D01*
X6961905Y-13078063D01*
X6980952Y-13087587D01*
X6990476Y-13106634D01*
X6990476Y-13211396D01*
X6990476Y-13106634D02*
X7000000Y-13087587D01*
X7019048Y-13078063D01*
X7047619Y-13078063D01*
X7066667Y-13087587D01*
X7076190Y-13106634D01*
X7076190Y-13211396D01*
X7171428Y-13211396D02*
X7171428Y-13078063D01*
X7171428Y-13097110D02*
X7180952Y-13087587D01*
X7200000Y-13078063D01*
X7228571Y-13078063D01*
X7247619Y-13087587D01*
X7257143Y-13106634D01*
X7257143Y-13211396D01*
X7257143Y-13106634D02*
X7266667Y-13087587D01*
X7285714Y-13078063D01*
X7314286Y-13078063D01*
X7333333Y-13087587D01*
X7342857Y-13106634D01*
X7342857Y-13211396D01*
X7733333Y-13001872D02*
X7561905Y-13259015D01*
X7990476Y-13011396D02*
X8009524Y-13011396D01*
X8028571Y-13020920D01*
X8038095Y-13030444D01*
X8047619Y-13049491D01*
X8057143Y-13087587D01*
X8057143Y-13135206D01*
X8047619Y-13173301D01*
X8038095Y-13192348D01*
X8028571Y-13201872D01*
X8009524Y-13211396D01*
X7990476Y-13211396D01*
X7971428Y-13201872D01*
X7961905Y-13192348D01*
X7952381Y-13173301D01*
X7942857Y-13135206D01*
X7942857Y-13087587D01*
X7952381Y-13049491D01*
X7961905Y-13030444D01*
X7971428Y-13020920D01*
X7990476Y-13011396D01*
X8142857Y-13192348D02*
X8152381Y-13201872D01*
X8142857Y-13211396D01*
X8133333Y-13201872D01*
X8142857Y-13192348D01*
X8142857Y-13211396D01*
X8276190Y-13011396D02*
X8295238Y-13011396D01*
X8314286Y-13020920D01*
X8323809Y-13030444D01*
X8333333Y-13049491D01*
X8342857Y-13087587D01*
X8342857Y-13135206D01*
X8333333Y-13173301D01*
X8323809Y-13192348D01*
X8314286Y-13201872D01*
X8295238Y-13211396D01*
X8276190Y-13211396D01*
X8257143Y-13201872D01*
X8247619Y-13192348D01*
X8238095Y-13173301D01*
X8228571Y-13135206D01*
X8228571Y-13087587D01*
X8238095Y-13049491D01*
X8247619Y-13030444D01*
X8257143Y-13020920D01*
X8276190Y-13011396D01*
X8409524Y-13011396D02*
X8533333Y-13011396D01*
X8466667Y-13087587D01*
X8495238Y-13087587D01*
X8514286Y-13097110D01*
X8523810Y-13106634D01*
X8533333Y-13125682D01*
X8533333Y-13173301D01*
X8523810Y-13192348D01*
X8514286Y-13201872D01*
X8495238Y-13211396D01*
X8438095Y-13211396D01*
X8419048Y-13201872D01*
X8409524Y-13192348D01*
X8723810Y-13211396D02*
X8609524Y-13211396D01*
X8666667Y-13211396D02*
X8666667Y-13011396D01*
X8647619Y-13039968D01*
X8628571Y-13059015D01*
X8609524Y-13068539D01*
X8904762Y-13011396D02*
X8809524Y-13011396D01*
X8800000Y-13106634D01*
X8809524Y-13097110D01*
X8828571Y-13087587D01*
X8876190Y-13087587D01*
X8895238Y-13097110D01*
X8904762Y-13106634D01*
X8914286Y-13125682D01*
X8914286Y-13173301D01*
X8904762Y-13192348D01*
X8895238Y-13201872D01*
X8876190Y-13211396D01*
X8828571Y-13211396D01*
X8809524Y-13201872D01*
X8800000Y-13192348D01*
X8990476Y-13011396D02*
X8990476Y-13049491D01*
X9066667Y-13011396D02*
X9066667Y-13049491D01*
X9361905Y-13287587D02*
X9352381Y-13278063D01*
X9333333Y-13249491D01*
X9323810Y-13230444D01*
X9314286Y-13201872D01*
X9304762Y-13154253D01*
X9304762Y-13116158D01*
X9314286Y-13068539D01*
X9323810Y-13039968D01*
X9333333Y-13020920D01*
X9352381Y-12992348D01*
X9361905Y-12982825D01*
X9523810Y-13078063D02*
X9523810Y-13211396D01*
X9476190Y-13001872D02*
X9428571Y-13144729D01*
X9552381Y-13144729D01*
X9619048Y-13030444D02*
X9628571Y-13020920D01*
X9647619Y-13011396D01*
X9695238Y-13011396D01*
X9714286Y-13020920D01*
X9723810Y-13030444D01*
X9733333Y-13049491D01*
X9733333Y-13068539D01*
X9723810Y-13097110D01*
X9609524Y-13211396D01*
X9733333Y-13211396D01*
X9971429Y-13211396D02*
X9971429Y-13011396D01*
X10057143Y-13211396D02*
X10057143Y-13106634D01*
X10047619Y-13087587D01*
X10028571Y-13078063D01*
X10000000Y-13078063D01*
X9980952Y-13087587D01*
X9971429Y-13097110D01*
X10180952Y-13211396D02*
X10161905Y-13201872D01*
X10152381Y-13192348D01*
X10142857Y-13173301D01*
X10142857Y-13116158D01*
X10152381Y-13097110D01*
X10161905Y-13087587D01*
X10180952Y-13078063D01*
X10209524Y-13078063D01*
X10228571Y-13087587D01*
X10238095Y-13097110D01*
X10247619Y-13116158D01*
X10247619Y-13173301D01*
X10238095Y-13192348D01*
X10228571Y-13201872D01*
X10209524Y-13211396D01*
X10180952Y-13211396D01*
X10361905Y-13211396D02*
X10342857Y-13201872D01*
X10333333Y-13182825D01*
X10333333Y-13011396D01*
X10514286Y-13201872D02*
X10495238Y-13211396D01*
X10457143Y-13211396D01*
X10438095Y-13201872D01*
X10428571Y-13182825D01*
X10428571Y-13106634D01*
X10438095Y-13087587D01*
X10457143Y-13078063D01*
X10495238Y-13078063D01*
X10514286Y-13087587D01*
X10523810Y-13106634D01*
X10523810Y-13125682D01*
X10428571Y-13144729D01*
X10600000Y-13201872D02*
X10619048Y-13211396D01*
X10657143Y-13211396D01*
X10676190Y-13201872D01*
X10685714Y-13182825D01*
X10685714Y-13173301D01*
X10676190Y-13154253D01*
X10657143Y-13144729D01*
X10628571Y-13144729D01*
X10609524Y-13135206D01*
X10600000Y-13116158D01*
X10600000Y-13106634D01*
X10609524Y-13087587D01*
X10628571Y-13078063D01*
X10657143Y-13078063D01*
X10676190Y-13087587D01*
X10752381Y-13287587D02*
X10761905Y-13278063D01*
X10780952Y-13249491D01*
X10790476Y-13230444D01*
X10800000Y-13201872D01*
X10809524Y-13154253D01*
X10809524Y-13116158D01*
X10800000Y-13068539D01*
X10790476Y-13039968D01*
X10780952Y-13020920D01*
X10761905Y-12992348D01*
X10752381Y-12982825D01*
D16*
X5740000Y-13434920D02*
X5790000Y-13384920D01*
X5740000Y-13334920D01*
X5690000Y-13384920D01*
X5740000Y-13434920D01*
D11*
X6152381Y-13475396D02*
X6038095Y-13475396D01*
X6095238Y-13475396D02*
X6095238Y-13275396D01*
X6076190Y-13303968D01*
X6057143Y-13323015D01*
X6038095Y-13332539D01*
X6238095Y-13456348D02*
X6247619Y-13465872D01*
X6238095Y-13475396D01*
X6228571Y-13465872D01*
X6238095Y-13456348D01*
X6238095Y-13475396D01*
X6371428Y-13275396D02*
X6390476Y-13275396D01*
X6409524Y-13284920D01*
X6419048Y-13294444D01*
X6428571Y-13313491D01*
X6438095Y-13351587D01*
X6438095Y-13399206D01*
X6428571Y-13437301D01*
X6419048Y-13456348D01*
X6409524Y-13465872D01*
X6390476Y-13475396D01*
X6371428Y-13475396D01*
X6352381Y-13465872D01*
X6342857Y-13456348D01*
X6333333Y-13437301D01*
X6323809Y-13399206D01*
X6323809Y-13351587D01*
X6333333Y-13313491D01*
X6342857Y-13294444D01*
X6352381Y-13284920D01*
X6371428Y-13275396D01*
X6561905Y-13275396D02*
X6580952Y-13275396D01*
X6600000Y-13284920D01*
X6609524Y-13294444D01*
X6619048Y-13313491D01*
X6628571Y-13351587D01*
X6628571Y-13399206D01*
X6619048Y-13437301D01*
X6609524Y-13456348D01*
X6600000Y-13465872D01*
X6580952Y-13475396D01*
X6561905Y-13475396D01*
X6542857Y-13465872D01*
X6533333Y-13456348D01*
X6523809Y-13437301D01*
X6514286Y-13399206D01*
X6514286Y-13351587D01*
X6523809Y-13313491D01*
X6533333Y-13294444D01*
X6542857Y-13284920D01*
X6561905Y-13275396D01*
X6752381Y-13275396D02*
X6771428Y-13275396D01*
X6790476Y-13284920D01*
X6800000Y-13294444D01*
X6809524Y-13313491D01*
X6819048Y-13351587D01*
X6819048Y-13399206D01*
X6809524Y-13437301D01*
X6800000Y-13456348D01*
X6790476Y-13465872D01*
X6771428Y-13475396D01*
X6752381Y-13475396D01*
X6733333Y-13465872D01*
X6723809Y-13456348D01*
X6714286Y-13437301D01*
X6704762Y-13399206D01*
X6704762Y-13351587D01*
X6714286Y-13313491D01*
X6723809Y-13294444D01*
X6733333Y-13284920D01*
X6752381Y-13275396D01*
X6904762Y-13475396D02*
X6904762Y-13342063D01*
X6904762Y-13361110D02*
X6914286Y-13351587D01*
X6933333Y-13342063D01*
X6961905Y-13342063D01*
X6980952Y-13351587D01*
X6990476Y-13370634D01*
X6990476Y-13475396D01*
X6990476Y-13370634D02*
X7000000Y-13351587D01*
X7019048Y-13342063D01*
X7047619Y-13342063D01*
X7066667Y-13351587D01*
X7076190Y-13370634D01*
X7076190Y-13475396D01*
X7171428Y-13475396D02*
X7171428Y-13342063D01*
X7171428Y-13361110D02*
X7180952Y-13351587D01*
X7200000Y-13342063D01*
X7228571Y-13342063D01*
X7247619Y-13351587D01*
X7257143Y-13370634D01*
X7257143Y-13475396D01*
X7257143Y-13370634D02*
X7266667Y-13351587D01*
X7285714Y-13342063D01*
X7314286Y-13342063D01*
X7333333Y-13351587D01*
X7342857Y-13370634D01*
X7342857Y-13475396D01*
X7733333Y-13265872D02*
X7561905Y-13523015D01*
X7990476Y-13275396D02*
X8009524Y-13275396D01*
X8028571Y-13284920D01*
X8038095Y-13294444D01*
X8047619Y-13313491D01*
X8057143Y-13351587D01*
X8057143Y-13399206D01*
X8047619Y-13437301D01*
X8038095Y-13456348D01*
X8028571Y-13465872D01*
X8009524Y-13475396D01*
X7990476Y-13475396D01*
X7971428Y-13465872D01*
X7961905Y-13456348D01*
X7952381Y-13437301D01*
X7942857Y-13399206D01*
X7942857Y-13351587D01*
X7952381Y-13313491D01*
X7961905Y-13294444D01*
X7971428Y-13284920D01*
X7990476Y-13275396D01*
X8142857Y-13456348D02*
X8152381Y-13465872D01*
X8142857Y-13475396D01*
X8133333Y-13465872D01*
X8142857Y-13456348D01*
X8142857Y-13475396D01*
X8276190Y-13275396D02*
X8295238Y-13275396D01*
X8314286Y-13284920D01*
X8323809Y-13294444D01*
X8333333Y-13313491D01*
X8342857Y-13351587D01*
X8342857Y-13399206D01*
X8333333Y-13437301D01*
X8323809Y-13456348D01*
X8314286Y-13465872D01*
X8295238Y-13475396D01*
X8276190Y-13475396D01*
X8257143Y-13465872D01*
X8247619Y-13456348D01*
X8238095Y-13437301D01*
X8228571Y-13399206D01*
X8228571Y-13351587D01*
X8238095Y-13313491D01*
X8247619Y-13294444D01*
X8257143Y-13284920D01*
X8276190Y-13275396D01*
X8409524Y-13275396D02*
X8533333Y-13275396D01*
X8466667Y-13351587D01*
X8495238Y-13351587D01*
X8514286Y-13361110D01*
X8523810Y-13370634D01*
X8533333Y-13389682D01*
X8533333Y-13437301D01*
X8523810Y-13456348D01*
X8514286Y-13465872D01*
X8495238Y-13475396D01*
X8438095Y-13475396D01*
X8419048Y-13465872D01*
X8409524Y-13456348D01*
X8628571Y-13475396D02*
X8666667Y-13475396D01*
X8685714Y-13465872D01*
X8695238Y-13456348D01*
X8714286Y-13427777D01*
X8723810Y-13389682D01*
X8723810Y-13313491D01*
X8714286Y-13294444D01*
X8704762Y-13284920D01*
X8685714Y-13275396D01*
X8647619Y-13275396D01*
X8628571Y-13284920D01*
X8619048Y-13294444D01*
X8609524Y-13313491D01*
X8609524Y-13361110D01*
X8619048Y-13380158D01*
X8628571Y-13389682D01*
X8647619Y-13399206D01*
X8685714Y-13399206D01*
X8704762Y-13389682D01*
X8714286Y-13380158D01*
X8723810Y-13361110D01*
X8895238Y-13342063D02*
X8895238Y-13475396D01*
X8847619Y-13265872D02*
X8800000Y-13408729D01*
X8923810Y-13408729D01*
X8990476Y-13275396D02*
X8990476Y-13313491D01*
X9066667Y-13275396D02*
X9066667Y-13313491D01*
X9361905Y-13551587D02*
X9352381Y-13542063D01*
X9333333Y-13513491D01*
X9323810Y-13494444D01*
X9314286Y-13465872D01*
X9304762Y-13418253D01*
X9304762Y-13380158D01*
X9314286Y-13332539D01*
X9323810Y-13303968D01*
X9333333Y-13284920D01*
X9352381Y-13256348D01*
X9361905Y-13246825D01*
X9419048Y-13275396D02*
X9542857Y-13275396D01*
X9476190Y-13351587D01*
X9504762Y-13351587D01*
X9523810Y-13361110D01*
X9533333Y-13370634D01*
X9542857Y-13389682D01*
X9542857Y-13437301D01*
X9533333Y-13456348D01*
X9523810Y-13465872D01*
X9504762Y-13475396D01*
X9447619Y-13475396D01*
X9428571Y-13465872D01*
X9419048Y-13456348D01*
X9780952Y-13475396D02*
X9780952Y-13275396D01*
X9866667Y-13475396D02*
X9866667Y-13370634D01*
X9857143Y-13351587D01*
X9838095Y-13342063D01*
X9809524Y-13342063D01*
X9790476Y-13351587D01*
X9780952Y-13361110D01*
X9990476Y-13475396D02*
X9971429Y-13465872D01*
X9961905Y-13456348D01*
X9952381Y-13437301D01*
X9952381Y-13380158D01*
X9961905Y-13361110D01*
X9971429Y-13351587D01*
X9990476Y-13342063D01*
X10019048Y-13342063D01*
X10038095Y-13351587D01*
X10047619Y-13361110D01*
X10057143Y-13380158D01*
X10057143Y-13437301D01*
X10047619Y-13456348D01*
X10038095Y-13465872D01*
X10019048Y-13475396D01*
X9990476Y-13475396D01*
X10171429Y-13475396D02*
X10152381Y-13465872D01*
X10142857Y-13446825D01*
X10142857Y-13275396D01*
X10323810Y-13465872D02*
X10304762Y-13475396D01*
X10266667Y-13475396D01*
X10247619Y-13465872D01*
X10238095Y-13446825D01*
X10238095Y-13370634D01*
X10247619Y-13351587D01*
X10266667Y-13342063D01*
X10304762Y-13342063D01*
X10323810Y-13351587D01*
X10333333Y-13370634D01*
X10333333Y-13389682D01*
X10238095Y-13408729D01*
X10409524Y-13465872D02*
X10428571Y-13475396D01*
X10466667Y-13475396D01*
X10485714Y-13465872D01*
X10495238Y-13446825D01*
X10495238Y-13437301D01*
X10485714Y-13418253D01*
X10466667Y-13408729D01*
X10438095Y-13408729D01*
X10419048Y-13399206D01*
X10409524Y-13380158D01*
X10409524Y-13370634D01*
X10419048Y-13351587D01*
X10438095Y-13342063D01*
X10466667Y-13342063D01*
X10485714Y-13351587D01*
X10561905Y-13551587D02*
X10571429Y-13542063D01*
X10590476Y-13513491D01*
X10600000Y-13494444D01*
X10609524Y-13465872D01*
X10619048Y-13418253D01*
X10619048Y-13380158D01*
X10609524Y-13332539D01*
X10600000Y-13303968D01*
X10590476Y-13284920D01*
X10571429Y-13256348D01*
X10561905Y-13246825D01*
D17*
X5680000Y-13593920D02*
X5790000Y-13703920D01*
X5790000Y-13593920D02*
X5680000Y-13703920D01*
X5790000Y-13648920D02*
G75*
G03*
X5790000Y-13648920I-55000J0D01*
G01*
D11*
X6152381Y-13739396D02*
X6038095Y-13739396D01*
X6095238Y-13739396D02*
X6095238Y-13539396D01*
X6076190Y-13567968D01*
X6057143Y-13587015D01*
X6038095Y-13596539D01*
X6238095Y-13720348D02*
X6247619Y-13729872D01*
X6238095Y-13739396D01*
X6228571Y-13729872D01*
X6238095Y-13720348D01*
X6238095Y-13739396D01*
X6438095Y-13739396D02*
X6323809Y-13739396D01*
X6380952Y-13739396D02*
X6380952Y-13539396D01*
X6361905Y-13567968D01*
X6342857Y-13587015D01*
X6323809Y-13596539D01*
X6561905Y-13539396D02*
X6580952Y-13539396D01*
X6600000Y-13548920D01*
X6609524Y-13558444D01*
X6619048Y-13577491D01*
X6628571Y-13615587D01*
X6628571Y-13663206D01*
X6619048Y-13701301D01*
X6609524Y-13720348D01*
X6600000Y-13729872D01*
X6580952Y-13739396D01*
X6561905Y-13739396D01*
X6542857Y-13729872D01*
X6533333Y-13720348D01*
X6523809Y-13701301D01*
X6514286Y-13663206D01*
X6514286Y-13615587D01*
X6523809Y-13577491D01*
X6533333Y-13558444D01*
X6542857Y-13548920D01*
X6561905Y-13539396D01*
X6752381Y-13539396D02*
X6771428Y-13539396D01*
X6790476Y-13548920D01*
X6800000Y-13558444D01*
X6809524Y-13577491D01*
X6819048Y-13615587D01*
X6819048Y-13663206D01*
X6809524Y-13701301D01*
X6800000Y-13720348D01*
X6790476Y-13729872D01*
X6771428Y-13739396D01*
X6752381Y-13739396D01*
X6733333Y-13729872D01*
X6723809Y-13720348D01*
X6714286Y-13701301D01*
X6704762Y-13663206D01*
X6704762Y-13615587D01*
X6714286Y-13577491D01*
X6723809Y-13558444D01*
X6733333Y-13548920D01*
X6752381Y-13539396D01*
X6904762Y-13739396D02*
X6904762Y-13606063D01*
X6904762Y-13625110D02*
X6914286Y-13615587D01*
X6933333Y-13606063D01*
X6961905Y-13606063D01*
X6980952Y-13615587D01*
X6990476Y-13634634D01*
X6990476Y-13739396D01*
X6990476Y-13634634D02*
X7000000Y-13615587D01*
X7019048Y-13606063D01*
X7047619Y-13606063D01*
X7066667Y-13615587D01*
X7076190Y-13634634D01*
X7076190Y-13739396D01*
X7171428Y-13739396D02*
X7171428Y-13606063D01*
X7171428Y-13625110D02*
X7180952Y-13615587D01*
X7200000Y-13606063D01*
X7228571Y-13606063D01*
X7247619Y-13615587D01*
X7257143Y-13634634D01*
X7257143Y-13739396D01*
X7257143Y-13634634D02*
X7266667Y-13615587D01*
X7285714Y-13606063D01*
X7314286Y-13606063D01*
X7333333Y-13615587D01*
X7342857Y-13634634D01*
X7342857Y-13739396D01*
X7733333Y-13529872D02*
X7561905Y-13787015D01*
X7990476Y-13539396D02*
X8009524Y-13539396D01*
X8028571Y-13548920D01*
X8038095Y-13558444D01*
X8047619Y-13577491D01*
X8057143Y-13615587D01*
X8057143Y-13663206D01*
X8047619Y-13701301D01*
X8038095Y-13720348D01*
X8028571Y-13729872D01*
X8009524Y-13739396D01*
X7990476Y-13739396D01*
X7971428Y-13729872D01*
X7961905Y-13720348D01*
X7952381Y-13701301D01*
X7942857Y-13663206D01*
X7942857Y-13615587D01*
X7952381Y-13577491D01*
X7961905Y-13558444D01*
X7971428Y-13548920D01*
X7990476Y-13539396D01*
X8142857Y-13720348D02*
X8152381Y-13729872D01*
X8142857Y-13739396D01*
X8133333Y-13729872D01*
X8142857Y-13720348D01*
X8142857Y-13739396D01*
X8276190Y-13539396D02*
X8295238Y-13539396D01*
X8314286Y-13548920D01*
X8323809Y-13558444D01*
X8333333Y-13577491D01*
X8342857Y-13615587D01*
X8342857Y-13663206D01*
X8333333Y-13701301D01*
X8323809Y-13720348D01*
X8314286Y-13729872D01*
X8295238Y-13739396D01*
X8276190Y-13739396D01*
X8257143Y-13729872D01*
X8247619Y-13720348D01*
X8238095Y-13701301D01*
X8228571Y-13663206D01*
X8228571Y-13615587D01*
X8238095Y-13577491D01*
X8247619Y-13558444D01*
X8257143Y-13548920D01*
X8276190Y-13539396D01*
X8514286Y-13606063D02*
X8514286Y-13739396D01*
X8466667Y-13529872D02*
X8419048Y-13672729D01*
X8542857Y-13672729D01*
X8600000Y-13539396D02*
X8723810Y-13539396D01*
X8657143Y-13615587D01*
X8685714Y-13615587D01*
X8704762Y-13625110D01*
X8714286Y-13634634D01*
X8723810Y-13653682D01*
X8723810Y-13701301D01*
X8714286Y-13720348D01*
X8704762Y-13729872D01*
X8685714Y-13739396D01*
X8628571Y-13739396D01*
X8609524Y-13729872D01*
X8600000Y-13720348D01*
X8790476Y-13539396D02*
X8914286Y-13539396D01*
X8847619Y-13615587D01*
X8876190Y-13615587D01*
X8895238Y-13625110D01*
X8904762Y-13634634D01*
X8914286Y-13653682D01*
X8914286Y-13701301D01*
X8904762Y-13720348D01*
X8895238Y-13729872D01*
X8876190Y-13739396D01*
X8819048Y-13739396D01*
X8800000Y-13729872D01*
X8790476Y-13720348D01*
X8990476Y-13539396D02*
X8990476Y-13577491D01*
X9066667Y-13539396D02*
X9066667Y-13577491D01*
X9361905Y-13815587D02*
X9352381Y-13806063D01*
X9333333Y-13777491D01*
X9323810Y-13758444D01*
X9314286Y-13729872D01*
X9304762Y-13682253D01*
X9304762Y-13644158D01*
X9314286Y-13596539D01*
X9323810Y-13567968D01*
X9333333Y-13548920D01*
X9352381Y-13520348D01*
X9361905Y-13510825D01*
X9419048Y-13539396D02*
X9542857Y-13539396D01*
X9476190Y-13615587D01*
X9504762Y-13615587D01*
X9523810Y-13625110D01*
X9533333Y-13634634D01*
X9542857Y-13653682D01*
X9542857Y-13701301D01*
X9533333Y-13720348D01*
X9523810Y-13729872D01*
X9504762Y-13739396D01*
X9447619Y-13739396D01*
X9428571Y-13729872D01*
X9419048Y-13720348D01*
X9780952Y-13739396D02*
X9780952Y-13539396D01*
X9866667Y-13739396D02*
X9866667Y-13634634D01*
X9857143Y-13615587D01*
X9838095Y-13606063D01*
X9809524Y-13606063D01*
X9790476Y-13615587D01*
X9780952Y-13625110D01*
X9990476Y-13739396D02*
X9971429Y-13729872D01*
X9961905Y-13720348D01*
X9952381Y-13701301D01*
X9952381Y-13644158D01*
X9961905Y-13625110D01*
X9971429Y-13615587D01*
X9990476Y-13606063D01*
X10019048Y-13606063D01*
X10038095Y-13615587D01*
X10047619Y-13625110D01*
X10057143Y-13644158D01*
X10057143Y-13701301D01*
X10047619Y-13720348D01*
X10038095Y-13729872D01*
X10019048Y-13739396D01*
X9990476Y-13739396D01*
X10171429Y-13739396D02*
X10152381Y-13729872D01*
X10142857Y-13710825D01*
X10142857Y-13539396D01*
X10323810Y-13729872D02*
X10304762Y-13739396D01*
X10266667Y-13739396D01*
X10247619Y-13729872D01*
X10238095Y-13710825D01*
X10238095Y-13634634D01*
X10247619Y-13615587D01*
X10266667Y-13606063D01*
X10304762Y-13606063D01*
X10323810Y-13615587D01*
X10333333Y-13634634D01*
X10333333Y-13653682D01*
X10238095Y-13672729D01*
X10409524Y-13729872D02*
X10428571Y-13739396D01*
X10466667Y-13739396D01*
X10485714Y-13729872D01*
X10495238Y-13710825D01*
X10495238Y-13701301D01*
X10485714Y-13682253D01*
X10466667Y-13672729D01*
X10438095Y-13672729D01*
X10419048Y-13663206D01*
X10409524Y-13644158D01*
X10409524Y-13634634D01*
X10419048Y-13615587D01*
X10438095Y-13606063D01*
X10466667Y-13606063D01*
X10485714Y-13615587D01*
X10561905Y-13815587D02*
X10571429Y-13806063D01*
X10590476Y-13777491D01*
X10600000Y-13758444D01*
X10609524Y-13729872D01*
X10619048Y-13682253D01*
X10619048Y-13644158D01*
X10609524Y-13596539D01*
X10600000Y-13567968D01*
X10590476Y-13548920D01*
X10571429Y-13520348D01*
X10561905Y-13510825D01*
D18*
X5638000Y-13836920D02*
X5790000Y-13988920D01*
X5790000Y-13836920D02*
X5638000Y-13988920D01*
X5714000Y-13836920D02*
X5714000Y-13988920D01*
X5638000Y-13912920D02*
X5790000Y-13912920D01*
D11*
X6152381Y-14003396D02*
X6038095Y-14003396D01*
X6095238Y-14003396D02*
X6095238Y-13803396D01*
X6076190Y-13831968D01*
X6057143Y-13851015D01*
X6038095Y-13860539D01*
X6238095Y-13984348D02*
X6247619Y-13993872D01*
X6238095Y-14003396D01*
X6228571Y-13993872D01*
X6238095Y-13984348D01*
X6238095Y-14003396D01*
X6428571Y-13803396D02*
X6333333Y-13803396D01*
X6323809Y-13898634D01*
X6333333Y-13889110D01*
X6352381Y-13879587D01*
X6400000Y-13879587D01*
X6419048Y-13889110D01*
X6428571Y-13898634D01*
X6438095Y-13917682D01*
X6438095Y-13965301D01*
X6428571Y-13984348D01*
X6419048Y-13993872D01*
X6400000Y-14003396D01*
X6352381Y-14003396D01*
X6333333Y-13993872D01*
X6323809Y-13984348D01*
X6514286Y-13822444D02*
X6523809Y-13812920D01*
X6542857Y-13803396D01*
X6590476Y-13803396D01*
X6609524Y-13812920D01*
X6619048Y-13822444D01*
X6628571Y-13841491D01*
X6628571Y-13860539D01*
X6619048Y-13889110D01*
X6504762Y-14003396D01*
X6628571Y-14003396D01*
X6752381Y-13803396D02*
X6771428Y-13803396D01*
X6790476Y-13812920D01*
X6800000Y-13822444D01*
X6809524Y-13841491D01*
X6819048Y-13879587D01*
X6819048Y-13927206D01*
X6809524Y-13965301D01*
X6800000Y-13984348D01*
X6790476Y-13993872D01*
X6771428Y-14003396D01*
X6752381Y-14003396D01*
X6733333Y-13993872D01*
X6723809Y-13984348D01*
X6714286Y-13965301D01*
X6704762Y-13927206D01*
X6704762Y-13879587D01*
X6714286Y-13841491D01*
X6723809Y-13822444D01*
X6733333Y-13812920D01*
X6752381Y-13803396D01*
X6904762Y-14003396D02*
X6904762Y-13870063D01*
X6904762Y-13889110D02*
X6914286Y-13879587D01*
X6933333Y-13870063D01*
X6961905Y-13870063D01*
X6980952Y-13879587D01*
X6990476Y-13898634D01*
X6990476Y-14003396D01*
X6990476Y-13898634D02*
X7000000Y-13879587D01*
X7019048Y-13870063D01*
X7047619Y-13870063D01*
X7066667Y-13879587D01*
X7076190Y-13898634D01*
X7076190Y-14003396D01*
X7171428Y-14003396D02*
X7171428Y-13870063D01*
X7171428Y-13889110D02*
X7180952Y-13879587D01*
X7200000Y-13870063D01*
X7228571Y-13870063D01*
X7247619Y-13879587D01*
X7257143Y-13898634D01*
X7257143Y-14003396D01*
X7257143Y-13898634D02*
X7266667Y-13879587D01*
X7285714Y-13870063D01*
X7314286Y-13870063D01*
X7333333Y-13879587D01*
X7342857Y-13898634D01*
X7342857Y-14003396D01*
X7733333Y-13793872D02*
X7561905Y-14051015D01*
X7990476Y-13803396D02*
X8009524Y-13803396D01*
X8028571Y-13812920D01*
X8038095Y-13822444D01*
X8047619Y-13841491D01*
X8057143Y-13879587D01*
X8057143Y-13927206D01*
X8047619Y-13965301D01*
X8038095Y-13984348D01*
X8028571Y-13993872D01*
X8009524Y-14003396D01*
X7990476Y-14003396D01*
X7971428Y-13993872D01*
X7961905Y-13984348D01*
X7952381Y-13965301D01*
X7942857Y-13927206D01*
X7942857Y-13879587D01*
X7952381Y-13841491D01*
X7961905Y-13822444D01*
X7971428Y-13812920D01*
X7990476Y-13803396D01*
X8142857Y-13984348D02*
X8152381Y-13993872D01*
X8142857Y-14003396D01*
X8133333Y-13993872D01*
X8142857Y-13984348D01*
X8142857Y-14003396D01*
X8276190Y-13803396D02*
X8295238Y-13803396D01*
X8314286Y-13812920D01*
X8323809Y-13822444D01*
X8333333Y-13841491D01*
X8342857Y-13879587D01*
X8342857Y-13927206D01*
X8333333Y-13965301D01*
X8323809Y-13984348D01*
X8314286Y-13993872D01*
X8295238Y-14003396D01*
X8276190Y-14003396D01*
X8257143Y-13993872D01*
X8247619Y-13984348D01*
X8238095Y-13965301D01*
X8228571Y-13927206D01*
X8228571Y-13879587D01*
X8238095Y-13841491D01*
X8247619Y-13822444D01*
X8257143Y-13812920D01*
X8276190Y-13803396D01*
X8523810Y-13803396D02*
X8428571Y-13803396D01*
X8419048Y-13898634D01*
X8428571Y-13889110D01*
X8447619Y-13879587D01*
X8495238Y-13879587D01*
X8514286Y-13889110D01*
X8523810Y-13898634D01*
X8533333Y-13917682D01*
X8533333Y-13965301D01*
X8523810Y-13984348D01*
X8514286Y-13993872D01*
X8495238Y-14003396D01*
X8447619Y-14003396D01*
X8428571Y-13993872D01*
X8419048Y-13984348D01*
X8628571Y-14003396D02*
X8666667Y-14003396D01*
X8685714Y-13993872D01*
X8695238Y-13984348D01*
X8714286Y-13955777D01*
X8723810Y-13917682D01*
X8723810Y-13841491D01*
X8714286Y-13822444D01*
X8704762Y-13812920D01*
X8685714Y-13803396D01*
X8647619Y-13803396D01*
X8628571Y-13812920D01*
X8619048Y-13822444D01*
X8609524Y-13841491D01*
X8609524Y-13889110D01*
X8619048Y-13908158D01*
X8628571Y-13917682D01*
X8647619Y-13927206D01*
X8685714Y-13927206D01*
X8704762Y-13917682D01*
X8714286Y-13908158D01*
X8723810Y-13889110D01*
X8838095Y-13889110D02*
X8819048Y-13879587D01*
X8809524Y-13870063D01*
X8800000Y-13851015D01*
X8800000Y-13841491D01*
X8809524Y-13822444D01*
X8819048Y-13812920D01*
X8838095Y-13803396D01*
X8876190Y-13803396D01*
X8895238Y-13812920D01*
X8904762Y-13822444D01*
X8914286Y-13841491D01*
X8914286Y-13851015D01*
X8904762Y-13870063D01*
X8895238Y-13879587D01*
X8876190Y-13889110D01*
X8838095Y-13889110D01*
X8819048Y-13898634D01*
X8809524Y-13908158D01*
X8800000Y-13927206D01*
X8800000Y-13965301D01*
X8809524Y-13984348D01*
X8819048Y-13993872D01*
X8838095Y-14003396D01*
X8876190Y-14003396D01*
X8895238Y-13993872D01*
X8904762Y-13984348D01*
X8914286Y-13965301D01*
X8914286Y-13927206D01*
X8904762Y-13908158D01*
X8895238Y-13898634D01*
X8876190Y-13889110D01*
X8990476Y-13803396D02*
X8990476Y-13841491D01*
X9066667Y-13803396D02*
X9066667Y-13841491D01*
X9361905Y-14079587D02*
X9352381Y-14070063D01*
X9333333Y-14041491D01*
X9323810Y-14022444D01*
X9314286Y-13993872D01*
X9304762Y-13946253D01*
X9304762Y-13908158D01*
X9314286Y-13860539D01*
X9323810Y-13831968D01*
X9333333Y-13812920D01*
X9352381Y-13784348D01*
X9361905Y-13774825D01*
X9542857Y-14003396D02*
X9428571Y-14003396D01*
X9485714Y-14003396D02*
X9485714Y-13803396D01*
X9466667Y-13831968D01*
X9447619Y-13851015D01*
X9428571Y-13860539D01*
X9733333Y-14003396D02*
X9619048Y-14003396D01*
X9676190Y-14003396D02*
X9676190Y-13803396D01*
X9657143Y-13831968D01*
X9638095Y-13851015D01*
X9619048Y-13860539D01*
X9971429Y-14003396D02*
X9971429Y-13803396D01*
X10057143Y-14003396D02*
X10057143Y-13898634D01*
X10047619Y-13879587D01*
X10028571Y-13870063D01*
X10000000Y-13870063D01*
X9980952Y-13879587D01*
X9971429Y-13889110D01*
X10180952Y-14003396D02*
X10161905Y-13993872D01*
X10152381Y-13984348D01*
X10142857Y-13965301D01*
X10142857Y-13908158D01*
X10152381Y-13889110D01*
X10161905Y-13879587D01*
X10180952Y-13870063D01*
X10209524Y-13870063D01*
X10228571Y-13879587D01*
X10238095Y-13889110D01*
X10247619Y-13908158D01*
X10247619Y-13965301D01*
X10238095Y-13984348D01*
X10228571Y-13993872D01*
X10209524Y-14003396D01*
X10180952Y-14003396D01*
X10361905Y-14003396D02*
X10342857Y-13993872D01*
X10333333Y-13974825D01*
X10333333Y-13803396D01*
X10514286Y-13993872D02*
X10495238Y-14003396D01*
X10457143Y-14003396D01*
X10438095Y-13993872D01*
X10428571Y-13974825D01*
X10428571Y-13898634D01*
X10438095Y-13879587D01*
X10457143Y-13870063D01*
X10495238Y-13870063D01*
X10514286Y-13879587D01*
X10523810Y-13898634D01*
X10523810Y-13917682D01*
X10428571Y-13936729D01*
X10600000Y-13993872D02*
X10619048Y-14003396D01*
X10657143Y-14003396D01*
X10676190Y-13993872D01*
X10685714Y-13974825D01*
X10685714Y-13965301D01*
X10676190Y-13946253D01*
X10657143Y-13936729D01*
X10628571Y-13936729D01*
X10609524Y-13927206D01*
X10600000Y-13908158D01*
X10600000Y-13898634D01*
X10609524Y-13879587D01*
X10628571Y-13870063D01*
X10657143Y-13870063D01*
X10676190Y-13879587D01*
X10752381Y-14079587D02*
X10761905Y-14070063D01*
X10780952Y-14041491D01*
X10790476Y-14022444D01*
X10800000Y-13993872D01*
X10809524Y-13946253D01*
X10809524Y-13908158D01*
X10800000Y-13860539D01*
X10790476Y-13831968D01*
X10780952Y-13812920D01*
X10761905Y-13784348D01*
X10752381Y-13774825D01*
M02*
