M48
; DRILL file {KiCad (6.0.5-0)} date Tuesday, August 16, 2022 at 10:30:28 AM
; FORMAT={-:-/ absolute / metric / decimal}
; #@! TF.CreationDate,2022-08-16T10:30:28-04:00
; #@! TF.GenerationSoftware,Kicad,Pcbnew,(6.0.5-0)
; #@! TF.FileFunction,Plated,1,2,PTH
FMAT,2
METRIC
; #@! TA.AperFunction,Plated,PTH,ViaDrill
T1C0.400
; #@! TA.AperFunction,Plated,PTH,ViaDrill
T2C0.500
; #@! TA.AperFunction,Plated,PTH,ComponentDrill
T3C0.762
; #@! TA.AperFunction,Plated,PTH,ComponentDrill
T4C0.800
; #@! TA.AperFunction,Plated,PTH,ComponentDrill
T5C1.100
; #@! TA.AperFunction,Plated,PTH,ComponentDrill
T6C1.520
%
G90
G05
T1
X99.898Y-81.61
X99.898Y-83.642
X100.432Y-107.823
X101.575Y-79.07
X104.064Y-80.81
X106.858Y-84.531
T2
X107.213Y-88.519
X109.677Y-87.224
X110.465Y-81.534
X111.125Y-85.903
X115.976Y-71.894
T3
X104.699Y-84.811
X104.699Y-87.351
X104.699Y-94.971
X104.699Y-97.511
X122.479Y-84.811
X122.479Y-87.351
X122.479Y-94.971
X122.479Y-97.511
T4
X65.888Y-99.095
X65.888Y-102.895
X72.395Y-60.963
X72.395Y-63.503
X72.395Y-66.043
X72.395Y-68.583
X72.395Y-71.123
X72.395Y-73.663
X72.395Y-76.203
X72.395Y-78.743
X72.395Y-81.283
X72.395Y-83.823
X72.395Y-86.363
X72.395Y-88.903
X72.395Y-91.443
X72.395Y-93.983
X72.395Y-96.523
X72.395Y-99.063
X72.395Y-101.603
X72.395Y-104.143
X72.395Y-106.683
X95.226Y-104.14
X95.226Y-106.68
X95.23Y-60.963
X95.23Y-63.503
X95.23Y-66.043
X95.23Y-68.583
X95.23Y-71.123
X95.23Y-73.663
X95.23Y-76.203
X95.23Y-78.743
X95.23Y-81.283
X95.23Y-83.823
X95.23Y-86.363
X95.23Y-88.903
X95.23Y-91.443
X95.23Y-93.983
X95.23Y-96.523
X95.23Y-99.063
X95.23Y-101.603
X99.568Y-73.177
X109.728Y-73.177
X119.39Y-75.541
X121.93Y-73.001
X124.47Y-75.541
T5
X102.108Y-67.442
X104.648Y-67.442
X107.188Y-67.442
T6
X109.22Y-104.14
X111.697Y-55.131
X114.3Y-104.14
X116.776Y-55.131
X119.38Y-104.14
X124.396Y-55.131
X129.476Y-55.131
X134.62Y-71.12
X134.62Y-76.2
X134.62Y-83.82
X134.62Y-88.9
T0
M30
