G04 #@! TF.GenerationSoftware,KiCad,Pcbnew,(6.0.5-0)*
G04 #@! TF.CreationDate,2022-09-06T15:59:41-04:00*
G04 #@! TF.ProjectId,NodeMCU-32S,4e6f6465-4d43-4552-9d33-32532e6b6963,rev?*
G04 #@! TF.SameCoordinates,Original*
G04 #@! TF.FileFunction,Copper,L1,Top*
G04 #@! TF.FilePolarity,Positive*
%FSLAX46Y46*%
G04 Gerber Fmt 4.6, Leading zero omitted, Abs format (unit mm)*
G04 Created by KiCad (PCBNEW (6.0.5-0)) date 2022-09-06 15:59:41*
%MOMM*%
%LPD*%
G01*
G04 APERTURE LIST*
G04 Aperture macros list*
%AMRoundRect*
0 Rectangle with rounded corners*
0 $1 Rounding radius*
0 $2 $3 $4 $5 $6 $7 $8 $9 X,Y pos of 4 corners*
0 Add a 4 corners polygon primitive as box body*
4,1,4,$2,$3,$4,$5,$6,$7,$8,$9,$2,$3,0*
0 Add four circle primitives for the rounded corners*
1,1,$1+$1,$2,$3*
1,1,$1+$1,$4,$5*
1,1,$1+$1,$6,$7*
1,1,$1+$1,$8,$9*
0 Add four rect primitives between the rounded corners*
20,1,$1+$1,$2,$3,$4,$5,0*
20,1,$1+$1,$4,$5,$6,$7,0*
20,1,$1+$1,$6,$7,$8,$9,0*
20,1,$1+$1,$8,$9,$2,$3,0*%
G04 Aperture macros list end*
G04 #@! TA.AperFunction,ComponentPad*
%ADD10R,1.600000X1.600000*%
G04 #@! TD*
G04 #@! TA.AperFunction,ComponentPad*
%ADD11C,1.600000*%
G04 #@! TD*
G04 #@! TA.AperFunction,ComponentPad*
%ADD12R,3.000000X3.000000*%
G04 #@! TD*
G04 #@! TA.AperFunction,ComponentPad*
%ADD13C,3.000000*%
G04 #@! TD*
G04 #@! TA.AperFunction,ComponentPad*
%ADD14R,1.905000X2.000000*%
G04 #@! TD*
G04 #@! TA.AperFunction,ComponentPad*
%ADD15O,1.905000X2.000000*%
G04 #@! TD*
G04 #@! TA.AperFunction,ComponentPad*
%ADD16C,1.524000*%
G04 #@! TD*
G04 #@! TA.AperFunction,ComponentPad*
%ADD17C,1.260000*%
G04 #@! TD*
G04 #@! TA.AperFunction,ComponentPad*
%ADD18O,2.000000X1.200000*%
G04 #@! TD*
G04 #@! TA.AperFunction,ComponentPad*
%ADD19RoundRect,0.300000X-0.700000X0.300000X-0.700000X-0.300000X0.700000X-0.300000X0.700000X0.300000X0*%
G04 #@! TD*
G04 #@! TA.AperFunction,ComponentPad*
%ADD20O,1.600000X1.600000*%
G04 #@! TD*
G04 #@! TA.AperFunction,ComponentPad*
%ADD21R,1.700000X1.700000*%
G04 #@! TD*
G04 #@! TA.AperFunction,ComponentPad*
%ADD22O,1.700000X1.700000*%
G04 #@! TD*
G04 #@! TA.AperFunction,ViaPad*
%ADD23C,0.800000*%
G04 #@! TD*
G04 #@! TA.AperFunction,Conductor*
%ADD24C,0.250000*%
G04 #@! TD*
G04 #@! TA.AperFunction,Conductor*
%ADD25C,0.500000*%
G04 #@! TD*
G04 APERTURE END LIST*
D10*
X65887600Y-102894651D03*
D11*
X65887600Y-99094651D03*
D12*
X109778800Y-105765600D03*
D13*
X114858800Y-105765600D03*
X119938800Y-105765600D03*
D14*
X101828600Y-67442200D03*
D15*
X104368600Y-67442200D03*
X106908600Y-67442200D03*
D16*
X104698800Y-87350600D03*
X104698800Y-84810600D03*
X104698800Y-94970600D03*
X104698800Y-97510600D03*
X122478800Y-87350600D03*
X122478800Y-84810600D03*
X122478800Y-94970600D03*
X122478800Y-97510600D03*
D12*
X134620000Y-83820000D03*
D13*
X134620000Y-88900000D03*
D12*
X113639600Y-55130700D03*
D13*
X118719600Y-55130700D03*
D12*
X134620000Y-71120000D03*
D13*
X134620000Y-76200000D03*
D17*
X108915200Y-74345800D03*
X111455200Y-71805800D03*
X113995200Y-74345800D03*
X119862600Y-74345800D03*
X122402600Y-71805800D03*
X124942600Y-74345800D03*
D18*
X72395400Y-60962720D03*
X72395400Y-63502720D03*
X72395400Y-66042720D03*
X72395400Y-68582720D03*
X72395400Y-71122720D03*
X72395400Y-73662720D03*
X72395400Y-76202720D03*
X72395400Y-78742720D03*
X72395400Y-81282720D03*
X72395400Y-83822720D03*
X72395400Y-86362720D03*
X72395400Y-88902720D03*
X72395400Y-91442720D03*
D19*
X72395400Y-93982720D03*
D18*
X72395400Y-96522720D03*
X72395400Y-99062720D03*
X72395400Y-101602720D03*
X72395400Y-104142720D03*
X72395400Y-106682720D03*
X95226320Y-106680000D03*
X95226320Y-104140000D03*
X95230000Y-101602720D03*
X95230000Y-99062720D03*
X95230000Y-96522720D03*
X95230000Y-93982720D03*
X95230000Y-91442720D03*
X95230000Y-88902720D03*
X95230000Y-86362720D03*
X95230000Y-83822720D03*
X95230000Y-81282720D03*
X95230000Y-78742720D03*
X95230000Y-76202720D03*
X95230000Y-73662720D03*
X95230000Y-71122720D03*
X95230000Y-68582720D03*
X95230000Y-66042720D03*
X95230000Y-63502720D03*
D19*
X95230000Y-60962720D03*
D11*
X99720400Y-107010200D03*
D20*
X99720400Y-96850200D03*
D12*
X124396500Y-55130700D03*
D13*
X129476500Y-55130700D03*
D21*
X134848600Y-96570800D03*
D22*
X134848600Y-99110800D03*
X134848600Y-101650800D03*
D23*
X116763800Y-77800200D03*
X116687600Y-63347600D03*
X117348000Y-57785000D03*
X116789200Y-79971700D03*
X127838200Y-78892400D03*
X104063800Y-80810300D03*
X106857800Y-84531200D03*
X101574600Y-79070200D03*
X97967800Y-76631800D03*
X98247200Y-85801200D03*
X99720400Y-70942200D03*
X118872000Y-70078600D03*
X98856800Y-72415400D03*
X101219000Y-88214200D03*
X98577400Y-88061800D03*
X112826800Y-99060000D03*
X119329200Y-61010800D03*
D24*
X116814600Y-85902800D02*
X116814600Y-79997100D01*
X107746800Y-94970600D02*
X116814600Y-85902800D01*
X116814600Y-79997100D02*
X116789200Y-79971700D01*
X117348000Y-57785000D02*
X114693700Y-55130700D01*
X114693700Y-55130700D02*
X113639600Y-55130700D01*
X104698800Y-94970600D02*
X104698800Y-97510600D01*
X116763800Y-63423800D02*
X116687600Y-63347600D01*
X104698800Y-94970600D02*
X107746800Y-94970600D01*
X116763800Y-77800200D02*
X116763800Y-63423800D01*
X131425000Y-85705000D02*
X134620000Y-88900000D01*
X111917600Y-67442200D02*
X113995200Y-69519800D01*
X113995200Y-69519800D02*
X113995200Y-74345800D01*
X94510680Y-76202720D02*
X91313000Y-79400400D01*
X95230000Y-60962720D02*
X92151200Y-64041520D01*
X92151200Y-73123920D02*
X95230000Y-76202720D01*
X106908600Y-67442200D02*
X111917600Y-67442200D01*
X95230000Y-76202720D02*
X90175400Y-76202720D01*
X65887600Y-99094651D02*
X67283469Y-99094651D01*
X67283469Y-99094651D02*
X72395400Y-93982720D01*
X95230000Y-76202720D02*
X94510680Y-76202720D01*
X91313000Y-79400400D02*
X91313000Y-84556600D01*
X92151200Y-64041520D02*
X92151200Y-73123920D01*
X132765800Y-74345800D02*
X134620000Y-76200000D01*
X91313000Y-84556600D02*
X91567000Y-84810600D01*
X91567000Y-84810600D02*
X104698800Y-84810600D01*
X131425000Y-79395000D02*
X131425000Y-85705000D01*
X90175400Y-76202720D02*
X72395400Y-93982720D01*
X134620000Y-76200000D02*
X131425000Y-79395000D01*
X124942600Y-74345800D02*
X132765800Y-74345800D01*
X104089200Y-78892400D02*
X127838200Y-78892400D01*
X95230000Y-81282720D02*
X101698880Y-81282720D01*
X101698880Y-81282720D02*
X103936800Y-79044800D01*
X103936800Y-79044800D02*
X104089200Y-78892400D01*
X104063800Y-80810300D02*
X104063800Y-81432400D01*
X95230000Y-78742720D02*
X101247120Y-78742720D01*
X101247120Y-78742720D02*
X101574600Y-79070200D01*
X107010200Y-84378800D02*
X106857800Y-84531200D01*
X104063800Y-81432400D02*
X107010200Y-84378800D01*
X68607331Y-102894651D02*
X72395400Y-106682720D01*
X122478800Y-97510600D02*
X133908800Y-97510600D01*
X122478800Y-94970600D02*
X122478800Y-97510600D01*
X65887600Y-102894651D02*
X68607331Y-102894651D01*
X133908800Y-97510600D02*
X134848600Y-96570800D01*
X95230000Y-63502720D02*
X96624320Y-63502720D01*
X97967800Y-64846200D02*
X97967800Y-76631800D01*
X96624320Y-63502720D02*
X97891600Y-64770000D01*
X97891600Y-64770000D02*
X97967800Y-64846200D01*
X97802889Y-86245511D02*
X97802889Y-105092689D01*
X97802889Y-105092689D02*
X99720400Y-107010200D01*
X98247200Y-85801200D02*
X97802889Y-86245511D01*
X99720400Y-70942200D02*
X101828600Y-68834000D01*
X101828600Y-68834000D02*
X101828600Y-67442200D01*
D25*
X122199400Y-62407800D02*
X129476500Y-55130700D01*
X109682400Y-62407800D02*
X122199400Y-62407800D01*
X104648000Y-67442200D02*
X109682400Y-62407800D01*
D24*
X118872000Y-70078600D02*
X120675400Y-70078600D01*
X120675400Y-70078600D02*
X122402600Y-71805800D01*
X99466400Y-71805800D02*
X111455200Y-71805800D01*
X98856800Y-72415400D02*
X99466400Y-71805800D01*
X112877600Y-99110800D02*
X134848600Y-99110800D01*
X112826800Y-99060000D02*
X112877600Y-99110800D01*
X98577400Y-88061800D02*
X101066600Y-88061800D01*
X101066600Y-88061800D02*
X101219000Y-88214200D01*
X117246400Y-58928000D02*
X119329200Y-61010800D01*
X72395400Y-60962720D02*
X73174680Y-60962720D01*
X75209400Y-58928000D02*
X117246400Y-58928000D01*
X73174680Y-60962720D02*
X75209400Y-58928000D01*
M02*
