M48
; DRILL file {KiCad 6.0.2+dfsg-1} date Wed 22 Jun 2022 09:08:01 PM EDT
; FORMAT={-:-/ absolute / inch / decimal}
; #@! TF.CreationDate,2022-06-22T21:08:01-04:00
; #@! TF.GenerationSoftware,Kicad,Pcbnew,6.0.2+dfsg-1
; #@! TF.FileFunction,Plated,1,2,PTH
FMAT,2
INCH
; #@! TA.AperFunction,Plated,PTH,ViaDrill
T1C0.0157
; #@! TA.AperFunction,Plated,PTH,ComponentDrill
T2C0.0300
; #@! TA.AperFunction,Plated,PTH,ComponentDrill
T3C0.0315
; #@! TA.AperFunction,Plated,PTH,ComponentDrill
T4C0.0394
; #@! TA.AperFunction,Plated,PTH,ComponentDrill
T5C0.0433
; #@! TA.AperFunction,Plated,PTH,ComponentDrill
T6C0.0598
%
G90
G05
T1
X4.2Y-3.1696
X4.6538Y-3.2
X5.1Y-3.2
T2
X4.2Y-2.9742
X4.2Y-3.0742
X4.2Y-3.2742
X4.2Y-3.3742
X4.5Y-3.7463
X4.6Y-3.7463
X4.7Y-3.7463
X4.9Y-2.9742
X4.9Y-3.0742
X4.9Y-3.2742
X4.9Y-3.3742
T3
X2.8001Y-2.4001
X2.8001Y-2.5001
X2.8001Y-2.6001
X2.8001Y-2.7001
X2.8001Y-2.8001
X2.8001Y-2.9001
X2.8001Y-3.0001
X2.8001Y-3.1001
X2.8001Y-3.2001
X2.8001Y-3.3001
X2.8001Y-3.4001
X2.8001Y-3.5001
X2.8001Y-3.6001
X2.8001Y-3.7001
X2.8001Y-3.8001
X2.8001Y-3.9001
X2.8001Y-4.0001
X2.8001Y-4.1001
X2.8001Y-4.2001
X3.8Y-4.1
X3.8Y-4.2
X3.8001Y-2.4001
X3.8001Y-2.5001
X3.8001Y-2.6001
X3.8001Y-2.7001
X3.8001Y-2.8001
X3.8001Y-2.9001
X3.8001Y-3.0001
X3.8001Y-3.1001
X3.8001Y-3.2001
X3.8001Y-3.3001
X3.8001Y-3.4001
X3.8001Y-3.5001
X3.8001Y-3.6001
X3.8001Y-3.7001
X3.8001Y-3.8001
X3.8001Y-3.9001
X3.8001Y-4.0001
X4.2Y-3.6
X4.2Y-3.8
T4
X4.2Y-2.5
X4.2984Y-2.6969
X4.3969Y-2.5
T5
X5.0Y-4.0
X5.1Y-4.0
X5.2Y-4.0
T6
X4.3Y-4.1
X4.5Y-4.1
X4.6Y-2.4
X4.7Y-4.1
X4.8Y-2.4
X5.1Y-2.4
X5.3Y-2.4
X5.3Y-2.8
X5.3Y-3.0
X5.3Y-3.3
X5.3Y-3.5
T0
M30
