G04 #@! TF.GenerationSoftware,KiCad,Pcbnew,(6.0.5-0)*
G04 #@! TF.CreationDate,2022-08-16T10:30:24-04:00*
G04 #@! TF.ProjectId,NodeMCU-32S,4e6f6465-4d43-4552-9d33-32532e6b6963,rev?*
G04 #@! TF.SameCoordinates,Original*
G04 #@! TF.FileFunction,Legend,Bot*
G04 #@! TF.FilePolarity,Positive*
%FSLAX46Y46*%
G04 Gerber Fmt 4.6, Leading zero omitted, Abs format (unit mm)*
G04 Created by KiCad (PCBNEW (6.0.5-0)) date 2022-08-16 10:30:24*
%MOMM*%
%LPD*%
G01*
G04 APERTURE LIST*
G04 Aperture macros list*
%AMRoundRect*
0 Rectangle with rounded corners*
0 $1 Rounding radius*
0 $2 $3 $4 $5 $6 $7 $8 $9 X,Y pos of 4 corners*
0 Add a 4 corners polygon primitive as box body*
4,1,4,$2,$3,$4,$5,$6,$7,$8,$9,$2,$3,0*
0 Add four circle primitives for the rounded corners*
1,1,$1+$1,$2,$3*
1,1,$1+$1,$4,$5*
1,1,$1+$1,$6,$7*
1,1,$1+$1,$8,$9*
0 Add four rect primitives between the rounded corners*
20,1,$1+$1,$2,$3,$4,$5,0*
20,1,$1+$1,$4,$5,$6,$7,0*
20,1,$1+$1,$6,$7,$8,$9,0*
20,1,$1+$1,$8,$9,$2,$3,0*%
G04 Aperture macros list end*
%ADD10R,1.600000X1.600000*%
%ADD11C,1.600000*%
%ADD12R,3.000000X3.000000*%
%ADD13C,3.000000*%
%ADD14R,1.905000X2.000000*%
%ADD15O,1.905000X2.000000*%
%ADD16C,1.524000*%
%ADD17C,3.200000*%
%ADD18C,1.440000*%
%ADD19O,2.000000X1.200000*%
%ADD20RoundRect,0.300000X-0.700000X0.300000X-0.700000X-0.300000X0.700000X-0.300000X0.700000X0.300000X0*%
%ADD21O,1.600000X1.600000*%
G04 APERTURE END LIST*
%LPC*%
D10*
X65887600Y-102894651D03*
D11*
X65887600Y-99094651D03*
D12*
X109220000Y-104140000D03*
D13*
X114300000Y-104140000D03*
X119380000Y-104140000D03*
D14*
X102108000Y-67442200D03*
D15*
X104648000Y-67442200D03*
X107188000Y-67442200D03*
D16*
X104698800Y-84810600D03*
X104698800Y-87350600D03*
X104698800Y-94970600D03*
X104698800Y-97510600D03*
X122478800Y-87350600D03*
X122478800Y-84810600D03*
X122478800Y-94970600D03*
X122478800Y-97510600D03*
D12*
X134620000Y-83820000D03*
D13*
X134620000Y-88900000D03*
D12*
X111696500Y-55130700D03*
D13*
X116776500Y-55130700D03*
D17*
X63271400Y-50673000D03*
X139700000Y-111760000D03*
D12*
X134620000Y-71120000D03*
D13*
X134620000Y-76200000D03*
D18*
X124470400Y-75540800D03*
X121930400Y-73000800D03*
X119390400Y-75540800D03*
D19*
X72395400Y-60962720D03*
X72395400Y-63502720D03*
X72395400Y-66042720D03*
X72395400Y-68582720D03*
X72395400Y-71122720D03*
X72395400Y-73662720D03*
X72395400Y-76202720D03*
X72395400Y-78742720D03*
X72395400Y-81282720D03*
X72395400Y-83822720D03*
X72395400Y-86362720D03*
X72395400Y-88902720D03*
X72395400Y-91442720D03*
D20*
X72395400Y-93982720D03*
D19*
X72395400Y-96522720D03*
X72395400Y-99062720D03*
X72395400Y-101602720D03*
X72395400Y-104142720D03*
X72395400Y-106682720D03*
X95226320Y-106680000D03*
X95226320Y-104140000D03*
X95230000Y-101602720D03*
X95230000Y-99062720D03*
X95230000Y-96522720D03*
X95230000Y-93982720D03*
X95230000Y-91442720D03*
X95230000Y-88902720D03*
X95230000Y-86362720D03*
X95230000Y-83822720D03*
X95230000Y-81282720D03*
X95230000Y-78742720D03*
X95230000Y-76202720D03*
X95230000Y-73662720D03*
X95230000Y-71122720D03*
X95230000Y-68582720D03*
X95230000Y-66042720D03*
X95230000Y-63502720D03*
D20*
X95230000Y-60962720D03*
D11*
X99568000Y-73177400D03*
D21*
X109728000Y-73177400D03*
D12*
X124396500Y-55130700D03*
D13*
X129476500Y-55130700D03*
D17*
X63779400Y-111353600D03*
X139700000Y-50800000D03*
M02*
