%FSLAX45Y45*%
G04 Gerber Fmt 4.5, Leading zero omitted, Abs format (unit mm)*
G04 Created by KiCad (PCBNEW (6.0.5-0)) date 2022-09-06 15:59:47*
%MOMM*%
%LPD*%
G01*
G04 APERTURE LIST*
%TA.AperFunction,Profile*%
%ADD10C,0.200000*%
%TD*%
%ADD11C,0.200000*%
%ADD12C,0.320000*%
G04 APERTURE END LIST*
D10*
X5800000Y-4566920D02*
X14503400Y-4566920D01*
X14503400Y-4566920D02*
X14503400Y-11678920D01*
X14503400Y-11678920D02*
X5800000Y-11678920D01*
X5800000Y-11678920D02*
X5800000Y-4566920D01*
D11*
D12*
X6169680Y-4922540D02*
X6489680Y-5242540D01*
X6489680Y-4922540D02*
X6169680Y-5242540D01*
X6190000Y-11018540D02*
X6510000Y-11338540D01*
X6510000Y-11018540D02*
X6190000Y-11338540D01*
X13810000Y-4920000D02*
X14130000Y-5240000D01*
X14130000Y-4920000D02*
X13810000Y-5240000D01*
X13810000Y-11016000D02*
X14130000Y-11336000D01*
X14130000Y-11016000D02*
X13810000Y-11336000D01*
D11*
X6047619Y-11999396D02*
X6047619Y-11799396D01*
X6095238Y-11799396D01*
X6123809Y-11808920D01*
X6142857Y-11827968D01*
X6152381Y-11847015D01*
X6161905Y-11885110D01*
X6161905Y-11913682D01*
X6152381Y-11951777D01*
X6142857Y-11970825D01*
X6123809Y-11989872D01*
X6095238Y-11999396D01*
X6047619Y-11999396D01*
X6247619Y-11999396D02*
X6247619Y-11866063D01*
X6247619Y-11904158D02*
X6257143Y-11885110D01*
X6266667Y-11875587D01*
X6285714Y-11866063D01*
X6304762Y-11866063D01*
X6371428Y-11999396D02*
X6371428Y-11866063D01*
X6371428Y-11799396D02*
X6361905Y-11808920D01*
X6371428Y-11818444D01*
X6380952Y-11808920D01*
X6371428Y-11799396D01*
X6371428Y-11818444D01*
X6495238Y-11999396D02*
X6476190Y-11989872D01*
X6466667Y-11970825D01*
X6466667Y-11799396D01*
X6600000Y-11999396D02*
X6580952Y-11989872D01*
X6571428Y-11970825D01*
X6571428Y-11799396D01*
X6828571Y-11999396D02*
X6828571Y-11799396D01*
X6895238Y-11942253D01*
X6961905Y-11799396D01*
X6961905Y-11999396D01*
X7142857Y-11999396D02*
X7142857Y-11894634D01*
X7133333Y-11875587D01*
X7114286Y-11866063D01*
X7076190Y-11866063D01*
X7057143Y-11875587D01*
X7142857Y-11989872D02*
X7123809Y-11999396D01*
X7076190Y-11999396D01*
X7057143Y-11989872D01*
X7047619Y-11970825D01*
X7047619Y-11951777D01*
X7057143Y-11932729D01*
X7076190Y-11923206D01*
X7123809Y-11923206D01*
X7142857Y-11913682D01*
X7238095Y-11866063D02*
X7238095Y-12066063D01*
X7238095Y-11875587D02*
X7257143Y-11866063D01*
X7295238Y-11866063D01*
X7314286Y-11875587D01*
X7323809Y-11885110D01*
X7333333Y-11904158D01*
X7333333Y-11961301D01*
X7323809Y-11980348D01*
X7314286Y-11989872D01*
X7295238Y-11999396D01*
X7257143Y-11999396D01*
X7238095Y-11989872D01*
X7419048Y-11980348D02*
X7428571Y-11989872D01*
X7419048Y-11999396D01*
X7409524Y-11989872D01*
X7419048Y-11980348D01*
X7419048Y-11999396D01*
X7419048Y-11875587D02*
X7428571Y-11885110D01*
X7419048Y-11894634D01*
X7409524Y-11885110D01*
X7419048Y-11875587D01*
X7419048Y-11894634D01*
X5590000Y-12228920D02*
X5790000Y-12428920D01*
X5790000Y-12228920D02*
X5590000Y-12428920D01*
X6028571Y-12219396D02*
X6152381Y-12219396D01*
X6085714Y-12295587D01*
X6114286Y-12295587D01*
X6133333Y-12305110D01*
X6142857Y-12314634D01*
X6152381Y-12333682D01*
X6152381Y-12381301D01*
X6142857Y-12400348D01*
X6133333Y-12409872D01*
X6114286Y-12419396D01*
X6057143Y-12419396D01*
X6038095Y-12409872D01*
X6028571Y-12400348D01*
X6238095Y-12400348D02*
X6247619Y-12409872D01*
X6238095Y-12419396D01*
X6228571Y-12409872D01*
X6238095Y-12400348D01*
X6238095Y-12419396D01*
X6323809Y-12238444D02*
X6333333Y-12228920D01*
X6352381Y-12219396D01*
X6400000Y-12219396D01*
X6419048Y-12228920D01*
X6428571Y-12238444D01*
X6438095Y-12257491D01*
X6438095Y-12276539D01*
X6428571Y-12305110D01*
X6314286Y-12419396D01*
X6438095Y-12419396D01*
X6561905Y-12219396D02*
X6580952Y-12219396D01*
X6600000Y-12228920D01*
X6609524Y-12238444D01*
X6619048Y-12257491D01*
X6628571Y-12295587D01*
X6628571Y-12343206D01*
X6619048Y-12381301D01*
X6609524Y-12400348D01*
X6600000Y-12409872D01*
X6580952Y-12419396D01*
X6561905Y-12419396D01*
X6542857Y-12409872D01*
X6533333Y-12400348D01*
X6523809Y-12381301D01*
X6514286Y-12343206D01*
X6514286Y-12295587D01*
X6523809Y-12257491D01*
X6533333Y-12238444D01*
X6542857Y-12228920D01*
X6561905Y-12219396D01*
X6752381Y-12219396D02*
X6771428Y-12219396D01*
X6790476Y-12228920D01*
X6800000Y-12238444D01*
X6809524Y-12257491D01*
X6819048Y-12295587D01*
X6819048Y-12343206D01*
X6809524Y-12381301D01*
X6800000Y-12400348D01*
X6790476Y-12409872D01*
X6771428Y-12419396D01*
X6752381Y-12419396D01*
X6733333Y-12409872D01*
X6723809Y-12400348D01*
X6714286Y-12381301D01*
X6704762Y-12343206D01*
X6704762Y-12295587D01*
X6714286Y-12257491D01*
X6723809Y-12238444D01*
X6733333Y-12228920D01*
X6752381Y-12219396D01*
X6904762Y-12419396D02*
X6904762Y-12286063D01*
X6904762Y-12305110D02*
X6914286Y-12295587D01*
X6933333Y-12286063D01*
X6961905Y-12286063D01*
X6980952Y-12295587D01*
X6990476Y-12314634D01*
X6990476Y-12419396D01*
X6990476Y-12314634D02*
X7000000Y-12295587D01*
X7019048Y-12286063D01*
X7047619Y-12286063D01*
X7066667Y-12295587D01*
X7076190Y-12314634D01*
X7076190Y-12419396D01*
X7171428Y-12419396D02*
X7171428Y-12286063D01*
X7171428Y-12305110D02*
X7180952Y-12295587D01*
X7200000Y-12286063D01*
X7228571Y-12286063D01*
X7247619Y-12295587D01*
X7257143Y-12314634D01*
X7257143Y-12419396D01*
X7257143Y-12314634D02*
X7266667Y-12295587D01*
X7285714Y-12286063D01*
X7314286Y-12286063D01*
X7333333Y-12295587D01*
X7342857Y-12314634D01*
X7342857Y-12419396D01*
X7733333Y-12209872D02*
X7561905Y-12467015D01*
X7990476Y-12219396D02*
X8009524Y-12219396D01*
X8028571Y-12228920D01*
X8038095Y-12238444D01*
X8047619Y-12257491D01*
X8057143Y-12295587D01*
X8057143Y-12343206D01*
X8047619Y-12381301D01*
X8038095Y-12400348D01*
X8028571Y-12409872D01*
X8009524Y-12419396D01*
X7990476Y-12419396D01*
X7971428Y-12409872D01*
X7961905Y-12400348D01*
X7952381Y-12381301D01*
X7942857Y-12343206D01*
X7942857Y-12295587D01*
X7952381Y-12257491D01*
X7961905Y-12238444D01*
X7971428Y-12228920D01*
X7990476Y-12219396D01*
X8142857Y-12400348D02*
X8152381Y-12409872D01*
X8142857Y-12419396D01*
X8133333Y-12409872D01*
X8142857Y-12400348D01*
X8142857Y-12419396D01*
X8342857Y-12419396D02*
X8228571Y-12419396D01*
X8285714Y-12419396D02*
X8285714Y-12219396D01*
X8266667Y-12247968D01*
X8247619Y-12267015D01*
X8228571Y-12276539D01*
X8419048Y-12238444D02*
X8428571Y-12228920D01*
X8447619Y-12219396D01*
X8495238Y-12219396D01*
X8514286Y-12228920D01*
X8523810Y-12238444D01*
X8533333Y-12257491D01*
X8533333Y-12276539D01*
X8523810Y-12305110D01*
X8409524Y-12419396D01*
X8533333Y-12419396D01*
X8704762Y-12219396D02*
X8666667Y-12219396D01*
X8647619Y-12228920D01*
X8638095Y-12238444D01*
X8619048Y-12267015D01*
X8609524Y-12305110D01*
X8609524Y-12381301D01*
X8619048Y-12400348D01*
X8628571Y-12409872D01*
X8647619Y-12419396D01*
X8685714Y-12419396D01*
X8704762Y-12409872D01*
X8714286Y-12400348D01*
X8723810Y-12381301D01*
X8723810Y-12333682D01*
X8714286Y-12314634D01*
X8704762Y-12305110D01*
X8685714Y-12295587D01*
X8647619Y-12295587D01*
X8628571Y-12305110D01*
X8619048Y-12314634D01*
X8609524Y-12333682D01*
X8847619Y-12219396D02*
X8866667Y-12219396D01*
X8885714Y-12228920D01*
X8895238Y-12238444D01*
X8904762Y-12257491D01*
X8914286Y-12295587D01*
X8914286Y-12343206D01*
X8904762Y-12381301D01*
X8895238Y-12400348D01*
X8885714Y-12409872D01*
X8866667Y-12419396D01*
X8847619Y-12419396D01*
X8828571Y-12409872D01*
X8819048Y-12400348D01*
X8809524Y-12381301D01*
X8800000Y-12343206D01*
X8800000Y-12295587D01*
X8809524Y-12257491D01*
X8819048Y-12238444D01*
X8828571Y-12228920D01*
X8847619Y-12219396D01*
X8990476Y-12219396D02*
X8990476Y-12257491D01*
X9066667Y-12219396D02*
X9066667Y-12257491D01*
X9361905Y-12495587D02*
X9352381Y-12486063D01*
X9333333Y-12457491D01*
X9323810Y-12438444D01*
X9314286Y-12409872D01*
X9304762Y-12362253D01*
X9304762Y-12324158D01*
X9314286Y-12276539D01*
X9323810Y-12247968D01*
X9333333Y-12228920D01*
X9352381Y-12200348D01*
X9361905Y-12190825D01*
X9523810Y-12286063D02*
X9523810Y-12419396D01*
X9476190Y-12209872D02*
X9428571Y-12352729D01*
X9552381Y-12352729D01*
X9780952Y-12419396D02*
X9780952Y-12219396D01*
X9866667Y-12419396D02*
X9866667Y-12314634D01*
X9857143Y-12295587D01*
X9838095Y-12286063D01*
X9809524Y-12286063D01*
X9790476Y-12295587D01*
X9780952Y-12305110D01*
X9990476Y-12419396D02*
X9971429Y-12409872D01*
X9961905Y-12400348D01*
X9952381Y-12381301D01*
X9952381Y-12324158D01*
X9961905Y-12305110D01*
X9971429Y-12295587D01*
X9990476Y-12286063D01*
X10019048Y-12286063D01*
X10038095Y-12295587D01*
X10047619Y-12305110D01*
X10057143Y-12324158D01*
X10057143Y-12381301D01*
X10047619Y-12400348D01*
X10038095Y-12409872D01*
X10019048Y-12419396D01*
X9990476Y-12419396D01*
X10171429Y-12419396D02*
X10152381Y-12409872D01*
X10142857Y-12390825D01*
X10142857Y-12219396D01*
X10323810Y-12409872D02*
X10304762Y-12419396D01*
X10266667Y-12419396D01*
X10247619Y-12409872D01*
X10238095Y-12390825D01*
X10238095Y-12314634D01*
X10247619Y-12295587D01*
X10266667Y-12286063D01*
X10304762Y-12286063D01*
X10323810Y-12295587D01*
X10333333Y-12314634D01*
X10333333Y-12333682D01*
X10238095Y-12352729D01*
X10409524Y-12409872D02*
X10428571Y-12419396D01*
X10466667Y-12419396D01*
X10485714Y-12409872D01*
X10495238Y-12390825D01*
X10495238Y-12381301D01*
X10485714Y-12362253D01*
X10466667Y-12352729D01*
X10438095Y-12352729D01*
X10419048Y-12343206D01*
X10409524Y-12324158D01*
X10409524Y-12314634D01*
X10419048Y-12295587D01*
X10438095Y-12286063D01*
X10466667Y-12286063D01*
X10485714Y-12295587D01*
X10561905Y-12495587D02*
X10571429Y-12486063D01*
X10590476Y-12457491D01*
X10600000Y-12438444D01*
X10609524Y-12409872D01*
X10619048Y-12362253D01*
X10619048Y-12324158D01*
X10609524Y-12276539D01*
X10600000Y-12247968D01*
X10590476Y-12228920D01*
X10571429Y-12200348D01*
X10561905Y-12190825D01*
X10923810Y-12495587D02*
X10914286Y-12486063D01*
X10895238Y-12457491D01*
X10885714Y-12438444D01*
X10876190Y-12409872D01*
X10866667Y-12362253D01*
X10866667Y-12324158D01*
X10876190Y-12276539D01*
X10885714Y-12247968D01*
X10895238Y-12228920D01*
X10914286Y-12200348D01*
X10923810Y-12190825D01*
X11000000Y-12286063D02*
X11000000Y-12419396D01*
X11000000Y-12305110D02*
X11009524Y-12295587D01*
X11028571Y-12286063D01*
X11057143Y-12286063D01*
X11076190Y-12295587D01*
X11085714Y-12314634D01*
X11085714Y-12419396D01*
X11209524Y-12419396D02*
X11190476Y-12409872D01*
X11180952Y-12400348D01*
X11171429Y-12381301D01*
X11171429Y-12324158D01*
X11180952Y-12305110D01*
X11190476Y-12295587D01*
X11209524Y-12286063D01*
X11238095Y-12286063D01*
X11257143Y-12295587D01*
X11266667Y-12305110D01*
X11276190Y-12324158D01*
X11276190Y-12381301D01*
X11266667Y-12400348D01*
X11257143Y-12409872D01*
X11238095Y-12419396D01*
X11209524Y-12419396D01*
X11333333Y-12286063D02*
X11409524Y-12286063D01*
X11361905Y-12219396D02*
X11361905Y-12390825D01*
X11371428Y-12409872D01*
X11390476Y-12419396D01*
X11409524Y-12419396D01*
X11628571Y-12286063D02*
X11628571Y-12486063D01*
X11628571Y-12295587D02*
X11647619Y-12286063D01*
X11685714Y-12286063D01*
X11704762Y-12295587D01*
X11714286Y-12305110D01*
X11723809Y-12324158D01*
X11723809Y-12381301D01*
X11714286Y-12400348D01*
X11704762Y-12409872D01*
X11685714Y-12419396D01*
X11647619Y-12419396D01*
X11628571Y-12409872D01*
X11838095Y-12419396D02*
X11819048Y-12409872D01*
X11809524Y-12390825D01*
X11809524Y-12219396D01*
X12000000Y-12419396D02*
X12000000Y-12314634D01*
X11990476Y-12295587D01*
X11971428Y-12286063D01*
X11933333Y-12286063D01*
X11914286Y-12295587D01*
X12000000Y-12409872D02*
X11980952Y-12419396D01*
X11933333Y-12419396D01*
X11914286Y-12409872D01*
X11904762Y-12390825D01*
X11904762Y-12371777D01*
X11914286Y-12352729D01*
X11933333Y-12343206D01*
X11980952Y-12343206D01*
X12000000Y-12333682D01*
X12066667Y-12286063D02*
X12142857Y-12286063D01*
X12095238Y-12219396D02*
X12095238Y-12390825D01*
X12104762Y-12409872D01*
X12123809Y-12419396D01*
X12142857Y-12419396D01*
X12285714Y-12409872D02*
X12266667Y-12419396D01*
X12228571Y-12419396D01*
X12209524Y-12409872D01*
X12200000Y-12390825D01*
X12200000Y-12314634D01*
X12209524Y-12295587D01*
X12228571Y-12286063D01*
X12266667Y-12286063D01*
X12285714Y-12295587D01*
X12295238Y-12314634D01*
X12295238Y-12333682D01*
X12200000Y-12352729D01*
X12466667Y-12419396D02*
X12466667Y-12219396D01*
X12466667Y-12409872D02*
X12447619Y-12419396D01*
X12409524Y-12419396D01*
X12390476Y-12409872D01*
X12380952Y-12400348D01*
X12371428Y-12381301D01*
X12371428Y-12324158D01*
X12380952Y-12305110D01*
X12390476Y-12295587D01*
X12409524Y-12286063D01*
X12447619Y-12286063D01*
X12466667Y-12295587D01*
X12542857Y-12495587D02*
X12552381Y-12486063D01*
X12571428Y-12457491D01*
X12580952Y-12438444D01*
X12590476Y-12409872D01*
X12600000Y-12362253D01*
X12600000Y-12324158D01*
X12590476Y-12276539D01*
X12580952Y-12247968D01*
X12571428Y-12228920D01*
X12552381Y-12200348D01*
X12542857Y-12190825D01*
M02*
