%TF.GenerationSoftware,KiCad,Pcbnew,6.0.2+dfsg-1*%
%TF.CreationDate,2022-06-22T21:08:07-04:00*%
%TF.ProjectId,NodeMCU-32S,4e6f6465-4d43-4552-9d33-32532e6b6963,rev?*%
%TF.SameCoordinates,Original*%
%TF.FileFunction,Soldermask,Top*%
%TF.FilePolarity,Negative*%
%FSLAX46Y46*%
G04 Gerber Fmt 4.6, Leading zero omitted, Abs format (unit mm)*
G04 Created by KiCad (PCBNEW 6.0.2+dfsg-1) date 2022-06-22 21:08:07*
%MOMM*%
%LPD*%
G01*
G04 APERTURE LIST*
G04 Aperture macros list*
%AMRoundRect*
0 Rectangle with rounded corners*
0 $1 Rounding radius*
0 $2 $3 $4 $5 $6 $7 $8 $9 X,Y pos of 4 corners*
0 Add a 4 corners polygon primitive as box body*
4,1,4,$2,$3,$4,$5,$6,$7,$8,$9,$2,$3,0*
0 Add four circle primitives for the rounded corners*
1,1,$1+$1,$2,$3*
1,1,$1+$1,$4,$5*
1,1,$1+$1,$6,$7*
1,1,$1+$1,$8,$9*
0 Add four rect primitives between the rounded corners*
20,1,$1+$1,$2,$3,$4,$5,0*
20,1,$1+$1,$4,$5,$6,$7,0*
20,1,$1+$1,$6,$7,$8,$9,0*
20,1,$1+$1,$8,$9,$2,$3,0*%
G04 Aperture macros list end*
%ADD10R,3.000000X3.000000*%
%ADD11C,3.000000*%
%ADD12R,1.905000X2.000000*%
%ADD13O,1.905000X2.000000*%
%ADD14C,1.524000*%
%ADD15C,3.200000*%
%ADD16R,1.560000X1.560000*%
%ADD17C,1.560000*%
%ADD18O,2.000000X1.200000*%
%ADD19RoundRect,0.300000X-0.700000X0.300000X-0.700000X-0.300000X0.700000X-0.300000X0.700000X0.300000X0*%
%ADD20C,1.600000*%
%ADD21O,1.600000X1.600000*%
G04 APERTURE END LIST*
D10*
%TO.C,J5*%
X109220000Y-104140000D03*
D11*
X114300000Y-104140000D03*
X119380000Y-104140000D03*
%TD*%
D12*
%TO.C,Q1*%
X127000000Y-101600000D03*
D13*
X129540000Y-101600000D03*
X132080000Y-101600000D03*
%TD*%
D14*
%TO.C,U2*%
X106680000Y-78085000D03*
X106680000Y-75545000D03*
X106680000Y-83165000D03*
X106680000Y-85705000D03*
X124460000Y-78085000D03*
X124460000Y-75545000D03*
X124460000Y-83165000D03*
X124460000Y-85705000D03*
%TD*%
D10*
%TO.C,J4*%
X134620000Y-83820000D03*
D11*
X134620000Y-88900000D03*
%TD*%
D10*
%TO.C,J2*%
X116840000Y-60960000D03*
D11*
X121920000Y-60960000D03*
%TD*%
D15*
%TO.C,H2*%
X63500000Y-53340000D03*
%TD*%
%TO.C,H1*%
X142240000Y-109220000D03*
%TD*%
D10*
%TO.C,J3*%
X134620000Y-71120000D03*
D11*
X134620000Y-76200000D03*
%TD*%
D16*
%TO.C,RV1*%
X106680000Y-63500000D03*
D17*
X109180000Y-68500000D03*
X111680000Y-63500000D03*
%TD*%
D18*
%TO.C,U1*%
X71123680Y-60962720D03*
X71123680Y-63502720D03*
X71123680Y-66042720D03*
X71123680Y-68582720D03*
X71123680Y-71122720D03*
X71123680Y-73662720D03*
X71123680Y-76202720D03*
X71123680Y-78742720D03*
X71123680Y-81282720D03*
X71123680Y-83822720D03*
X71123680Y-86362720D03*
X71123680Y-88902720D03*
X71123680Y-91442720D03*
D19*
X71123680Y-93982720D03*
D18*
X71123680Y-96522720D03*
X71123680Y-99062720D03*
X71123680Y-101602720D03*
X71123680Y-104142720D03*
X71123680Y-106682720D03*
X96520000Y-106680000D03*
X96520000Y-104140000D03*
X96523680Y-101602720D03*
X96523680Y-99062720D03*
X96523680Y-96522720D03*
X96523680Y-93982720D03*
X96523680Y-91442720D03*
X96523680Y-88902720D03*
X96523680Y-86362720D03*
X96523680Y-83822720D03*
X96523680Y-81282720D03*
X96523680Y-78742720D03*
X96523680Y-76202720D03*
X96523680Y-73662720D03*
X96523680Y-71122720D03*
X96523680Y-68582720D03*
X96523680Y-66042720D03*
X96523680Y-63502720D03*
D19*
X96523680Y-60962720D03*
%TD*%
D20*
%TO.C,R1*%
X106680000Y-96520000D03*
D21*
X106680000Y-91440000D03*
%TD*%
D14*
%TO.C,SW1*%
X119380000Y-95155000D03*
X116840000Y-95155000D03*
X114300000Y-95155000D03*
%TD*%
D10*
%TO.C,J1*%
X129540000Y-60960000D03*
D11*
X134620000Y-60960000D03*
%TD*%
D15*
%TO.C,H3*%
X63500000Y-109220000D03*
%TD*%
%TO.C,H4*%
X142240000Y-53340000D03*
%TD*%
M02*
