%TF.GenerationSoftware,KiCad,Pcbnew,6.0.2+dfsg-1*%
%TF.CreationDate,2022-06-22T21:08:07-04:00*%
%TF.ProjectId,NodeMCU-32S,4e6f6465-4d43-4552-9d33-32532e6b6963,rev?*%
%TF.SameCoordinates,Original*%
%TF.FileFunction,Legend,Top*%
%TF.FilePolarity,Positive*%
%FSLAX46Y46*%
G04 Gerber Fmt 4.6, Leading zero omitted, Abs format (unit mm)*
G04 Created by KiCad (PCBNEW 6.0.2+dfsg-1) date 2022-06-22 21:08:07*
%MOMM*%
%LPD*%
G01*
G04 APERTURE LIST*
%ADD10C,0.150000*%
%ADD11C,0.120000*%
G04 APERTURE END LIST*
D10*
%TO.C,J5*%
X113936666Y-98942380D02*
X113936666Y-99656666D01*
X113889047Y-99799523D01*
X113793809Y-99894761D01*
X113650952Y-99942380D01*
X113555714Y-99942380D01*
X114889047Y-98942380D02*
X114412857Y-98942380D01*
X114365238Y-99418571D01*
X114412857Y-99370952D01*
X114508095Y-99323333D01*
X114746190Y-99323333D01*
X114841428Y-99370952D01*
X114889047Y-99418571D01*
X114936666Y-99513809D01*
X114936666Y-99751904D01*
X114889047Y-99847142D01*
X114841428Y-99894761D01*
X114746190Y-99942380D01*
X114508095Y-99942380D01*
X114412857Y-99894761D01*
X114365238Y-99847142D01*
%TO.C,Q1*%
X129444761Y-97877619D02*
X129349523Y-97830000D01*
X129254285Y-97734761D01*
X129111428Y-97591904D01*
X129016190Y-97544285D01*
X128920952Y-97544285D01*
X128968571Y-97782380D02*
X128873333Y-97734761D01*
X128778095Y-97639523D01*
X128730476Y-97449047D01*
X128730476Y-97115714D01*
X128778095Y-96925238D01*
X128873333Y-96830000D01*
X128968571Y-96782380D01*
X129159047Y-96782380D01*
X129254285Y-96830000D01*
X129349523Y-96925238D01*
X129397142Y-97115714D01*
X129397142Y-97449047D01*
X129349523Y-97639523D01*
X129254285Y-97734761D01*
X129159047Y-97782380D01*
X128968571Y-97782380D01*
X130349523Y-97782380D02*
X129778095Y-97782380D01*
X130063809Y-97782380D02*
X130063809Y-96782380D01*
X129968571Y-96925238D01*
X129873333Y-97020476D01*
X129778095Y-97068095D01*
%TO.C,U2*%
X116078095Y-82117380D02*
X116078095Y-82926904D01*
X116125714Y-83022142D01*
X116173333Y-83069761D01*
X116268571Y-83117380D01*
X116459047Y-83117380D01*
X116554285Y-83069761D01*
X116601904Y-83022142D01*
X116649523Y-82926904D01*
X116649523Y-82117380D01*
X117078095Y-82212619D02*
X117125714Y-82165000D01*
X117220952Y-82117380D01*
X117459047Y-82117380D01*
X117554285Y-82165000D01*
X117601904Y-82212619D01*
X117649523Y-82307857D01*
X117649523Y-82403095D01*
X117601904Y-82545952D01*
X117030476Y-83117380D01*
X117649523Y-83117380D01*
%TO.C,J4*%
X139152380Y-86693333D02*
X139866666Y-86693333D01*
X140009523Y-86740952D01*
X140104761Y-86836190D01*
X140152380Y-86979047D01*
X140152380Y-87074285D01*
X139485714Y-85788571D02*
X140152380Y-85788571D01*
X139104761Y-86026666D02*
X139819047Y-86264761D01*
X139819047Y-85645714D01*
%TO.C,J2*%
X119046666Y-55332380D02*
X119046666Y-56046666D01*
X118999047Y-56189523D01*
X118903809Y-56284761D01*
X118760952Y-56332380D01*
X118665714Y-56332380D01*
X119475238Y-55427619D02*
X119522857Y-55380000D01*
X119618095Y-55332380D01*
X119856190Y-55332380D01*
X119951428Y-55380000D01*
X119999047Y-55427619D01*
X120046666Y-55522857D01*
X120046666Y-55618095D01*
X119999047Y-55760952D01*
X119427619Y-56332380D01*
X120046666Y-56332380D01*
%TO.C,H2*%
X62738095Y-49592380D02*
X62738095Y-48592380D01*
X62738095Y-49068571D02*
X63309523Y-49068571D01*
X63309523Y-49592380D02*
X63309523Y-48592380D01*
X63738095Y-48687619D02*
X63785714Y-48640000D01*
X63880952Y-48592380D01*
X64119047Y-48592380D01*
X64214285Y-48640000D01*
X64261904Y-48687619D01*
X64309523Y-48782857D01*
X64309523Y-48878095D01*
X64261904Y-49020952D01*
X63690476Y-49592380D01*
X64309523Y-49592380D01*
%TO.C,H1*%
X141478095Y-105472380D02*
X141478095Y-104472380D01*
X141478095Y-104948571D02*
X142049523Y-104948571D01*
X142049523Y-105472380D02*
X142049523Y-104472380D01*
X143049523Y-105472380D02*
X142478095Y-105472380D01*
X142763809Y-105472380D02*
X142763809Y-104472380D01*
X142668571Y-104615238D01*
X142573333Y-104710476D01*
X142478095Y-104758095D01*
%TO.C,J3*%
X139152380Y-73993333D02*
X139866666Y-73993333D01*
X140009523Y-74040952D01*
X140104761Y-74136190D01*
X140152380Y-74279047D01*
X140152380Y-74374285D01*
X139152380Y-73612380D02*
X139152380Y-72993333D01*
X139533333Y-73326666D01*
X139533333Y-73183809D01*
X139580952Y-73088571D01*
X139628571Y-73040952D01*
X139723809Y-72993333D01*
X139961904Y-72993333D01*
X140057142Y-73040952D01*
X140104761Y-73088571D01*
X140152380Y-73183809D01*
X140152380Y-73469523D01*
X140104761Y-73564761D01*
X140057142Y-73612380D01*
%TO.C,RV1*%
X108684761Y-61452380D02*
X108351428Y-60976190D01*
X108113333Y-61452380D02*
X108113333Y-60452380D01*
X108494285Y-60452380D01*
X108589523Y-60500000D01*
X108637142Y-60547619D01*
X108684761Y-60642857D01*
X108684761Y-60785714D01*
X108637142Y-60880952D01*
X108589523Y-60928571D01*
X108494285Y-60976190D01*
X108113333Y-60976190D01*
X108970476Y-60452380D02*
X109303809Y-61452380D01*
X109637142Y-60452380D01*
X110494285Y-61452380D02*
X109922857Y-61452380D01*
X110208571Y-61452380D02*
X110208571Y-60452380D01*
X110113333Y-60595238D01*
X110018095Y-60690476D01*
X109922857Y-60738095D01*
%TO.C,U1*%
X83061775Y-58315100D02*
X83061775Y-59124624D01*
X83109394Y-59219862D01*
X83157013Y-59267481D01*
X83252251Y-59315100D01*
X83442727Y-59315100D01*
X83537965Y-59267481D01*
X83585584Y-59219862D01*
X83633203Y-59124624D01*
X83633203Y-58315100D01*
X84633203Y-59315100D02*
X84061775Y-59315100D01*
X84347489Y-59315100D02*
X84347489Y-58315100D01*
X84252251Y-58457958D01*
X84157013Y-58553196D01*
X84061775Y-58600815D01*
X83752251Y-90687958D02*
X83752251Y-90354624D01*
X84276060Y-90211767D02*
X84276060Y-90687958D01*
X83276060Y-90687958D01*
X83276060Y-90211767D01*
X84228441Y-89830815D02*
X84276060Y-89687958D01*
X84276060Y-89449862D01*
X84228441Y-89354624D01*
X84180822Y-89307005D01*
X84085584Y-89259386D01*
X83990346Y-89259386D01*
X83895108Y-89307005D01*
X83847489Y-89354624D01*
X83799870Y-89449862D01*
X83752251Y-89640339D01*
X83704632Y-89735577D01*
X83657013Y-89783196D01*
X83561775Y-89830815D01*
X83466537Y-89830815D01*
X83371299Y-89783196D01*
X83323680Y-89735577D01*
X83276060Y-89640339D01*
X83276060Y-89402243D01*
X83323680Y-89259386D01*
X84276060Y-88830815D02*
X83276060Y-88830815D01*
X83276060Y-88449862D01*
X83323680Y-88354624D01*
X83371299Y-88307005D01*
X83466537Y-88259386D01*
X83609394Y-88259386D01*
X83704632Y-88307005D01*
X83752251Y-88354624D01*
X83799870Y-88449862D01*
X83799870Y-88830815D01*
X83276060Y-87926053D02*
X83276060Y-87307005D01*
X83657013Y-87640339D01*
X83657013Y-87497481D01*
X83704632Y-87402243D01*
X83752251Y-87354624D01*
X83847489Y-87307005D01*
X84085584Y-87307005D01*
X84180822Y-87354624D01*
X84228441Y-87402243D01*
X84276060Y-87497481D01*
X84276060Y-87783196D01*
X84228441Y-87878434D01*
X84180822Y-87926053D01*
X83371299Y-86926053D02*
X83323680Y-86878434D01*
X83276060Y-86783196D01*
X83276060Y-86545100D01*
X83323680Y-86449862D01*
X83371299Y-86402243D01*
X83466537Y-86354624D01*
X83561775Y-86354624D01*
X83704632Y-86402243D01*
X84276060Y-86973672D01*
X84276060Y-86354624D01*
X83895108Y-85926053D02*
X83895108Y-85164148D01*
X84276060Y-84687958D02*
X83276060Y-84687958D01*
X83276060Y-84449862D01*
X83323680Y-84307005D01*
X83418918Y-84211767D01*
X83514156Y-84164148D01*
X83704632Y-84116529D01*
X83847489Y-84116529D01*
X84037965Y-84164148D01*
X84133203Y-84211767D01*
X84228441Y-84307005D01*
X84276060Y-84449862D01*
X84276060Y-84687958D01*
X84228441Y-83307005D02*
X84276060Y-83402243D01*
X84276060Y-83592720D01*
X84228441Y-83687958D01*
X84133203Y-83735577D01*
X83752251Y-83735577D01*
X83657013Y-83687958D01*
X83609394Y-83592720D01*
X83609394Y-83402243D01*
X83657013Y-83307005D01*
X83752251Y-83259386D01*
X83847489Y-83259386D01*
X83942727Y-83735577D01*
X83609394Y-82926053D02*
X84276060Y-82687958D01*
X83609394Y-82449862D01*
X84276060Y-82068910D02*
X83276060Y-82068910D01*
X84276060Y-81497481D02*
X83704632Y-81926053D01*
X83276060Y-81497481D02*
X83847489Y-82068910D01*
X84276060Y-81068910D02*
X83609394Y-81068910D01*
X83276060Y-81068910D02*
X83323680Y-81116529D01*
X83371299Y-81068910D01*
X83323680Y-81021291D01*
X83276060Y-81068910D01*
X83371299Y-81068910D01*
X83609394Y-80735577D02*
X83609394Y-80354624D01*
X83276060Y-80592720D02*
X84133203Y-80592720D01*
X84228441Y-80545100D01*
X84276060Y-80449862D01*
X84276060Y-80354624D01*
X84180822Y-79449862D02*
X84228441Y-79497481D01*
X84276060Y-79640339D01*
X84276060Y-79735577D01*
X84228441Y-79878434D01*
X84133203Y-79973672D01*
X84037965Y-80021291D01*
X83847489Y-80068910D01*
X83704632Y-80068910D01*
X83514156Y-80021291D01*
X83418918Y-79973672D01*
X83323680Y-79878434D01*
X83276060Y-79735577D01*
X83276060Y-79640339D01*
X83323680Y-79497481D01*
X83371299Y-79449862D01*
X73024513Y-83472720D02*
X72957846Y-83439386D01*
X72857846Y-83439386D01*
X72757846Y-83472720D01*
X72691180Y-83539386D01*
X72657846Y-83606053D01*
X72624513Y-83739386D01*
X72624513Y-83839386D01*
X72657846Y-83972720D01*
X72691180Y-84039386D01*
X72757846Y-84106053D01*
X72857846Y-84139386D01*
X72924513Y-84139386D01*
X73024513Y-84106053D01*
X73057846Y-84072720D01*
X73057846Y-83839386D01*
X72924513Y-83839386D01*
X73357846Y-84139386D02*
X73357846Y-83439386D01*
X73624513Y-83439386D01*
X73691180Y-83472720D01*
X73724513Y-83506053D01*
X73757846Y-83572720D01*
X73757846Y-83672720D01*
X73724513Y-83739386D01*
X73691180Y-83772720D01*
X73624513Y-83806053D01*
X73357846Y-83806053D01*
X74057846Y-84139386D02*
X74057846Y-83439386D01*
X74524513Y-83439386D02*
X74657846Y-83439386D01*
X74724513Y-83472720D01*
X74791180Y-83539386D01*
X74824513Y-83672720D01*
X74824513Y-83906053D01*
X74791180Y-84039386D01*
X74724513Y-84106053D01*
X74657846Y-84139386D01*
X74524513Y-84139386D01*
X74457846Y-84106053D01*
X74391180Y-84039386D01*
X74357846Y-83906053D01*
X74357846Y-83672720D01*
X74391180Y-83539386D01*
X74457846Y-83472720D01*
X74524513Y-83439386D01*
X75091180Y-83506053D02*
X75124513Y-83472720D01*
X75191180Y-83439386D01*
X75357846Y-83439386D01*
X75424513Y-83472720D01*
X75457846Y-83506053D01*
X75491180Y-83572720D01*
X75491180Y-83639386D01*
X75457846Y-83739386D01*
X75057846Y-84139386D01*
X75491180Y-84139386D01*
X76091180Y-83439386D02*
X75957846Y-83439386D01*
X75891180Y-83472720D01*
X75857846Y-83506053D01*
X75791180Y-83606053D01*
X75757846Y-83739386D01*
X75757846Y-84006053D01*
X75791180Y-84072720D01*
X75824513Y-84106053D01*
X75891180Y-84139386D01*
X76024513Y-84139386D01*
X76091180Y-84106053D01*
X76124513Y-84072720D01*
X76157846Y-84006053D01*
X76157846Y-83839386D01*
X76124513Y-83772720D01*
X76091180Y-83739386D01*
X76024513Y-83706053D01*
X75891180Y-83706053D01*
X75824513Y-83739386D01*
X75791180Y-83772720D01*
X75757846Y-83839386D01*
X73024513Y-75852720D02*
X72957846Y-75819386D01*
X72857846Y-75819386D01*
X72757846Y-75852720D01*
X72691180Y-75919386D01*
X72657846Y-75986053D01*
X72624513Y-76119386D01*
X72624513Y-76219386D01*
X72657846Y-76352720D01*
X72691180Y-76419386D01*
X72757846Y-76486053D01*
X72857846Y-76519386D01*
X72924513Y-76519386D01*
X73024513Y-76486053D01*
X73057846Y-76452720D01*
X73057846Y-76219386D01*
X72924513Y-76219386D01*
X73357846Y-76519386D02*
X73357846Y-75819386D01*
X73624513Y-75819386D01*
X73691180Y-75852720D01*
X73724513Y-75886053D01*
X73757846Y-75952720D01*
X73757846Y-76052720D01*
X73724513Y-76119386D01*
X73691180Y-76152720D01*
X73624513Y-76186053D01*
X73357846Y-76186053D01*
X74057846Y-76519386D02*
X74057846Y-75819386D01*
X74524513Y-75819386D02*
X74657846Y-75819386D01*
X74724513Y-75852720D01*
X74791180Y-75919386D01*
X74824513Y-76052720D01*
X74824513Y-76286053D01*
X74791180Y-76419386D01*
X74724513Y-76486053D01*
X74657846Y-76519386D01*
X74524513Y-76519386D01*
X74457846Y-76486053D01*
X74391180Y-76419386D01*
X74357846Y-76286053D01*
X74357846Y-76052720D01*
X74391180Y-75919386D01*
X74457846Y-75852720D01*
X74524513Y-75819386D01*
X75057846Y-75819386D02*
X75491180Y-75819386D01*
X75257846Y-76086053D01*
X75357846Y-76086053D01*
X75424513Y-76119386D01*
X75457846Y-76152720D01*
X75491180Y-76219386D01*
X75491180Y-76386053D01*
X75457846Y-76452720D01*
X75424513Y-76486053D01*
X75357846Y-76519386D01*
X75157846Y-76519386D01*
X75091180Y-76486053D01*
X75057846Y-76452720D01*
X75757846Y-75886053D02*
X75791180Y-75852720D01*
X75857846Y-75819386D01*
X76024513Y-75819386D01*
X76091180Y-75852720D01*
X76124513Y-75886053D01*
X76157846Y-75952720D01*
X76157846Y-76019386D01*
X76124513Y-76119386D01*
X75724513Y-76519386D01*
X76157846Y-76519386D01*
X73057846Y-104392720D02*
X73024513Y-104426053D01*
X72924513Y-104459386D01*
X72857846Y-104459386D01*
X72757846Y-104426053D01*
X72691180Y-104359386D01*
X72657846Y-104292720D01*
X72624513Y-104159386D01*
X72624513Y-104059386D01*
X72657846Y-103926053D01*
X72691180Y-103859386D01*
X72757846Y-103792720D01*
X72857846Y-103759386D01*
X72924513Y-103759386D01*
X73024513Y-103792720D01*
X73057846Y-103826053D01*
X73357846Y-104459386D02*
X73357846Y-103759386D01*
X73591180Y-104259386D01*
X73824513Y-103759386D01*
X73824513Y-104459386D01*
X74157846Y-104459386D02*
X74157846Y-103759386D01*
X74324513Y-103759386D01*
X74424513Y-103792720D01*
X74491180Y-103859386D01*
X74524513Y-103926053D01*
X74557846Y-104059386D01*
X74557846Y-104159386D01*
X74524513Y-104292720D01*
X74491180Y-104359386D01*
X74424513Y-104426053D01*
X74324513Y-104459386D01*
X74157846Y-104459386D01*
X92556180Y-96172720D02*
X92489513Y-96139386D01*
X92389513Y-96139386D01*
X92289513Y-96172720D01*
X92222846Y-96239386D01*
X92189513Y-96306053D01*
X92156180Y-96439386D01*
X92156180Y-96539386D01*
X92189513Y-96672720D01*
X92222846Y-96739386D01*
X92289513Y-96806053D01*
X92389513Y-96839386D01*
X92456180Y-96839386D01*
X92556180Y-96806053D01*
X92589513Y-96772720D01*
X92589513Y-96539386D01*
X92456180Y-96539386D01*
X92889513Y-96839386D02*
X92889513Y-96139386D01*
X93156180Y-96139386D01*
X93222846Y-96172720D01*
X93256180Y-96206053D01*
X93289513Y-96272720D01*
X93289513Y-96372720D01*
X93256180Y-96439386D01*
X93222846Y-96472720D01*
X93156180Y-96506053D01*
X92889513Y-96506053D01*
X93589513Y-96839386D02*
X93589513Y-96139386D01*
X94056180Y-96139386D02*
X94189513Y-96139386D01*
X94256180Y-96172720D01*
X94322846Y-96239386D01*
X94356180Y-96372720D01*
X94356180Y-96606053D01*
X94322846Y-96739386D01*
X94256180Y-96806053D01*
X94189513Y-96839386D01*
X94056180Y-96839386D01*
X93989513Y-96806053D01*
X93922846Y-96739386D01*
X93889513Y-96606053D01*
X93889513Y-96372720D01*
X93922846Y-96239386D01*
X93989513Y-96172720D01*
X94056180Y-96139386D01*
X94622846Y-96206053D02*
X94656180Y-96172720D01*
X94722846Y-96139386D01*
X94889513Y-96139386D01*
X94956180Y-96172720D01*
X94989513Y-96206053D01*
X95022846Y-96272720D01*
X95022846Y-96339386D01*
X94989513Y-96439386D01*
X94589513Y-96839386D01*
X95022846Y-96839386D01*
X91889513Y-73312720D02*
X91822846Y-73279386D01*
X91722846Y-73279386D01*
X91622846Y-73312720D01*
X91556180Y-73379386D01*
X91522846Y-73446053D01*
X91489513Y-73579386D01*
X91489513Y-73679386D01*
X91522846Y-73812720D01*
X91556180Y-73879386D01*
X91622846Y-73946053D01*
X91722846Y-73979386D01*
X91789513Y-73979386D01*
X91889513Y-73946053D01*
X91922846Y-73912720D01*
X91922846Y-73679386D01*
X91789513Y-73679386D01*
X92222846Y-73979386D02*
X92222846Y-73279386D01*
X92489513Y-73279386D01*
X92556180Y-73312720D01*
X92589513Y-73346053D01*
X92622846Y-73412720D01*
X92622846Y-73512720D01*
X92589513Y-73579386D01*
X92556180Y-73612720D01*
X92489513Y-73646053D01*
X92222846Y-73646053D01*
X92922846Y-73979386D02*
X92922846Y-73279386D01*
X93389513Y-73279386D02*
X93522846Y-73279386D01*
X93589513Y-73312720D01*
X93656180Y-73379386D01*
X93689513Y-73512720D01*
X93689513Y-73746053D01*
X93656180Y-73879386D01*
X93589513Y-73946053D01*
X93522846Y-73979386D01*
X93389513Y-73979386D01*
X93322846Y-73946053D01*
X93256180Y-73879386D01*
X93222846Y-73746053D01*
X93222846Y-73512720D01*
X93256180Y-73379386D01*
X93322846Y-73312720D01*
X93389513Y-73279386D01*
X93956180Y-73346053D02*
X93989513Y-73312720D01*
X94056180Y-73279386D01*
X94222846Y-73279386D01*
X94289513Y-73312720D01*
X94322846Y-73346053D01*
X94356180Y-73412720D01*
X94356180Y-73479386D01*
X94322846Y-73579386D01*
X93922846Y-73979386D01*
X94356180Y-73979386D01*
X95022846Y-73979386D02*
X94622846Y-73979386D01*
X94822846Y-73979386D02*
X94822846Y-73279386D01*
X94756180Y-73379386D01*
X94689513Y-73446053D01*
X94622846Y-73479386D01*
X72557846Y-65659386D02*
X72791180Y-66359386D01*
X73024513Y-65659386D01*
X73257846Y-66359386D02*
X73257846Y-65659386D01*
X73524513Y-65659386D01*
X73591180Y-65692720D01*
X73624513Y-65726053D01*
X73657846Y-65792720D01*
X73657846Y-65892720D01*
X73624513Y-65959386D01*
X73591180Y-65992720D01*
X73524513Y-66026053D01*
X73257846Y-66026053D01*
X74457846Y-65626053D02*
X73857846Y-66526053D01*
X75057846Y-65692720D02*
X74991180Y-65659386D01*
X74891180Y-65659386D01*
X74791180Y-65692720D01*
X74724513Y-65759386D01*
X74691180Y-65826053D01*
X74657846Y-65959386D01*
X74657846Y-66059386D01*
X74691180Y-66192720D01*
X74724513Y-66259386D01*
X74791180Y-66326053D01*
X74891180Y-66359386D01*
X74957846Y-66359386D01*
X75057846Y-66326053D01*
X75091180Y-66292720D01*
X75091180Y-66059386D01*
X74957846Y-66059386D01*
X75391180Y-66359386D02*
X75391180Y-65659386D01*
X75657846Y-65659386D01*
X75724513Y-65692720D01*
X75757846Y-65726053D01*
X75791180Y-65792720D01*
X75791180Y-65892720D01*
X75757846Y-65959386D01*
X75724513Y-65992720D01*
X75657846Y-66026053D01*
X75391180Y-66026053D01*
X76091180Y-66359386D02*
X76091180Y-65659386D01*
X76557846Y-65659386D02*
X76691180Y-65659386D01*
X76757846Y-65692720D01*
X76824513Y-65759386D01*
X76857846Y-65892720D01*
X76857846Y-66126053D01*
X76824513Y-66259386D01*
X76757846Y-66326053D01*
X76691180Y-66359386D01*
X76557846Y-66359386D01*
X76491180Y-66326053D01*
X76424513Y-66259386D01*
X76391180Y-66126053D01*
X76391180Y-65892720D01*
X76424513Y-65759386D01*
X76491180Y-65692720D01*
X76557846Y-65659386D01*
X77091180Y-65659386D02*
X77524513Y-65659386D01*
X77291180Y-65926053D01*
X77391180Y-65926053D01*
X77457846Y-65959386D01*
X77491180Y-65992720D01*
X77524513Y-66059386D01*
X77524513Y-66226053D01*
X77491180Y-66292720D01*
X77457846Y-66326053D01*
X77391180Y-66359386D01*
X77191180Y-66359386D01*
X77124513Y-66326053D01*
X77091180Y-66292720D01*
X78124513Y-65659386D02*
X77991180Y-65659386D01*
X77924513Y-65692720D01*
X77891180Y-65726053D01*
X77824513Y-65826053D01*
X77791180Y-65959386D01*
X77791180Y-66226053D01*
X77824513Y-66292720D01*
X77857846Y-66326053D01*
X77924513Y-66359386D01*
X78057846Y-66359386D01*
X78124513Y-66326053D01*
X78157846Y-66292720D01*
X78191180Y-66226053D01*
X78191180Y-66059386D01*
X78157846Y-65992720D01*
X78124513Y-65959386D01*
X78057846Y-65926053D01*
X77924513Y-65926053D01*
X77857846Y-65959386D01*
X77824513Y-65992720D01*
X77791180Y-66059386D01*
X73253084Y-93482720D02*
X73157846Y-93435100D01*
X73014989Y-93435100D01*
X72872132Y-93482720D01*
X72776894Y-93577958D01*
X72729275Y-93673196D01*
X72681656Y-93863672D01*
X72681656Y-94006529D01*
X72729275Y-94197005D01*
X72776894Y-94292243D01*
X72872132Y-94387481D01*
X73014989Y-94435100D01*
X73110227Y-94435100D01*
X73253084Y-94387481D01*
X73300703Y-94339862D01*
X73300703Y-94006529D01*
X73110227Y-94006529D01*
X73729275Y-94435100D02*
X73729275Y-93435100D01*
X74300703Y-94435100D01*
X74300703Y-93435100D01*
X74776894Y-94435100D02*
X74776894Y-93435100D01*
X75014989Y-93435100D01*
X75157846Y-93482720D01*
X75253084Y-93577958D01*
X75300703Y-93673196D01*
X75348322Y-93863672D01*
X75348322Y-94006529D01*
X75300703Y-94197005D01*
X75253084Y-94292243D01*
X75157846Y-94387481D01*
X75014989Y-94435100D01*
X74776894Y-94435100D01*
X73024513Y-91092720D02*
X72957846Y-91059386D01*
X72857846Y-91059386D01*
X72757846Y-91092720D01*
X72691180Y-91159386D01*
X72657846Y-91226053D01*
X72624513Y-91359386D01*
X72624513Y-91459386D01*
X72657846Y-91592720D01*
X72691180Y-91659386D01*
X72757846Y-91726053D01*
X72857846Y-91759386D01*
X72924513Y-91759386D01*
X73024513Y-91726053D01*
X73057846Y-91692720D01*
X73057846Y-91459386D01*
X72924513Y-91459386D01*
X73357846Y-91759386D02*
X73357846Y-91059386D01*
X73624513Y-91059386D01*
X73691180Y-91092720D01*
X73724513Y-91126053D01*
X73757846Y-91192720D01*
X73757846Y-91292720D01*
X73724513Y-91359386D01*
X73691180Y-91392720D01*
X73624513Y-91426053D01*
X73357846Y-91426053D01*
X74057846Y-91759386D02*
X74057846Y-91059386D01*
X74524513Y-91059386D02*
X74657846Y-91059386D01*
X74724513Y-91092720D01*
X74791180Y-91159386D01*
X74824513Y-91292720D01*
X74824513Y-91526053D01*
X74791180Y-91659386D01*
X74724513Y-91726053D01*
X74657846Y-91759386D01*
X74524513Y-91759386D01*
X74457846Y-91726053D01*
X74391180Y-91659386D01*
X74357846Y-91526053D01*
X74357846Y-91292720D01*
X74391180Y-91159386D01*
X74457846Y-91092720D01*
X74524513Y-91059386D01*
X75491180Y-91759386D02*
X75091180Y-91759386D01*
X75291180Y-91759386D02*
X75291180Y-91059386D01*
X75224513Y-91159386D01*
X75157846Y-91226053D01*
X75091180Y-91259386D01*
X75757846Y-91126053D02*
X75791180Y-91092720D01*
X75857846Y-91059386D01*
X76024513Y-91059386D01*
X76091180Y-91092720D01*
X76124513Y-91126053D01*
X76157846Y-91192720D01*
X76157846Y-91259386D01*
X76124513Y-91359386D01*
X75724513Y-91759386D01*
X76157846Y-91759386D01*
X76957846Y-91026053D02*
X76357846Y-91926053D01*
X77191180Y-91759386D02*
X77191180Y-91059386D01*
X77424513Y-91559386D01*
X77657846Y-91059386D01*
X77657846Y-91759386D01*
X77891180Y-91059386D02*
X78291180Y-91059386D01*
X78091180Y-91759386D02*
X78091180Y-91059386D01*
X78524513Y-91759386D02*
X78524513Y-91059386D01*
X78691180Y-91059386D01*
X78791180Y-91092720D01*
X78857846Y-91159386D01*
X78891180Y-91226053D01*
X78924513Y-91359386D01*
X78924513Y-91459386D01*
X78891180Y-91592720D01*
X78857846Y-91659386D01*
X78791180Y-91726053D01*
X78691180Y-91759386D01*
X78524513Y-91759386D01*
X79224513Y-91759386D02*
X79224513Y-91059386D01*
X91889513Y-86012720D02*
X91822846Y-85979386D01*
X91722846Y-85979386D01*
X91622846Y-86012720D01*
X91556180Y-86079386D01*
X91522846Y-86146053D01*
X91489513Y-86279386D01*
X91489513Y-86379386D01*
X91522846Y-86512720D01*
X91556180Y-86579386D01*
X91622846Y-86646053D01*
X91722846Y-86679386D01*
X91789513Y-86679386D01*
X91889513Y-86646053D01*
X91922846Y-86612720D01*
X91922846Y-86379386D01*
X91789513Y-86379386D01*
X92222846Y-86679386D02*
X92222846Y-85979386D01*
X92489513Y-85979386D01*
X92556180Y-86012720D01*
X92589513Y-86046053D01*
X92622846Y-86112720D01*
X92622846Y-86212720D01*
X92589513Y-86279386D01*
X92556180Y-86312720D01*
X92489513Y-86346053D01*
X92222846Y-86346053D01*
X92922846Y-86679386D02*
X92922846Y-85979386D01*
X93389513Y-85979386D02*
X93522846Y-85979386D01*
X93589513Y-86012720D01*
X93656180Y-86079386D01*
X93689513Y-86212720D01*
X93689513Y-86446053D01*
X93656180Y-86579386D01*
X93589513Y-86646053D01*
X93522846Y-86679386D01*
X93389513Y-86679386D01*
X93322846Y-86646053D01*
X93256180Y-86579386D01*
X93222846Y-86446053D01*
X93222846Y-86212720D01*
X93256180Y-86079386D01*
X93322846Y-86012720D01*
X93389513Y-85979386D01*
X94356180Y-86679386D02*
X93956180Y-86679386D01*
X94156180Y-86679386D02*
X94156180Y-85979386D01*
X94089513Y-86079386D01*
X94022846Y-86146053D01*
X93956180Y-86179386D01*
X94589513Y-85979386D02*
X95056180Y-85979386D01*
X94756180Y-86679386D01*
X88356180Y-70772720D02*
X88289513Y-70739386D01*
X88189513Y-70739386D01*
X88089513Y-70772720D01*
X88022846Y-70839386D01*
X87989513Y-70906053D01*
X87956180Y-71039386D01*
X87956180Y-71139386D01*
X87989513Y-71272720D01*
X88022846Y-71339386D01*
X88089513Y-71406053D01*
X88189513Y-71439386D01*
X88256180Y-71439386D01*
X88356180Y-71406053D01*
X88389513Y-71372720D01*
X88389513Y-71139386D01*
X88256180Y-71139386D01*
X88689513Y-71439386D02*
X88689513Y-70739386D01*
X88956180Y-70739386D01*
X89022846Y-70772720D01*
X89056180Y-70806053D01*
X89089513Y-70872720D01*
X89089513Y-70972720D01*
X89056180Y-71039386D01*
X89022846Y-71072720D01*
X88956180Y-71106053D01*
X88689513Y-71106053D01*
X89389513Y-71439386D02*
X89389513Y-70739386D01*
X89856180Y-70739386D02*
X89989513Y-70739386D01*
X90056180Y-70772720D01*
X90122846Y-70839386D01*
X90156180Y-70972720D01*
X90156180Y-71206053D01*
X90122846Y-71339386D01*
X90056180Y-71406053D01*
X89989513Y-71439386D01*
X89856180Y-71439386D01*
X89789513Y-71406053D01*
X89722846Y-71339386D01*
X89689513Y-71206053D01*
X89689513Y-70972720D01*
X89722846Y-70839386D01*
X89789513Y-70772720D01*
X89856180Y-70739386D01*
X90389513Y-70739386D02*
X90822846Y-70739386D01*
X90589513Y-71006053D01*
X90689513Y-71006053D01*
X90756180Y-71039386D01*
X90789513Y-71072720D01*
X90822846Y-71139386D01*
X90822846Y-71306053D01*
X90789513Y-71372720D01*
X90756180Y-71406053D01*
X90689513Y-71439386D01*
X90489513Y-71439386D01*
X90422846Y-71406053D01*
X90389513Y-71372720D01*
X91622846Y-70706053D02*
X91022846Y-71606053D01*
X91856180Y-70739386D02*
X91856180Y-71306053D01*
X91889513Y-71372720D01*
X91922846Y-71406053D01*
X91989513Y-71439386D01*
X92122846Y-71439386D01*
X92189513Y-71406053D01*
X92222846Y-71372720D01*
X92256180Y-71306053D01*
X92256180Y-70739386D01*
X92722846Y-70739386D02*
X92789513Y-70739386D01*
X92856180Y-70772720D01*
X92889513Y-70806053D01*
X92922846Y-70872720D01*
X92956180Y-71006053D01*
X92956180Y-71172720D01*
X92922846Y-71306053D01*
X92889513Y-71372720D01*
X92856180Y-71406053D01*
X92789513Y-71439386D01*
X92722846Y-71439386D01*
X92656180Y-71406053D01*
X92622846Y-71372720D01*
X92589513Y-71306053D01*
X92556180Y-71172720D01*
X92556180Y-71006053D01*
X92589513Y-70872720D01*
X92622846Y-70806053D01*
X92656180Y-70772720D01*
X92722846Y-70739386D01*
X93656180Y-71439386D02*
X93422846Y-71106053D01*
X93256180Y-71439386D02*
X93256180Y-70739386D01*
X93522846Y-70739386D01*
X93589513Y-70772720D01*
X93622846Y-70806053D01*
X93656180Y-70872720D01*
X93656180Y-70972720D01*
X93622846Y-71039386D01*
X93589513Y-71072720D01*
X93522846Y-71106053D01*
X93256180Y-71106053D01*
X93889513Y-70739386D02*
X94356180Y-71439386D01*
X94356180Y-70739386D02*
X93889513Y-71439386D01*
X94622846Y-71439386D02*
X94622846Y-70739386D01*
X94789513Y-70739386D01*
X94889513Y-70772720D01*
X94956180Y-70839386D01*
X94989513Y-70906053D01*
X95022846Y-71039386D01*
X95022846Y-71139386D01*
X94989513Y-71272720D01*
X94956180Y-71339386D01*
X94889513Y-71406053D01*
X94789513Y-71439386D01*
X94622846Y-71439386D01*
X92556180Y-83472720D02*
X92489513Y-83439386D01*
X92389513Y-83439386D01*
X92289513Y-83472720D01*
X92222846Y-83539386D01*
X92189513Y-83606053D01*
X92156180Y-83739386D01*
X92156180Y-83839386D01*
X92189513Y-83972720D01*
X92222846Y-84039386D01*
X92289513Y-84106053D01*
X92389513Y-84139386D01*
X92456180Y-84139386D01*
X92556180Y-84106053D01*
X92589513Y-84072720D01*
X92589513Y-83839386D01*
X92456180Y-83839386D01*
X92889513Y-84139386D02*
X92889513Y-83439386D01*
X93156180Y-83439386D01*
X93222846Y-83472720D01*
X93256180Y-83506053D01*
X93289513Y-83572720D01*
X93289513Y-83672720D01*
X93256180Y-83739386D01*
X93222846Y-83772720D01*
X93156180Y-83806053D01*
X92889513Y-83806053D01*
X93589513Y-84139386D02*
X93589513Y-83439386D01*
X94056180Y-83439386D02*
X94189513Y-83439386D01*
X94256180Y-83472720D01*
X94322846Y-83539386D01*
X94356180Y-83672720D01*
X94356180Y-83906053D01*
X94322846Y-84039386D01*
X94256180Y-84106053D01*
X94189513Y-84139386D01*
X94056180Y-84139386D01*
X93989513Y-84106053D01*
X93922846Y-84039386D01*
X93889513Y-83906053D01*
X93889513Y-83672720D01*
X93922846Y-83539386D01*
X93989513Y-83472720D01*
X94056180Y-83439386D01*
X94989513Y-83439386D02*
X94656180Y-83439386D01*
X94622846Y-83772720D01*
X94656180Y-83739386D01*
X94722846Y-83706053D01*
X94889513Y-83706053D01*
X94956180Y-83739386D01*
X94989513Y-83772720D01*
X95022846Y-83839386D01*
X95022846Y-84006053D01*
X94989513Y-84072720D01*
X94956180Y-84106053D01*
X94889513Y-84139386D01*
X94722846Y-84139386D01*
X94656180Y-84106053D01*
X94622846Y-84072720D01*
X73024513Y-78392720D02*
X72957846Y-78359386D01*
X72857846Y-78359386D01*
X72757846Y-78392720D01*
X72691180Y-78459386D01*
X72657846Y-78526053D01*
X72624513Y-78659386D01*
X72624513Y-78759386D01*
X72657846Y-78892720D01*
X72691180Y-78959386D01*
X72757846Y-79026053D01*
X72857846Y-79059386D01*
X72924513Y-79059386D01*
X73024513Y-79026053D01*
X73057846Y-78992720D01*
X73057846Y-78759386D01*
X72924513Y-78759386D01*
X73357846Y-79059386D02*
X73357846Y-78359386D01*
X73624513Y-78359386D01*
X73691180Y-78392720D01*
X73724513Y-78426053D01*
X73757846Y-78492720D01*
X73757846Y-78592720D01*
X73724513Y-78659386D01*
X73691180Y-78692720D01*
X73624513Y-78726053D01*
X73357846Y-78726053D01*
X74057846Y-79059386D02*
X74057846Y-78359386D01*
X74524513Y-78359386D02*
X74657846Y-78359386D01*
X74724513Y-78392720D01*
X74791180Y-78459386D01*
X74824513Y-78592720D01*
X74824513Y-78826053D01*
X74791180Y-78959386D01*
X74724513Y-79026053D01*
X74657846Y-79059386D01*
X74524513Y-79059386D01*
X74457846Y-79026053D01*
X74391180Y-78959386D01*
X74357846Y-78826053D01*
X74357846Y-78592720D01*
X74391180Y-78459386D01*
X74457846Y-78392720D01*
X74524513Y-78359386D01*
X75057846Y-78359386D02*
X75491180Y-78359386D01*
X75257846Y-78626053D01*
X75357846Y-78626053D01*
X75424513Y-78659386D01*
X75457846Y-78692720D01*
X75491180Y-78759386D01*
X75491180Y-78926053D01*
X75457846Y-78992720D01*
X75424513Y-79026053D01*
X75357846Y-79059386D01*
X75157846Y-79059386D01*
X75091180Y-79026053D01*
X75057846Y-78992720D01*
X75724513Y-78359386D02*
X76157846Y-78359386D01*
X75924513Y-78626053D01*
X76024513Y-78626053D01*
X76091180Y-78659386D01*
X76124513Y-78692720D01*
X76157846Y-78759386D01*
X76157846Y-78926053D01*
X76124513Y-78992720D01*
X76091180Y-79026053D01*
X76024513Y-79059386D01*
X75824513Y-79059386D01*
X75757846Y-79026053D01*
X75724513Y-78992720D01*
X73024513Y-73312720D02*
X72957846Y-73279386D01*
X72857846Y-73279386D01*
X72757846Y-73312720D01*
X72691180Y-73379386D01*
X72657846Y-73446053D01*
X72624513Y-73579386D01*
X72624513Y-73679386D01*
X72657846Y-73812720D01*
X72691180Y-73879386D01*
X72757846Y-73946053D01*
X72857846Y-73979386D01*
X72924513Y-73979386D01*
X73024513Y-73946053D01*
X73057846Y-73912720D01*
X73057846Y-73679386D01*
X72924513Y-73679386D01*
X73357846Y-73979386D02*
X73357846Y-73279386D01*
X73624513Y-73279386D01*
X73691180Y-73312720D01*
X73724513Y-73346053D01*
X73757846Y-73412720D01*
X73757846Y-73512720D01*
X73724513Y-73579386D01*
X73691180Y-73612720D01*
X73624513Y-73646053D01*
X73357846Y-73646053D01*
X74057846Y-73979386D02*
X74057846Y-73279386D01*
X74524513Y-73279386D02*
X74657846Y-73279386D01*
X74724513Y-73312720D01*
X74791180Y-73379386D01*
X74824513Y-73512720D01*
X74824513Y-73746053D01*
X74791180Y-73879386D01*
X74724513Y-73946053D01*
X74657846Y-73979386D01*
X74524513Y-73979386D01*
X74457846Y-73946053D01*
X74391180Y-73879386D01*
X74357846Y-73746053D01*
X74357846Y-73512720D01*
X74391180Y-73379386D01*
X74457846Y-73312720D01*
X74524513Y-73279386D01*
X75057846Y-73279386D02*
X75491180Y-73279386D01*
X75257846Y-73546053D01*
X75357846Y-73546053D01*
X75424513Y-73579386D01*
X75457846Y-73612720D01*
X75491180Y-73679386D01*
X75491180Y-73846053D01*
X75457846Y-73912720D01*
X75424513Y-73946053D01*
X75357846Y-73979386D01*
X75157846Y-73979386D01*
X75091180Y-73946053D01*
X75057846Y-73912720D01*
X76124513Y-73279386D02*
X75791180Y-73279386D01*
X75757846Y-73612720D01*
X75791180Y-73579386D01*
X75857846Y-73546053D01*
X76024513Y-73546053D01*
X76091180Y-73579386D01*
X76124513Y-73612720D01*
X76157846Y-73679386D01*
X76157846Y-73846053D01*
X76124513Y-73912720D01*
X76091180Y-73946053D01*
X76024513Y-73979386D01*
X75857846Y-73979386D01*
X75791180Y-73946053D01*
X75757846Y-73912720D01*
X91889513Y-80932720D02*
X91822846Y-80899386D01*
X91722846Y-80899386D01*
X91622846Y-80932720D01*
X91556180Y-80999386D01*
X91522846Y-81066053D01*
X91489513Y-81199386D01*
X91489513Y-81299386D01*
X91522846Y-81432720D01*
X91556180Y-81499386D01*
X91622846Y-81566053D01*
X91722846Y-81599386D01*
X91789513Y-81599386D01*
X91889513Y-81566053D01*
X91922846Y-81532720D01*
X91922846Y-81299386D01*
X91789513Y-81299386D01*
X92222846Y-81599386D02*
X92222846Y-80899386D01*
X92489513Y-80899386D01*
X92556180Y-80932720D01*
X92589513Y-80966053D01*
X92622846Y-81032720D01*
X92622846Y-81132720D01*
X92589513Y-81199386D01*
X92556180Y-81232720D01*
X92489513Y-81266053D01*
X92222846Y-81266053D01*
X92922846Y-81599386D02*
X92922846Y-80899386D01*
X93389513Y-80899386D02*
X93522846Y-80899386D01*
X93589513Y-80932720D01*
X93656180Y-80999386D01*
X93689513Y-81132720D01*
X93689513Y-81366053D01*
X93656180Y-81499386D01*
X93589513Y-81566053D01*
X93522846Y-81599386D01*
X93389513Y-81599386D01*
X93322846Y-81566053D01*
X93256180Y-81499386D01*
X93222846Y-81366053D01*
X93222846Y-81132720D01*
X93256180Y-80999386D01*
X93322846Y-80932720D01*
X93389513Y-80899386D01*
X94356180Y-81599386D02*
X93956180Y-81599386D01*
X94156180Y-81599386D02*
X94156180Y-80899386D01*
X94089513Y-80999386D01*
X94022846Y-81066053D01*
X93956180Y-81099386D01*
X94756180Y-81199386D02*
X94689513Y-81166053D01*
X94656180Y-81132720D01*
X94622846Y-81066053D01*
X94622846Y-81032720D01*
X94656180Y-80966053D01*
X94689513Y-80932720D01*
X94756180Y-80899386D01*
X94889513Y-80899386D01*
X94956180Y-80932720D01*
X94989513Y-80966053D01*
X95022846Y-81032720D01*
X95022846Y-81066053D01*
X94989513Y-81132720D01*
X94956180Y-81166053D01*
X94889513Y-81199386D01*
X94756180Y-81199386D01*
X94689513Y-81232720D01*
X94656180Y-81266053D01*
X94622846Y-81332720D01*
X94622846Y-81466053D01*
X94656180Y-81532720D01*
X94689513Y-81566053D01*
X94756180Y-81599386D01*
X94889513Y-81599386D01*
X94956180Y-81566053D01*
X94989513Y-81532720D01*
X95022846Y-81466053D01*
X95022846Y-81332720D01*
X94989513Y-81266053D01*
X94956180Y-81232720D01*
X94889513Y-81199386D01*
X92556180Y-91092720D02*
X92489513Y-91059386D01*
X92389513Y-91059386D01*
X92289513Y-91092720D01*
X92222846Y-91159386D01*
X92189513Y-91226053D01*
X92156180Y-91359386D01*
X92156180Y-91459386D01*
X92189513Y-91592720D01*
X92222846Y-91659386D01*
X92289513Y-91726053D01*
X92389513Y-91759386D01*
X92456180Y-91759386D01*
X92556180Y-91726053D01*
X92589513Y-91692720D01*
X92589513Y-91459386D01*
X92456180Y-91459386D01*
X92889513Y-91759386D02*
X92889513Y-91059386D01*
X93156180Y-91059386D01*
X93222846Y-91092720D01*
X93256180Y-91126053D01*
X93289513Y-91192720D01*
X93289513Y-91292720D01*
X93256180Y-91359386D01*
X93222846Y-91392720D01*
X93156180Y-91426053D01*
X92889513Y-91426053D01*
X93589513Y-91759386D02*
X93589513Y-91059386D01*
X94056180Y-91059386D02*
X94189513Y-91059386D01*
X94256180Y-91092720D01*
X94322846Y-91159386D01*
X94356180Y-91292720D01*
X94356180Y-91526053D01*
X94322846Y-91659386D01*
X94256180Y-91726053D01*
X94189513Y-91759386D01*
X94056180Y-91759386D01*
X93989513Y-91726053D01*
X93922846Y-91659386D01*
X93889513Y-91526053D01*
X93889513Y-91292720D01*
X93922846Y-91159386D01*
X93989513Y-91092720D01*
X94056180Y-91059386D01*
X94956180Y-91292720D02*
X94956180Y-91759386D01*
X94789513Y-91026053D02*
X94622846Y-91526053D01*
X95056180Y-91526053D01*
X92870465Y-75702720D02*
X92775227Y-75655100D01*
X92632370Y-75655100D01*
X92489513Y-75702720D01*
X92394275Y-75797958D01*
X92346656Y-75893196D01*
X92299037Y-76083672D01*
X92299037Y-76226529D01*
X92346656Y-76417005D01*
X92394275Y-76512243D01*
X92489513Y-76607481D01*
X92632370Y-76655100D01*
X92727608Y-76655100D01*
X92870465Y-76607481D01*
X92918084Y-76559862D01*
X92918084Y-76226529D01*
X92727608Y-76226529D01*
X93346656Y-76655100D02*
X93346656Y-75655100D01*
X93918084Y-76655100D01*
X93918084Y-75655100D01*
X94394275Y-76655100D02*
X94394275Y-75655100D01*
X94632370Y-75655100D01*
X94775227Y-75702720D01*
X94870465Y-75797958D01*
X94918084Y-75893196D01*
X94965703Y-76083672D01*
X94965703Y-76226529D01*
X94918084Y-76417005D01*
X94870465Y-76512243D01*
X94775227Y-76607481D01*
X94632370Y-76655100D01*
X94394275Y-76655100D01*
X73024513Y-86012720D02*
X72957846Y-85979386D01*
X72857846Y-85979386D01*
X72757846Y-86012720D01*
X72691180Y-86079386D01*
X72657846Y-86146053D01*
X72624513Y-86279386D01*
X72624513Y-86379386D01*
X72657846Y-86512720D01*
X72691180Y-86579386D01*
X72757846Y-86646053D01*
X72857846Y-86679386D01*
X72924513Y-86679386D01*
X73024513Y-86646053D01*
X73057846Y-86612720D01*
X73057846Y-86379386D01*
X72924513Y-86379386D01*
X73357846Y-86679386D02*
X73357846Y-85979386D01*
X73624513Y-85979386D01*
X73691180Y-86012720D01*
X73724513Y-86046053D01*
X73757846Y-86112720D01*
X73757846Y-86212720D01*
X73724513Y-86279386D01*
X73691180Y-86312720D01*
X73624513Y-86346053D01*
X73357846Y-86346053D01*
X74057846Y-86679386D02*
X74057846Y-85979386D01*
X74524513Y-85979386D02*
X74657846Y-85979386D01*
X74724513Y-86012720D01*
X74791180Y-86079386D01*
X74824513Y-86212720D01*
X74824513Y-86446053D01*
X74791180Y-86579386D01*
X74724513Y-86646053D01*
X74657846Y-86679386D01*
X74524513Y-86679386D01*
X74457846Y-86646053D01*
X74391180Y-86579386D01*
X74357846Y-86446053D01*
X74357846Y-86212720D01*
X74391180Y-86079386D01*
X74457846Y-86012720D01*
X74524513Y-85979386D01*
X75091180Y-86046053D02*
X75124513Y-86012720D01*
X75191180Y-85979386D01*
X75357846Y-85979386D01*
X75424513Y-86012720D01*
X75457846Y-86046053D01*
X75491180Y-86112720D01*
X75491180Y-86179386D01*
X75457846Y-86279386D01*
X75057846Y-86679386D01*
X75491180Y-86679386D01*
X75724513Y-85979386D02*
X76191180Y-85979386D01*
X75891180Y-86679386D01*
X73024513Y-80932720D02*
X72957846Y-80899386D01*
X72857846Y-80899386D01*
X72757846Y-80932720D01*
X72691180Y-80999386D01*
X72657846Y-81066053D01*
X72624513Y-81199386D01*
X72624513Y-81299386D01*
X72657846Y-81432720D01*
X72691180Y-81499386D01*
X72757846Y-81566053D01*
X72857846Y-81599386D01*
X72924513Y-81599386D01*
X73024513Y-81566053D01*
X73057846Y-81532720D01*
X73057846Y-81299386D01*
X72924513Y-81299386D01*
X73357846Y-81599386D02*
X73357846Y-80899386D01*
X73624513Y-80899386D01*
X73691180Y-80932720D01*
X73724513Y-80966053D01*
X73757846Y-81032720D01*
X73757846Y-81132720D01*
X73724513Y-81199386D01*
X73691180Y-81232720D01*
X73624513Y-81266053D01*
X73357846Y-81266053D01*
X74057846Y-81599386D02*
X74057846Y-80899386D01*
X74524513Y-80899386D02*
X74657846Y-80899386D01*
X74724513Y-80932720D01*
X74791180Y-80999386D01*
X74824513Y-81132720D01*
X74824513Y-81366053D01*
X74791180Y-81499386D01*
X74724513Y-81566053D01*
X74657846Y-81599386D01*
X74524513Y-81599386D01*
X74457846Y-81566053D01*
X74391180Y-81499386D01*
X74357846Y-81366053D01*
X74357846Y-81132720D01*
X74391180Y-80999386D01*
X74457846Y-80932720D01*
X74524513Y-80899386D01*
X75091180Y-80966053D02*
X75124513Y-80932720D01*
X75191180Y-80899386D01*
X75357846Y-80899386D01*
X75424513Y-80932720D01*
X75457846Y-80966053D01*
X75491180Y-81032720D01*
X75491180Y-81099386D01*
X75457846Y-81199386D01*
X75057846Y-81599386D01*
X75491180Y-81599386D01*
X76124513Y-80899386D02*
X75791180Y-80899386D01*
X75757846Y-81232720D01*
X75791180Y-81199386D01*
X75857846Y-81166053D01*
X76024513Y-81166053D01*
X76091180Y-81199386D01*
X76124513Y-81232720D01*
X76157846Y-81299386D01*
X76157846Y-81466053D01*
X76124513Y-81532720D01*
X76091180Y-81566053D01*
X76024513Y-81599386D01*
X75857846Y-81599386D01*
X75791180Y-81566053D01*
X75757846Y-81532720D01*
X72657846Y-99379386D02*
X72657846Y-98679386D01*
X72824513Y-98679386D01*
X72924513Y-98712720D01*
X72991180Y-98779386D01*
X73024513Y-98846053D01*
X73057846Y-98979386D01*
X73057846Y-99079386D01*
X73024513Y-99212720D01*
X72991180Y-99279386D01*
X72924513Y-99346053D01*
X72824513Y-99379386D01*
X72657846Y-99379386D01*
X73324513Y-98746053D02*
X73357846Y-98712720D01*
X73424513Y-98679386D01*
X73591180Y-98679386D01*
X73657846Y-98712720D01*
X73691180Y-98746053D01*
X73724513Y-98812720D01*
X73724513Y-98879386D01*
X73691180Y-98979386D01*
X73291180Y-99379386D01*
X73724513Y-99379386D01*
X72557846Y-68199386D02*
X72791180Y-68899386D01*
X73024513Y-68199386D01*
X73257846Y-68899386D02*
X73257846Y-68199386D01*
X73657846Y-68899386D01*
X73657846Y-68199386D01*
X74491180Y-68166053D02*
X73891180Y-69066053D01*
X75091180Y-68232720D02*
X75024513Y-68199386D01*
X74924513Y-68199386D01*
X74824513Y-68232720D01*
X74757846Y-68299386D01*
X74724513Y-68366053D01*
X74691180Y-68499386D01*
X74691180Y-68599386D01*
X74724513Y-68732720D01*
X74757846Y-68799386D01*
X74824513Y-68866053D01*
X74924513Y-68899386D01*
X74991180Y-68899386D01*
X75091180Y-68866053D01*
X75124513Y-68832720D01*
X75124513Y-68599386D01*
X74991180Y-68599386D01*
X75424513Y-68899386D02*
X75424513Y-68199386D01*
X75691180Y-68199386D01*
X75757846Y-68232720D01*
X75791180Y-68266053D01*
X75824513Y-68332720D01*
X75824513Y-68432720D01*
X75791180Y-68499386D01*
X75757846Y-68532720D01*
X75691180Y-68566053D01*
X75424513Y-68566053D01*
X76124513Y-68899386D02*
X76124513Y-68199386D01*
X76591180Y-68199386D02*
X76724513Y-68199386D01*
X76791180Y-68232720D01*
X76857846Y-68299386D01*
X76891180Y-68432720D01*
X76891180Y-68666053D01*
X76857846Y-68799386D01*
X76791180Y-68866053D01*
X76724513Y-68899386D01*
X76591180Y-68899386D01*
X76524513Y-68866053D01*
X76457846Y-68799386D01*
X76424513Y-68666053D01*
X76424513Y-68432720D01*
X76457846Y-68299386D01*
X76524513Y-68232720D01*
X76591180Y-68199386D01*
X77124513Y-68199386D02*
X77557846Y-68199386D01*
X77324513Y-68466053D01*
X77424513Y-68466053D01*
X77491180Y-68499386D01*
X77524513Y-68532720D01*
X77557846Y-68599386D01*
X77557846Y-68766053D01*
X77524513Y-68832720D01*
X77491180Y-68866053D01*
X77424513Y-68899386D01*
X77224513Y-68899386D01*
X77157846Y-68866053D01*
X77124513Y-68832720D01*
X77891180Y-68899386D02*
X78024513Y-68899386D01*
X78091180Y-68866053D01*
X78124513Y-68832720D01*
X78191180Y-68732720D01*
X78224513Y-68599386D01*
X78224513Y-68332720D01*
X78191180Y-68266053D01*
X78157846Y-68232720D01*
X78091180Y-68199386D01*
X77957846Y-68199386D01*
X77891180Y-68232720D01*
X77857846Y-68266053D01*
X77824513Y-68332720D01*
X77824513Y-68499386D01*
X77857846Y-68566053D01*
X77891180Y-68599386D01*
X77957846Y-68632720D01*
X78091180Y-68632720D01*
X78157846Y-68599386D01*
X78191180Y-68566053D01*
X78224513Y-68499386D01*
X88389513Y-98712720D02*
X88322846Y-98679386D01*
X88222846Y-98679386D01*
X88122846Y-98712720D01*
X88056180Y-98779386D01*
X88022846Y-98846053D01*
X87989513Y-98979386D01*
X87989513Y-99079386D01*
X88022846Y-99212720D01*
X88056180Y-99279386D01*
X88122846Y-99346053D01*
X88222846Y-99379386D01*
X88289513Y-99379386D01*
X88389513Y-99346053D01*
X88422846Y-99312720D01*
X88422846Y-99079386D01*
X88289513Y-99079386D01*
X88722846Y-99379386D02*
X88722846Y-98679386D01*
X88989513Y-98679386D01*
X89056180Y-98712720D01*
X89089513Y-98746053D01*
X89122846Y-98812720D01*
X89122846Y-98912720D01*
X89089513Y-98979386D01*
X89056180Y-99012720D01*
X88989513Y-99046053D01*
X88722846Y-99046053D01*
X89422846Y-99379386D02*
X89422846Y-98679386D01*
X89889513Y-98679386D02*
X90022846Y-98679386D01*
X90089513Y-98712720D01*
X90156180Y-98779386D01*
X90189513Y-98912720D01*
X90189513Y-99146053D01*
X90156180Y-99279386D01*
X90089513Y-99346053D01*
X90022846Y-99379386D01*
X89889513Y-99379386D01*
X89822846Y-99346053D01*
X89756180Y-99279386D01*
X89722846Y-99146053D01*
X89722846Y-98912720D01*
X89756180Y-98779386D01*
X89822846Y-98712720D01*
X89889513Y-98679386D01*
X90856180Y-99379386D02*
X90456180Y-99379386D01*
X90656180Y-99379386D02*
X90656180Y-98679386D01*
X90589513Y-98779386D01*
X90522846Y-98846053D01*
X90456180Y-98879386D01*
X91489513Y-98679386D02*
X91156180Y-98679386D01*
X91122846Y-99012720D01*
X91156180Y-98979386D01*
X91222846Y-98946053D01*
X91389513Y-98946053D01*
X91456180Y-98979386D01*
X91489513Y-99012720D01*
X91522846Y-99079386D01*
X91522846Y-99246053D01*
X91489513Y-99312720D01*
X91456180Y-99346053D01*
X91389513Y-99379386D01*
X91222846Y-99379386D01*
X91156180Y-99346053D01*
X91122846Y-99312720D01*
X92322846Y-98646053D02*
X91722846Y-99546053D01*
X92556180Y-99379386D02*
X92556180Y-98679386D01*
X92789513Y-99179386D01*
X93022846Y-98679386D01*
X93022846Y-99379386D01*
X93256180Y-98679386D02*
X93656180Y-98679386D01*
X93456180Y-99379386D02*
X93456180Y-98679386D01*
X93889513Y-99379386D02*
X93889513Y-98679386D01*
X94056180Y-98679386D01*
X94156180Y-98712720D01*
X94222846Y-98779386D01*
X94256180Y-98846053D01*
X94289513Y-98979386D01*
X94289513Y-99079386D01*
X94256180Y-99212720D01*
X94222846Y-99279386D01*
X94156180Y-99346053D01*
X94056180Y-99379386D01*
X93889513Y-99379386D01*
X94722846Y-98679386D02*
X94856180Y-98679386D01*
X94922846Y-98712720D01*
X94989513Y-98779386D01*
X95022846Y-98912720D01*
X95022846Y-99146053D01*
X94989513Y-99279386D01*
X94922846Y-99346053D01*
X94856180Y-99379386D01*
X94722846Y-99379386D01*
X94656180Y-99346053D01*
X94589513Y-99279386D01*
X94556180Y-99146053D01*
X94556180Y-98912720D01*
X94589513Y-98779386D01*
X94656180Y-98712720D01*
X94722846Y-98679386D01*
X72634037Y-60415100D02*
X73253084Y-60415100D01*
X72919751Y-60796053D01*
X73062608Y-60796053D01*
X73157846Y-60843672D01*
X73205465Y-60891291D01*
X73253084Y-60986529D01*
X73253084Y-61224624D01*
X73205465Y-61319862D01*
X73157846Y-61367481D01*
X73062608Y-61415100D01*
X72776894Y-61415100D01*
X72681656Y-61367481D01*
X72634037Y-61319862D01*
X73538799Y-60415100D02*
X73872132Y-61415100D01*
X74205465Y-60415100D01*
X74443560Y-60415100D02*
X75062608Y-60415100D01*
X74729275Y-60796053D01*
X74872132Y-60796053D01*
X74967370Y-60843672D01*
X75014989Y-60891291D01*
X75062608Y-60986529D01*
X75062608Y-61224624D01*
X75014989Y-61319862D01*
X74967370Y-61367481D01*
X74872132Y-61415100D01*
X74586418Y-61415100D01*
X74491180Y-61367481D01*
X74443560Y-61319862D01*
X91889513Y-65692720D02*
X91822846Y-65659386D01*
X91722846Y-65659386D01*
X91622846Y-65692720D01*
X91556180Y-65759386D01*
X91522846Y-65826053D01*
X91489513Y-65959386D01*
X91489513Y-66059386D01*
X91522846Y-66192720D01*
X91556180Y-66259386D01*
X91622846Y-66326053D01*
X91722846Y-66359386D01*
X91789513Y-66359386D01*
X91889513Y-66326053D01*
X91922846Y-66292720D01*
X91922846Y-66059386D01*
X91789513Y-66059386D01*
X92222846Y-66359386D02*
X92222846Y-65659386D01*
X92489513Y-65659386D01*
X92556180Y-65692720D01*
X92589513Y-65726053D01*
X92622846Y-65792720D01*
X92622846Y-65892720D01*
X92589513Y-65959386D01*
X92556180Y-65992720D01*
X92489513Y-66026053D01*
X92222846Y-66026053D01*
X92922846Y-66359386D02*
X92922846Y-65659386D01*
X93389513Y-65659386D02*
X93522846Y-65659386D01*
X93589513Y-65692720D01*
X93656180Y-65759386D01*
X93689513Y-65892720D01*
X93689513Y-66126053D01*
X93656180Y-66259386D01*
X93589513Y-66326053D01*
X93522846Y-66359386D01*
X93389513Y-66359386D01*
X93322846Y-66326053D01*
X93256180Y-66259386D01*
X93222846Y-66126053D01*
X93222846Y-65892720D01*
X93256180Y-65759386D01*
X93322846Y-65692720D01*
X93389513Y-65659386D01*
X93956180Y-65726053D02*
X93989513Y-65692720D01*
X94056180Y-65659386D01*
X94222846Y-65659386D01*
X94289513Y-65692720D01*
X94322846Y-65726053D01*
X94356180Y-65792720D01*
X94356180Y-65859386D01*
X94322846Y-65959386D01*
X93922846Y-66359386D01*
X94356180Y-66359386D01*
X94622846Y-65726053D02*
X94656180Y-65692720D01*
X94722846Y-65659386D01*
X94889513Y-65659386D01*
X94956180Y-65692720D01*
X94989513Y-65726053D01*
X95022846Y-65792720D01*
X95022846Y-65859386D01*
X94989513Y-65959386D01*
X94589513Y-66359386D01*
X95022846Y-66359386D01*
X92870465Y-60462720D02*
X92775227Y-60415100D01*
X92632370Y-60415100D01*
X92489513Y-60462720D01*
X92394275Y-60557958D01*
X92346656Y-60653196D01*
X92299037Y-60843672D01*
X92299037Y-60986529D01*
X92346656Y-61177005D01*
X92394275Y-61272243D01*
X92489513Y-61367481D01*
X92632370Y-61415100D01*
X92727608Y-61415100D01*
X92870465Y-61367481D01*
X92918084Y-61319862D01*
X92918084Y-60986529D01*
X92727608Y-60986529D01*
X93346656Y-61415100D02*
X93346656Y-60415100D01*
X93918084Y-61415100D01*
X93918084Y-60415100D01*
X94394275Y-61415100D02*
X94394275Y-60415100D01*
X94632370Y-60415100D01*
X94775227Y-60462720D01*
X94870465Y-60557958D01*
X94918084Y-60653196D01*
X94965703Y-60843672D01*
X94965703Y-60986529D01*
X94918084Y-61177005D01*
X94870465Y-61272243D01*
X94775227Y-61367481D01*
X94632370Y-61415100D01*
X94394275Y-61415100D01*
X92556180Y-93632720D02*
X92489513Y-93599386D01*
X92389513Y-93599386D01*
X92289513Y-93632720D01*
X92222846Y-93699386D01*
X92189513Y-93766053D01*
X92156180Y-93899386D01*
X92156180Y-93999386D01*
X92189513Y-94132720D01*
X92222846Y-94199386D01*
X92289513Y-94266053D01*
X92389513Y-94299386D01*
X92456180Y-94299386D01*
X92556180Y-94266053D01*
X92589513Y-94232720D01*
X92589513Y-93999386D01*
X92456180Y-93999386D01*
X92889513Y-94299386D02*
X92889513Y-93599386D01*
X93156180Y-93599386D01*
X93222846Y-93632720D01*
X93256180Y-93666053D01*
X93289513Y-93732720D01*
X93289513Y-93832720D01*
X93256180Y-93899386D01*
X93222846Y-93932720D01*
X93156180Y-93966053D01*
X92889513Y-93966053D01*
X93589513Y-94299386D02*
X93589513Y-93599386D01*
X94056180Y-93599386D02*
X94189513Y-93599386D01*
X94256180Y-93632720D01*
X94322846Y-93699386D01*
X94356180Y-93832720D01*
X94356180Y-94066053D01*
X94322846Y-94199386D01*
X94256180Y-94266053D01*
X94189513Y-94299386D01*
X94056180Y-94299386D01*
X93989513Y-94266053D01*
X93922846Y-94199386D01*
X93889513Y-94066053D01*
X93889513Y-93832720D01*
X93922846Y-93699386D01*
X93989513Y-93632720D01*
X94056180Y-93599386D01*
X94789513Y-93599386D02*
X94856180Y-93599386D01*
X94922846Y-93632720D01*
X94956180Y-93666053D01*
X94989513Y-93732720D01*
X95022846Y-93866053D01*
X95022846Y-94032720D01*
X94989513Y-94166053D01*
X94956180Y-94232720D01*
X94922846Y-94266053D01*
X94856180Y-94299386D01*
X94789513Y-94299386D01*
X94722846Y-94266053D01*
X94689513Y-94232720D01*
X94656180Y-94166053D01*
X94622846Y-94032720D01*
X94622846Y-93866053D01*
X94656180Y-93732720D01*
X94689513Y-93666053D01*
X94722846Y-93632720D01*
X94789513Y-93599386D01*
X73201785Y-106386380D02*
X72725595Y-106386380D01*
X72677976Y-106862571D01*
X72725595Y-106814952D01*
X72820833Y-106767333D01*
X73058928Y-106767333D01*
X73154166Y-106814952D01*
X73201785Y-106862571D01*
X73249404Y-106957809D01*
X73249404Y-107195904D01*
X73201785Y-107291142D01*
X73154166Y-107338761D01*
X73058928Y-107386380D01*
X72820833Y-107386380D01*
X72725595Y-107338761D01*
X72677976Y-107291142D01*
X73535119Y-106386380D02*
X73868452Y-107386380D01*
X74201785Y-106386380D01*
X73024513Y-70772720D02*
X72957846Y-70739386D01*
X72857846Y-70739386D01*
X72757846Y-70772720D01*
X72691180Y-70839386D01*
X72657846Y-70906053D01*
X72624513Y-71039386D01*
X72624513Y-71139386D01*
X72657846Y-71272720D01*
X72691180Y-71339386D01*
X72757846Y-71406053D01*
X72857846Y-71439386D01*
X72924513Y-71439386D01*
X73024513Y-71406053D01*
X73057846Y-71372720D01*
X73057846Y-71139386D01*
X72924513Y-71139386D01*
X73357846Y-71439386D02*
X73357846Y-70739386D01*
X73624513Y-70739386D01*
X73691180Y-70772720D01*
X73724513Y-70806053D01*
X73757846Y-70872720D01*
X73757846Y-70972720D01*
X73724513Y-71039386D01*
X73691180Y-71072720D01*
X73624513Y-71106053D01*
X73357846Y-71106053D01*
X74057846Y-71439386D02*
X74057846Y-70739386D01*
X74524513Y-70739386D02*
X74657846Y-70739386D01*
X74724513Y-70772720D01*
X74791180Y-70839386D01*
X74824513Y-70972720D01*
X74824513Y-71206053D01*
X74791180Y-71339386D01*
X74724513Y-71406053D01*
X74657846Y-71439386D01*
X74524513Y-71439386D01*
X74457846Y-71406053D01*
X74391180Y-71339386D01*
X74357846Y-71206053D01*
X74357846Y-70972720D01*
X74391180Y-70839386D01*
X74457846Y-70772720D01*
X74524513Y-70739386D01*
X75057846Y-70739386D02*
X75491180Y-70739386D01*
X75257846Y-71006053D01*
X75357846Y-71006053D01*
X75424513Y-71039386D01*
X75457846Y-71072720D01*
X75491180Y-71139386D01*
X75491180Y-71306053D01*
X75457846Y-71372720D01*
X75424513Y-71406053D01*
X75357846Y-71439386D01*
X75157846Y-71439386D01*
X75091180Y-71406053D01*
X75057846Y-71372720D01*
X76091180Y-70972720D02*
X76091180Y-71439386D01*
X75924513Y-70706053D02*
X75757846Y-71206053D01*
X76191180Y-71206053D01*
X91889513Y-78392720D02*
X91822846Y-78359386D01*
X91722846Y-78359386D01*
X91622846Y-78392720D01*
X91556180Y-78459386D01*
X91522846Y-78526053D01*
X91489513Y-78659386D01*
X91489513Y-78759386D01*
X91522846Y-78892720D01*
X91556180Y-78959386D01*
X91622846Y-79026053D01*
X91722846Y-79059386D01*
X91789513Y-79059386D01*
X91889513Y-79026053D01*
X91922846Y-78992720D01*
X91922846Y-78759386D01*
X91789513Y-78759386D01*
X92222846Y-79059386D02*
X92222846Y-78359386D01*
X92489513Y-78359386D01*
X92556180Y-78392720D01*
X92589513Y-78426053D01*
X92622846Y-78492720D01*
X92622846Y-78592720D01*
X92589513Y-78659386D01*
X92556180Y-78692720D01*
X92489513Y-78726053D01*
X92222846Y-78726053D01*
X92922846Y-79059386D02*
X92922846Y-78359386D01*
X93389513Y-78359386D02*
X93522846Y-78359386D01*
X93589513Y-78392720D01*
X93656180Y-78459386D01*
X93689513Y-78592720D01*
X93689513Y-78826053D01*
X93656180Y-78959386D01*
X93589513Y-79026053D01*
X93522846Y-79059386D01*
X93389513Y-79059386D01*
X93322846Y-79026053D01*
X93256180Y-78959386D01*
X93222846Y-78826053D01*
X93222846Y-78592720D01*
X93256180Y-78459386D01*
X93322846Y-78392720D01*
X93389513Y-78359386D01*
X94356180Y-79059386D02*
X93956180Y-79059386D01*
X94156180Y-79059386D02*
X94156180Y-78359386D01*
X94089513Y-78459386D01*
X94022846Y-78526053D01*
X93956180Y-78559386D01*
X94689513Y-79059386D02*
X94822846Y-79059386D01*
X94889513Y-79026053D01*
X94922846Y-78992720D01*
X94989513Y-78892720D01*
X95022846Y-78759386D01*
X95022846Y-78492720D01*
X94989513Y-78426053D01*
X94956180Y-78392720D01*
X94889513Y-78359386D01*
X94756180Y-78359386D01*
X94689513Y-78392720D01*
X94656180Y-78426053D01*
X94622846Y-78492720D01*
X94622846Y-78659386D01*
X94656180Y-78726053D01*
X94689513Y-78759386D01*
X94756180Y-78792720D01*
X94889513Y-78792720D01*
X94956180Y-78759386D01*
X94989513Y-78726053D01*
X95022846Y-78659386D01*
X91889513Y-63152720D02*
X91822846Y-63119386D01*
X91722846Y-63119386D01*
X91622846Y-63152720D01*
X91556180Y-63219386D01*
X91522846Y-63286053D01*
X91489513Y-63419386D01*
X91489513Y-63519386D01*
X91522846Y-63652720D01*
X91556180Y-63719386D01*
X91622846Y-63786053D01*
X91722846Y-63819386D01*
X91789513Y-63819386D01*
X91889513Y-63786053D01*
X91922846Y-63752720D01*
X91922846Y-63519386D01*
X91789513Y-63519386D01*
X92222846Y-63819386D02*
X92222846Y-63119386D01*
X92489513Y-63119386D01*
X92556180Y-63152720D01*
X92589513Y-63186053D01*
X92622846Y-63252720D01*
X92622846Y-63352720D01*
X92589513Y-63419386D01*
X92556180Y-63452720D01*
X92489513Y-63486053D01*
X92222846Y-63486053D01*
X92922846Y-63819386D02*
X92922846Y-63119386D01*
X93389513Y-63119386D02*
X93522846Y-63119386D01*
X93589513Y-63152720D01*
X93656180Y-63219386D01*
X93689513Y-63352720D01*
X93689513Y-63586053D01*
X93656180Y-63719386D01*
X93589513Y-63786053D01*
X93522846Y-63819386D01*
X93389513Y-63819386D01*
X93322846Y-63786053D01*
X93256180Y-63719386D01*
X93222846Y-63586053D01*
X93222846Y-63352720D01*
X93256180Y-63219386D01*
X93322846Y-63152720D01*
X93389513Y-63119386D01*
X93956180Y-63186053D02*
X93989513Y-63152720D01*
X94056180Y-63119386D01*
X94222846Y-63119386D01*
X94289513Y-63152720D01*
X94322846Y-63186053D01*
X94356180Y-63252720D01*
X94356180Y-63319386D01*
X94322846Y-63419386D01*
X93922846Y-63819386D01*
X94356180Y-63819386D01*
X94589513Y-63119386D02*
X95022846Y-63119386D01*
X94789513Y-63386053D01*
X94889513Y-63386053D01*
X94956180Y-63419386D01*
X94989513Y-63452720D01*
X95022846Y-63519386D01*
X95022846Y-63686053D01*
X94989513Y-63752720D01*
X94956180Y-63786053D01*
X94889513Y-63819386D01*
X94689513Y-63819386D01*
X94622846Y-63786053D01*
X94589513Y-63752720D01*
X73024513Y-96172720D02*
X72957846Y-96139386D01*
X72857846Y-96139386D01*
X72757846Y-96172720D01*
X72691180Y-96239386D01*
X72657846Y-96306053D01*
X72624513Y-96439386D01*
X72624513Y-96539386D01*
X72657846Y-96672720D01*
X72691180Y-96739386D01*
X72757846Y-96806053D01*
X72857846Y-96839386D01*
X72924513Y-96839386D01*
X73024513Y-96806053D01*
X73057846Y-96772720D01*
X73057846Y-96539386D01*
X72924513Y-96539386D01*
X73357846Y-96839386D02*
X73357846Y-96139386D01*
X73624513Y-96139386D01*
X73691180Y-96172720D01*
X73724513Y-96206053D01*
X73757846Y-96272720D01*
X73757846Y-96372720D01*
X73724513Y-96439386D01*
X73691180Y-96472720D01*
X73624513Y-96506053D01*
X73357846Y-96506053D01*
X74057846Y-96839386D02*
X74057846Y-96139386D01*
X74524513Y-96139386D02*
X74657846Y-96139386D01*
X74724513Y-96172720D01*
X74791180Y-96239386D01*
X74824513Y-96372720D01*
X74824513Y-96606053D01*
X74791180Y-96739386D01*
X74724513Y-96806053D01*
X74657846Y-96839386D01*
X74524513Y-96839386D01*
X74457846Y-96806053D01*
X74391180Y-96739386D01*
X74357846Y-96606053D01*
X74357846Y-96372720D01*
X74391180Y-96239386D01*
X74457846Y-96172720D01*
X74524513Y-96139386D01*
X75491180Y-96839386D02*
X75091180Y-96839386D01*
X75291180Y-96839386D02*
X75291180Y-96139386D01*
X75224513Y-96239386D01*
X75157846Y-96306053D01*
X75091180Y-96339386D01*
X75724513Y-96139386D02*
X76157846Y-96139386D01*
X75924513Y-96406053D01*
X76024513Y-96406053D01*
X76091180Y-96439386D01*
X76124513Y-96472720D01*
X76157846Y-96539386D01*
X76157846Y-96706053D01*
X76124513Y-96772720D01*
X76091180Y-96806053D01*
X76024513Y-96839386D01*
X75824513Y-96839386D01*
X75757846Y-96806053D01*
X75724513Y-96772720D01*
X76957846Y-96106053D02*
X76357846Y-97006053D01*
X77191180Y-96839386D02*
X77191180Y-96139386D01*
X77424513Y-96639386D01*
X77657846Y-96139386D01*
X77657846Y-96839386D01*
X77891180Y-96139386D02*
X78291180Y-96139386D01*
X78091180Y-96839386D02*
X78091180Y-96139386D01*
X78924513Y-96772720D02*
X78891180Y-96806053D01*
X78791180Y-96839386D01*
X78724513Y-96839386D01*
X78624513Y-96806053D01*
X78557846Y-96739386D01*
X78524513Y-96672720D01*
X78491180Y-96539386D01*
X78491180Y-96439386D01*
X78524513Y-96306053D01*
X78557846Y-96239386D01*
X78624513Y-96172720D01*
X78724513Y-96139386D01*
X78791180Y-96139386D01*
X78891180Y-96172720D01*
X78924513Y-96206053D01*
X79224513Y-96839386D02*
X79224513Y-96139386D01*
X79624513Y-96839386D02*
X79324513Y-96439386D01*
X79624513Y-96139386D02*
X79224513Y-96539386D01*
X91889513Y-88552720D02*
X91822846Y-88519386D01*
X91722846Y-88519386D01*
X91622846Y-88552720D01*
X91556180Y-88619386D01*
X91522846Y-88686053D01*
X91489513Y-88819386D01*
X91489513Y-88919386D01*
X91522846Y-89052720D01*
X91556180Y-89119386D01*
X91622846Y-89186053D01*
X91722846Y-89219386D01*
X91789513Y-89219386D01*
X91889513Y-89186053D01*
X91922846Y-89152720D01*
X91922846Y-88919386D01*
X91789513Y-88919386D01*
X92222846Y-89219386D02*
X92222846Y-88519386D01*
X92489513Y-88519386D01*
X92556180Y-88552720D01*
X92589513Y-88586053D01*
X92622846Y-88652720D01*
X92622846Y-88752720D01*
X92589513Y-88819386D01*
X92556180Y-88852720D01*
X92489513Y-88886053D01*
X92222846Y-88886053D01*
X92922846Y-89219386D02*
X92922846Y-88519386D01*
X93389513Y-88519386D02*
X93522846Y-88519386D01*
X93589513Y-88552720D01*
X93656180Y-88619386D01*
X93689513Y-88752720D01*
X93689513Y-88986053D01*
X93656180Y-89119386D01*
X93589513Y-89186053D01*
X93522846Y-89219386D01*
X93389513Y-89219386D01*
X93322846Y-89186053D01*
X93256180Y-89119386D01*
X93222846Y-88986053D01*
X93222846Y-88752720D01*
X93256180Y-88619386D01*
X93322846Y-88552720D01*
X93389513Y-88519386D01*
X94356180Y-89219386D02*
X93956180Y-89219386D01*
X94156180Y-89219386D02*
X94156180Y-88519386D01*
X94089513Y-88619386D01*
X94022846Y-88686053D01*
X93956180Y-88719386D01*
X94956180Y-88519386D02*
X94822846Y-88519386D01*
X94756180Y-88552720D01*
X94722846Y-88586053D01*
X94656180Y-88686053D01*
X94622846Y-88819386D01*
X94622846Y-89086053D01*
X94656180Y-89152720D01*
X94689513Y-89186053D01*
X94756180Y-89219386D01*
X94889513Y-89219386D01*
X94956180Y-89186053D01*
X94989513Y-89152720D01*
X95022846Y-89086053D01*
X95022846Y-88919386D01*
X94989513Y-88852720D01*
X94956180Y-88819386D01*
X94889513Y-88786053D01*
X94756180Y-88786053D01*
X94689513Y-88819386D01*
X94656180Y-88852720D01*
X94622846Y-88919386D01*
X93956180Y-104459386D02*
X93956180Y-103759386D01*
X94122846Y-103759386D01*
X94222846Y-103792720D01*
X94289513Y-103859386D01*
X94322846Y-103926053D01*
X94356180Y-104059386D01*
X94356180Y-104159386D01*
X94322846Y-104292720D01*
X94289513Y-104359386D01*
X94222846Y-104426053D01*
X94122846Y-104459386D01*
X93956180Y-104459386D01*
X94789513Y-103759386D02*
X94856180Y-103759386D01*
X94922846Y-103792720D01*
X94956180Y-103826053D01*
X94989513Y-103892720D01*
X95022846Y-104026053D01*
X95022846Y-104192720D01*
X94989513Y-104326053D01*
X94956180Y-104392720D01*
X94922846Y-104426053D01*
X94856180Y-104459386D01*
X94789513Y-104459386D01*
X94722846Y-104426053D01*
X94689513Y-104392720D01*
X94656180Y-104326053D01*
X94622846Y-104192720D01*
X94622846Y-104026053D01*
X94656180Y-103892720D01*
X94689513Y-103826053D01*
X94722846Y-103792720D01*
X94789513Y-103759386D01*
X93956180Y-101919386D02*
X93956180Y-101219386D01*
X94122846Y-101219386D01*
X94222846Y-101252720D01*
X94289513Y-101319386D01*
X94322846Y-101386053D01*
X94356180Y-101519386D01*
X94356180Y-101619386D01*
X94322846Y-101752720D01*
X94289513Y-101819386D01*
X94222846Y-101886053D01*
X94122846Y-101919386D01*
X93956180Y-101919386D01*
X95022846Y-101919386D02*
X94622846Y-101919386D01*
X94822846Y-101919386D02*
X94822846Y-101219386D01*
X94756180Y-101319386D01*
X94689513Y-101386053D01*
X94622846Y-101419386D01*
X72626785Y-63428571D02*
X72960119Y-63428571D01*
X73102976Y-63952380D02*
X72626785Y-63952380D01*
X72626785Y-62952380D01*
X73102976Y-62952380D01*
X73531547Y-63952380D02*
X73531547Y-62952380D01*
X74102976Y-63952380D01*
X74102976Y-62952380D01*
X75293452Y-62904761D02*
X74436309Y-64190476D01*
X76198214Y-63952380D02*
X75864880Y-63476190D01*
X75626785Y-63952380D02*
X75626785Y-62952380D01*
X76007738Y-62952380D01*
X76102976Y-63000000D01*
X76150595Y-63047619D01*
X76198214Y-63142857D01*
X76198214Y-63285714D01*
X76150595Y-63380952D01*
X76102976Y-63428571D01*
X76007738Y-63476190D01*
X75626785Y-63476190D01*
X76626785Y-63428571D02*
X76960119Y-63428571D01*
X77102976Y-63952380D02*
X76626785Y-63952380D01*
X76626785Y-62952380D01*
X77102976Y-62952380D01*
X77483928Y-63904761D02*
X77626785Y-63952380D01*
X77864880Y-63952380D01*
X77960119Y-63904761D01*
X78007738Y-63857142D01*
X78055357Y-63761904D01*
X78055357Y-63666666D01*
X78007738Y-63571428D01*
X77960119Y-63523809D01*
X77864880Y-63476190D01*
X77674404Y-63428571D01*
X77579166Y-63380952D01*
X77531547Y-63333333D01*
X77483928Y-63238095D01*
X77483928Y-63142857D01*
X77531547Y-63047619D01*
X77579166Y-63000000D01*
X77674404Y-62952380D01*
X77912500Y-62952380D01*
X78055357Y-63000000D01*
X78483928Y-63428571D02*
X78817261Y-63428571D01*
X78960119Y-63952380D02*
X78483928Y-63952380D01*
X78483928Y-62952380D01*
X78960119Y-62952380D01*
X79245833Y-62952380D02*
X79817261Y-62952380D01*
X79531547Y-63952380D02*
X79531547Y-62952380D01*
X73024513Y-88552720D02*
X72957846Y-88519386D01*
X72857846Y-88519386D01*
X72757846Y-88552720D01*
X72691180Y-88619386D01*
X72657846Y-88686053D01*
X72624513Y-88819386D01*
X72624513Y-88919386D01*
X72657846Y-89052720D01*
X72691180Y-89119386D01*
X72757846Y-89186053D01*
X72857846Y-89219386D01*
X72924513Y-89219386D01*
X73024513Y-89186053D01*
X73057846Y-89152720D01*
X73057846Y-88919386D01*
X72924513Y-88919386D01*
X73357846Y-89219386D02*
X73357846Y-88519386D01*
X73624513Y-88519386D01*
X73691180Y-88552720D01*
X73724513Y-88586053D01*
X73757846Y-88652720D01*
X73757846Y-88752720D01*
X73724513Y-88819386D01*
X73691180Y-88852720D01*
X73624513Y-88886053D01*
X73357846Y-88886053D01*
X74057846Y-89219386D02*
X74057846Y-88519386D01*
X74524513Y-88519386D02*
X74657846Y-88519386D01*
X74724513Y-88552720D01*
X74791180Y-88619386D01*
X74824513Y-88752720D01*
X74824513Y-88986053D01*
X74791180Y-89119386D01*
X74724513Y-89186053D01*
X74657846Y-89219386D01*
X74524513Y-89219386D01*
X74457846Y-89186053D01*
X74391180Y-89119386D01*
X74357846Y-88986053D01*
X74357846Y-88752720D01*
X74391180Y-88619386D01*
X74457846Y-88552720D01*
X74524513Y-88519386D01*
X75491180Y-89219386D02*
X75091180Y-89219386D01*
X75291180Y-89219386D02*
X75291180Y-88519386D01*
X75224513Y-88619386D01*
X75157846Y-88686053D01*
X75091180Y-88719386D01*
X76091180Y-88752720D02*
X76091180Y-89219386D01*
X75924513Y-88486053D02*
X75757846Y-88986053D01*
X76191180Y-88986053D01*
X76957846Y-88486053D02*
X76357846Y-89386053D01*
X77191180Y-89219386D02*
X77191180Y-88519386D01*
X77424513Y-89019386D01*
X77657846Y-88519386D01*
X77657846Y-89219386D01*
X77891180Y-88519386D02*
X78291180Y-88519386D01*
X78091180Y-89219386D02*
X78091180Y-88519386D01*
X78524513Y-89219386D02*
X78524513Y-88519386D01*
X78757846Y-89019386D01*
X78991180Y-88519386D01*
X78991180Y-89219386D01*
X79291180Y-89186053D02*
X79391180Y-89219386D01*
X79557846Y-89219386D01*
X79624513Y-89186053D01*
X79657846Y-89152720D01*
X79691180Y-89086053D01*
X79691180Y-89019386D01*
X79657846Y-88952720D01*
X79624513Y-88919386D01*
X79557846Y-88886053D01*
X79424513Y-88852720D01*
X79357846Y-88819386D01*
X79324513Y-88786053D01*
X79291180Y-88719386D01*
X79291180Y-88652720D01*
X79324513Y-88586053D01*
X79357846Y-88552720D01*
X79424513Y-88519386D01*
X79591180Y-88519386D01*
X79691180Y-88552720D01*
X93756180Y-106932720D02*
X93722846Y-106966053D01*
X93622846Y-106999386D01*
X93556180Y-106999386D01*
X93456180Y-106966053D01*
X93389513Y-106899386D01*
X93356180Y-106832720D01*
X93322846Y-106699386D01*
X93322846Y-106599386D01*
X93356180Y-106466053D01*
X93389513Y-106399386D01*
X93456180Y-106332720D01*
X93556180Y-106299386D01*
X93622846Y-106299386D01*
X93722846Y-106332720D01*
X93756180Y-106366053D01*
X94389513Y-106999386D02*
X94056180Y-106999386D01*
X94056180Y-106299386D01*
X94622846Y-106999386D02*
X94622846Y-106299386D01*
X95022846Y-106999386D02*
X94722846Y-106599386D01*
X95022846Y-106299386D02*
X94622846Y-106699386D01*
X72657846Y-101919386D02*
X72657846Y-101219386D01*
X72824513Y-101219386D01*
X72924513Y-101252720D01*
X72991180Y-101319386D01*
X73024513Y-101386053D01*
X73057846Y-101519386D01*
X73057846Y-101619386D01*
X73024513Y-101752720D01*
X72991180Y-101819386D01*
X72924513Y-101886053D01*
X72824513Y-101919386D01*
X72657846Y-101919386D01*
X73291180Y-101219386D02*
X73724513Y-101219386D01*
X73491180Y-101486053D01*
X73591180Y-101486053D01*
X73657846Y-101519386D01*
X73691180Y-101552720D01*
X73724513Y-101619386D01*
X73724513Y-101786053D01*
X73691180Y-101852720D01*
X73657846Y-101886053D01*
X73591180Y-101919386D01*
X73391180Y-101919386D01*
X73324513Y-101886053D01*
X73291180Y-101852720D01*
X88522846Y-68232720D02*
X88456180Y-68199386D01*
X88356180Y-68199386D01*
X88256180Y-68232720D01*
X88189513Y-68299386D01*
X88156180Y-68366053D01*
X88122846Y-68499386D01*
X88122846Y-68599386D01*
X88156180Y-68732720D01*
X88189513Y-68799386D01*
X88256180Y-68866053D01*
X88356180Y-68899386D01*
X88422846Y-68899386D01*
X88522846Y-68866053D01*
X88556180Y-68832720D01*
X88556180Y-68599386D01*
X88422846Y-68599386D01*
X88856180Y-68899386D02*
X88856180Y-68199386D01*
X89122846Y-68199386D01*
X89189513Y-68232720D01*
X89222846Y-68266053D01*
X89256180Y-68332720D01*
X89256180Y-68432720D01*
X89222846Y-68499386D01*
X89189513Y-68532720D01*
X89122846Y-68566053D01*
X88856180Y-68566053D01*
X89556180Y-68899386D02*
X89556180Y-68199386D01*
X90022846Y-68199386D02*
X90156180Y-68199386D01*
X90222846Y-68232720D01*
X90289513Y-68299386D01*
X90322846Y-68432720D01*
X90322846Y-68666053D01*
X90289513Y-68799386D01*
X90222846Y-68866053D01*
X90156180Y-68899386D01*
X90022846Y-68899386D01*
X89956180Y-68866053D01*
X89889513Y-68799386D01*
X89856180Y-68666053D01*
X89856180Y-68432720D01*
X89889513Y-68299386D01*
X89956180Y-68232720D01*
X90022846Y-68199386D01*
X90989513Y-68899386D02*
X90589513Y-68899386D01*
X90789513Y-68899386D02*
X90789513Y-68199386D01*
X90722846Y-68299386D01*
X90656180Y-68366053D01*
X90589513Y-68399386D01*
X91789513Y-68166053D02*
X91189513Y-69066053D01*
X92022846Y-68199386D02*
X92022846Y-68766053D01*
X92056180Y-68832720D01*
X92089513Y-68866053D01*
X92156180Y-68899386D01*
X92289513Y-68899386D01*
X92356180Y-68866053D01*
X92389513Y-68832720D01*
X92422846Y-68766053D01*
X92422846Y-68199386D01*
X92889513Y-68199386D02*
X92956180Y-68199386D01*
X93022846Y-68232720D01*
X93056180Y-68266053D01*
X93089513Y-68332720D01*
X93122846Y-68466053D01*
X93122846Y-68632720D01*
X93089513Y-68766053D01*
X93056180Y-68832720D01*
X93022846Y-68866053D01*
X92956180Y-68899386D01*
X92889513Y-68899386D01*
X92822846Y-68866053D01*
X92789513Y-68832720D01*
X92756180Y-68766053D01*
X92722846Y-68632720D01*
X92722846Y-68466053D01*
X92756180Y-68332720D01*
X92789513Y-68266053D01*
X92822846Y-68232720D01*
X92889513Y-68199386D01*
X93322846Y-68199386D02*
X93722846Y-68199386D01*
X93522846Y-68899386D02*
X93522846Y-68199386D01*
X93889513Y-68199386D02*
X94356180Y-68899386D01*
X94356180Y-68199386D02*
X93889513Y-68899386D01*
X94622846Y-68899386D02*
X94622846Y-68199386D01*
X94789513Y-68199386D01*
X94889513Y-68232720D01*
X94956180Y-68299386D01*
X94989513Y-68366053D01*
X95022846Y-68499386D01*
X95022846Y-68599386D01*
X94989513Y-68732720D01*
X94956180Y-68799386D01*
X94889513Y-68866053D01*
X94789513Y-68899386D01*
X94622846Y-68899386D01*
%TO.C,R1*%
X104762380Y-94146666D02*
X104286190Y-94480000D01*
X104762380Y-94718095D02*
X103762380Y-94718095D01*
X103762380Y-94337142D01*
X103810000Y-94241904D01*
X103857619Y-94194285D01*
X103952857Y-94146666D01*
X104095714Y-94146666D01*
X104190952Y-94194285D01*
X104238571Y-94241904D01*
X104286190Y-94337142D01*
X104286190Y-94718095D01*
X104762380Y-93194285D02*
X104762380Y-93765714D01*
X104762380Y-93480000D02*
X103762380Y-93480000D01*
X103905238Y-93575238D01*
X104000476Y-93670476D01*
X104048095Y-93765714D01*
%TO.C,J1*%
X131746666Y-55332380D02*
X131746666Y-56046666D01*
X131699047Y-56189523D01*
X131603809Y-56284761D01*
X131460952Y-56332380D01*
X131365714Y-56332380D01*
X132746666Y-56332380D02*
X132175238Y-56332380D01*
X132460952Y-56332380D02*
X132460952Y-55332380D01*
X132365714Y-55475238D01*
X132270476Y-55570476D01*
X132175238Y-55618095D01*
%TO.C,H3*%
X62738095Y-105472380D02*
X62738095Y-104472380D01*
X62738095Y-104948571D02*
X63309523Y-104948571D01*
X63309523Y-105472380D02*
X63309523Y-104472380D01*
X63690476Y-104472380D02*
X64309523Y-104472380D01*
X63976190Y-104853333D01*
X64119047Y-104853333D01*
X64214285Y-104900952D01*
X64261904Y-104948571D01*
X64309523Y-105043809D01*
X64309523Y-105281904D01*
X64261904Y-105377142D01*
X64214285Y-105424761D01*
X64119047Y-105472380D01*
X63833333Y-105472380D01*
X63738095Y-105424761D01*
X63690476Y-105377142D01*
%TO.C,H4*%
X141478095Y-49592380D02*
X141478095Y-48592380D01*
X141478095Y-49068571D02*
X142049523Y-49068571D01*
X142049523Y-49592380D02*
X142049523Y-48592380D01*
X142954285Y-48925714D02*
X142954285Y-49592380D01*
X142716190Y-48544761D02*
X142478095Y-49259047D01*
X143097142Y-49259047D01*
D11*
%TO.C,J5*%
X121920000Y-107950000D02*
X121920000Y-100330000D01*
X106680000Y-106680000D02*
X121920000Y-106680000D01*
X106680000Y-100330000D02*
X121920000Y-100330000D01*
X106680000Y-107950000D02*
X121920000Y-107950000D01*
X106680000Y-107950000D02*
X106680000Y-100330000D01*
%TO.C,Q1*%
X124420000Y-98330000D02*
X124420000Y-102971000D01*
X134660000Y-98330000D02*
X134660000Y-102971000D01*
X131391000Y-98330000D02*
X131391000Y-99840000D01*
X124420000Y-99840000D02*
X134660000Y-99840000D01*
X124420000Y-102971000D02*
X134660000Y-102971000D01*
X124420000Y-98330000D02*
X134660000Y-98330000D01*
X127690000Y-98330000D02*
X127690000Y-99840000D01*
%TO.C,U2*%
X104140000Y-88245000D02*
X104140000Y-73005000D01*
X127000000Y-73005000D02*
X127000000Y-88245000D01*
X104140000Y-73005000D02*
X127000000Y-73005000D01*
X127000000Y-88245000D02*
X104140000Y-88245000D01*
%TO.C,J4*%
X132080000Y-91440000D02*
X132080000Y-81280000D01*
X138430000Y-91440000D02*
X138430000Y-81280000D01*
X138430000Y-81280000D02*
X130810000Y-81280000D01*
X130810000Y-81280000D02*
X130810000Y-91440000D01*
X130810000Y-91440000D02*
X138430000Y-91440000D01*
%TO.C,J2*%
X124460000Y-63500000D02*
X114300000Y-63500000D01*
X124460000Y-64770000D02*
X124460000Y-57150000D01*
X124460000Y-57150000D02*
X114300000Y-57150000D01*
X114300000Y-57150000D02*
X114300000Y-64770000D01*
X114300000Y-64770000D02*
X124460000Y-64770000D01*
%TO.C,J3*%
X130810000Y-78740000D02*
X138430000Y-78740000D01*
X138430000Y-68580000D02*
X130810000Y-68580000D01*
X130810000Y-68580000D02*
X130810000Y-78740000D01*
X132080000Y-78740000D02*
X132080000Y-68580000D01*
X138430000Y-78740000D02*
X138430000Y-68580000D01*
%TO.C,RV1*%
X105970000Y-62290000D02*
X105870000Y-62290000D01*
X105970000Y-62090000D02*
X107390000Y-62090000D01*
X112490000Y-64020000D02*
X112490000Y-68000000D01*
X110970000Y-62290000D02*
X110970000Y-62090000D01*
X110970000Y-62090000D02*
X112390000Y-62090000D01*
X105970000Y-62090000D02*
X105970000Y-62290000D01*
X112490000Y-62290000D02*
X112490000Y-62980000D01*
X105870000Y-62290000D02*
X105870000Y-62540000D01*
X108670000Y-69310000D02*
X107180000Y-69310000D01*
X105870000Y-68000000D02*
X105870000Y-64460000D01*
X112390000Y-62290000D02*
X112490000Y-62290000D01*
X111180000Y-69310000D02*
X109690000Y-69310000D01*
X112390000Y-62090000D02*
X112390000Y-62290000D01*
X107390000Y-62290000D02*
X107390000Y-62090000D01*
X107390000Y-62290000D02*
X110970000Y-62290000D01*
X105870000Y-68000000D02*
G75*
G03*
X107180000Y-69310000I1310000J0D01*
G01*
X111180000Y-69310000D02*
G75*
G03*
X112490000Y-68000000I0J1310000D01*
G01*
%TO.C,U1*%
X92837000Y-53949600D02*
X92837000Y-59842400D01*
X74853800Y-59842400D02*
X74853800Y-53949600D01*
X74853800Y-53949600D02*
X92837000Y-53949600D01*
X69623681Y-59862720D02*
X69623680Y-107782720D01*
X69623680Y-107782720D02*
X98023679Y-107782720D01*
X98023680Y-59862720D02*
X69623681Y-59862720D01*
X98023679Y-107782720D02*
X98023680Y-59862720D01*
%TO.C,R1*%
X106680000Y-95150000D02*
X106680000Y-92540000D01*
X108050000Y-96520000D02*
G75*
G03*
X108050000Y-96520000I-1370000J0D01*
G01*
%TO.C,SW1*%
X111760000Y-92615000D02*
X121920000Y-92615000D01*
X121920000Y-92615000D02*
X121920000Y-97695000D01*
X121920000Y-97695000D02*
X111760000Y-97695000D01*
X111760000Y-97695000D02*
X111760000Y-92615000D01*
X114300000Y-90075000D02*
X119380000Y-90075000D01*
X114300000Y-92615000D02*
X114300000Y-90075000D01*
X119380000Y-90075000D02*
X119380000Y-92615000D01*
%TO.C,J1*%
X137160000Y-64770000D02*
X137160000Y-57150000D01*
X137160000Y-63500000D02*
X127000000Y-63500000D01*
X127000000Y-57150000D02*
X127000000Y-64770000D01*
X137160000Y-57150000D02*
X127000000Y-57150000D01*
X127000000Y-64770000D02*
X137160000Y-64770000D01*
%TD*%
M02*
