%TF.GenerationSoftware,KiCad,Pcbnew,6.0.2+dfsg-1*%
%TF.CreationDate,2022-06-22T21:08:06-04:00*%
%TF.ProjectId,NodeMCU-32S,4e6f6465-4d43-4552-9d33-32532e6b6963,rev?*%
%TF.SameCoordinates,Original*%
%TF.FileFunction,Copper,L1,Top*%
%TF.FilePolarity,Positive*%
%FSLAX46Y46*%
G04 Gerber Fmt 4.6, Leading zero omitted, Abs format (unit mm)*
G04 Created by KiCad (PCBNEW 6.0.2+dfsg-1) date 2022-06-22 21:08:06*
%MOMM*%
%LPD*%
G01*
G04 APERTURE LIST*
G04 Aperture macros list*
%AMRoundRect*
0 Rectangle with rounded corners*
0 $1 Rounding radius*
0 $2 $3 $4 $5 $6 $7 $8 $9 X,Y pos of 4 corners*
0 Add a 4 corners polygon primitive as box body*
4,1,4,$2,$3,$4,$5,$6,$7,$8,$9,$2,$3,0*
0 Add four circle primitives for the rounded corners*
1,1,$1+$1,$2,$3*
1,1,$1+$1,$4,$5*
1,1,$1+$1,$6,$7*
1,1,$1+$1,$8,$9*
0 Add four rect primitives between the rounded corners*
20,1,$1+$1,$2,$3,$4,$5,0*
20,1,$1+$1,$4,$5,$6,$7,0*
20,1,$1+$1,$6,$7,$8,$9,0*
20,1,$1+$1,$8,$9,$2,$3,0*%
G04 Aperture macros list end*
%TA.AperFunction,ComponentPad*%
%ADD10R,3.000000X3.000000*%
%TD*%
%TA.AperFunction,ComponentPad*%
%ADD11C,3.000000*%
%TD*%
%TA.AperFunction,ComponentPad*%
%ADD12R,1.905000X2.000000*%
%TD*%
%TA.AperFunction,ComponentPad*%
%ADD13O,1.905000X2.000000*%
%TD*%
%TA.AperFunction,ComponentPad*%
%ADD14C,1.524000*%
%TD*%
%TA.AperFunction,ComponentPad*%
%ADD15R,1.560000X1.560000*%
%TD*%
%TA.AperFunction,ComponentPad*%
%ADD16C,1.560000*%
%TD*%
%TA.AperFunction,ComponentPad*%
%ADD17O,2.000000X1.200000*%
%TD*%
%TA.AperFunction,ComponentPad*%
%ADD18RoundRect,0.300000X-0.700000X0.300000X-0.700000X-0.300000X0.700000X-0.300000X0.700000X0.300000X0*%
%TD*%
%TA.AperFunction,ComponentPad*%
%ADD19C,1.600000*%
%TD*%
%TA.AperFunction,ComponentPad*%
%ADD20O,1.600000X1.600000*%
%TD*%
%TA.AperFunction,ViaPad*%
%ADD21C,0.800000*%
%TD*%
%TA.AperFunction,Conductor*%
%ADD22C,0.250000*%
%TD*%
%TA.AperFunction,Conductor*%
%ADD23C,1.000000*%
%TD*%
G04 APERTURE END LIST*
D10*
%TO.P,J5,1,Pin_1*%
%TO.N,+5V*%
X109220000Y-104140000D03*
D11*
%TO.P,J5,2,Pin_2*%
%TO.N,ENABLE*%
X114300000Y-104140000D03*
%TO.P,J5,3,Pin_3*%
%TO.N,GND*%
X119380000Y-104140000D03*
%TD*%
D12*
%TO.P,Q1,1,G*%
%TO.N,Net-(Q1-Pad1)*%
X127000000Y-101600000D03*
D13*
%TO.P,Q1,2,D*%
%TO.N,MOSFET_GND*%
X129540000Y-101600000D03*
%TO.P,Q1,3,S*%
%TO.N,GND*%
X132080000Y-101600000D03*
%TD*%
D14*
%TO.P,U2,1,IN+*%
%TO.N,VCC*%
X106680000Y-78085000D03*
X106680000Y-75545000D03*
%TO.P,U2,2,IN-*%
%TO.N,GND*%
X106680000Y-83165000D03*
X106680000Y-85705000D03*
%TO.P,U2,3,5v*%
%TO.N,+5V*%
X124460000Y-78085000D03*
X124460000Y-75545000D03*
%TO.P,U2,4,5v-*%
%TO.N,GND*%
X124460000Y-83165000D03*
X124460000Y-85705000D03*
%TD*%
D10*
%TO.P,J4,1,Pin_1*%
%TO.N,PUL*%
X134620000Y-83820000D03*
D11*
%TO.P,J4,2,Pin_2*%
%TO.N,GND*%
X134620000Y-88900000D03*
%TD*%
D10*
%TO.P,J2,1,Pin_1*%
%TO.N,VCC*%
X116840000Y-60960000D03*
D11*
%TO.P,J2,2,Pin_2*%
%TO.N,GND*%
X121920000Y-60960000D03*
%TD*%
D10*
%TO.P,J3,1,Pin_1*%
%TO.N,DIR*%
X134620000Y-71120000D03*
D11*
%TO.P,J3,2,Pin_2*%
%TO.N,GND*%
X134620000Y-76200000D03*
%TD*%
D15*
%TO.P,RV1,1,1*%
%TO.N,+5V*%
X106680000Y-63500000D03*
D16*
%TO.P,RV1,2,2*%
%TO.N,Net-(RV1-Pad2)*%
X109180000Y-68500000D03*
%TO.P,RV1,3,3*%
%TO.N,GND*%
X111680000Y-63500000D03*
%TD*%
D17*
%TO.P,U1,1,3V3*%
%TO.N,unconnected-(U1-Pad1)*%
X71123680Y-60962720D03*
%TO.P,U1,2,CHIP_PU*%
%TO.N,unconnected-(U1-Pad2)*%
X71123680Y-63502720D03*
%TO.P,U1,3,SENSOR_VP/GPIO36/ADC1_CH0*%
%TO.N,unconnected-(U1-Pad3)*%
X71123680Y-66042720D03*
%TO.P,U1,4,SENSOR_VN/GPIO39/ADC1_CH3*%
%TO.N,unconnected-(U1-Pad4)*%
X71123680Y-68582720D03*
%TO.P,U1,5,VDET_1/GPIO34/ADC1_CH6*%
%TO.N,Net-(RV1-Pad2)*%
X71123680Y-71122720D03*
%TO.P,U1,6,VDET_2/GPIO35/ADC1_CH7*%
%TO.N,unconnected-(U1-Pad6)*%
X71123680Y-73662720D03*
%TO.P,U1,7,32K_XP/GPIO32/ADC1_CH4*%
%TO.N,unconnected-(U1-Pad7)*%
X71123680Y-76202720D03*
%TO.P,U1,8,32K_XN/GPIO33/ADC1_CH5*%
%TO.N,unconnected-(U1-Pad8)*%
X71123680Y-78742720D03*
%TO.P,U1,9,DAC_1/ADC2_CH8/GPIO25*%
%TO.N,unconnected-(U1-Pad9)*%
X71123680Y-81282720D03*
%TO.P,U1,10,DAC_2/ADC2_CH9/GPIO26*%
%TO.N,unconnected-(U1-Pad10)*%
X71123680Y-83822720D03*
%TO.P,U1,11,ADC2_CH7/GPIO27*%
%TO.N,unconnected-(U1-Pad11)*%
X71123680Y-86362720D03*
%TO.P,U1,12,MTMS/GPIO14/ADC2_CH6*%
%TO.N,unconnected-(U1-Pad12)*%
X71123680Y-88902720D03*
%TO.P,U1,13,\u002AMTDI/GPIO12/ADC2_CH5*%
%TO.N,unconnected-(U1-Pad13)*%
X71123680Y-91442720D03*
D18*
%TO.P,U1,14,GND*%
%TO.N,GND*%
X71123680Y-93982720D03*
D17*
%TO.P,U1,15,MTCK/GPIO13/ADC2_CH4*%
%TO.N,unconnected-(U1-Pad15)*%
X71123680Y-96522720D03*
%TO.P,U1,16,SD_DATA2/GPIO9*%
%TO.N,unconnected-(U1-Pad16)*%
X71123680Y-99062720D03*
%TO.P,U1,17,SD_DATA3/GPIO10*%
%TO.N,unconnected-(U1-Pad17)*%
X71123680Y-101602720D03*
%TO.P,U1,18,CMD*%
%TO.N,unconnected-(U1-Pad18)*%
X71123680Y-104142720D03*
%TO.P,U1,19,5V*%
%TO.N,+5V*%
X71123680Y-106682720D03*
%TO.P,U1,20,SD_CLK/GPIO6*%
%TO.N,unconnected-(U1-Pad20)*%
X96520000Y-106680000D03*
%TO.P,U1,21,SD_DATA0/GPIO7*%
%TO.N,unconnected-(U1-Pad21)*%
X96520000Y-104140000D03*
%TO.P,U1,22,SD_DATA1/GPIO8*%
%TO.N,unconnected-(U1-Pad22)*%
X96523680Y-101602720D03*
%TO.P,U1,23,\u002AMTDO/GPIO15/ADC2_CH3*%
%TO.N,unconnected-(U1-Pad23)*%
X96523680Y-99062720D03*
%TO.P,U1,24,ADC2_CH2/\u002AGPIO2*%
%TO.N,unconnected-(U1-Pad24)*%
X96523680Y-96522720D03*
%TO.P,U1,25,\u002AGPIO0/BOOT/ADC2_CH1*%
%TO.N,unconnected-(U1-Pad25)*%
X96523680Y-93982720D03*
%TO.P,U1,26,ADC2_CH0/GPIO4*%
%TO.N,unconnected-(U1-Pad26)*%
X96523680Y-91442720D03*
%TO.P,U1,27,GPIO16*%
%TO.N,unconnected-(U1-Pad27)*%
X96523680Y-88902720D03*
%TO.P,U1,28,GPIO17*%
%TO.N,unconnected-(U1-Pad28)*%
X96523680Y-86362720D03*
%TO.P,U1,29,\u002AGPIO5*%
%TO.N,unconnected-(U1-Pad29)*%
X96523680Y-83822720D03*
%TO.P,U1,30,GPIO18*%
%TO.N,DIR*%
X96523680Y-81282720D03*
%TO.P,U1,31,GPIO19*%
%TO.N,PUL*%
X96523680Y-78742720D03*
%TO.P,U1,32,GND*%
%TO.N,GND*%
X96523680Y-76202720D03*
%TO.P,U1,33,GPIO21*%
%TO.N,unconnected-(U1-Pad33)*%
X96523680Y-73662720D03*
%TO.P,U1,34,U0RXD/GPIO3*%
%TO.N,unconnected-(U1-Pad34)*%
X96523680Y-71122720D03*
%TO.P,U1,35,U0TXD/GPIO1*%
%TO.N,unconnected-(U1-Pad35)*%
X96523680Y-68582720D03*
%TO.P,U1,36,GPIO22*%
%TO.N,unconnected-(U1-Pad36)*%
X96523680Y-66042720D03*
%TO.P,U1,37,GPIO23*%
%TO.N,ENABLE*%
X96523680Y-63502720D03*
D18*
%TO.P,U1,38,GND*%
%TO.N,GND*%
X96523680Y-60962720D03*
%TD*%
D19*
%TO.P,R1,1*%
%TO.N,ENABLE*%
X106680000Y-96520000D03*
D20*
%TO.P,R1,2*%
%TO.N,Net-(Q1-Pad1)*%
X106680000Y-91440000D03*
%TD*%
D14*
%TO.P,SW1,3,C*%
%TO.N,GND*%
X119380000Y-95155000D03*
%TO.P,SW1,2,B*%
%TO.N,Variable Ground*%
X116840000Y-95155000D03*
%TO.P,SW1,1,A*%
%TO.N,MOSFET_GND*%
X114300000Y-95155000D03*
%TD*%
D10*
%TO.P,J1,1,Pin_1*%
%TO.N,VCC*%
X129540000Y-60960000D03*
D11*
%TO.P,J1,2,Pin_2*%
%TO.N,Variable Ground*%
X134620000Y-60960000D03*
%TD*%
D21*
%TO.N,PUL*%
X118205500Y-81280000D03*
X129540000Y-81280000D03*
X106680000Y-80508220D03*
%TD*%
D22*
%TO.N,GND*%
X139700000Y-68580000D02*
X139700000Y-71120000D01*
X137160000Y-66040000D02*
X139700000Y-68580000D01*
X121920000Y-60960000D02*
X127000000Y-66040000D01*
X127000000Y-66040000D02*
X137160000Y-66040000D01*
X139700000Y-71120000D02*
X134620000Y-76200000D01*
%TO.N,VCC*%
X116840000Y-65385000D02*
X106680000Y-75545000D01*
D23*
X116840000Y-60960000D02*
X119380000Y-58420000D01*
X119380000Y-58420000D02*
X127000000Y-58420000D01*
X127000000Y-58420000D02*
X129540000Y-60960000D01*
D22*
X116840000Y-60960000D02*
X116840000Y-65385000D01*
%TO.N,GND*%
X131425000Y-85705000D02*
X134620000Y-88900000D01*
X109142720Y-60962720D02*
X111680000Y-63500000D01*
X124460000Y-83165000D02*
X124460000Y-85705000D01*
X96523680Y-60962720D02*
X109142720Y-60962720D01*
X119380000Y-95155000D02*
X119380000Y-104140000D01*
X106680000Y-85705000D02*
X109930000Y-85705000D01*
X96523680Y-76202720D02*
X88903680Y-76202720D01*
X131425000Y-79395000D02*
X131425000Y-85705000D01*
X109930000Y-85705000D02*
X119380000Y-95155000D01*
X124460000Y-85705000D02*
X131425000Y-85705000D01*
X134620000Y-76200000D02*
X131425000Y-79395000D01*
X88903680Y-76202720D02*
X71123680Y-93982720D01*
%TO.N,DIR*%
X124460000Y-71120000D02*
X134620000Y-71120000D01*
X96523680Y-81282720D02*
X114297280Y-81282720D01*
X114297280Y-81282720D02*
X124460000Y-71120000D01*
%TO.N,PUL*%
X104914500Y-78742720D02*
X96523680Y-78742720D01*
X106680000Y-80508220D02*
X104914500Y-78742720D01*
X129540000Y-81280000D02*
X118205500Y-81280000D01*
%TO.N,+5V*%
X124460000Y-78085000D02*
X120035000Y-78085000D01*
X120035000Y-78085000D02*
X113551511Y-84568489D01*
X103391511Y-84568489D02*
X101600000Y-86360000D01*
X101600000Y-86360000D02*
X101600000Y-96520000D01*
X113551511Y-84568489D02*
X103391511Y-84568489D01*
X124460000Y-75545000D02*
X124460000Y-78740000D01*
X101600000Y-96520000D02*
X109220000Y-104140000D01*
%TO.N,Net-(RV1-Pad2)*%
X105582760Y-72097240D02*
X109180000Y-68500000D01*
X72098200Y-72097240D02*
X105582760Y-72097240D01*
X71123680Y-71122720D02*
X72098200Y-72097240D01*
%TD*%
M02*
