G04 #@! TF.GenerationSoftware,KiCad,Pcbnew,(6.0.5-0)*
G04 #@! TF.CreationDate,2022-06-28T11:27:09-04:00*
G04 #@! TF.ProjectId,NodeMCU-32S,4e6f6465-4d43-4552-9d33-32532e6b6963,rev?*
G04 #@! TF.SameCoordinates,Original*
G04 #@! TF.FileFunction,Legend,Top*
G04 #@! TF.FilePolarity,Positive*
%FSLAX46Y46*%
G04 Gerber Fmt 4.6, Leading zero omitted, Abs format (unit mm)*
G04 Created by KiCad (PCBNEW (6.0.5-0)) date 2022-06-28 11:27:09*
%MOMM*%
%LPD*%
G01*
G04 APERTURE LIST*
G04 Aperture macros list*
%AMRoundRect*
0 Rectangle with rounded corners*
0 $1 Rounding radius*
0 $2 $3 $4 $5 $6 $7 $8 $9 X,Y pos of 4 corners*
0 Add a 4 corners polygon primitive as box body*
4,1,4,$2,$3,$4,$5,$6,$7,$8,$9,$2,$3,0*
0 Add four circle primitives for the rounded corners*
1,1,$1+$1,$2,$3*
1,1,$1+$1,$4,$5*
1,1,$1+$1,$6,$7*
1,1,$1+$1,$8,$9*
0 Add four rect primitives between the rounded corners*
20,1,$1+$1,$2,$3,$4,$5,0*
20,1,$1+$1,$4,$5,$6,$7,0*
20,1,$1+$1,$6,$7,$8,$9,0*
20,1,$1+$1,$8,$9,$2,$3,0*%
G04 Aperture macros list end*
%ADD10C,0.150000*%
%ADD11C,0.120000*%
%ADD12R,3.000000X3.000000*%
%ADD13C,3.000000*%
%ADD14R,1.905000X2.000000*%
%ADD15O,1.905000X2.000000*%
%ADD16C,1.524000*%
%ADD17C,3.200000*%
%ADD18R,1.560000X1.560000*%
%ADD19C,1.560000*%
%ADD20O,2.000000X1.200000*%
%ADD21RoundRect,0.300000X-0.700000X0.300000X-0.700000X-0.300000X0.700000X-0.300000X0.700000X0.300000X0*%
%ADD22C,1.600000*%
%ADD23O,1.600000X1.600000*%
G04 APERTURE END LIST*
D10*
X116662200Y-87477600D02*
X119202200Y-90017600D01*
X108915200Y-90043000D02*
X119075200Y-90043000D01*
X119202200Y-90017600D02*
X116662200Y-92557600D01*
X139771428Y-76580952D02*
X139771428Y-75819047D01*
X126025400Y-49312580D02*
X126215876Y-49312580D01*
X126311114Y-49360200D01*
X126406352Y-49455438D01*
X126453971Y-49645914D01*
X126453971Y-49979247D01*
X126406352Y-50169723D01*
X126311114Y-50264961D01*
X126215876Y-50312580D01*
X126025400Y-50312580D01*
X125930161Y-50264961D01*
X125834923Y-50169723D01*
X125787304Y-49979247D01*
X125787304Y-49645914D01*
X125834923Y-49455438D01*
X125930161Y-49360200D01*
X126025400Y-49312580D01*
X126882542Y-49312580D02*
X126882542Y-50122104D01*
X126930161Y-50217342D01*
X126977780Y-50264961D01*
X127073019Y-50312580D01*
X127263495Y-50312580D01*
X127358733Y-50264961D01*
X127406352Y-50217342D01*
X127453971Y-50122104D01*
X127453971Y-49312580D01*
X127787304Y-49312580D02*
X128358733Y-49312580D01*
X128073019Y-50312580D02*
X128073019Y-49312580D01*
X113522190Y-50414180D02*
X113522190Y-49414180D01*
X113998380Y-50414180D02*
X113998380Y-49414180D01*
X114569809Y-50414180D01*
X114569809Y-49414180D01*
X139753549Y-89277103D02*
X139753549Y-88515198D01*
X124015547Y-50122128D02*
X124777452Y-50122128D01*
X124396500Y-50503080D02*
X124396500Y-49741176D01*
X116395547Y-50122128D02*
X117157452Y-50122128D01*
X140152380Y-85010476D02*
X139152380Y-85010476D01*
X139152380Y-84629523D01*
X139200000Y-84534285D01*
X139247619Y-84486666D01*
X139342857Y-84439047D01*
X139485714Y-84439047D01*
X139580952Y-84486666D01*
X139628571Y-84534285D01*
X139676190Y-84629523D01*
X139676190Y-85010476D01*
X139152380Y-84010476D02*
X139961904Y-84010476D01*
X140057142Y-83962857D01*
X140104761Y-83915238D01*
X140152380Y-83820000D01*
X140152380Y-83629523D01*
X140104761Y-83534285D01*
X140057142Y-83486666D01*
X139961904Y-83439047D01*
X139152380Y-83439047D01*
X140152380Y-82486666D02*
X140152380Y-82962857D01*
X139152380Y-82962857D01*
X118584790Y-109599361D02*
X118727647Y-109646980D01*
X118965742Y-109646980D01*
X119060980Y-109599361D01*
X119108600Y-109551742D01*
X119156219Y-109456504D01*
X119156219Y-109361266D01*
X119108600Y-109266028D01*
X119060980Y-109218409D01*
X118965742Y-109170790D01*
X118775266Y-109123171D01*
X118680028Y-109075552D01*
X118632409Y-109027933D01*
X118584790Y-108932695D01*
X118584790Y-108837457D01*
X118632409Y-108742219D01*
X118680028Y-108694600D01*
X118775266Y-108646980D01*
X119013361Y-108646980D01*
X119156219Y-108694600D01*
X119584790Y-109646980D02*
X119584790Y-108646980D01*
X120584790Y-108694600D02*
X120489552Y-108646980D01*
X120346695Y-108646980D01*
X120203838Y-108694600D01*
X120108600Y-108789838D01*
X120060980Y-108885076D01*
X120013361Y-109075552D01*
X120013361Y-109218409D01*
X120060980Y-109408885D01*
X120108600Y-109504123D01*
X120203838Y-109599361D01*
X120346695Y-109646980D01*
X120441933Y-109646980D01*
X120584790Y-109599361D01*
X120632409Y-109551742D01*
X120632409Y-109218409D01*
X120441933Y-109218409D01*
X113046095Y-109672380D02*
X113046095Y-108672380D01*
X113284190Y-108672380D01*
X113427047Y-108720000D01*
X113522285Y-108815238D01*
X113569904Y-108910476D01*
X113617523Y-109100952D01*
X113617523Y-109243809D01*
X113569904Y-109434285D01*
X113522285Y-109529523D01*
X113427047Y-109624761D01*
X113284190Y-109672380D01*
X113046095Y-109672380D01*
X114617523Y-109577142D02*
X114569904Y-109624761D01*
X114427047Y-109672380D01*
X114331809Y-109672380D01*
X114188952Y-109624761D01*
X114093714Y-109529523D01*
X114046095Y-109434285D01*
X113998476Y-109243809D01*
X113998476Y-109100952D01*
X114046095Y-108910476D01*
X114093714Y-108815238D01*
X114188952Y-108720000D01*
X114331809Y-108672380D01*
X114427047Y-108672380D01*
X114569904Y-108720000D01*
X114617523Y-108767619D01*
X115808000Y-109291428D02*
X116569904Y-109291428D01*
X107839047Y-109672380D02*
X107839047Y-108672380D01*
X108077142Y-108672380D01*
X108220000Y-108720000D01*
X108315238Y-108815238D01*
X108362857Y-108910476D01*
X108410476Y-109100952D01*
X108410476Y-109243809D01*
X108362857Y-109434285D01*
X108315238Y-109529523D01*
X108220000Y-109624761D01*
X108077142Y-109672380D01*
X107839047Y-109672380D01*
X109410476Y-109577142D02*
X109362857Y-109624761D01*
X109220000Y-109672380D01*
X109124761Y-109672380D01*
X108981904Y-109624761D01*
X108886666Y-109529523D01*
X108839047Y-109434285D01*
X108791428Y-109243809D01*
X108791428Y-109100952D01*
X108839047Y-108910476D01*
X108886666Y-108815238D01*
X108981904Y-108720000D01*
X109124761Y-108672380D01*
X109220000Y-108672380D01*
X109362857Y-108720000D01*
X109410476Y-108767619D01*
X109839047Y-109291428D02*
X110600952Y-109291428D01*
X110220000Y-109672380D02*
X110220000Y-108910476D01*
X140152380Y-72120000D02*
X139152380Y-72120000D01*
X139152380Y-71881904D01*
X139200000Y-71739047D01*
X139295238Y-71643809D01*
X139390476Y-71596190D01*
X139580952Y-71548571D01*
X139723809Y-71548571D01*
X139914285Y-71596190D01*
X140009523Y-71643809D01*
X140104761Y-71739047D01*
X140152380Y-71881904D01*
X140152380Y-72120000D01*
X140152380Y-71120000D02*
X139152380Y-71120000D01*
X140152380Y-70072380D02*
X139676190Y-70405714D01*
X140152380Y-70643809D02*
X139152380Y-70643809D01*
X139152380Y-70262857D01*
X139200000Y-70167619D01*
X139247619Y-70120000D01*
X139342857Y-70072380D01*
X139485714Y-70072380D01*
X139580952Y-70120000D01*
X139628571Y-70167619D01*
X139676190Y-70262857D01*
X139676190Y-70643809D01*
X129095547Y-50122128D02*
X129857452Y-50122128D01*
X111315547Y-50122128D02*
X112077452Y-50122128D01*
X111696500Y-50503080D02*
X111696500Y-49741176D01*
X113936666Y-98942380D02*
X113936666Y-99656666D01*
X113889047Y-99799523D01*
X113793809Y-99894761D01*
X113650952Y-99942380D01*
X113555714Y-99942380D01*
X114889047Y-98942380D02*
X114412857Y-98942380D01*
X114365238Y-99418571D01*
X114412857Y-99370952D01*
X114508095Y-99323333D01*
X114746190Y-99323333D01*
X114841428Y-99370952D01*
X114889047Y-99418571D01*
X114936666Y-99513809D01*
X114936666Y-99751904D01*
X114889047Y-99847142D01*
X114841428Y-99894761D01*
X114746190Y-99942380D01*
X114508095Y-99942380D01*
X114412857Y-99894761D01*
X114365238Y-99847142D01*
X104552761Y-63719819D02*
X104457523Y-63672200D01*
X104362285Y-63576961D01*
X104219428Y-63434104D01*
X104124190Y-63386485D01*
X104028952Y-63386485D01*
X104076571Y-63624580D02*
X103981333Y-63576961D01*
X103886095Y-63481723D01*
X103838476Y-63291247D01*
X103838476Y-62957914D01*
X103886095Y-62767438D01*
X103981333Y-62672200D01*
X104076571Y-62624580D01*
X104267047Y-62624580D01*
X104362285Y-62672200D01*
X104457523Y-62767438D01*
X104505142Y-62957914D01*
X104505142Y-63291247D01*
X104457523Y-63481723D01*
X104362285Y-63576961D01*
X104267047Y-63624580D01*
X104076571Y-63624580D01*
X105457523Y-63624580D02*
X104886095Y-63624580D01*
X105171809Y-63624580D02*
X105171809Y-62624580D01*
X105076571Y-62767438D01*
X104981333Y-62862676D01*
X104886095Y-62910295D01*
X111556895Y-91382980D02*
X111556895Y-92192504D01*
X111604514Y-92287742D01*
X111652133Y-92335361D01*
X111747371Y-92382980D01*
X111937847Y-92382980D01*
X112033085Y-92335361D01*
X112080704Y-92287742D01*
X112128323Y-92192504D01*
X112128323Y-91382980D01*
X112556895Y-91478219D02*
X112604514Y-91430600D01*
X112699752Y-91382980D01*
X112937847Y-91382980D01*
X113033085Y-91430600D01*
X113080704Y-91478219D01*
X113128323Y-91573457D01*
X113128323Y-91668695D01*
X113080704Y-91811552D01*
X112509276Y-92382980D01*
X113128323Y-92382980D01*
X127950980Y-86693333D02*
X128665266Y-86693333D01*
X128808123Y-86740952D01*
X128903361Y-86836190D01*
X128950980Y-86979047D01*
X128950980Y-87074285D01*
X128284314Y-85788571D02*
X128950980Y-85788571D01*
X127903361Y-86026666D02*
X128617647Y-86264761D01*
X128617647Y-85645714D01*
X113903166Y-54583080D02*
X113903166Y-55297366D01*
X113855547Y-55440223D01*
X113760309Y-55535461D01*
X113617452Y-55583080D01*
X113522214Y-55583080D01*
X114331738Y-54678319D02*
X114379357Y-54630700D01*
X114474595Y-54583080D01*
X114712690Y-54583080D01*
X114807928Y-54630700D01*
X114855547Y-54678319D01*
X114903166Y-54773557D01*
X114903166Y-54868795D01*
X114855547Y-55011652D01*
X114284119Y-55583080D01*
X114903166Y-55583080D01*
X2713095Y272619D02*
X2713095Y1272619D01*
X2713095Y796428D02*
X3284523Y796428D01*
X3284523Y272619D02*
X3284523Y1272619D01*
X4189285Y939285D02*
X4189285Y272619D01*
X3951190Y1320238D02*
X3713095Y605952D01*
X4332142Y605952D01*
X128255780Y-73993333D02*
X128970066Y-73993333D01*
X129112923Y-74040952D01*
X129208161Y-74136190D01*
X129255780Y-74279047D01*
X129255780Y-74374285D01*
X128255780Y-73612380D02*
X128255780Y-72993333D01*
X128636733Y-73326666D01*
X128636733Y-73183809D01*
X128684352Y-73088571D01*
X128731971Y-73040952D01*
X128827209Y-72993333D01*
X129065304Y-72993333D01*
X129160542Y-73040952D01*
X129208161Y-73088571D01*
X129255780Y-73183809D01*
X129255780Y-73469523D01*
X129208161Y-73564761D01*
X129160542Y-73612380D01*
X120003961Y-76088780D02*
X119670628Y-75612590D01*
X119432533Y-76088780D02*
X119432533Y-75088780D01*
X119813485Y-75088780D01*
X119908723Y-75136400D01*
X119956342Y-75184019D01*
X120003961Y-75279257D01*
X120003961Y-75422114D01*
X119956342Y-75517352D01*
X119908723Y-75564971D01*
X119813485Y-75612590D01*
X119432533Y-75612590D01*
X120289676Y-75088780D02*
X120623009Y-76088780D01*
X120956342Y-75088780D01*
X121813485Y-76088780D02*
X121242057Y-76088780D01*
X121527771Y-76088780D02*
X121527771Y-75088780D01*
X121432533Y-75231638D01*
X121337295Y-75326876D01*
X121242057Y-75374495D01*
X83061775Y-58315100D02*
X83061775Y-59124624D01*
X83109394Y-59219862D01*
X83157013Y-59267481D01*
X83252251Y-59315100D01*
X83442727Y-59315100D01*
X83537965Y-59267481D01*
X83585584Y-59219862D01*
X83633203Y-59124624D01*
X83633203Y-58315100D01*
X84633203Y-59315100D02*
X84061775Y-59315100D01*
X84347489Y-59315100D02*
X84347489Y-58315100D01*
X84252251Y-58457958D01*
X84157013Y-58553196D01*
X84061775Y-58600815D01*
X73824166Y-65656666D02*
X74057500Y-66356666D01*
X74290833Y-65656666D01*
X74524166Y-66356666D02*
X74524166Y-65656666D01*
X74790833Y-65656666D01*
X74857500Y-65690000D01*
X74890833Y-65723333D01*
X74924166Y-65790000D01*
X74924166Y-65890000D01*
X74890833Y-65956666D01*
X74857500Y-65990000D01*
X74790833Y-66023333D01*
X74524166Y-66023333D01*
X75724166Y-65623333D02*
X75124166Y-66523333D01*
X76324166Y-65690000D02*
X76257500Y-65656666D01*
X76157500Y-65656666D01*
X76057500Y-65690000D01*
X75990833Y-65756666D01*
X75957500Y-65823333D01*
X75924166Y-65956666D01*
X75924166Y-66056666D01*
X75957500Y-66190000D01*
X75990833Y-66256666D01*
X76057500Y-66323333D01*
X76157500Y-66356666D01*
X76224166Y-66356666D01*
X76324166Y-66323333D01*
X76357500Y-66290000D01*
X76357500Y-66056666D01*
X76224166Y-66056666D01*
X76657500Y-66356666D02*
X76657500Y-65656666D01*
X76924166Y-65656666D01*
X76990833Y-65690000D01*
X77024166Y-65723333D01*
X77057500Y-65790000D01*
X77057500Y-65890000D01*
X77024166Y-65956666D01*
X76990833Y-65990000D01*
X76924166Y-66023333D01*
X76657500Y-66023333D01*
X77357500Y-66356666D02*
X77357500Y-65656666D01*
X77824166Y-65656666D02*
X77957500Y-65656666D01*
X78024166Y-65690000D01*
X78090833Y-65756666D01*
X78124166Y-65890000D01*
X78124166Y-66123333D01*
X78090833Y-66256666D01*
X78024166Y-66323333D01*
X77957500Y-66356666D01*
X77824166Y-66356666D01*
X77757500Y-66323333D01*
X77690833Y-66256666D01*
X77657500Y-66123333D01*
X77657500Y-65890000D01*
X77690833Y-65756666D01*
X77757500Y-65690000D01*
X77824166Y-65656666D01*
X78357500Y-65656666D02*
X78790833Y-65656666D01*
X78557500Y-65923333D01*
X78657500Y-65923333D01*
X78724166Y-65956666D01*
X78757500Y-65990000D01*
X78790833Y-66056666D01*
X78790833Y-66223333D01*
X78757500Y-66290000D01*
X78724166Y-66323333D01*
X78657500Y-66356666D01*
X78457500Y-66356666D01*
X78390833Y-66323333D01*
X78357500Y-66290000D01*
X79390833Y-65656666D02*
X79257500Y-65656666D01*
X79190833Y-65690000D01*
X79157500Y-65723333D01*
X79090833Y-65823333D01*
X79057500Y-65956666D01*
X79057500Y-66223333D01*
X79090833Y-66290000D01*
X79124166Y-66323333D01*
X79190833Y-66356666D01*
X79324166Y-66356666D01*
X79390833Y-66323333D01*
X79424166Y-66290000D01*
X79457500Y-66223333D01*
X79457500Y-66056666D01*
X79424166Y-65990000D01*
X79390833Y-65956666D01*
X79324166Y-65923333D01*
X79190833Y-65923333D01*
X79124166Y-65956666D01*
X79090833Y-65990000D01*
X79057500Y-66056666D01*
X73924166Y-99376666D02*
X73924166Y-98676666D01*
X74090833Y-98676666D01*
X74190833Y-98710000D01*
X74257500Y-98776666D01*
X74290833Y-98843333D01*
X74324166Y-98976666D01*
X74324166Y-99076666D01*
X74290833Y-99210000D01*
X74257500Y-99276666D01*
X74190833Y-99343333D01*
X74090833Y-99376666D01*
X73924166Y-99376666D01*
X74590833Y-98743333D02*
X74624166Y-98710000D01*
X74690833Y-98676666D01*
X74857500Y-98676666D01*
X74924166Y-98710000D01*
X74957500Y-98743333D01*
X74990833Y-98810000D01*
X74990833Y-98876666D01*
X74957500Y-98976666D01*
X74557500Y-99376666D01*
X74990833Y-99376666D01*
X74290833Y-86012720D02*
X74224166Y-85979386D01*
X74124166Y-85979386D01*
X74024166Y-86012720D01*
X73957500Y-86079386D01*
X73924166Y-86146053D01*
X73890833Y-86279386D01*
X73890833Y-86379386D01*
X73924166Y-86512720D01*
X73957500Y-86579386D01*
X74024166Y-86646053D01*
X74124166Y-86679386D01*
X74190833Y-86679386D01*
X74290833Y-86646053D01*
X74324166Y-86612720D01*
X74324166Y-86379386D01*
X74190833Y-86379386D01*
X74624166Y-86679386D02*
X74624166Y-85979386D01*
X74890833Y-85979386D01*
X74957500Y-86012720D01*
X74990833Y-86046053D01*
X75024166Y-86112720D01*
X75024166Y-86212720D01*
X74990833Y-86279386D01*
X74957500Y-86312720D01*
X74890833Y-86346053D01*
X74624166Y-86346053D01*
X75324166Y-86679386D02*
X75324166Y-85979386D01*
X75790833Y-85979386D02*
X75924166Y-85979386D01*
X75990833Y-86012720D01*
X76057500Y-86079386D01*
X76090833Y-86212720D01*
X76090833Y-86446053D01*
X76057500Y-86579386D01*
X75990833Y-86646053D01*
X75924166Y-86679386D01*
X75790833Y-86679386D01*
X75724166Y-86646053D01*
X75657500Y-86579386D01*
X75624166Y-86446053D01*
X75624166Y-86212720D01*
X75657500Y-86079386D01*
X75724166Y-86012720D01*
X75790833Y-85979386D01*
X76357500Y-86046053D02*
X76390833Y-86012720D01*
X76457500Y-85979386D01*
X76624166Y-85979386D01*
X76690833Y-86012720D01*
X76724166Y-86046053D01*
X76757500Y-86112720D01*
X76757500Y-86179386D01*
X76724166Y-86279386D01*
X76324166Y-86679386D01*
X76757500Y-86679386D01*
X76990833Y-85979386D02*
X77457500Y-85979386D01*
X77157500Y-86679386D01*
X90615833Y-88550000D02*
X90549166Y-88516666D01*
X90449166Y-88516666D01*
X90349166Y-88550000D01*
X90282500Y-88616666D01*
X90249166Y-88683333D01*
X90215833Y-88816666D01*
X90215833Y-88916666D01*
X90249166Y-89050000D01*
X90282500Y-89116666D01*
X90349166Y-89183333D01*
X90449166Y-89216666D01*
X90515833Y-89216666D01*
X90615833Y-89183333D01*
X90649166Y-89150000D01*
X90649166Y-88916666D01*
X90515833Y-88916666D01*
X90949166Y-89216666D02*
X90949166Y-88516666D01*
X91215833Y-88516666D01*
X91282500Y-88550000D01*
X91315833Y-88583333D01*
X91349166Y-88650000D01*
X91349166Y-88750000D01*
X91315833Y-88816666D01*
X91282500Y-88850000D01*
X91215833Y-88883333D01*
X90949166Y-88883333D01*
X91649166Y-89216666D02*
X91649166Y-88516666D01*
X92115833Y-88516666D02*
X92249166Y-88516666D01*
X92315833Y-88550000D01*
X92382500Y-88616666D01*
X92415833Y-88750000D01*
X92415833Y-88983333D01*
X92382500Y-89116666D01*
X92315833Y-89183333D01*
X92249166Y-89216666D01*
X92115833Y-89216666D01*
X92049166Y-89183333D01*
X91982500Y-89116666D01*
X91949166Y-88983333D01*
X91949166Y-88750000D01*
X91982500Y-88616666D01*
X92049166Y-88550000D01*
X92115833Y-88516666D01*
X93082500Y-89216666D02*
X92682500Y-89216666D01*
X92882500Y-89216666D02*
X92882500Y-88516666D01*
X92815833Y-88616666D01*
X92749166Y-88683333D01*
X92682500Y-88716666D01*
X93682500Y-88516666D02*
X93549166Y-88516666D01*
X93482500Y-88550000D01*
X93449166Y-88583333D01*
X93382500Y-88683333D01*
X93349166Y-88816666D01*
X93349166Y-89083333D01*
X93382500Y-89150000D01*
X93415833Y-89183333D01*
X93482500Y-89216666D01*
X93615833Y-89216666D01*
X93682500Y-89183333D01*
X93715833Y-89150000D01*
X93749166Y-89083333D01*
X93749166Y-88916666D01*
X93715833Y-88850000D01*
X93682500Y-88816666D01*
X93615833Y-88783333D01*
X93482500Y-88783333D01*
X93415833Y-88816666D01*
X93382500Y-88850000D01*
X93349166Y-88916666D01*
X90615833Y-78392720D02*
X90549166Y-78359386D01*
X90449166Y-78359386D01*
X90349166Y-78392720D01*
X90282500Y-78459386D01*
X90249166Y-78526053D01*
X90215833Y-78659386D01*
X90215833Y-78759386D01*
X90249166Y-78892720D01*
X90282500Y-78959386D01*
X90349166Y-79026053D01*
X90449166Y-79059386D01*
X90515833Y-79059386D01*
X90615833Y-79026053D01*
X90649166Y-78992720D01*
X90649166Y-78759386D01*
X90515833Y-78759386D01*
X90949166Y-79059386D02*
X90949166Y-78359386D01*
X91215833Y-78359386D01*
X91282500Y-78392720D01*
X91315833Y-78426053D01*
X91349166Y-78492720D01*
X91349166Y-78592720D01*
X91315833Y-78659386D01*
X91282500Y-78692720D01*
X91215833Y-78726053D01*
X90949166Y-78726053D01*
X91649166Y-79059386D02*
X91649166Y-78359386D01*
X92115833Y-78359386D02*
X92249166Y-78359386D01*
X92315833Y-78392720D01*
X92382500Y-78459386D01*
X92415833Y-78592720D01*
X92415833Y-78826053D01*
X92382500Y-78959386D01*
X92315833Y-79026053D01*
X92249166Y-79059386D01*
X92115833Y-79059386D01*
X92049166Y-79026053D01*
X91982500Y-78959386D01*
X91949166Y-78826053D01*
X91949166Y-78592720D01*
X91982500Y-78459386D01*
X92049166Y-78392720D01*
X92115833Y-78359386D01*
X93082500Y-79059386D02*
X92682500Y-79059386D01*
X92882500Y-79059386D02*
X92882500Y-78359386D01*
X92815833Y-78459386D01*
X92749166Y-78526053D01*
X92682500Y-78559386D01*
X93415833Y-79059386D02*
X93549166Y-79059386D01*
X93615833Y-79026053D01*
X93649166Y-78992720D01*
X93715833Y-78892720D01*
X93749166Y-78759386D01*
X93749166Y-78492720D01*
X93715833Y-78426053D01*
X93682500Y-78392720D01*
X93615833Y-78359386D01*
X93482500Y-78359386D01*
X93415833Y-78392720D01*
X93382500Y-78426053D01*
X93349166Y-78492720D01*
X93349166Y-78659386D01*
X93382500Y-78726053D01*
X93415833Y-78759386D01*
X93482500Y-78792720D01*
X93615833Y-78792720D01*
X93682500Y-78759386D01*
X93715833Y-78726053D01*
X93749166Y-78659386D01*
X91596785Y-60460000D02*
X91501547Y-60412380D01*
X91358690Y-60412380D01*
X91215833Y-60460000D01*
X91120595Y-60555238D01*
X91072976Y-60650476D01*
X91025357Y-60840952D01*
X91025357Y-60983809D01*
X91072976Y-61174285D01*
X91120595Y-61269523D01*
X91215833Y-61364761D01*
X91358690Y-61412380D01*
X91453928Y-61412380D01*
X91596785Y-61364761D01*
X91644404Y-61317142D01*
X91644404Y-60983809D01*
X91453928Y-60983809D01*
X92072976Y-61412380D02*
X92072976Y-60412380D01*
X92644404Y-61412380D01*
X92644404Y-60412380D01*
X93120595Y-61412380D02*
X93120595Y-60412380D01*
X93358690Y-60412380D01*
X93501547Y-60460000D01*
X93596785Y-60555238D01*
X93644404Y-60650476D01*
X93692023Y-60840952D01*
X93692023Y-60983809D01*
X93644404Y-61174285D01*
X93596785Y-61269523D01*
X93501547Y-61364761D01*
X93358690Y-61412380D01*
X93120595Y-61412380D01*
X90615833Y-63152720D02*
X90549166Y-63119386D01*
X90449166Y-63119386D01*
X90349166Y-63152720D01*
X90282500Y-63219386D01*
X90249166Y-63286053D01*
X90215833Y-63419386D01*
X90215833Y-63519386D01*
X90249166Y-63652720D01*
X90282500Y-63719386D01*
X90349166Y-63786053D01*
X90449166Y-63819386D01*
X90515833Y-63819386D01*
X90615833Y-63786053D01*
X90649166Y-63752720D01*
X90649166Y-63519386D01*
X90515833Y-63519386D01*
X90949166Y-63819386D02*
X90949166Y-63119386D01*
X91215833Y-63119386D01*
X91282500Y-63152720D01*
X91315833Y-63186053D01*
X91349166Y-63252720D01*
X91349166Y-63352720D01*
X91315833Y-63419386D01*
X91282500Y-63452720D01*
X91215833Y-63486053D01*
X90949166Y-63486053D01*
X91649166Y-63819386D02*
X91649166Y-63119386D01*
X92115833Y-63119386D02*
X92249166Y-63119386D01*
X92315833Y-63152720D01*
X92382500Y-63219386D01*
X92415833Y-63352720D01*
X92415833Y-63586053D01*
X92382500Y-63719386D01*
X92315833Y-63786053D01*
X92249166Y-63819386D01*
X92115833Y-63819386D01*
X92049166Y-63786053D01*
X91982500Y-63719386D01*
X91949166Y-63586053D01*
X91949166Y-63352720D01*
X91982500Y-63219386D01*
X92049166Y-63152720D01*
X92115833Y-63119386D01*
X92682500Y-63186053D02*
X92715833Y-63152720D01*
X92782500Y-63119386D01*
X92949166Y-63119386D01*
X93015833Y-63152720D01*
X93049166Y-63186053D01*
X93082500Y-63252720D01*
X93082500Y-63319386D01*
X93049166Y-63419386D01*
X92649166Y-63819386D01*
X93082500Y-63819386D01*
X93315833Y-63119386D02*
X93749166Y-63119386D01*
X93515833Y-63386053D01*
X93615833Y-63386053D01*
X93682500Y-63419386D01*
X93715833Y-63452720D01*
X93749166Y-63519386D01*
X93749166Y-63686053D01*
X93715833Y-63752720D01*
X93682500Y-63786053D01*
X93615833Y-63819386D01*
X93415833Y-63819386D01*
X93349166Y-63786053D01*
X93315833Y-63752720D01*
X73900357Y-60412380D02*
X74519404Y-60412380D01*
X74186071Y-60793333D01*
X74328928Y-60793333D01*
X74424166Y-60840952D01*
X74471785Y-60888571D01*
X74519404Y-60983809D01*
X74519404Y-61221904D01*
X74471785Y-61317142D01*
X74424166Y-61364761D01*
X74328928Y-61412380D01*
X74043214Y-61412380D01*
X73947976Y-61364761D01*
X73900357Y-61317142D01*
X74805119Y-60412380D02*
X75138452Y-61412380D01*
X75471785Y-60412380D01*
X75709880Y-60412380D02*
X76328928Y-60412380D01*
X75995595Y-60793333D01*
X76138452Y-60793333D01*
X76233690Y-60840952D01*
X76281309Y-60888571D01*
X76328928Y-60983809D01*
X76328928Y-61221904D01*
X76281309Y-61317142D01*
X76233690Y-61364761D01*
X76138452Y-61412380D01*
X75852738Y-61412380D01*
X75757500Y-61364761D01*
X75709880Y-61317142D01*
X74290833Y-73312720D02*
X74224166Y-73279386D01*
X74124166Y-73279386D01*
X74024166Y-73312720D01*
X73957500Y-73379386D01*
X73924166Y-73446053D01*
X73890833Y-73579386D01*
X73890833Y-73679386D01*
X73924166Y-73812720D01*
X73957500Y-73879386D01*
X74024166Y-73946053D01*
X74124166Y-73979386D01*
X74190833Y-73979386D01*
X74290833Y-73946053D01*
X74324166Y-73912720D01*
X74324166Y-73679386D01*
X74190833Y-73679386D01*
X74624166Y-73979386D02*
X74624166Y-73279386D01*
X74890833Y-73279386D01*
X74957500Y-73312720D01*
X74990833Y-73346053D01*
X75024166Y-73412720D01*
X75024166Y-73512720D01*
X74990833Y-73579386D01*
X74957500Y-73612720D01*
X74890833Y-73646053D01*
X74624166Y-73646053D01*
X75324166Y-73979386D02*
X75324166Y-73279386D01*
X75790833Y-73279386D02*
X75924166Y-73279386D01*
X75990833Y-73312720D01*
X76057500Y-73379386D01*
X76090833Y-73512720D01*
X76090833Y-73746053D01*
X76057500Y-73879386D01*
X75990833Y-73946053D01*
X75924166Y-73979386D01*
X75790833Y-73979386D01*
X75724166Y-73946053D01*
X75657500Y-73879386D01*
X75624166Y-73746053D01*
X75624166Y-73512720D01*
X75657500Y-73379386D01*
X75724166Y-73312720D01*
X75790833Y-73279386D01*
X76324166Y-73279386D02*
X76757500Y-73279386D01*
X76524166Y-73546053D01*
X76624166Y-73546053D01*
X76690833Y-73579386D01*
X76724166Y-73612720D01*
X76757500Y-73679386D01*
X76757500Y-73846053D01*
X76724166Y-73912720D01*
X76690833Y-73946053D01*
X76624166Y-73979386D01*
X76424166Y-73979386D01*
X76357500Y-73946053D01*
X76324166Y-73912720D01*
X77390833Y-73279386D02*
X77057500Y-73279386D01*
X77024166Y-73612720D01*
X77057500Y-73579386D01*
X77124166Y-73546053D01*
X77290833Y-73546053D01*
X77357500Y-73579386D01*
X77390833Y-73612720D01*
X77424166Y-73679386D01*
X77424166Y-73846053D01*
X77390833Y-73912720D01*
X77357500Y-73946053D01*
X77290833Y-73979386D01*
X77124166Y-73979386D01*
X77057500Y-73946053D01*
X77024166Y-73912720D01*
X74524804Y-93482720D02*
X74429566Y-93435100D01*
X74286709Y-93435100D01*
X74143852Y-93482720D01*
X74048614Y-93577958D01*
X74000995Y-93673196D01*
X73953376Y-93863672D01*
X73953376Y-94006529D01*
X74000995Y-94197005D01*
X74048614Y-94292243D01*
X74143852Y-94387481D01*
X74286709Y-94435100D01*
X74381947Y-94435100D01*
X74524804Y-94387481D01*
X74572423Y-94339862D01*
X74572423Y-94006529D01*
X74381947Y-94006529D01*
X75000995Y-94435100D02*
X75000995Y-93435100D01*
X75572423Y-94435100D01*
X75572423Y-93435100D01*
X76048614Y-94435100D02*
X76048614Y-93435100D01*
X76286709Y-93435100D01*
X76429566Y-93482720D01*
X76524804Y-93577958D01*
X76572423Y-93673196D01*
X76620042Y-93863672D01*
X76620042Y-94006529D01*
X76572423Y-94197005D01*
X76524804Y-94292243D01*
X76429566Y-94387481D01*
X76286709Y-94435100D01*
X76048614Y-94435100D01*
X90615833Y-80932720D02*
X90549166Y-80899386D01*
X90449166Y-80899386D01*
X90349166Y-80932720D01*
X90282500Y-80999386D01*
X90249166Y-81066053D01*
X90215833Y-81199386D01*
X90215833Y-81299386D01*
X90249166Y-81432720D01*
X90282500Y-81499386D01*
X90349166Y-81566053D01*
X90449166Y-81599386D01*
X90515833Y-81599386D01*
X90615833Y-81566053D01*
X90649166Y-81532720D01*
X90649166Y-81299386D01*
X90515833Y-81299386D01*
X90949166Y-81599386D02*
X90949166Y-80899386D01*
X91215833Y-80899386D01*
X91282500Y-80932720D01*
X91315833Y-80966053D01*
X91349166Y-81032720D01*
X91349166Y-81132720D01*
X91315833Y-81199386D01*
X91282500Y-81232720D01*
X91215833Y-81266053D01*
X90949166Y-81266053D01*
X91649166Y-81599386D02*
X91649166Y-80899386D01*
X92115833Y-80899386D02*
X92249166Y-80899386D01*
X92315833Y-80932720D01*
X92382500Y-80999386D01*
X92415833Y-81132720D01*
X92415833Y-81366053D01*
X92382500Y-81499386D01*
X92315833Y-81566053D01*
X92249166Y-81599386D01*
X92115833Y-81599386D01*
X92049166Y-81566053D01*
X91982500Y-81499386D01*
X91949166Y-81366053D01*
X91949166Y-81132720D01*
X91982500Y-80999386D01*
X92049166Y-80932720D01*
X92115833Y-80899386D01*
X93082500Y-81599386D02*
X92682500Y-81599386D01*
X92882500Y-81599386D02*
X92882500Y-80899386D01*
X92815833Y-80999386D01*
X92749166Y-81066053D01*
X92682500Y-81099386D01*
X93482500Y-81199386D02*
X93415833Y-81166053D01*
X93382500Y-81132720D01*
X93349166Y-81066053D01*
X93349166Y-81032720D01*
X93382500Y-80966053D01*
X93415833Y-80932720D01*
X93482500Y-80899386D01*
X93615833Y-80899386D01*
X93682500Y-80932720D01*
X93715833Y-80966053D01*
X93749166Y-81032720D01*
X93749166Y-81066053D01*
X93715833Y-81132720D01*
X93682500Y-81166053D01*
X93615833Y-81199386D01*
X93482500Y-81199386D01*
X93415833Y-81232720D01*
X93382500Y-81266053D01*
X93349166Y-81332720D01*
X93349166Y-81466053D01*
X93382500Y-81532720D01*
X93415833Y-81566053D01*
X93482500Y-81599386D01*
X93615833Y-81599386D01*
X93682500Y-81566053D01*
X93715833Y-81532720D01*
X93749166Y-81466053D01*
X93749166Y-81332720D01*
X93715833Y-81266053D01*
X93682500Y-81232720D01*
X93615833Y-81199386D01*
X87115833Y-98710000D02*
X87049166Y-98676666D01*
X86949166Y-98676666D01*
X86849166Y-98710000D01*
X86782500Y-98776666D01*
X86749166Y-98843333D01*
X86715833Y-98976666D01*
X86715833Y-99076666D01*
X86749166Y-99210000D01*
X86782500Y-99276666D01*
X86849166Y-99343333D01*
X86949166Y-99376666D01*
X87015833Y-99376666D01*
X87115833Y-99343333D01*
X87149166Y-99310000D01*
X87149166Y-99076666D01*
X87015833Y-99076666D01*
X87449166Y-99376666D02*
X87449166Y-98676666D01*
X87715833Y-98676666D01*
X87782500Y-98710000D01*
X87815833Y-98743333D01*
X87849166Y-98810000D01*
X87849166Y-98910000D01*
X87815833Y-98976666D01*
X87782500Y-99010000D01*
X87715833Y-99043333D01*
X87449166Y-99043333D01*
X88149166Y-99376666D02*
X88149166Y-98676666D01*
X88615833Y-98676666D02*
X88749166Y-98676666D01*
X88815833Y-98710000D01*
X88882500Y-98776666D01*
X88915833Y-98910000D01*
X88915833Y-99143333D01*
X88882500Y-99276666D01*
X88815833Y-99343333D01*
X88749166Y-99376666D01*
X88615833Y-99376666D01*
X88549166Y-99343333D01*
X88482500Y-99276666D01*
X88449166Y-99143333D01*
X88449166Y-98910000D01*
X88482500Y-98776666D01*
X88549166Y-98710000D01*
X88615833Y-98676666D01*
X89582500Y-99376666D02*
X89182500Y-99376666D01*
X89382500Y-99376666D02*
X89382500Y-98676666D01*
X89315833Y-98776666D01*
X89249166Y-98843333D01*
X89182500Y-98876666D01*
X90215833Y-98676666D02*
X89882500Y-98676666D01*
X89849166Y-99010000D01*
X89882500Y-98976666D01*
X89949166Y-98943333D01*
X90115833Y-98943333D01*
X90182500Y-98976666D01*
X90215833Y-99010000D01*
X90249166Y-99076666D01*
X90249166Y-99243333D01*
X90215833Y-99310000D01*
X90182500Y-99343333D01*
X90115833Y-99376666D01*
X89949166Y-99376666D01*
X89882500Y-99343333D01*
X89849166Y-99310000D01*
X91049166Y-98643333D02*
X90449166Y-99543333D01*
X91282500Y-99376666D02*
X91282500Y-98676666D01*
X91515833Y-99176666D01*
X91749166Y-98676666D01*
X91749166Y-99376666D01*
X91982500Y-98676666D02*
X92382500Y-98676666D01*
X92182500Y-99376666D02*
X92182500Y-98676666D01*
X92615833Y-99376666D02*
X92615833Y-98676666D01*
X92782500Y-98676666D01*
X92882500Y-98710000D01*
X92949166Y-98776666D01*
X92982500Y-98843333D01*
X93015833Y-98976666D01*
X93015833Y-99076666D01*
X92982500Y-99210000D01*
X92949166Y-99276666D01*
X92882500Y-99343333D01*
X92782500Y-99376666D01*
X92615833Y-99376666D01*
X93449166Y-98676666D02*
X93582500Y-98676666D01*
X93649166Y-98710000D01*
X93715833Y-98776666D01*
X93749166Y-98910000D01*
X93749166Y-99143333D01*
X93715833Y-99276666D01*
X93649166Y-99343333D01*
X93582500Y-99376666D01*
X93449166Y-99376666D01*
X93382500Y-99343333D01*
X93315833Y-99276666D01*
X93282500Y-99143333D01*
X93282500Y-98910000D01*
X93315833Y-98776666D01*
X93382500Y-98710000D01*
X93449166Y-98676666D01*
X73924166Y-101916666D02*
X73924166Y-101216666D01*
X74090833Y-101216666D01*
X74190833Y-101250000D01*
X74257500Y-101316666D01*
X74290833Y-101383333D01*
X74324166Y-101516666D01*
X74324166Y-101616666D01*
X74290833Y-101750000D01*
X74257500Y-101816666D01*
X74190833Y-101883333D01*
X74090833Y-101916666D01*
X73924166Y-101916666D01*
X74557500Y-101216666D02*
X74990833Y-101216666D01*
X74757500Y-101483333D01*
X74857500Y-101483333D01*
X74924166Y-101516666D01*
X74957500Y-101550000D01*
X74990833Y-101616666D01*
X74990833Y-101783333D01*
X74957500Y-101850000D01*
X74924166Y-101883333D01*
X74857500Y-101916666D01*
X74657500Y-101916666D01*
X74590833Y-101883333D01*
X74557500Y-101850000D01*
X74290833Y-80930000D02*
X74224166Y-80896666D01*
X74124166Y-80896666D01*
X74024166Y-80930000D01*
X73957500Y-80996666D01*
X73924166Y-81063333D01*
X73890833Y-81196666D01*
X73890833Y-81296666D01*
X73924166Y-81430000D01*
X73957500Y-81496666D01*
X74024166Y-81563333D01*
X74124166Y-81596666D01*
X74190833Y-81596666D01*
X74290833Y-81563333D01*
X74324166Y-81530000D01*
X74324166Y-81296666D01*
X74190833Y-81296666D01*
X74624166Y-81596666D02*
X74624166Y-80896666D01*
X74890833Y-80896666D01*
X74957500Y-80930000D01*
X74990833Y-80963333D01*
X75024166Y-81030000D01*
X75024166Y-81130000D01*
X74990833Y-81196666D01*
X74957500Y-81230000D01*
X74890833Y-81263333D01*
X74624166Y-81263333D01*
X75324166Y-81596666D02*
X75324166Y-80896666D01*
X75790833Y-80896666D02*
X75924166Y-80896666D01*
X75990833Y-80930000D01*
X76057500Y-80996666D01*
X76090833Y-81130000D01*
X76090833Y-81363333D01*
X76057500Y-81496666D01*
X75990833Y-81563333D01*
X75924166Y-81596666D01*
X75790833Y-81596666D01*
X75724166Y-81563333D01*
X75657500Y-81496666D01*
X75624166Y-81363333D01*
X75624166Y-81130000D01*
X75657500Y-80996666D01*
X75724166Y-80930000D01*
X75790833Y-80896666D01*
X76357500Y-80963333D02*
X76390833Y-80930000D01*
X76457500Y-80896666D01*
X76624166Y-80896666D01*
X76690833Y-80930000D01*
X76724166Y-80963333D01*
X76757500Y-81030000D01*
X76757500Y-81096666D01*
X76724166Y-81196666D01*
X76324166Y-81596666D01*
X76757500Y-81596666D01*
X77390833Y-80896666D02*
X77057500Y-80896666D01*
X77024166Y-81230000D01*
X77057500Y-81196666D01*
X77124166Y-81163333D01*
X77290833Y-81163333D01*
X77357500Y-81196666D01*
X77390833Y-81230000D01*
X77424166Y-81296666D01*
X77424166Y-81463333D01*
X77390833Y-81530000D01*
X77357500Y-81563333D01*
X77290833Y-81596666D01*
X77124166Y-81596666D01*
X77057500Y-81563333D01*
X77024166Y-81530000D01*
X74290833Y-91090000D02*
X74224166Y-91056666D01*
X74124166Y-91056666D01*
X74024166Y-91090000D01*
X73957500Y-91156666D01*
X73924166Y-91223333D01*
X73890833Y-91356666D01*
X73890833Y-91456666D01*
X73924166Y-91590000D01*
X73957500Y-91656666D01*
X74024166Y-91723333D01*
X74124166Y-91756666D01*
X74190833Y-91756666D01*
X74290833Y-91723333D01*
X74324166Y-91690000D01*
X74324166Y-91456666D01*
X74190833Y-91456666D01*
X74624166Y-91756666D02*
X74624166Y-91056666D01*
X74890833Y-91056666D01*
X74957500Y-91090000D01*
X74990833Y-91123333D01*
X75024166Y-91190000D01*
X75024166Y-91290000D01*
X74990833Y-91356666D01*
X74957500Y-91390000D01*
X74890833Y-91423333D01*
X74624166Y-91423333D01*
X75324166Y-91756666D02*
X75324166Y-91056666D01*
X75790833Y-91056666D02*
X75924166Y-91056666D01*
X75990833Y-91090000D01*
X76057500Y-91156666D01*
X76090833Y-91290000D01*
X76090833Y-91523333D01*
X76057500Y-91656666D01*
X75990833Y-91723333D01*
X75924166Y-91756666D01*
X75790833Y-91756666D01*
X75724166Y-91723333D01*
X75657500Y-91656666D01*
X75624166Y-91523333D01*
X75624166Y-91290000D01*
X75657500Y-91156666D01*
X75724166Y-91090000D01*
X75790833Y-91056666D01*
X76757500Y-91756666D02*
X76357500Y-91756666D01*
X76557500Y-91756666D02*
X76557500Y-91056666D01*
X76490833Y-91156666D01*
X76424166Y-91223333D01*
X76357500Y-91256666D01*
X77024166Y-91123333D02*
X77057500Y-91090000D01*
X77124166Y-91056666D01*
X77290833Y-91056666D01*
X77357500Y-91090000D01*
X77390833Y-91123333D01*
X77424166Y-91190000D01*
X77424166Y-91256666D01*
X77390833Y-91356666D01*
X76990833Y-91756666D01*
X77424166Y-91756666D01*
X78224166Y-91023333D02*
X77624166Y-91923333D01*
X78457500Y-91756666D02*
X78457500Y-91056666D01*
X78690833Y-91556666D01*
X78924166Y-91056666D01*
X78924166Y-91756666D01*
X79157500Y-91056666D02*
X79557500Y-91056666D01*
X79357500Y-91756666D02*
X79357500Y-91056666D01*
X79790833Y-91756666D02*
X79790833Y-91056666D01*
X79957500Y-91056666D01*
X80057500Y-91090000D01*
X80124166Y-91156666D01*
X80157500Y-91223333D01*
X80190833Y-91356666D01*
X80190833Y-91456666D01*
X80157500Y-91590000D01*
X80124166Y-91656666D01*
X80057500Y-91723333D01*
X79957500Y-91756666D01*
X79790833Y-91756666D01*
X80490833Y-91756666D02*
X80490833Y-91056666D01*
X91282500Y-96172720D02*
X91215833Y-96139386D01*
X91115833Y-96139386D01*
X91015833Y-96172720D01*
X90949166Y-96239386D01*
X90915833Y-96306053D01*
X90882500Y-96439386D01*
X90882500Y-96539386D01*
X90915833Y-96672720D01*
X90949166Y-96739386D01*
X91015833Y-96806053D01*
X91115833Y-96839386D01*
X91182500Y-96839386D01*
X91282500Y-96806053D01*
X91315833Y-96772720D01*
X91315833Y-96539386D01*
X91182500Y-96539386D01*
X91615833Y-96839386D02*
X91615833Y-96139386D01*
X91882500Y-96139386D01*
X91949166Y-96172720D01*
X91982500Y-96206053D01*
X92015833Y-96272720D01*
X92015833Y-96372720D01*
X91982500Y-96439386D01*
X91949166Y-96472720D01*
X91882500Y-96506053D01*
X91615833Y-96506053D01*
X92315833Y-96839386D02*
X92315833Y-96139386D01*
X92782500Y-96139386D02*
X92915833Y-96139386D01*
X92982500Y-96172720D01*
X93049166Y-96239386D01*
X93082500Y-96372720D01*
X93082500Y-96606053D01*
X93049166Y-96739386D01*
X92982500Y-96806053D01*
X92915833Y-96839386D01*
X92782500Y-96839386D01*
X92715833Y-96806053D01*
X92649166Y-96739386D01*
X92615833Y-96606053D01*
X92615833Y-96372720D01*
X92649166Y-96239386D01*
X92715833Y-96172720D01*
X92782500Y-96139386D01*
X93349166Y-96206053D02*
X93382500Y-96172720D01*
X93449166Y-96139386D01*
X93615833Y-96139386D01*
X93682500Y-96172720D01*
X93715833Y-96206053D01*
X93749166Y-96272720D01*
X93749166Y-96339386D01*
X93715833Y-96439386D01*
X93315833Y-96839386D01*
X93749166Y-96839386D01*
X74290833Y-75850000D02*
X74224166Y-75816666D01*
X74124166Y-75816666D01*
X74024166Y-75850000D01*
X73957500Y-75916666D01*
X73924166Y-75983333D01*
X73890833Y-76116666D01*
X73890833Y-76216666D01*
X73924166Y-76350000D01*
X73957500Y-76416666D01*
X74024166Y-76483333D01*
X74124166Y-76516666D01*
X74190833Y-76516666D01*
X74290833Y-76483333D01*
X74324166Y-76450000D01*
X74324166Y-76216666D01*
X74190833Y-76216666D01*
X74624166Y-76516666D02*
X74624166Y-75816666D01*
X74890833Y-75816666D01*
X74957500Y-75850000D01*
X74990833Y-75883333D01*
X75024166Y-75950000D01*
X75024166Y-76050000D01*
X74990833Y-76116666D01*
X74957500Y-76150000D01*
X74890833Y-76183333D01*
X74624166Y-76183333D01*
X75324166Y-76516666D02*
X75324166Y-75816666D01*
X75790833Y-75816666D02*
X75924166Y-75816666D01*
X75990833Y-75850000D01*
X76057500Y-75916666D01*
X76090833Y-76050000D01*
X76090833Y-76283333D01*
X76057500Y-76416666D01*
X75990833Y-76483333D01*
X75924166Y-76516666D01*
X75790833Y-76516666D01*
X75724166Y-76483333D01*
X75657500Y-76416666D01*
X75624166Y-76283333D01*
X75624166Y-76050000D01*
X75657500Y-75916666D01*
X75724166Y-75850000D01*
X75790833Y-75816666D01*
X76324166Y-75816666D02*
X76757500Y-75816666D01*
X76524166Y-76083333D01*
X76624166Y-76083333D01*
X76690833Y-76116666D01*
X76724166Y-76150000D01*
X76757500Y-76216666D01*
X76757500Y-76383333D01*
X76724166Y-76450000D01*
X76690833Y-76483333D01*
X76624166Y-76516666D01*
X76424166Y-76516666D01*
X76357500Y-76483333D01*
X76324166Y-76450000D01*
X77024166Y-75883333D02*
X77057500Y-75850000D01*
X77124166Y-75816666D01*
X77290833Y-75816666D01*
X77357500Y-75850000D01*
X77390833Y-75883333D01*
X77424166Y-75950000D01*
X77424166Y-76016666D01*
X77390833Y-76116666D01*
X76990833Y-76516666D01*
X77424166Y-76516666D01*
X90615833Y-73310000D02*
X90549166Y-73276666D01*
X90449166Y-73276666D01*
X90349166Y-73310000D01*
X90282500Y-73376666D01*
X90249166Y-73443333D01*
X90215833Y-73576666D01*
X90215833Y-73676666D01*
X90249166Y-73810000D01*
X90282500Y-73876666D01*
X90349166Y-73943333D01*
X90449166Y-73976666D01*
X90515833Y-73976666D01*
X90615833Y-73943333D01*
X90649166Y-73910000D01*
X90649166Y-73676666D01*
X90515833Y-73676666D01*
X90949166Y-73976666D02*
X90949166Y-73276666D01*
X91215833Y-73276666D01*
X91282500Y-73310000D01*
X91315833Y-73343333D01*
X91349166Y-73410000D01*
X91349166Y-73510000D01*
X91315833Y-73576666D01*
X91282500Y-73610000D01*
X91215833Y-73643333D01*
X90949166Y-73643333D01*
X91649166Y-73976666D02*
X91649166Y-73276666D01*
X92115833Y-73276666D02*
X92249166Y-73276666D01*
X92315833Y-73310000D01*
X92382500Y-73376666D01*
X92415833Y-73510000D01*
X92415833Y-73743333D01*
X92382500Y-73876666D01*
X92315833Y-73943333D01*
X92249166Y-73976666D01*
X92115833Y-73976666D01*
X92049166Y-73943333D01*
X91982500Y-73876666D01*
X91949166Y-73743333D01*
X91949166Y-73510000D01*
X91982500Y-73376666D01*
X92049166Y-73310000D01*
X92115833Y-73276666D01*
X92682500Y-73343333D02*
X92715833Y-73310000D01*
X92782500Y-73276666D01*
X92949166Y-73276666D01*
X93015833Y-73310000D01*
X93049166Y-73343333D01*
X93082500Y-73410000D01*
X93082500Y-73476666D01*
X93049166Y-73576666D01*
X92649166Y-73976666D01*
X93082500Y-73976666D01*
X93749166Y-73976666D02*
X93349166Y-73976666D01*
X93549166Y-73976666D02*
X93549166Y-73276666D01*
X93482500Y-73376666D01*
X93415833Y-73443333D01*
X93349166Y-73476666D01*
X74290833Y-88552720D02*
X74224166Y-88519386D01*
X74124166Y-88519386D01*
X74024166Y-88552720D01*
X73957500Y-88619386D01*
X73924166Y-88686053D01*
X73890833Y-88819386D01*
X73890833Y-88919386D01*
X73924166Y-89052720D01*
X73957500Y-89119386D01*
X74024166Y-89186053D01*
X74124166Y-89219386D01*
X74190833Y-89219386D01*
X74290833Y-89186053D01*
X74324166Y-89152720D01*
X74324166Y-88919386D01*
X74190833Y-88919386D01*
X74624166Y-89219386D02*
X74624166Y-88519386D01*
X74890833Y-88519386D01*
X74957500Y-88552720D01*
X74990833Y-88586053D01*
X75024166Y-88652720D01*
X75024166Y-88752720D01*
X74990833Y-88819386D01*
X74957500Y-88852720D01*
X74890833Y-88886053D01*
X74624166Y-88886053D01*
X75324166Y-89219386D02*
X75324166Y-88519386D01*
X75790833Y-88519386D02*
X75924166Y-88519386D01*
X75990833Y-88552720D01*
X76057500Y-88619386D01*
X76090833Y-88752720D01*
X76090833Y-88986053D01*
X76057500Y-89119386D01*
X75990833Y-89186053D01*
X75924166Y-89219386D01*
X75790833Y-89219386D01*
X75724166Y-89186053D01*
X75657500Y-89119386D01*
X75624166Y-88986053D01*
X75624166Y-88752720D01*
X75657500Y-88619386D01*
X75724166Y-88552720D01*
X75790833Y-88519386D01*
X76757500Y-89219386D02*
X76357500Y-89219386D01*
X76557500Y-89219386D02*
X76557500Y-88519386D01*
X76490833Y-88619386D01*
X76424166Y-88686053D01*
X76357500Y-88719386D01*
X77357500Y-88752720D02*
X77357500Y-89219386D01*
X77190833Y-88486053D02*
X77024166Y-88986053D01*
X77457500Y-88986053D01*
X78224166Y-88486053D02*
X77624166Y-89386053D01*
X78457500Y-89219386D02*
X78457500Y-88519386D01*
X78690833Y-89019386D01*
X78924166Y-88519386D01*
X78924166Y-89219386D01*
X79157500Y-88519386D02*
X79557500Y-88519386D01*
X79357500Y-89219386D02*
X79357500Y-88519386D01*
X79790833Y-89219386D02*
X79790833Y-88519386D01*
X80024166Y-89019386D01*
X80257500Y-88519386D01*
X80257500Y-89219386D01*
X80557500Y-89186053D02*
X80657500Y-89219386D01*
X80824166Y-89219386D01*
X80890833Y-89186053D01*
X80924166Y-89152720D01*
X80957500Y-89086053D01*
X80957500Y-89019386D01*
X80924166Y-88952720D01*
X80890833Y-88919386D01*
X80824166Y-88886053D01*
X80690833Y-88852720D01*
X80624166Y-88819386D01*
X80590833Y-88786053D01*
X80557500Y-88719386D01*
X80557500Y-88652720D01*
X80590833Y-88586053D01*
X80624166Y-88552720D01*
X80690833Y-88519386D01*
X80857500Y-88519386D01*
X80957500Y-88552720D01*
X91576785Y-75702720D02*
X91481547Y-75655100D01*
X91338690Y-75655100D01*
X91195833Y-75702720D01*
X91100595Y-75797958D01*
X91052976Y-75893196D01*
X91005357Y-76083672D01*
X91005357Y-76226529D01*
X91052976Y-76417005D01*
X91100595Y-76512243D01*
X91195833Y-76607481D01*
X91338690Y-76655100D01*
X91433928Y-76655100D01*
X91576785Y-76607481D01*
X91624404Y-76559862D01*
X91624404Y-76226529D01*
X91433928Y-76226529D01*
X92052976Y-76655100D02*
X92052976Y-75655100D01*
X92624404Y-76655100D01*
X92624404Y-75655100D01*
X93100595Y-76655100D02*
X93100595Y-75655100D01*
X93338690Y-75655100D01*
X93481547Y-75702720D01*
X93576785Y-75797958D01*
X93624404Y-75893196D01*
X93672023Y-76083672D01*
X93672023Y-76226529D01*
X93624404Y-76417005D01*
X93576785Y-76512243D01*
X93481547Y-76607481D01*
X93338690Y-76655100D01*
X93100595Y-76655100D01*
X74324166Y-104390000D02*
X74290833Y-104423333D01*
X74190833Y-104456666D01*
X74124166Y-104456666D01*
X74024166Y-104423333D01*
X73957500Y-104356666D01*
X73924166Y-104290000D01*
X73890833Y-104156666D01*
X73890833Y-104056666D01*
X73924166Y-103923333D01*
X73957500Y-103856666D01*
X74024166Y-103790000D01*
X74124166Y-103756666D01*
X74190833Y-103756666D01*
X74290833Y-103790000D01*
X74324166Y-103823333D01*
X74624166Y-104456666D02*
X74624166Y-103756666D01*
X74857500Y-104256666D01*
X75090833Y-103756666D01*
X75090833Y-104456666D01*
X75424166Y-104456666D02*
X75424166Y-103756666D01*
X75590833Y-103756666D01*
X75690833Y-103790000D01*
X75757500Y-103856666D01*
X75790833Y-103923333D01*
X75824166Y-104056666D01*
X75824166Y-104156666D01*
X75790833Y-104290000D01*
X75757500Y-104356666D01*
X75690833Y-104423333D01*
X75590833Y-104456666D01*
X75424166Y-104456666D01*
X74290833Y-78390000D02*
X74224166Y-78356666D01*
X74124166Y-78356666D01*
X74024166Y-78390000D01*
X73957500Y-78456666D01*
X73924166Y-78523333D01*
X73890833Y-78656666D01*
X73890833Y-78756666D01*
X73924166Y-78890000D01*
X73957500Y-78956666D01*
X74024166Y-79023333D01*
X74124166Y-79056666D01*
X74190833Y-79056666D01*
X74290833Y-79023333D01*
X74324166Y-78990000D01*
X74324166Y-78756666D01*
X74190833Y-78756666D01*
X74624166Y-79056666D02*
X74624166Y-78356666D01*
X74890833Y-78356666D01*
X74957500Y-78390000D01*
X74990833Y-78423333D01*
X75024166Y-78490000D01*
X75024166Y-78590000D01*
X74990833Y-78656666D01*
X74957500Y-78690000D01*
X74890833Y-78723333D01*
X74624166Y-78723333D01*
X75324166Y-79056666D02*
X75324166Y-78356666D01*
X75790833Y-78356666D02*
X75924166Y-78356666D01*
X75990833Y-78390000D01*
X76057500Y-78456666D01*
X76090833Y-78590000D01*
X76090833Y-78823333D01*
X76057500Y-78956666D01*
X75990833Y-79023333D01*
X75924166Y-79056666D01*
X75790833Y-79056666D01*
X75724166Y-79023333D01*
X75657500Y-78956666D01*
X75624166Y-78823333D01*
X75624166Y-78590000D01*
X75657500Y-78456666D01*
X75724166Y-78390000D01*
X75790833Y-78356666D01*
X76324166Y-78356666D02*
X76757500Y-78356666D01*
X76524166Y-78623333D01*
X76624166Y-78623333D01*
X76690833Y-78656666D01*
X76724166Y-78690000D01*
X76757500Y-78756666D01*
X76757500Y-78923333D01*
X76724166Y-78990000D01*
X76690833Y-79023333D01*
X76624166Y-79056666D01*
X76424166Y-79056666D01*
X76357500Y-79023333D01*
X76324166Y-78990000D01*
X76990833Y-78356666D02*
X77424166Y-78356666D01*
X77190833Y-78623333D01*
X77290833Y-78623333D01*
X77357500Y-78656666D01*
X77390833Y-78690000D01*
X77424166Y-78756666D01*
X77424166Y-78923333D01*
X77390833Y-78990000D01*
X77357500Y-79023333D01*
X77290833Y-79056666D01*
X77090833Y-79056666D01*
X77024166Y-79023333D01*
X76990833Y-78990000D01*
X91282500Y-91092720D02*
X91215833Y-91059386D01*
X91115833Y-91059386D01*
X91015833Y-91092720D01*
X90949166Y-91159386D01*
X90915833Y-91226053D01*
X90882500Y-91359386D01*
X90882500Y-91459386D01*
X90915833Y-91592720D01*
X90949166Y-91659386D01*
X91015833Y-91726053D01*
X91115833Y-91759386D01*
X91182500Y-91759386D01*
X91282500Y-91726053D01*
X91315833Y-91692720D01*
X91315833Y-91459386D01*
X91182500Y-91459386D01*
X91615833Y-91759386D02*
X91615833Y-91059386D01*
X91882500Y-91059386D01*
X91949166Y-91092720D01*
X91982500Y-91126053D01*
X92015833Y-91192720D01*
X92015833Y-91292720D01*
X91982500Y-91359386D01*
X91949166Y-91392720D01*
X91882500Y-91426053D01*
X91615833Y-91426053D01*
X92315833Y-91759386D02*
X92315833Y-91059386D01*
X92782500Y-91059386D02*
X92915833Y-91059386D01*
X92982500Y-91092720D01*
X93049166Y-91159386D01*
X93082500Y-91292720D01*
X93082500Y-91526053D01*
X93049166Y-91659386D01*
X92982500Y-91726053D01*
X92915833Y-91759386D01*
X92782500Y-91759386D01*
X92715833Y-91726053D01*
X92649166Y-91659386D01*
X92615833Y-91526053D01*
X92615833Y-91292720D01*
X92649166Y-91159386D01*
X92715833Y-91092720D01*
X92782500Y-91059386D01*
X93682500Y-91292720D02*
X93682500Y-91759386D01*
X93515833Y-91026053D02*
X93349166Y-91526053D01*
X93782500Y-91526053D01*
X92682500Y-101916666D02*
X92682500Y-101216666D01*
X92849166Y-101216666D01*
X92949166Y-101250000D01*
X93015833Y-101316666D01*
X93049166Y-101383333D01*
X93082500Y-101516666D01*
X93082500Y-101616666D01*
X93049166Y-101750000D01*
X93015833Y-101816666D01*
X92949166Y-101883333D01*
X92849166Y-101916666D01*
X92682500Y-101916666D01*
X93749166Y-101916666D02*
X93349166Y-101916666D01*
X93549166Y-101916666D02*
X93549166Y-101216666D01*
X93482500Y-101316666D01*
X93415833Y-101383333D01*
X93349166Y-101416666D01*
X73896785Y-63428571D02*
X74230119Y-63428571D01*
X74372976Y-63952380D02*
X73896785Y-63952380D01*
X73896785Y-62952380D01*
X74372976Y-62952380D01*
X74801547Y-63952380D02*
X74801547Y-62952380D01*
X75372976Y-63952380D01*
X75372976Y-62952380D01*
X76563452Y-62904761D02*
X75706309Y-64190476D01*
X77468214Y-63952380D02*
X77134880Y-63476190D01*
X76896785Y-63952380D02*
X76896785Y-62952380D01*
X77277738Y-62952380D01*
X77372976Y-63000000D01*
X77420595Y-63047619D01*
X77468214Y-63142857D01*
X77468214Y-63285714D01*
X77420595Y-63380952D01*
X77372976Y-63428571D01*
X77277738Y-63476190D01*
X76896785Y-63476190D01*
X77896785Y-63428571D02*
X78230119Y-63428571D01*
X78372976Y-63952380D02*
X77896785Y-63952380D01*
X77896785Y-62952380D01*
X78372976Y-62952380D01*
X78753928Y-63904761D02*
X78896785Y-63952380D01*
X79134880Y-63952380D01*
X79230119Y-63904761D01*
X79277738Y-63857142D01*
X79325357Y-63761904D01*
X79325357Y-63666666D01*
X79277738Y-63571428D01*
X79230119Y-63523809D01*
X79134880Y-63476190D01*
X78944404Y-63428571D01*
X78849166Y-63380952D01*
X78801547Y-63333333D01*
X78753928Y-63238095D01*
X78753928Y-63142857D01*
X78801547Y-63047619D01*
X78849166Y-63000000D01*
X78944404Y-62952380D01*
X79182500Y-62952380D01*
X79325357Y-63000000D01*
X79753928Y-63428571D02*
X80087261Y-63428571D01*
X80230119Y-63952380D02*
X79753928Y-63952380D01*
X79753928Y-62952380D01*
X80230119Y-62952380D01*
X80515833Y-62952380D02*
X81087261Y-62952380D01*
X80801547Y-63952380D02*
X80801547Y-62952380D01*
X90615833Y-65692720D02*
X90549166Y-65659386D01*
X90449166Y-65659386D01*
X90349166Y-65692720D01*
X90282500Y-65759386D01*
X90249166Y-65826053D01*
X90215833Y-65959386D01*
X90215833Y-66059386D01*
X90249166Y-66192720D01*
X90282500Y-66259386D01*
X90349166Y-66326053D01*
X90449166Y-66359386D01*
X90515833Y-66359386D01*
X90615833Y-66326053D01*
X90649166Y-66292720D01*
X90649166Y-66059386D01*
X90515833Y-66059386D01*
X90949166Y-66359386D02*
X90949166Y-65659386D01*
X91215833Y-65659386D01*
X91282500Y-65692720D01*
X91315833Y-65726053D01*
X91349166Y-65792720D01*
X91349166Y-65892720D01*
X91315833Y-65959386D01*
X91282500Y-65992720D01*
X91215833Y-66026053D01*
X90949166Y-66026053D01*
X91649166Y-66359386D02*
X91649166Y-65659386D01*
X92115833Y-65659386D02*
X92249166Y-65659386D01*
X92315833Y-65692720D01*
X92382500Y-65759386D01*
X92415833Y-65892720D01*
X92415833Y-66126053D01*
X92382500Y-66259386D01*
X92315833Y-66326053D01*
X92249166Y-66359386D01*
X92115833Y-66359386D01*
X92049166Y-66326053D01*
X91982500Y-66259386D01*
X91949166Y-66126053D01*
X91949166Y-65892720D01*
X91982500Y-65759386D01*
X92049166Y-65692720D01*
X92115833Y-65659386D01*
X92682500Y-65726053D02*
X92715833Y-65692720D01*
X92782500Y-65659386D01*
X92949166Y-65659386D01*
X93015833Y-65692720D01*
X93049166Y-65726053D01*
X93082500Y-65792720D01*
X93082500Y-65859386D01*
X93049166Y-65959386D01*
X92649166Y-66359386D01*
X93082500Y-66359386D01*
X93349166Y-65726053D02*
X93382500Y-65692720D01*
X93449166Y-65659386D01*
X93615833Y-65659386D01*
X93682500Y-65692720D01*
X93715833Y-65726053D01*
X93749166Y-65792720D01*
X93749166Y-65859386D01*
X93715833Y-65959386D01*
X93315833Y-66359386D01*
X93749166Y-66359386D01*
X87249166Y-68232720D02*
X87182500Y-68199386D01*
X87082500Y-68199386D01*
X86982500Y-68232720D01*
X86915833Y-68299386D01*
X86882500Y-68366053D01*
X86849166Y-68499386D01*
X86849166Y-68599386D01*
X86882500Y-68732720D01*
X86915833Y-68799386D01*
X86982500Y-68866053D01*
X87082500Y-68899386D01*
X87149166Y-68899386D01*
X87249166Y-68866053D01*
X87282500Y-68832720D01*
X87282500Y-68599386D01*
X87149166Y-68599386D01*
X87582500Y-68899386D02*
X87582500Y-68199386D01*
X87849166Y-68199386D01*
X87915833Y-68232720D01*
X87949166Y-68266053D01*
X87982500Y-68332720D01*
X87982500Y-68432720D01*
X87949166Y-68499386D01*
X87915833Y-68532720D01*
X87849166Y-68566053D01*
X87582500Y-68566053D01*
X88282500Y-68899386D02*
X88282500Y-68199386D01*
X88749166Y-68199386D02*
X88882500Y-68199386D01*
X88949166Y-68232720D01*
X89015833Y-68299386D01*
X89049166Y-68432720D01*
X89049166Y-68666053D01*
X89015833Y-68799386D01*
X88949166Y-68866053D01*
X88882500Y-68899386D01*
X88749166Y-68899386D01*
X88682500Y-68866053D01*
X88615833Y-68799386D01*
X88582500Y-68666053D01*
X88582500Y-68432720D01*
X88615833Y-68299386D01*
X88682500Y-68232720D01*
X88749166Y-68199386D01*
X89715833Y-68899386D02*
X89315833Y-68899386D01*
X89515833Y-68899386D02*
X89515833Y-68199386D01*
X89449166Y-68299386D01*
X89382500Y-68366053D01*
X89315833Y-68399386D01*
X90515833Y-68166053D02*
X89915833Y-69066053D01*
X90749166Y-68199386D02*
X90749166Y-68766053D01*
X90782500Y-68832720D01*
X90815833Y-68866053D01*
X90882500Y-68899386D01*
X91015833Y-68899386D01*
X91082500Y-68866053D01*
X91115833Y-68832720D01*
X91149166Y-68766053D01*
X91149166Y-68199386D01*
X91615833Y-68199386D02*
X91682500Y-68199386D01*
X91749166Y-68232720D01*
X91782500Y-68266053D01*
X91815833Y-68332720D01*
X91849166Y-68466053D01*
X91849166Y-68632720D01*
X91815833Y-68766053D01*
X91782500Y-68832720D01*
X91749166Y-68866053D01*
X91682500Y-68899386D01*
X91615833Y-68899386D01*
X91549166Y-68866053D01*
X91515833Y-68832720D01*
X91482500Y-68766053D01*
X91449166Y-68632720D01*
X91449166Y-68466053D01*
X91482500Y-68332720D01*
X91515833Y-68266053D01*
X91549166Y-68232720D01*
X91615833Y-68199386D01*
X92049166Y-68199386D02*
X92449166Y-68199386D01*
X92249166Y-68899386D02*
X92249166Y-68199386D01*
X92615833Y-68199386D02*
X93082500Y-68899386D01*
X93082500Y-68199386D02*
X92615833Y-68899386D01*
X93349166Y-68899386D02*
X93349166Y-68199386D01*
X93515833Y-68199386D01*
X93615833Y-68232720D01*
X93682500Y-68299386D01*
X93715833Y-68366053D01*
X93749166Y-68499386D01*
X93749166Y-68599386D01*
X93715833Y-68732720D01*
X93682500Y-68799386D01*
X93615833Y-68866053D01*
X93515833Y-68899386D01*
X93349166Y-68899386D01*
X92682500Y-104459386D02*
X92682500Y-103759386D01*
X92849166Y-103759386D01*
X92949166Y-103792720D01*
X93015833Y-103859386D01*
X93049166Y-103926053D01*
X93082500Y-104059386D01*
X93082500Y-104159386D01*
X93049166Y-104292720D01*
X93015833Y-104359386D01*
X92949166Y-104426053D01*
X92849166Y-104459386D01*
X92682500Y-104459386D01*
X93515833Y-103759386D02*
X93582500Y-103759386D01*
X93649166Y-103792720D01*
X93682500Y-103826053D01*
X93715833Y-103892720D01*
X93749166Y-104026053D01*
X93749166Y-104192720D01*
X93715833Y-104326053D01*
X93682500Y-104392720D01*
X93649166Y-104426053D01*
X93582500Y-104459386D01*
X93515833Y-104459386D01*
X93449166Y-104426053D01*
X93415833Y-104392720D01*
X93382500Y-104326053D01*
X93349166Y-104192720D01*
X93349166Y-104026053D01*
X93382500Y-103892720D01*
X93415833Y-103826053D01*
X93449166Y-103792720D01*
X93515833Y-103759386D01*
X74471785Y-106386380D02*
X73995595Y-106386380D01*
X73947976Y-106862571D01*
X73995595Y-106814952D01*
X74090833Y-106767333D01*
X74328928Y-106767333D01*
X74424166Y-106814952D01*
X74471785Y-106862571D01*
X74519404Y-106957809D01*
X74519404Y-107195904D01*
X74471785Y-107291142D01*
X74424166Y-107338761D01*
X74328928Y-107386380D01*
X74090833Y-107386380D01*
X73995595Y-107338761D01*
X73947976Y-107291142D01*
X74805119Y-106386380D02*
X75138452Y-107386380D01*
X75471785Y-106386380D01*
X74290833Y-70770000D02*
X74224166Y-70736666D01*
X74124166Y-70736666D01*
X74024166Y-70770000D01*
X73957500Y-70836666D01*
X73924166Y-70903333D01*
X73890833Y-71036666D01*
X73890833Y-71136666D01*
X73924166Y-71270000D01*
X73957500Y-71336666D01*
X74024166Y-71403333D01*
X74124166Y-71436666D01*
X74190833Y-71436666D01*
X74290833Y-71403333D01*
X74324166Y-71370000D01*
X74324166Y-71136666D01*
X74190833Y-71136666D01*
X74624166Y-71436666D02*
X74624166Y-70736666D01*
X74890833Y-70736666D01*
X74957500Y-70770000D01*
X74990833Y-70803333D01*
X75024166Y-70870000D01*
X75024166Y-70970000D01*
X74990833Y-71036666D01*
X74957500Y-71070000D01*
X74890833Y-71103333D01*
X74624166Y-71103333D01*
X75324166Y-71436666D02*
X75324166Y-70736666D01*
X75790833Y-70736666D02*
X75924166Y-70736666D01*
X75990833Y-70770000D01*
X76057500Y-70836666D01*
X76090833Y-70970000D01*
X76090833Y-71203333D01*
X76057500Y-71336666D01*
X75990833Y-71403333D01*
X75924166Y-71436666D01*
X75790833Y-71436666D01*
X75724166Y-71403333D01*
X75657500Y-71336666D01*
X75624166Y-71203333D01*
X75624166Y-70970000D01*
X75657500Y-70836666D01*
X75724166Y-70770000D01*
X75790833Y-70736666D01*
X76324166Y-70736666D02*
X76757500Y-70736666D01*
X76524166Y-71003333D01*
X76624166Y-71003333D01*
X76690833Y-71036666D01*
X76724166Y-71070000D01*
X76757500Y-71136666D01*
X76757500Y-71303333D01*
X76724166Y-71370000D01*
X76690833Y-71403333D01*
X76624166Y-71436666D01*
X76424166Y-71436666D01*
X76357500Y-71403333D01*
X76324166Y-71370000D01*
X77357500Y-70970000D02*
X77357500Y-71436666D01*
X77190833Y-70703333D02*
X77024166Y-71203333D01*
X77457500Y-71203333D01*
X90615833Y-86010000D02*
X90549166Y-85976666D01*
X90449166Y-85976666D01*
X90349166Y-86010000D01*
X90282500Y-86076666D01*
X90249166Y-86143333D01*
X90215833Y-86276666D01*
X90215833Y-86376666D01*
X90249166Y-86510000D01*
X90282500Y-86576666D01*
X90349166Y-86643333D01*
X90449166Y-86676666D01*
X90515833Y-86676666D01*
X90615833Y-86643333D01*
X90649166Y-86610000D01*
X90649166Y-86376666D01*
X90515833Y-86376666D01*
X90949166Y-86676666D02*
X90949166Y-85976666D01*
X91215833Y-85976666D01*
X91282500Y-86010000D01*
X91315833Y-86043333D01*
X91349166Y-86110000D01*
X91349166Y-86210000D01*
X91315833Y-86276666D01*
X91282500Y-86310000D01*
X91215833Y-86343333D01*
X90949166Y-86343333D01*
X91649166Y-86676666D02*
X91649166Y-85976666D01*
X92115833Y-85976666D02*
X92249166Y-85976666D01*
X92315833Y-86010000D01*
X92382500Y-86076666D01*
X92415833Y-86210000D01*
X92415833Y-86443333D01*
X92382500Y-86576666D01*
X92315833Y-86643333D01*
X92249166Y-86676666D01*
X92115833Y-86676666D01*
X92049166Y-86643333D01*
X91982500Y-86576666D01*
X91949166Y-86443333D01*
X91949166Y-86210000D01*
X91982500Y-86076666D01*
X92049166Y-86010000D01*
X92115833Y-85976666D01*
X93082500Y-86676666D02*
X92682500Y-86676666D01*
X92882500Y-86676666D02*
X92882500Y-85976666D01*
X92815833Y-86076666D01*
X92749166Y-86143333D01*
X92682500Y-86176666D01*
X93315833Y-85976666D02*
X93782500Y-85976666D01*
X93482500Y-86676666D01*
X92482500Y-106930000D02*
X92449166Y-106963333D01*
X92349166Y-106996666D01*
X92282500Y-106996666D01*
X92182500Y-106963333D01*
X92115833Y-106896666D01*
X92082500Y-106830000D01*
X92049166Y-106696666D01*
X92049166Y-106596666D01*
X92082500Y-106463333D01*
X92115833Y-106396666D01*
X92182500Y-106330000D01*
X92282500Y-106296666D01*
X92349166Y-106296666D01*
X92449166Y-106330000D01*
X92482500Y-106363333D01*
X93115833Y-106996666D02*
X92782500Y-106996666D01*
X92782500Y-106296666D01*
X93349166Y-106996666D02*
X93349166Y-106296666D01*
X93749166Y-106996666D02*
X93449166Y-106596666D01*
X93749166Y-106296666D02*
X93349166Y-106696666D01*
X91282500Y-93632720D02*
X91215833Y-93599386D01*
X91115833Y-93599386D01*
X91015833Y-93632720D01*
X90949166Y-93699386D01*
X90915833Y-93766053D01*
X90882500Y-93899386D01*
X90882500Y-93999386D01*
X90915833Y-94132720D01*
X90949166Y-94199386D01*
X91015833Y-94266053D01*
X91115833Y-94299386D01*
X91182500Y-94299386D01*
X91282500Y-94266053D01*
X91315833Y-94232720D01*
X91315833Y-93999386D01*
X91182500Y-93999386D01*
X91615833Y-94299386D02*
X91615833Y-93599386D01*
X91882500Y-93599386D01*
X91949166Y-93632720D01*
X91982500Y-93666053D01*
X92015833Y-93732720D01*
X92015833Y-93832720D01*
X91982500Y-93899386D01*
X91949166Y-93932720D01*
X91882500Y-93966053D01*
X91615833Y-93966053D01*
X92315833Y-94299386D02*
X92315833Y-93599386D01*
X92782500Y-93599386D02*
X92915833Y-93599386D01*
X92982500Y-93632720D01*
X93049166Y-93699386D01*
X93082500Y-93832720D01*
X93082500Y-94066053D01*
X93049166Y-94199386D01*
X92982500Y-94266053D01*
X92915833Y-94299386D01*
X92782500Y-94299386D01*
X92715833Y-94266053D01*
X92649166Y-94199386D01*
X92615833Y-94066053D01*
X92615833Y-93832720D01*
X92649166Y-93699386D01*
X92715833Y-93632720D01*
X92782500Y-93599386D01*
X93515833Y-93599386D02*
X93582500Y-93599386D01*
X93649166Y-93632720D01*
X93682500Y-93666053D01*
X93715833Y-93732720D01*
X93749166Y-93866053D01*
X93749166Y-94032720D01*
X93715833Y-94166053D01*
X93682500Y-94232720D01*
X93649166Y-94266053D01*
X93582500Y-94299386D01*
X93515833Y-94299386D01*
X93449166Y-94266053D01*
X93415833Y-94232720D01*
X93382500Y-94166053D01*
X93349166Y-94032720D01*
X93349166Y-93866053D01*
X93382500Y-93732720D01*
X93415833Y-93666053D01*
X93449166Y-93632720D01*
X93515833Y-93599386D01*
X73824166Y-68196666D02*
X74057500Y-68896666D01*
X74290833Y-68196666D01*
X74524166Y-68896666D02*
X74524166Y-68196666D01*
X74924166Y-68896666D01*
X74924166Y-68196666D01*
X75757500Y-68163333D02*
X75157500Y-69063333D01*
X76357500Y-68230000D02*
X76290833Y-68196666D01*
X76190833Y-68196666D01*
X76090833Y-68230000D01*
X76024166Y-68296666D01*
X75990833Y-68363333D01*
X75957500Y-68496666D01*
X75957500Y-68596666D01*
X75990833Y-68730000D01*
X76024166Y-68796666D01*
X76090833Y-68863333D01*
X76190833Y-68896666D01*
X76257500Y-68896666D01*
X76357500Y-68863333D01*
X76390833Y-68830000D01*
X76390833Y-68596666D01*
X76257500Y-68596666D01*
X76690833Y-68896666D02*
X76690833Y-68196666D01*
X76957500Y-68196666D01*
X77024166Y-68230000D01*
X77057500Y-68263333D01*
X77090833Y-68330000D01*
X77090833Y-68430000D01*
X77057500Y-68496666D01*
X77024166Y-68530000D01*
X76957500Y-68563333D01*
X76690833Y-68563333D01*
X77390833Y-68896666D02*
X77390833Y-68196666D01*
X77857500Y-68196666D02*
X77990833Y-68196666D01*
X78057500Y-68230000D01*
X78124166Y-68296666D01*
X78157500Y-68430000D01*
X78157500Y-68663333D01*
X78124166Y-68796666D01*
X78057500Y-68863333D01*
X77990833Y-68896666D01*
X77857500Y-68896666D01*
X77790833Y-68863333D01*
X77724166Y-68796666D01*
X77690833Y-68663333D01*
X77690833Y-68430000D01*
X77724166Y-68296666D01*
X77790833Y-68230000D01*
X77857500Y-68196666D01*
X78390833Y-68196666D02*
X78824166Y-68196666D01*
X78590833Y-68463333D01*
X78690833Y-68463333D01*
X78757500Y-68496666D01*
X78790833Y-68530000D01*
X78824166Y-68596666D01*
X78824166Y-68763333D01*
X78790833Y-68830000D01*
X78757500Y-68863333D01*
X78690833Y-68896666D01*
X78490833Y-68896666D01*
X78424166Y-68863333D01*
X78390833Y-68830000D01*
X79157500Y-68896666D02*
X79290833Y-68896666D01*
X79357500Y-68863333D01*
X79390833Y-68830000D01*
X79457500Y-68730000D01*
X79490833Y-68596666D01*
X79490833Y-68330000D01*
X79457500Y-68263333D01*
X79424166Y-68230000D01*
X79357500Y-68196666D01*
X79224166Y-68196666D01*
X79157500Y-68230000D01*
X79124166Y-68263333D01*
X79090833Y-68330000D01*
X79090833Y-68496666D01*
X79124166Y-68563333D01*
X79157500Y-68596666D01*
X79224166Y-68630000D01*
X79357500Y-68630000D01*
X79424166Y-68596666D01*
X79457500Y-68563333D01*
X79490833Y-68496666D01*
X74290833Y-83472720D02*
X74224166Y-83439386D01*
X74124166Y-83439386D01*
X74024166Y-83472720D01*
X73957500Y-83539386D01*
X73924166Y-83606053D01*
X73890833Y-83739386D01*
X73890833Y-83839386D01*
X73924166Y-83972720D01*
X73957500Y-84039386D01*
X74024166Y-84106053D01*
X74124166Y-84139386D01*
X74190833Y-84139386D01*
X74290833Y-84106053D01*
X74324166Y-84072720D01*
X74324166Y-83839386D01*
X74190833Y-83839386D01*
X74624166Y-84139386D02*
X74624166Y-83439386D01*
X74890833Y-83439386D01*
X74957500Y-83472720D01*
X74990833Y-83506053D01*
X75024166Y-83572720D01*
X75024166Y-83672720D01*
X74990833Y-83739386D01*
X74957500Y-83772720D01*
X74890833Y-83806053D01*
X74624166Y-83806053D01*
X75324166Y-84139386D02*
X75324166Y-83439386D01*
X75790833Y-83439386D02*
X75924166Y-83439386D01*
X75990833Y-83472720D01*
X76057500Y-83539386D01*
X76090833Y-83672720D01*
X76090833Y-83906053D01*
X76057500Y-84039386D01*
X75990833Y-84106053D01*
X75924166Y-84139386D01*
X75790833Y-84139386D01*
X75724166Y-84106053D01*
X75657500Y-84039386D01*
X75624166Y-83906053D01*
X75624166Y-83672720D01*
X75657500Y-83539386D01*
X75724166Y-83472720D01*
X75790833Y-83439386D01*
X76357500Y-83506053D02*
X76390833Y-83472720D01*
X76457500Y-83439386D01*
X76624166Y-83439386D01*
X76690833Y-83472720D01*
X76724166Y-83506053D01*
X76757500Y-83572720D01*
X76757500Y-83639386D01*
X76724166Y-83739386D01*
X76324166Y-84139386D01*
X76757500Y-84139386D01*
X77357500Y-83439386D02*
X77224166Y-83439386D01*
X77157500Y-83472720D01*
X77124166Y-83506053D01*
X77057500Y-83606053D01*
X77024166Y-83739386D01*
X77024166Y-84006053D01*
X77057500Y-84072720D01*
X77090833Y-84106053D01*
X77157500Y-84139386D01*
X77290833Y-84139386D01*
X77357500Y-84106053D01*
X77390833Y-84072720D01*
X77424166Y-84006053D01*
X77424166Y-83839386D01*
X77390833Y-83772720D01*
X77357500Y-83739386D01*
X77290833Y-83706053D01*
X77157500Y-83706053D01*
X77090833Y-83739386D01*
X77057500Y-83772720D01*
X77024166Y-83839386D01*
X91282500Y-83470000D02*
X91215833Y-83436666D01*
X91115833Y-83436666D01*
X91015833Y-83470000D01*
X90949166Y-83536666D01*
X90915833Y-83603333D01*
X90882500Y-83736666D01*
X90882500Y-83836666D01*
X90915833Y-83970000D01*
X90949166Y-84036666D01*
X91015833Y-84103333D01*
X91115833Y-84136666D01*
X91182500Y-84136666D01*
X91282500Y-84103333D01*
X91315833Y-84070000D01*
X91315833Y-83836666D01*
X91182500Y-83836666D01*
X91615833Y-84136666D02*
X91615833Y-83436666D01*
X91882500Y-83436666D01*
X91949166Y-83470000D01*
X91982500Y-83503333D01*
X92015833Y-83570000D01*
X92015833Y-83670000D01*
X91982500Y-83736666D01*
X91949166Y-83770000D01*
X91882500Y-83803333D01*
X91615833Y-83803333D01*
X92315833Y-84136666D02*
X92315833Y-83436666D01*
X92782500Y-83436666D02*
X92915833Y-83436666D01*
X92982500Y-83470000D01*
X93049166Y-83536666D01*
X93082500Y-83670000D01*
X93082500Y-83903333D01*
X93049166Y-84036666D01*
X92982500Y-84103333D01*
X92915833Y-84136666D01*
X92782500Y-84136666D01*
X92715833Y-84103333D01*
X92649166Y-84036666D01*
X92615833Y-83903333D01*
X92615833Y-83670000D01*
X92649166Y-83536666D01*
X92715833Y-83470000D01*
X92782500Y-83436666D01*
X93715833Y-83436666D02*
X93382500Y-83436666D01*
X93349166Y-83770000D01*
X93382500Y-83736666D01*
X93449166Y-83703333D01*
X93615833Y-83703333D01*
X93682500Y-83736666D01*
X93715833Y-83770000D01*
X93749166Y-83836666D01*
X93749166Y-84003333D01*
X93715833Y-84070000D01*
X93682500Y-84103333D01*
X93615833Y-84136666D01*
X93449166Y-84136666D01*
X93382500Y-84103333D01*
X93349166Y-84070000D01*
X74290833Y-96172720D02*
X74224166Y-96139386D01*
X74124166Y-96139386D01*
X74024166Y-96172720D01*
X73957500Y-96239386D01*
X73924166Y-96306053D01*
X73890833Y-96439386D01*
X73890833Y-96539386D01*
X73924166Y-96672720D01*
X73957500Y-96739386D01*
X74024166Y-96806053D01*
X74124166Y-96839386D01*
X74190833Y-96839386D01*
X74290833Y-96806053D01*
X74324166Y-96772720D01*
X74324166Y-96539386D01*
X74190833Y-96539386D01*
X74624166Y-96839386D02*
X74624166Y-96139386D01*
X74890833Y-96139386D01*
X74957500Y-96172720D01*
X74990833Y-96206053D01*
X75024166Y-96272720D01*
X75024166Y-96372720D01*
X74990833Y-96439386D01*
X74957500Y-96472720D01*
X74890833Y-96506053D01*
X74624166Y-96506053D01*
X75324166Y-96839386D02*
X75324166Y-96139386D01*
X75790833Y-96139386D02*
X75924166Y-96139386D01*
X75990833Y-96172720D01*
X76057500Y-96239386D01*
X76090833Y-96372720D01*
X76090833Y-96606053D01*
X76057500Y-96739386D01*
X75990833Y-96806053D01*
X75924166Y-96839386D01*
X75790833Y-96839386D01*
X75724166Y-96806053D01*
X75657500Y-96739386D01*
X75624166Y-96606053D01*
X75624166Y-96372720D01*
X75657500Y-96239386D01*
X75724166Y-96172720D01*
X75790833Y-96139386D01*
X76757500Y-96839386D02*
X76357500Y-96839386D01*
X76557500Y-96839386D02*
X76557500Y-96139386D01*
X76490833Y-96239386D01*
X76424166Y-96306053D01*
X76357500Y-96339386D01*
X76990833Y-96139386D02*
X77424166Y-96139386D01*
X77190833Y-96406053D01*
X77290833Y-96406053D01*
X77357500Y-96439386D01*
X77390833Y-96472720D01*
X77424166Y-96539386D01*
X77424166Y-96706053D01*
X77390833Y-96772720D01*
X77357500Y-96806053D01*
X77290833Y-96839386D01*
X77090833Y-96839386D01*
X77024166Y-96806053D01*
X76990833Y-96772720D01*
X78224166Y-96106053D02*
X77624166Y-97006053D01*
X78457500Y-96839386D02*
X78457500Y-96139386D01*
X78690833Y-96639386D01*
X78924166Y-96139386D01*
X78924166Y-96839386D01*
X79157500Y-96139386D02*
X79557500Y-96139386D01*
X79357500Y-96839386D02*
X79357500Y-96139386D01*
X80190833Y-96772720D02*
X80157500Y-96806053D01*
X80057500Y-96839386D01*
X79990833Y-96839386D01*
X79890833Y-96806053D01*
X79824166Y-96739386D01*
X79790833Y-96672720D01*
X79757500Y-96539386D01*
X79757500Y-96439386D01*
X79790833Y-96306053D01*
X79824166Y-96239386D01*
X79890833Y-96172720D01*
X79990833Y-96139386D01*
X80057500Y-96139386D01*
X80157500Y-96172720D01*
X80190833Y-96206053D01*
X80490833Y-96839386D02*
X80490833Y-96139386D01*
X80890833Y-96839386D02*
X80590833Y-96439386D01*
X80890833Y-96139386D02*
X80490833Y-96539386D01*
X87082500Y-70770000D02*
X87015833Y-70736666D01*
X86915833Y-70736666D01*
X86815833Y-70770000D01*
X86749166Y-70836666D01*
X86715833Y-70903333D01*
X86682500Y-71036666D01*
X86682500Y-71136666D01*
X86715833Y-71270000D01*
X86749166Y-71336666D01*
X86815833Y-71403333D01*
X86915833Y-71436666D01*
X86982500Y-71436666D01*
X87082500Y-71403333D01*
X87115833Y-71370000D01*
X87115833Y-71136666D01*
X86982500Y-71136666D01*
X87415833Y-71436666D02*
X87415833Y-70736666D01*
X87682500Y-70736666D01*
X87749166Y-70770000D01*
X87782500Y-70803333D01*
X87815833Y-70870000D01*
X87815833Y-70970000D01*
X87782500Y-71036666D01*
X87749166Y-71070000D01*
X87682500Y-71103333D01*
X87415833Y-71103333D01*
X88115833Y-71436666D02*
X88115833Y-70736666D01*
X88582500Y-70736666D02*
X88715833Y-70736666D01*
X88782500Y-70770000D01*
X88849166Y-70836666D01*
X88882500Y-70970000D01*
X88882500Y-71203333D01*
X88849166Y-71336666D01*
X88782500Y-71403333D01*
X88715833Y-71436666D01*
X88582500Y-71436666D01*
X88515833Y-71403333D01*
X88449166Y-71336666D01*
X88415833Y-71203333D01*
X88415833Y-70970000D01*
X88449166Y-70836666D01*
X88515833Y-70770000D01*
X88582500Y-70736666D01*
X89115833Y-70736666D02*
X89549166Y-70736666D01*
X89315833Y-71003333D01*
X89415833Y-71003333D01*
X89482500Y-71036666D01*
X89515833Y-71070000D01*
X89549166Y-71136666D01*
X89549166Y-71303333D01*
X89515833Y-71370000D01*
X89482500Y-71403333D01*
X89415833Y-71436666D01*
X89215833Y-71436666D01*
X89149166Y-71403333D01*
X89115833Y-71370000D01*
X90349166Y-70703333D02*
X89749166Y-71603333D01*
X90582500Y-70736666D02*
X90582500Y-71303333D01*
X90615833Y-71370000D01*
X90649166Y-71403333D01*
X90715833Y-71436666D01*
X90849166Y-71436666D01*
X90915833Y-71403333D01*
X90949166Y-71370000D01*
X90982500Y-71303333D01*
X90982500Y-70736666D01*
X91449166Y-70736666D02*
X91515833Y-70736666D01*
X91582500Y-70770000D01*
X91615833Y-70803333D01*
X91649166Y-70870000D01*
X91682500Y-71003333D01*
X91682500Y-71170000D01*
X91649166Y-71303333D01*
X91615833Y-71370000D01*
X91582500Y-71403333D01*
X91515833Y-71436666D01*
X91449166Y-71436666D01*
X91382500Y-71403333D01*
X91349166Y-71370000D01*
X91315833Y-71303333D01*
X91282500Y-71170000D01*
X91282500Y-71003333D01*
X91315833Y-70870000D01*
X91349166Y-70803333D01*
X91382500Y-70770000D01*
X91449166Y-70736666D01*
X92382500Y-71436666D02*
X92149166Y-71103333D01*
X91982500Y-71436666D02*
X91982500Y-70736666D01*
X92249166Y-70736666D01*
X92315833Y-70770000D01*
X92349166Y-70803333D01*
X92382500Y-70870000D01*
X92382500Y-70970000D01*
X92349166Y-71036666D01*
X92315833Y-71070000D01*
X92249166Y-71103333D01*
X91982500Y-71103333D01*
X92615833Y-70736666D02*
X93082500Y-71436666D01*
X93082500Y-70736666D02*
X92615833Y-71436666D01*
X93349166Y-71436666D02*
X93349166Y-70736666D01*
X93515833Y-70736666D01*
X93615833Y-70770000D01*
X93682500Y-70836666D01*
X93715833Y-70903333D01*
X93749166Y-71036666D01*
X93749166Y-71136666D01*
X93715833Y-71270000D01*
X93682500Y-71336666D01*
X93615833Y-71403333D01*
X93515833Y-71436666D01*
X93349166Y-71436666D01*
X106260980Y-75862266D02*
X105784790Y-76195600D01*
X106260980Y-76433695D02*
X105260980Y-76433695D01*
X105260980Y-76052742D01*
X105308600Y-75957504D01*
X105356219Y-75909885D01*
X105451457Y-75862266D01*
X105594314Y-75862266D01*
X105689552Y-75909885D01*
X105737171Y-75957504D01*
X105784790Y-76052742D01*
X105784790Y-76433695D01*
X106260980Y-74909885D02*
X106260980Y-75481314D01*
X106260980Y-75195600D02*
X105260980Y-75195600D01*
X105403838Y-75290838D01*
X105499076Y-75386076D01*
X105546695Y-75481314D01*
X126603166Y-54583080D02*
X126603166Y-55297366D01*
X126555547Y-55440223D01*
X126460309Y-55535461D01*
X126317452Y-55583080D01*
X126222214Y-55583080D01*
X127603166Y-55583080D02*
X127031738Y-55583080D01*
X127317452Y-55583080D02*
X127317452Y-54583080D01*
X127222214Y-54725938D01*
X127126976Y-54821176D01*
X127031738Y-54868795D01*
D11*
X121920000Y-107950000D02*
X121920000Y-100330000D01*
X106680000Y-106680000D02*
X121920000Y-106680000D01*
X106680000Y-100330000D02*
X121920000Y-100330000D01*
X106680000Y-107950000D02*
X121920000Y-107950000D01*
X106680000Y-107950000D02*
X106680000Y-100330000D01*
X106499000Y-64172200D02*
X106499000Y-65682200D01*
X102798000Y-64172200D02*
X102798000Y-65682200D01*
X109768000Y-64172200D02*
X109768000Y-68813200D01*
X99528000Y-65682200D02*
X109768000Y-65682200D01*
X99528000Y-64172200D02*
X109768000Y-64172200D01*
X99528000Y-68813200D02*
X109768000Y-68813200D01*
X99528000Y-64172200D02*
X99528000Y-68813200D01*
X102158800Y-97510600D02*
X102158800Y-82270600D01*
X125018800Y-82270600D02*
X125018800Y-97510600D01*
X102158800Y-82270600D02*
X125018800Y-82270600D01*
X125018800Y-97510600D02*
X102158800Y-97510600D01*
X132080000Y-91440000D02*
X132080000Y-81280000D01*
X138430000Y-91440000D02*
X138430000Y-81280000D01*
X138430000Y-81280000D02*
X130810000Y-81280000D01*
X130810000Y-81280000D02*
X130810000Y-91440000D01*
X130810000Y-91440000D02*
X138430000Y-91440000D01*
X119316500Y-57670700D02*
X109156500Y-57670700D01*
X119316500Y-58940700D02*
X119316500Y-51320700D01*
X119316500Y-51320700D02*
X109156500Y-51320700D01*
X109156500Y-51320700D02*
X109156500Y-58940700D01*
X109156500Y-58940700D02*
X119316500Y-58940700D01*
X130810000Y-78740000D02*
X138430000Y-78740000D01*
X138430000Y-68580000D02*
X130810000Y-68580000D01*
X130810000Y-68580000D02*
X130810000Y-78740000D01*
X132080000Y-78740000D02*
X132080000Y-68580000D01*
X138430000Y-78740000D02*
X138430000Y-68580000D01*
X117389200Y-71886400D02*
X117289200Y-71886400D01*
X117389200Y-71686400D02*
X118809200Y-71686400D01*
X123909200Y-73616400D02*
X123909200Y-77596400D01*
X122389200Y-71886400D02*
X122389200Y-71686400D01*
X122389200Y-71686400D02*
X123809200Y-71686400D01*
X117389200Y-71686400D02*
X117389200Y-71886400D01*
X123909200Y-71886400D02*
X123909200Y-72576400D01*
X117289200Y-71886400D02*
X117289200Y-72136400D01*
X120089200Y-78906400D02*
X118599200Y-78906400D01*
X117289200Y-77596400D02*
X117289200Y-74056400D01*
X123809200Y-71886400D02*
X123909200Y-71886400D01*
X122599200Y-78906400D02*
X121109200Y-78906400D01*
X123809200Y-71686400D02*
X123809200Y-71886400D01*
X118809200Y-71886400D02*
X118809200Y-71686400D01*
X118809200Y-71886400D02*
X122389200Y-71886400D01*
X117289200Y-77596400D02*
G75*
G03*
X118599200Y-78906400I1310000J0D01*
G01*
X122599200Y-78906400D02*
G75*
G03*
X123909200Y-77596400I0J1310000D01*
G01*
X96729999Y-107782720D02*
X96730000Y-59862720D01*
X70895400Y-107782720D02*
X96729999Y-107782720D01*
X96730000Y-59862720D02*
X70895401Y-59862720D01*
X70895401Y-59862720D02*
X70895400Y-107782720D01*
X91543320Y-53949600D02*
X91543320Y-59842400D01*
X76125520Y-53949600D02*
X91543320Y-53949600D01*
X76125520Y-59842400D02*
X76125520Y-53949600D01*
X108178600Y-76865600D02*
X108178600Y-74255600D01*
X109548600Y-78235600D02*
G75*
G03*
X109548600Y-78235600I-1370000J0D01*
G01*
X132016500Y-58940700D02*
X132016500Y-51320700D01*
X132016500Y-57670700D02*
X121856500Y-57670700D01*
X121856500Y-51320700D02*
X121856500Y-58940700D01*
X132016500Y-51320700D02*
X121856500Y-51320700D01*
X121856500Y-58940700D02*
X132016500Y-58940700D01*
%LPC*%
D12*
X109220000Y-104140000D03*
D13*
X114300000Y-104140000D03*
X119380000Y-104140000D03*
D14*
X102108000Y-67442200D03*
D15*
X104648000Y-67442200D03*
X107188000Y-67442200D03*
D16*
X104698800Y-87350600D03*
X104698800Y-84810600D03*
X104698800Y-92430600D03*
X104698800Y-94970600D03*
X122478800Y-87350600D03*
X122478800Y-84810600D03*
X122478800Y-92430600D03*
X122478800Y-94970600D03*
D12*
X134620000Y-83820000D03*
D13*
X134620000Y-88900000D03*
D12*
X111696500Y-55130700D03*
D13*
X116776500Y-55130700D03*
D17*
X66040000Y-50800000D03*
X3475000Y-3475000D03*
X139700000Y-111760000D03*
D12*
X134620000Y-71120000D03*
D13*
X134620000Y-76200000D03*
D18*
X118099200Y-73096400D03*
D19*
X120599200Y-78096400D03*
X123099200Y-73096400D03*
D20*
X72395400Y-60962720D03*
X72395400Y-63502720D03*
X72395400Y-66042720D03*
X72395400Y-68582720D03*
X72395400Y-71122720D03*
X72395400Y-73662720D03*
X72395400Y-76202720D03*
X72395400Y-78742720D03*
X72395400Y-81282720D03*
X72395400Y-83822720D03*
X72395400Y-86362720D03*
X72395400Y-88902720D03*
X72395400Y-91442720D03*
D21*
X72395400Y-93982720D03*
D20*
X72395400Y-96522720D03*
X72395400Y-99062720D03*
X72395400Y-101602720D03*
X72395400Y-104142720D03*
X72395400Y-106682720D03*
X95226320Y-106680000D03*
X95226320Y-104140000D03*
X95230000Y-101602720D03*
X95230000Y-99062720D03*
X95230000Y-96522720D03*
X95230000Y-93982720D03*
X95230000Y-91442720D03*
X95230000Y-88902720D03*
X95230000Y-86362720D03*
X95230000Y-83822720D03*
X95230000Y-81282720D03*
X95230000Y-78742720D03*
X95230000Y-76202720D03*
X95230000Y-73662720D03*
X95230000Y-71122720D03*
X95230000Y-68582720D03*
X95230000Y-66042720D03*
X95230000Y-63502720D03*
D21*
X95230000Y-60962720D03*
D22*
X108178600Y-78235600D03*
D23*
X108178600Y-73155600D03*
D12*
X124396500Y-55130700D03*
D13*
X129476500Y-55130700D03*
D17*
X66040000Y-111760000D03*
X139700000Y-50800000D03*
M02*
