M48
; DRILL file {KiCad (6.0.5-0)} date Tuesday, September 06, 2022 at 03:59:46 PM
; FORMAT={-:-/ absolute / metric / decimal}
; #@! TF.CreationDate,2022-09-06T15:59:46-04:00
; #@! TF.GenerationSoftware,Kicad,Pcbnew,(6.0.5-0)
; #@! TF.FileFunction,Plated,1,2,PTH
FMAT,2
METRIC
; #@! TA.AperFunction,Plated,PTH,ViaDrill
T1C0.400
; #@! TA.AperFunction,Plated,PTH,ComponentDrill
T2C0.700
; #@! TA.AperFunction,Plated,PTH,ComponentDrill
T3C0.762
; #@! TA.AperFunction,Plated,PTH,ComponentDrill
T4C0.800
; #@! TA.AperFunction,Plated,PTH,ComponentDrill
T5C1.000
; #@! TA.AperFunction,Plated,PTH,ComponentDrill
T6C1.100
; #@! TA.AperFunction,Plated,PTH,ComponentDrill
T7C1.520
%
G90
G05
T1
X97.968Y-76.632
X98.247Y-85.801
X98.577Y-88.062
X98.857Y-72.415
X99.72Y-70.942
X101.219Y-88.214
X101.575Y-79.07
X104.064Y-80.81
X106.858Y-84.531
X112.827Y-99.06
X116.688Y-63.348
X116.764Y-77.8
X116.789Y-79.972
X117.348Y-57.785
X118.872Y-70.079
X119.329Y-61.011
X127.838Y-78.892
T2
X108.915Y-74.346
X111.455Y-71.806
X113.995Y-74.346
X119.863Y-74.346
X122.403Y-71.806
X124.943Y-74.346
T3
X104.699Y-84.811
X104.699Y-87.351
X104.699Y-94.971
X104.699Y-97.511
X122.479Y-84.811
X122.479Y-87.351
X122.479Y-94.971
X122.479Y-97.511
T4
X65.888Y-99.095
X65.888Y-102.895
X72.395Y-60.963
X72.395Y-63.503
X72.395Y-66.043
X72.395Y-68.583
X72.395Y-71.123
X72.395Y-73.663
X72.395Y-76.203
X72.395Y-78.743
X72.395Y-81.283
X72.395Y-83.823
X72.395Y-86.363
X72.395Y-88.903
X72.395Y-91.443
X72.395Y-93.983
X72.395Y-96.523
X72.395Y-99.063
X72.395Y-101.603
X72.395Y-104.143
X72.395Y-106.683
X95.226Y-104.14
X95.226Y-106.68
X95.23Y-60.963
X95.23Y-63.503
X95.23Y-66.043
X95.23Y-68.583
X95.23Y-71.123
X95.23Y-73.663
X95.23Y-76.203
X95.23Y-78.743
X95.23Y-81.283
X95.23Y-83.823
X95.23Y-86.363
X95.23Y-88.903
X95.23Y-91.443
X95.23Y-93.983
X95.23Y-96.523
X95.23Y-99.063
X95.23Y-101.603
X99.72Y-96.85
X99.72Y-107.01
T5
X134.849Y-96.571
X134.849Y-99.111
X134.849Y-101.651
T6
X101.829Y-67.442
X104.369Y-67.442
X106.909Y-67.442
T7
X109.779Y-105.766
X113.64Y-55.131
X114.859Y-105.766
X118.72Y-55.131
X119.939Y-105.766
X124.396Y-55.131
X129.476Y-55.131
X134.62Y-71.12
X134.62Y-76.2
X134.62Y-83.82
X134.62Y-88.9
T0
M30
