M48
; DRILL file {KiCad (6.0.5-0)} date Friday, June 17, 2022 at 03:09:39 PM
; FORMAT={-:-/ absolute / inch / decimal}
; #@! TF.CreationDate,2022-06-17T15:09:39-06:00
; #@! TF.GenerationSoftware,Kicad,Pcbnew,(6.0.5-0)
; #@! TF.FileFunction,Plated,1,2,PTH
FMAT,2
INCH
; #@! TA.AperFunction,Plated,PTH,ComponentDrill
T1C0.0300
; #@! TA.AperFunction,Plated,PTH,ComponentDrill
T2C0.0315
; #@! TA.AperFunction,Plated,PTH,ComponentDrill
T3C0.0394
; #@! TA.AperFunction,Plated,PTH,ComponentDrill
T4C0.0433
; #@! TA.AperFunction,Plated,PTH,ComponentDrill
T5C0.0598
; #@! TA.AperFunction,Plated,PTH,ViaDrill
T6C0.1177
%
G90
G05
T1
X4.8Y-3.5
X4.8Y-3.6
X4.8Y-3.8
X4.8Y-3.9
X5.5Y-3.5
X5.5Y-3.6
X5.5Y-3.8
X5.5Y-3.9
X5.9Y-3.5
X5.9Y-3.6
X5.9Y-3.7
X5.9Y-3.8
X5.9Y-3.9
X5.9Y-4.0
X5.9Y-4.1
X5.9Y-4.2
X5.9Y-4.3
X5.9Y-4.4
X5.9Y-4.5
X5.9Y-4.6
X5.9Y-4.7
X5.9Y-4.8
X5.9Y-4.9
X6.4Y-3.5
X6.4Y-3.6
X6.4Y-3.7
X6.4Y-3.8
X6.4Y-3.9
X6.4Y-4.0
X6.4Y-4.1
X6.4Y-4.2
X6.4Y-4.3
X6.4Y-4.4
X6.4Y-4.5
X6.4Y-4.6
X6.4Y-4.7
X6.4Y-4.8
X6.4Y-4.9
T2
X6.8Y-4.4
X6.8Y-4.6
X6.9504Y-4.0
X7.2504Y-4.0
T3
X5.0Y-4.2
X5.0984Y-4.3969
X5.1969Y-4.2
T4
X5.2Y-4.6
X5.2Y-4.7
X5.2Y-4.8
T5
X4.8Y-5.1
X5.0Y-5.1
X5.3Y-5.1
X5.5Y-5.1
X6.8Y-3.5
X7.0Y-3.5
X7.2Y-3.5
X7.2Y-4.3
X7.2Y-4.5
X7.2Y-4.8
X7.2Y-5.0
T6
X4.7Y-4.3
X7.4Y-3.5
X7.4Y-5.2
T0
M30
