%TF.GenerationSoftware,KiCad,Pcbnew,(6.0.5-0)*%
%TF.CreationDate,2022-06-17T15:09:35-06:00*%
%TF.ProjectId,ESP32,45535033-322e-46b6-9963-61645f706362,rev?*%
%TF.SameCoordinates,Original*%
%TF.FileFunction,Copper,L1,Top*%
%TF.FilePolarity,Positive*%
%FSLAX46Y46*%
G04 Gerber Fmt 4.6, Leading zero omitted, Abs format (unit mm)*
G04 Created by KiCad (PCBNEW (6.0.5-0)) date 2022-06-17 15:09:35*
%MOMM*%
%LPD*%
G01*
G04 APERTURE LIST*
%TA.AperFunction,NonConductor*%
%ADD10C,0.200000*%
%TD*%
%TA.AperFunction,ComponentPad*%
%ADD11R,3.000000X3.000000*%
%TD*%
%TA.AperFunction,ComponentPad*%
%ADD12C,3.000000*%
%TD*%
%TA.AperFunction,ComponentPad*%
%ADD13R,1.560000X1.560000*%
%TD*%
%TA.AperFunction,ComponentPad*%
%ADD14C,1.560000*%
%TD*%
%TA.AperFunction,ComponentPad*%
%ADD15R,1.600000X1.600000*%
%TD*%
%TA.AperFunction,ComponentPad*%
%ADD16O,1.600000X1.600000*%
%TD*%
%TA.AperFunction,ComponentPad*%
%ADD17C,1.524000*%
%TD*%
%TA.AperFunction,ComponentPad*%
%ADD18R,2.000000X1.905000*%
%TD*%
%TA.AperFunction,ComponentPad*%
%ADD19O,2.000000X1.905000*%
%TD*%
%TA.AperFunction,ComponentPad*%
%ADD20C,1.600000*%
%TD*%
%TA.AperFunction,ViaPad*%
%ADD21C,3.000000*%
%TD*%
%TA.AperFunction,Conductor*%
%ADD22C,0.250000*%
%TD*%
G04 APERTURE END LIST*
D10*
X167640000Y-116840000D02*
X167640000Y-119380000D01*
D11*
%TO.P,J3,1,Pin_1*%
%TO.N,DIR*%
X182880000Y-127000000D03*
D12*
%TO.P,J3,2,Pin_2*%
%TO.N,GND*%
X182880000Y-121920000D03*
%TD*%
D13*
%TO.P,RV1,1,1*%
%TO.N,+5V*%
X127000000Y-106680000D03*
D14*
%TO.P,RV1,2,2*%
%TO.N,Net-(U1-Pad5)*%
X129500000Y-111680000D03*
%TO.P,RV1,3,3*%
%TO.N,GND*%
X132000000Y-106680000D03*
%TD*%
D11*
%TO.P,J5,1,Pin_1*%
%TO.N,+5V*%
X172720000Y-88900000D03*
D12*
%TO.P,J5,2,Pin_2*%
%TO.N,ENABLE*%
X177800000Y-88900000D03*
%TO.P,J5,3,Pin_3*%
%TO.N,GND*%
X182880000Y-88900000D03*
%TD*%
D15*
%TO.P,SW1,1,A*%
%TO.N,MOSFET_GND*%
X176540000Y-101600000D03*
D16*
%TO.P,SW1,2,B*%
%TO.N,Variable Ground*%
X184160000Y-101600000D03*
%TD*%
D11*
%TO.P,J1,1,Pin_1*%
%TO.N,VCC*%
X139700000Y-129540000D03*
D12*
%TO.P,J1,2,Pin_2*%
%TO.N,Variable Ground*%
X134620000Y-129540000D03*
%TD*%
D17*
%TO.P,U2,1,IN+*%
%TO.N,VCC*%
X121920000Y-91440000D03*
X121920000Y-88900000D03*
%TO.P,U2,2,IN-*%
%TO.N,GND*%
X121920000Y-99060000D03*
X121920000Y-96520000D03*
%TO.P,U2,3,5v*%
%TO.N,+5V*%
X139700000Y-88900000D03*
X139700000Y-91440000D03*
%TO.P,U2,4,5v-*%
%TO.N,GND*%
X139700000Y-99060000D03*
X139700000Y-96520000D03*
%TD*%
D18*
%TO.P,Q1,1,G*%
%TO.N,Net-(Q1-Pad1)*%
X132080000Y-121920000D03*
D19*
%TO.P,Q1,2,D*%
%TO.N,MOSFET_GND*%
X132080000Y-119380000D03*
%TO.P,Q1,3,S*%
%TO.N,GND*%
X132080000Y-116840000D03*
%TD*%
D17*
%TO.P,U1,1,A0*%
%TO.N,unconnected-(U1-Pad1)*%
X149860000Y-88900000D03*
%TO.P,U1,2,RES0*%
%TO.N,unconnected-(U1-Pad2)*%
X149860000Y-91440000D03*
%TO.P,U1,3,RES1*%
%TO.N,unconnected-(U1-Pad3)*%
X149860000Y-93980000D03*
%TO.P,U1,4,SD3*%
%TO.N,unconnected-(U1-Pad4)*%
X149860000Y-96520000D03*
%TO.P,U1,5,SD2*%
%TO.N,Net-(U1-Pad5)*%
X149860000Y-99060000D03*
%TO.P,U1,6,SD1*%
%TO.N,unconnected-(U1-Pad6)*%
X149860000Y-101600000D03*
%TO.P,U1,7,CMD*%
%TO.N,unconnected-(U1-Pad7)*%
X149860000Y-104140000D03*
%TO.P,U1,8,SD0*%
%TO.N,unconnected-(U1-Pad8)*%
X149860000Y-106680000D03*
%TO.P,U1,9,CLK*%
%TO.N,unconnected-(U1-Pad9)*%
X149860000Y-109220000D03*
%TO.P,U1,10,GND0*%
%TO.N,GND*%
X149860000Y-111760000D03*
%TO.P,U1,11,3V3_1*%
%TO.N,unconnected-(U1-Pad11)*%
X149860000Y-114300000D03*
%TO.P,U1,12,EN*%
%TO.N,unconnected-(U1-Pad12)*%
X149860000Y-116840000D03*
%TO.P,U1,13,RST*%
%TO.N,unconnected-(U1-Pad13)*%
X149860000Y-119380000D03*
%TO.P,U1,14,GND1*%
%TO.N,unconnected-(U1-Pad14)*%
X149860000Y-121920000D03*
%TO.P,U1,15,VIN*%
%TO.N,+5V*%
X149860000Y-124460000D03*
%TO.P,U1,16,D0*%
%TO.N,unconnected-(U1-Pad16)*%
X162560000Y-88900000D03*
%TO.P,U1,17,D1*%
%TO.N,unconnected-(U1-Pad17)*%
X162560000Y-91440000D03*
%TO.P,U1,18,D2*%
%TO.N,ENABLE*%
X162560000Y-93980000D03*
%TO.P,U1,19,D3*%
%TO.N,unconnected-(U1-Pad19)*%
X162560000Y-96520000D03*
%TO.P,U1,20,D4*%
%TO.N,unconnected-(U1-Pad20)*%
X162560000Y-99060000D03*
%TO.P,U1,21,3V3_2*%
%TO.N,unconnected-(U1-Pad21)*%
X162560000Y-101600000D03*
%TO.P,U1,22,GND2*%
%TO.N,GND*%
X162560000Y-104140000D03*
%TO.P,U1,23,D5*%
%TO.N,unconnected-(U1-Pad23)*%
X162560000Y-106680000D03*
%TO.P,U1,24,D6*%
%TO.N,PUL*%
X162560000Y-109220000D03*
%TO.P,U1,25,D7*%
%TO.N,DIR*%
X162560000Y-111760000D03*
%TO.P,U1,26,D8*%
%TO.N,unconnected-(U1-Pad26)*%
X162560000Y-114300000D03*
%TO.P,U1,27,RX*%
%TO.N,unconnected-(U1-Pad27)*%
X162560000Y-116840000D03*
%TO.P,U1,28,TX*%
%TO.N,unconnected-(U1-Pad28)*%
X162560000Y-119380000D03*
%TO.P,U1,29,GND3*%
%TO.N,GND*%
X162560000Y-121920000D03*
%TO.P,U1,30,3v3_3*%
%TO.N,unconnected-(U1-Pad30)*%
X162560000Y-124460000D03*
%TD*%
D11*
%TO.P,J4,1,Pin_1*%
%TO.N,PUL*%
X182880000Y-114300000D03*
D12*
%TO.P,J4,2,Pin_2*%
%TO.N,GND*%
X182880000Y-109220000D03*
%TD*%
D11*
%TO.P,J2,1,Pin_1*%
%TO.N,VCC*%
X127000000Y-129540000D03*
D12*
%TO.P,J2,2,Pin_2*%
%TO.N,GND*%
X121920000Y-129540000D03*
%TD*%
D20*
%TO.P,R1,1*%
%TO.N,ENABLE*%
X172720000Y-111760000D03*
D16*
%TO.P,R1,2*%
%TO.N,Net-(Q1-Pad1)*%
X172720000Y-116840000D03*
%TD*%
D21*
%TO.N,*%
X119380000Y-109220000D03*
X187960000Y-132080000D03*
X187960000Y-88900000D03*
%TD*%
D22*
%TO.N,VCC*%
X128874511Y-131414511D02*
X137825489Y-131414511D01*
X121920000Y-88900000D02*
X121920000Y-91440000D01*
X124460000Y-127000000D02*
X127000000Y-129540000D01*
X124460000Y-93980000D02*
X124460000Y-127000000D01*
X127000000Y-129540000D02*
X128874511Y-131414511D01*
X137825489Y-131414511D02*
X139700000Y-129540000D01*
X121920000Y-91440000D02*
X124460000Y-93980000D01*
%TO.N,GND*%
X149860000Y-111760000D02*
X152400000Y-111760000D01*
X152400000Y-111760000D02*
X162560000Y-121920000D01*
X139700000Y-99060000D02*
X139700000Y-101600000D01*
X132000000Y-116760000D02*
X132080000Y-116840000D01*
X182880000Y-88900000D02*
X182880000Y-109220000D01*
X139700000Y-101600000D02*
X149860000Y-111760000D01*
%TO.N,DIR*%
X163637630Y-111760000D02*
X178877630Y-127000000D01*
X178877630Y-127000000D02*
X182880000Y-127000000D01*
X162560000Y-111760000D02*
X163637630Y-111760000D01*
%TO.N,+5V*%
X139700000Y-93980000D02*
X127000000Y-106680000D01*
X171583489Y-90036511D02*
X172720000Y-88900000D01*
X139700000Y-88900000D02*
X140836511Y-90036511D01*
X127000000Y-106680000D02*
X144780000Y-124460000D01*
X140836511Y-90036511D02*
X171583489Y-90036511D01*
X144780000Y-124460000D02*
X149860000Y-124460000D01*
X139700000Y-88900000D02*
X139700000Y-91440000D01*
X139700000Y-91440000D02*
X139700000Y-93980000D01*
%TO.N,ENABLE*%
X172720000Y-104140000D02*
X172720000Y-111760000D01*
X162560000Y-93980000D02*
X172720000Y-104140000D01*
X172720000Y-93980000D02*
X177800000Y-88900000D01*
X162560000Y-93980000D02*
X172720000Y-93980000D01*
%TO.N,PUL*%
X167640000Y-114300000D02*
X182880000Y-114300000D01*
X162560000Y-109220000D02*
X167640000Y-114300000D01*
%TD*%
M02*
